%
M48
M72
T01C0.0236
T02C0.0276
T03C0.0315
T04C0.0320
T05C0.0354
T06C0.0400
T07C0.0472
T08C0.1300
%
T01
X1657Y1661
X18157Y7661
X19657Y8411
X32657Y9661
X38657Y1661
X30157Y19661
X26657Y24661
X25017Y24541
X21107Y27111
X19457Y27161
X8657Y28711
X7657Y29661
X1657Y32161
X38657Y32161
T02
X31657Y31411
X27657Y31411
X29157Y27161
X32457Y25461
X29157Y23161
X29157Y22161
X29157Y18161
X30157Y12661
X31157Y12661
X33657Y10161
X30657Y7661
X26657Y7661
X25657Y7661
X21657Y7661
X16657Y7161
X12157Y7161
X10657Y7161
X10657Y3161
X12157Y3161
X16657Y3161
X5157Y3161
X5157Y7161
X3157Y26161
X3157Y30161
X9907Y28661
X13907Y28661
X37657Y10161
T03
X34857Y17161
X31988Y17448
X31988Y18236
X31988Y19023
X31988Y19810
X31988Y20598
X31988Y21385
X31988Y22173
X31988Y22960
X31988Y23747
X31988Y24535
X23327Y24535
X23327Y23747
X23327Y22960
X23327Y22173
X23327Y21385
X23327Y20598
X23327Y19810
X23327Y19023
X23327Y18236
X23327Y17448
X24157Y5161
X26157Y5161
X22157Y3161
X20657Y5211
X19657Y5211
X18657Y5211
X6657Y27161
X4657Y27161
X5657Y29161
T04
X8657Y26561
X8657Y25561
X10907Y24411
X11907Y24411
X12907Y24411
X13907Y24411
X14907Y24411
X15907Y24411
X16907Y24411
X17907Y24411
X17907Y27411
X16907Y27411
X15907Y27411
X14907Y27411
X13907Y27411
X12907Y27411
X11907Y27411
X10907Y27411
X2157Y30161
X1157Y30161
X30157Y14661
X31157Y14661
X33657Y14661
X33657Y15661
X33657Y16661
X33657Y17661
X33657Y18661
X33657Y19911
X33657Y21161
X33657Y22161
X33657Y23161
X33657Y24161
X33657Y25161
X33657Y26161
X33657Y27161
X36657Y27161
X36657Y26161
X36657Y25161
X36657Y24161
X36657Y23161
X36657Y22161
X36657Y21161
X37657Y19911
X36657Y18661
X36657Y17661
X36657Y16661
X36657Y15661
X36657Y14661
X36657Y13661
X36657Y12661
X37657Y11411
X33657Y11411
X33657Y12661
X33657Y13661
X34657Y7161
X34657Y6161
X30657Y6161
X30657Y5161
X30657Y4161
T05
X30657Y10661
X31657Y10661
X29657Y10661
X28657Y10661
X27657Y10661
X26657Y10661
X24657Y10661
X23657Y10661
X22657Y10661
X21657Y10661
X20657Y10661
X19657Y10661
X19657Y12161
X18657Y12161
X17657Y12161
X16657Y12161
X15657Y12161
X14657Y12161
X13657Y12161
X12657Y12161
X11657Y12161
X10657Y12161
X9657Y12161
X8657Y12161
X7657Y12161
X6657Y12161
X5657Y12161
X4657Y12161
X3657Y12161
X2657Y12161
X1657Y12161
X1657Y13161
X2657Y13161
X2657Y14161
X1657Y14161
X1657Y15161
X2657Y15161
X2657Y16161
X1657Y16161
X1657Y17161
X2657Y17161
X2657Y18161
X1657Y18161
X1657Y19161
X2657Y19161
X2657Y20161
X1657Y20161
X1657Y21161
X2657Y21161
X2657Y22161
X1657Y22161
X1657Y23161
X2657Y23161
X2657Y24161
X1657Y24161
X1657Y25161
X2657Y25161
X3657Y25161
X4657Y25161
X4657Y24161
X3657Y24161
X3657Y23161
X4657Y23161
X4657Y22161
X3657Y22161
X3657Y21161
X4657Y21161
X4657Y20161
X3657Y20161
X3657Y19161
X4657Y19161
X4657Y18161
X3657Y18161
X3657Y17161
X4657Y17161
X4657Y16161
X3657Y16161
X3657Y15161
X4657Y15161
X4657Y14161
X3657Y14161
X3657Y13161
X4657Y13161
X5657Y13161
X6657Y13161
X7657Y13161
X7657Y14161
X6657Y14161
X5657Y14161
X5657Y15161
X6657Y15161
X7657Y15161
X7657Y16161
X6657Y16161
X5657Y16161
X5657Y17161
X6657Y17161
X7657Y17161
X7657Y18161
X6657Y18161
X5657Y18161
X5657Y19161
X6657Y19161
X7657Y19161
X7657Y20161
X6657Y20161
X5657Y20161
X5657Y21161
X6657Y21161
X7657Y21161
X7657Y22161
X6657Y22161
X5657Y22161
X5657Y23161
X6657Y23161
X7657Y23161
X7657Y24161
X6657Y24161
X5657Y24161
X5657Y25161
X6657Y25161
X7657Y25161
X8657Y24161
X9657Y24161
X9657Y25161
X9657Y23161
X8657Y23161
X8657Y22161
X9657Y22161
X9657Y21161
X8657Y21161
X8657Y20161
X9657Y20161
X9657Y19161
X8657Y19161
X8657Y18161
X9657Y18161
X9657Y17161
X8657Y17161
X8657Y16161
X9657Y16161
X9657Y15161
X8657Y15161
X8657Y14161
X9657Y14161
X9657Y13161
X8657Y13161
X10657Y13161
X11657Y13161
X11657Y14161
X10657Y14161
X10657Y15161
X11657Y15161
X11657Y16161
X10657Y16161
X10657Y17161
X11657Y17161
X11657Y18161
X10657Y18161
X10657Y19161
X11657Y19161
X11657Y20161
X10657Y20161
X10657Y21161
X11657Y21161
X11657Y22161
X10657Y22161
X12657Y22161
X13657Y22161
X13657Y21161
X12657Y21161
X12657Y20161
X13657Y20161
X13657Y19161
X12657Y19161
X12657Y18161
X13657Y18161
X13657Y17161
X12657Y17161
X12657Y16161
X13657Y16161
X13657Y15161
X12657Y15161
X12657Y14161
X13657Y14161
X13657Y13161
X12657Y13161
X14657Y13161
X15657Y13161
X15657Y14161
X14657Y14161
X14657Y15161
X15657Y15161
X15657Y16161
X14657Y16161
X14657Y17161
X15657Y17161
X15657Y18161
X14657Y18161
X14657Y19161
X15657Y19161
X15657Y20161
X14657Y20161
X14657Y21161
X15657Y21161
X15657Y22161
X14657Y22161
X16657Y22161
X17657Y22161
X17657Y21161
X16657Y21161
X16657Y20161
X17657Y20161
X17657Y19161
X16657Y19161
X16657Y18161
X17657Y18161
X17657Y17161
X16657Y17161
X16657Y16161
X17657Y16161
X17657Y15161
X16657Y15161
X16657Y14161
X17657Y14161
X17657Y13161
X16657Y13161
X18657Y13161
X19657Y13161
X19657Y14161
X18657Y14161
X18657Y15161
X19657Y15161
X19657Y16161
X18657Y16161
X18657Y17161
X19657Y17161
X19657Y18161
X18657Y18161
X18657Y19161
X19657Y19161
X19657Y20161
X18657Y20161
X18657Y21161
X19657Y21161
X19657Y22161
X18657Y22161
X20657Y22161
X20657Y21161
X20657Y20161
X20657Y19161
X20657Y18161
X20657Y17161
X20657Y16161
X20657Y15161
X20657Y14161
X20657Y13161
X20657Y12161
X20907Y29661
X19907Y29661
X18907Y29661
X17907Y29661
X16907Y29661
X15907Y29661
X21907Y29661
X22907Y29661
X24657Y29661
X25657Y29661
X26657Y29661
X27657Y29661
X28657Y29661
X29657Y29661
X30657Y29661
X31657Y29661
T06
X27157Y21661
X26157Y21661
X25157Y21661
X18657Y31661
X17657Y31661
X16657Y31661
X15657Y31661
X14657Y31661
X13657Y31661
X12657Y31661
X11657Y31661
X10657Y31661
X9657Y31661
X8657Y31661
X7657Y31661
X6657Y31661
X5657Y31661
X4657Y31661
X3657Y31661
X3657Y9911
X4657Y9911
X5657Y9911
X6657Y9911
X7657Y9911
X8657Y9911
X9657Y9911
X10657Y9911
X11657Y9911
X12657Y9911
X13657Y9911
X14657Y9911
X15657Y9911
X16657Y9911
X17657Y9911
X18657Y9911
X15047Y6441
X13267Y6441
X13267Y3881
X15047Y3881
X9047Y3881
X7267Y3881
X7267Y6441
X9047Y6441
X3047Y6441
X1267Y6441
X1267Y3881
X3047Y3881
X34377Y4551
X34377Y2771
X36937Y2771
X36937Y4551
T07
X36657Y29661
X35657Y29661
X34657Y29661
X33657Y29661
X37657Y29661
X38657Y29661
T08
X26157Y15761
M30
