G75*
G70*
%OFA0B0*%
%FSLAX24Y24*%
%IPPOS*%
%LPD*%
%AMOC8*
5,1,8,0,0,1.08239X$1,22.5*
%
%ADD10C,0.0000*%
%ADD11C,0.0060*%
%ADD12C,0.0554*%
%ADD13C,0.0520*%
%ADD14C,0.0787*%
%ADD15OC8,0.0551*%
%ADD16OC8,0.0520*%
%ADD17C,0.0709*%
%ADD18C,0.0600*%
%ADD19C,0.0551*%
%ADD20C,0.0515*%
%ADD21C,0.0560*%
%ADD22C,0.0400*%
%ADD23C,0.0240*%
%ADD24C,0.0700*%
%ADD25C,0.0500*%
%ADD26C,0.0461*%
%ADD27C,0.0760*%
%ADD28C,0.0660*%
%ADD29C,0.0160*%
%ADD30C,0.0860*%
D10*
X001367Y000221D02*
X001367Y033721D01*
X041367Y033721D01*
X041367Y000221D01*
X001367Y000221D01*
X026717Y015821D02*
X026719Y015871D01*
X026725Y015921D01*
X026735Y015971D01*
X026748Y016019D01*
X026765Y016067D01*
X026786Y016113D01*
X026810Y016157D01*
X026838Y016199D01*
X026869Y016239D01*
X026903Y016276D01*
X026940Y016311D01*
X026979Y016342D01*
X027020Y016371D01*
X027064Y016396D01*
X027110Y016418D01*
X027157Y016436D01*
X027205Y016450D01*
X027254Y016461D01*
X027304Y016468D01*
X027354Y016471D01*
X027405Y016470D01*
X027455Y016465D01*
X027505Y016456D01*
X027553Y016444D01*
X027601Y016427D01*
X027647Y016407D01*
X027692Y016384D01*
X027735Y016357D01*
X027775Y016327D01*
X027813Y016294D01*
X027848Y016258D01*
X027881Y016219D01*
X027910Y016178D01*
X027936Y016135D01*
X027959Y016090D01*
X027978Y016043D01*
X027993Y015995D01*
X028005Y015946D01*
X028013Y015896D01*
X028017Y015846D01*
X028017Y015796D01*
X028013Y015746D01*
X028005Y015696D01*
X027993Y015647D01*
X027978Y015599D01*
X027959Y015552D01*
X027936Y015507D01*
X027910Y015464D01*
X027881Y015423D01*
X027848Y015384D01*
X027813Y015348D01*
X027775Y015315D01*
X027735Y015285D01*
X027692Y015258D01*
X027647Y015235D01*
X027601Y015215D01*
X027553Y015198D01*
X027505Y015186D01*
X027455Y015177D01*
X027405Y015172D01*
X027354Y015171D01*
X027304Y015174D01*
X027254Y015181D01*
X027205Y015192D01*
X027157Y015206D01*
X027110Y015224D01*
X027064Y015246D01*
X027020Y015271D01*
X026979Y015300D01*
X026940Y015331D01*
X026903Y015366D01*
X026869Y015403D01*
X026838Y015443D01*
X026810Y015485D01*
X026786Y015529D01*
X026765Y015575D01*
X026748Y015623D01*
X026735Y015671D01*
X026725Y015721D01*
X026719Y015771D01*
X026717Y015821D01*
D11*
X022686Y032001D02*
X022686Y032642D01*
X023006Y032642D01*
X023113Y032535D01*
X023113Y032321D01*
X023006Y032215D01*
X022686Y032215D01*
X022468Y032108D02*
X022468Y032535D01*
X022362Y032642D01*
X022148Y032642D01*
X022041Y032535D01*
X022041Y032108D01*
X022148Y032001D01*
X022362Y032001D01*
X022468Y032108D01*
X021824Y032642D02*
X021397Y032642D01*
X021610Y032642D02*
X021610Y032001D01*
D12*
X021117Y029998D02*
X021117Y029444D01*
X020117Y029444D02*
X020117Y029998D01*
X019117Y029998D02*
X019117Y029444D01*
X018117Y029444D02*
X018117Y029998D01*
X017117Y029998D02*
X017117Y029444D01*
X022117Y029444D02*
X022117Y029998D01*
X023117Y029998D02*
X023117Y029444D01*
X024117Y029444D02*
X024117Y029998D01*
X025867Y029998D02*
X025867Y029444D01*
X026867Y029444D02*
X026867Y029998D01*
X027867Y029998D02*
X027867Y029444D01*
X028867Y029444D02*
X028867Y029998D01*
X029867Y029998D02*
X029867Y029444D01*
X030867Y029444D02*
X030867Y029998D01*
X031867Y029998D02*
X031867Y029444D01*
X032867Y029444D02*
X032867Y029998D01*
X032867Y010998D02*
X032867Y010444D01*
X031867Y010444D02*
X031867Y010998D01*
X030867Y010998D02*
X030867Y010444D01*
X029867Y010444D02*
X029867Y010998D01*
X028867Y010998D02*
X028867Y010444D01*
X027867Y010444D02*
X027867Y010998D01*
X025867Y010998D02*
X025867Y010444D01*
X024867Y010444D02*
X024867Y010998D01*
X023867Y010998D02*
X023867Y010444D01*
X022867Y010444D02*
X022867Y010998D01*
X021867Y010998D02*
X021867Y010444D01*
X020867Y010444D02*
X020867Y010998D01*
D13*
X031607Y006221D02*
X032127Y006221D01*
X032127Y005221D02*
X031607Y005221D01*
X031607Y004221D02*
X032127Y004221D01*
X034607Y011471D02*
X035127Y011471D01*
X035127Y012721D02*
X034607Y012721D01*
X034607Y013721D02*
X035127Y013721D01*
X035127Y014721D02*
X034607Y014721D01*
X034607Y015721D02*
X035127Y015721D01*
X035127Y016721D02*
X034607Y016721D01*
X034607Y017721D02*
X035127Y017721D01*
X035127Y018721D02*
X034607Y018721D01*
X034607Y019971D02*
X035127Y019971D01*
X035127Y021221D02*
X034607Y021221D01*
X034607Y022221D02*
X035127Y022221D01*
X035127Y023221D02*
X034607Y023221D01*
X034607Y024221D02*
X035127Y024221D01*
X035127Y025221D02*
X034607Y025221D01*
X034607Y026221D02*
X035127Y026221D01*
X035127Y027221D02*
X034607Y027221D01*
X037607Y027221D02*
X038127Y027221D01*
X038127Y026221D02*
X037607Y026221D01*
X037607Y025221D02*
X038127Y025221D01*
X038127Y024221D02*
X037607Y024221D01*
X037607Y023221D02*
X038127Y023221D01*
X038127Y022221D02*
X037607Y022221D01*
X037607Y021221D02*
X038127Y021221D01*
X038607Y019971D02*
X039127Y019971D01*
X038127Y018721D02*
X037607Y018721D01*
X037607Y017721D02*
X038127Y017721D01*
X038127Y016721D02*
X037607Y016721D01*
X037607Y015721D02*
X038127Y015721D01*
X038127Y014721D02*
X037607Y014721D01*
X037607Y013721D02*
X038127Y013721D01*
X038127Y012721D02*
X037607Y012721D01*
X038607Y011471D02*
X039127Y011471D01*
X019117Y024211D02*
X019117Y024731D01*
X018117Y024731D02*
X018117Y024211D01*
X017117Y024211D02*
X017117Y024731D01*
X016117Y024731D02*
X016117Y024211D01*
X015117Y024211D02*
X015117Y024731D01*
X014117Y024731D02*
X014117Y024211D01*
X013117Y024211D02*
X013117Y024731D01*
X012117Y024731D02*
X012117Y024211D01*
X012117Y027211D02*
X012117Y027731D01*
X013117Y027731D02*
X013117Y027211D01*
X014117Y027211D02*
X014117Y027731D01*
X015117Y027731D02*
X015117Y027211D01*
X016117Y027211D02*
X016117Y027731D01*
X017117Y027731D02*
X017117Y027211D01*
X018117Y027211D02*
X018117Y027731D01*
X019117Y027731D02*
X019117Y027211D01*
D14*
X025367Y005221D03*
X027367Y005221D03*
D15*
X027867Y007721D03*
X026867Y007721D03*
X022867Y007721D03*
X017867Y007221D03*
X013367Y007221D03*
X011867Y007221D03*
X011867Y003221D03*
X013367Y003221D03*
X017867Y003221D03*
X006367Y003221D03*
X006367Y007221D03*
X004367Y026221D03*
X004367Y030221D03*
X011117Y028721D03*
X015117Y028721D03*
X028867Y031471D03*
X032867Y031471D03*
X030367Y027221D03*
X030367Y023221D03*
X030367Y022221D03*
X030367Y018221D03*
X030867Y014721D03*
X031867Y014721D03*
X032867Y014721D03*
X032367Y012721D03*
X034867Y010221D03*
X031867Y007721D03*
X038867Y010221D03*
D16*
X035867Y007221D03*
X035867Y006221D03*
X003367Y030221D03*
X002367Y030221D03*
D17*
X004867Y031367D02*
X004867Y032076D01*
X005867Y032076D02*
X005867Y031367D01*
X006867Y031367D02*
X006867Y032076D01*
X007867Y032076D02*
X007867Y031367D01*
X008867Y031367D02*
X008867Y032076D01*
X009867Y032076D02*
X009867Y031367D01*
X010867Y031367D02*
X010867Y032076D01*
X011867Y032076D02*
X011867Y031367D01*
X012867Y031367D02*
X012867Y032076D01*
X013867Y032076D02*
X013867Y031367D01*
X014867Y031367D02*
X014867Y032076D01*
X015867Y032076D02*
X015867Y031367D01*
X016867Y031367D02*
X016867Y032076D01*
X017867Y032076D02*
X017867Y031367D01*
X018867Y031367D02*
X018867Y032076D01*
X019867Y032076D02*
X019867Y031367D01*
X007867Y027576D02*
X007867Y026867D01*
X005867Y026867D02*
X005867Y027576D01*
X006867Y028867D02*
X006867Y029576D01*
X006867Y010326D02*
X006867Y009617D01*
X007867Y009617D02*
X007867Y010326D01*
X008867Y010326D02*
X008867Y009617D01*
X009867Y009617D02*
X009867Y010326D01*
X010867Y010326D02*
X010867Y009617D01*
X011867Y009617D02*
X011867Y010326D01*
X012867Y010326D02*
X012867Y009617D01*
X013867Y009617D02*
X013867Y010326D01*
X014867Y010326D02*
X014867Y009617D01*
X015867Y009617D02*
X015867Y010326D01*
X016867Y010326D02*
X016867Y009617D01*
X017867Y009617D02*
X017867Y010326D01*
X018867Y010326D02*
X018867Y009617D01*
X019867Y009617D02*
X019867Y010326D01*
X019867Y005626D02*
X019867Y004917D01*
X020867Y004917D02*
X020867Y005626D01*
X021867Y005626D02*
X021867Y004917D01*
X005867Y009617D02*
X005867Y010326D01*
X004867Y010326D02*
X004867Y009617D01*
X034867Y029367D02*
X034867Y030076D01*
X035867Y030076D02*
X035867Y029367D01*
X036867Y029367D02*
X036867Y030076D01*
X037867Y030076D02*
X037867Y029367D01*
X038867Y029367D02*
X038867Y030076D01*
X039867Y030076D02*
X039867Y029367D01*
D18*
X028367Y022021D02*
X028367Y021421D01*
X027367Y021421D02*
X027367Y022021D01*
X026367Y022021D02*
X026367Y021421D01*
X016257Y006801D02*
X016257Y006201D01*
X014477Y006201D02*
X014477Y006801D01*
X014477Y004241D02*
X014477Y003641D01*
X016257Y003641D02*
X016257Y004241D01*
X010257Y004241D02*
X010257Y003641D01*
X008477Y003641D02*
X008477Y004241D01*
X008477Y006201D02*
X008477Y006801D01*
X010257Y006801D02*
X010257Y006201D01*
X004257Y006201D02*
X004257Y006801D01*
X002477Y006801D02*
X002477Y006201D01*
X002477Y004241D02*
X002477Y003641D01*
X004257Y003641D02*
X004257Y004241D01*
X035287Y004611D02*
X035887Y004611D01*
X037847Y004611D02*
X038447Y004611D01*
X038447Y002831D02*
X037847Y002831D01*
X035887Y002831D02*
X035287Y002831D01*
D19*
X031367Y012721D03*
D20*
X032940Y017509D02*
X033455Y017509D01*
X033455Y018296D02*
X032940Y018296D01*
X032940Y019083D02*
X033455Y019083D01*
X033455Y019871D02*
X032940Y019871D01*
X032940Y020658D02*
X033455Y020658D01*
X033455Y021446D02*
X032940Y021446D01*
X032940Y022233D02*
X033455Y022233D01*
X033455Y023020D02*
X032940Y023020D01*
X032940Y023808D02*
X033455Y023808D01*
X033455Y024595D02*
X032940Y024595D01*
X024794Y024595D02*
X024279Y024595D01*
X024279Y023808D02*
X024794Y023808D01*
X024794Y023020D02*
X024279Y023020D01*
X024279Y022233D02*
X024794Y022233D01*
X024794Y021446D02*
X024279Y021446D01*
X024279Y020658D02*
X024794Y020658D01*
X024794Y019871D02*
X024279Y019871D01*
X024279Y019083D02*
X024794Y019083D01*
X024794Y018296D02*
X024279Y018296D01*
X024279Y017509D02*
X024794Y017509D01*
D21*
X026243Y024595D03*
X026247Y024601D03*
X027867Y024721D03*
X022317Y027171D03*
X020367Y027471D03*
X020367Y027471D03*
X010117Y026221D03*
X010117Y028721D03*
X008867Y029721D03*
X033667Y025521D03*
X036067Y017221D03*
X036067Y017221D03*
D22*
X036067Y019421D01*
X036617Y019971D01*
X036617Y020071D01*
X036067Y020621D01*
X036067Y025771D01*
X035617Y026221D01*
X034867Y026221D01*
X033667Y025521D02*
X033167Y026021D01*
X029067Y026021D01*
X026867Y028221D01*
X026867Y029721D01*
X027867Y029721D02*
X027867Y030721D01*
X027367Y031221D01*
X025517Y031221D01*
X025017Y030721D01*
X025017Y026871D01*
X023367Y025221D01*
X023367Y015221D01*
X026867Y011721D01*
X026867Y007721D01*
X027867Y007721D02*
X027867Y010721D01*
X028867Y010721D02*
X028867Y004221D01*
X027867Y003221D01*
X023367Y003221D01*
X020617Y002221D02*
X017867Y004971D01*
X017867Y007221D01*
X019367Y007721D02*
X022867Y007721D01*
X022867Y010721D01*
X020867Y010721D02*
X020867Y008471D01*
X021867Y012221D02*
X002867Y012221D01*
X005867Y025221D02*
X005867Y027221D01*
X010117Y026221D02*
X010117Y028721D01*
X017117Y027471D02*
X017117Y026721D01*
X017617Y026221D01*
X021367Y026221D01*
X022317Y027171D01*
X025867Y028021D02*
X028917Y024971D01*
X031367Y024971D01*
X029367Y023221D02*
X029367Y020721D01*
X029867Y020221D01*
X030867Y020221D01*
X031367Y019721D01*
X029367Y020721D02*
X028867Y020221D01*
X026867Y020221D01*
X026367Y020721D01*
X026367Y021721D01*
X027367Y021721D02*
X027367Y023471D01*
X026243Y024595D01*
X027867Y024721D02*
X029367Y023221D01*
X025867Y028021D02*
X025867Y029721D01*
X036617Y019971D02*
X038867Y019971D01*
X032867Y014721D02*
X031867Y014721D01*
X032867Y014721D02*
X032867Y013721D01*
X033867Y012721D01*
X033867Y009721D01*
X029867Y010721D02*
X029867Y003721D01*
X028367Y002221D01*
X020617Y002221D01*
D23*
X033767Y014221D02*
X034267Y013721D01*
X034867Y013721D01*
X033767Y014221D02*
X033767Y015321D01*
X032167Y016921D01*
X032167Y024171D01*
X031367Y024971D01*
X020367Y027471D02*
X019117Y028721D01*
X018367Y028721D01*
X018117Y028471D01*
X018117Y027471D01*
X018117Y028471D02*
X017867Y028721D01*
X015117Y028721D01*
X014117Y028221D02*
X012617Y029721D01*
X008867Y029721D01*
X014117Y028221D02*
X014117Y027471D01*
D24*
X010867Y025221D03*
X010867Y024221D03*
X010867Y023221D03*
X010867Y022221D03*
X011867Y022221D03*
X012867Y022221D03*
X012867Y021221D03*
X011867Y021221D03*
X010867Y021221D03*
X010867Y020221D03*
X011867Y020221D03*
X012867Y020221D03*
X012867Y019221D03*
X011867Y019221D03*
X010867Y019221D03*
X010867Y018221D03*
X011867Y018221D03*
X012867Y018221D03*
X012867Y017221D03*
X011867Y017221D03*
X010867Y017221D03*
X010867Y016221D03*
X011867Y016221D03*
X012867Y016221D03*
X012867Y015221D03*
X011867Y015221D03*
X010867Y015221D03*
X010867Y014221D03*
X011867Y014221D03*
X012867Y014221D03*
X012867Y013221D03*
X012867Y012221D03*
X011867Y012221D03*
X010867Y012221D03*
X010867Y013221D03*
X011867Y013221D03*
X013867Y013221D03*
X013867Y012221D03*
X014867Y012221D03*
X014867Y013221D03*
X015867Y013221D03*
X015867Y012221D03*
X016867Y012221D03*
X017867Y012221D03*
X017867Y013221D03*
X016867Y013221D03*
X016867Y014221D03*
X017867Y014221D03*
X018867Y014221D03*
X019867Y014221D03*
X019867Y013221D03*
X019867Y012221D03*
X018867Y012221D03*
X018867Y013221D03*
X020867Y013221D03*
X020867Y012221D03*
X021867Y012221D03*
X021867Y013221D03*
X021867Y014221D03*
X020867Y014221D03*
X020867Y015221D03*
X021867Y015221D03*
X021867Y016221D03*
X020867Y016221D03*
X019867Y016221D03*
X018867Y016221D03*
X018867Y015221D03*
X019867Y015221D03*
X017867Y015221D03*
X016867Y015221D03*
X015867Y015221D03*
X015867Y014221D03*
X014867Y014221D03*
X013867Y014221D03*
X013867Y015221D03*
X014867Y015221D03*
X014867Y016221D03*
X013867Y016221D03*
X013867Y017221D03*
X014867Y017221D03*
X015867Y017221D03*
X016867Y017221D03*
X017867Y017221D03*
X017867Y016221D03*
X016867Y016221D03*
X015867Y016221D03*
X015867Y018221D03*
X016867Y018221D03*
X017867Y018221D03*
X018867Y018221D03*
X019867Y018221D03*
X019867Y017221D03*
X018867Y017221D03*
X020867Y017221D03*
X021867Y017221D03*
X021867Y018221D03*
X020867Y018221D03*
X020867Y019221D03*
X021867Y019221D03*
X021867Y020221D03*
X020867Y020221D03*
X019867Y020221D03*
X018867Y020221D03*
X018867Y019221D03*
X019867Y019221D03*
X017867Y019221D03*
X016867Y019221D03*
X015867Y019221D03*
X014867Y019221D03*
X013867Y019221D03*
X013867Y018221D03*
X014867Y018221D03*
X014867Y020221D03*
X013867Y020221D03*
X013867Y021221D03*
X014867Y021221D03*
X015867Y021221D03*
X016867Y021221D03*
X017867Y021221D03*
X017867Y020221D03*
X016867Y020221D03*
X015867Y020221D03*
X015867Y022221D03*
X016867Y022221D03*
X017867Y022221D03*
X018867Y022221D03*
X019867Y022221D03*
X019867Y021221D03*
X018867Y021221D03*
X020867Y021221D03*
X021867Y021221D03*
X021867Y022221D03*
X020867Y022221D03*
X014867Y022221D03*
X013867Y022221D03*
X009867Y022221D03*
X008867Y022221D03*
X008867Y021221D03*
X009867Y021221D03*
X009867Y020221D03*
X008867Y020221D03*
X008867Y019221D03*
X009867Y019221D03*
X009867Y018221D03*
X008867Y018221D03*
X008867Y017221D03*
X009867Y017221D03*
X009867Y016221D03*
X008867Y016221D03*
X008867Y015221D03*
X009867Y015221D03*
X009867Y014221D03*
X008867Y014221D03*
X008867Y013221D03*
X008867Y012221D03*
X009867Y012221D03*
X009867Y013221D03*
X007867Y013221D03*
X007867Y012221D03*
X006867Y012221D03*
X005867Y012221D03*
X005867Y013221D03*
X006867Y013221D03*
X006867Y014221D03*
X007867Y014221D03*
X007867Y015221D03*
X006867Y015221D03*
X005867Y015221D03*
X005867Y014221D03*
X004867Y014221D03*
X003867Y014221D03*
X003867Y013221D03*
X003867Y012221D03*
X004867Y012221D03*
X004867Y013221D03*
X002867Y013221D03*
X002867Y012221D03*
X002867Y014221D03*
X002867Y015221D03*
X003867Y015221D03*
X004867Y015221D03*
X004867Y016221D03*
X003867Y016221D03*
X002867Y016221D03*
X002867Y017221D03*
X003867Y017221D03*
X004867Y017221D03*
X005867Y017221D03*
X006867Y017221D03*
X007867Y017221D03*
X007867Y016221D03*
X006867Y016221D03*
X005867Y016221D03*
X005867Y018221D03*
X004867Y018221D03*
X003867Y018221D03*
X002867Y018221D03*
X002867Y019221D03*
X003867Y019221D03*
X004867Y019221D03*
X005867Y019221D03*
X006867Y019221D03*
X007867Y019221D03*
X007867Y020221D03*
X006867Y020221D03*
X005867Y020221D03*
X004867Y020221D03*
X003867Y020221D03*
X002867Y020221D03*
X002867Y021221D03*
X003867Y021221D03*
X004867Y021221D03*
X005867Y021221D03*
X006867Y021221D03*
X007867Y021221D03*
X007867Y022221D03*
X006867Y022221D03*
X005867Y022221D03*
X004867Y022221D03*
X003867Y022221D03*
X002867Y022221D03*
X002867Y023221D03*
X003867Y023221D03*
X004867Y023221D03*
X005867Y023221D03*
X006867Y023221D03*
X007867Y023221D03*
X008867Y023221D03*
X009867Y023221D03*
X009867Y024221D03*
X008867Y024221D03*
X007867Y024221D03*
X006867Y024221D03*
X005867Y024221D03*
X004867Y024221D03*
X003867Y024221D03*
X002867Y024221D03*
X002867Y025221D03*
X003867Y025221D03*
X004867Y025221D03*
X005867Y025221D03*
X006867Y025221D03*
X007867Y025221D03*
X008867Y025221D03*
X009867Y025221D03*
D25*
X020867Y008471D03*
X019367Y007721D03*
X023367Y003221D03*
X023367Y003221D03*
X033867Y009721D03*
X031367Y019721D03*
D26*
X021867Y022221D02*
X018867Y022221D01*
X010867Y022221D01*
X010867Y025221D01*
X010867Y024221D01*
X010867Y023221D01*
X010867Y022221D01*
X010867Y025221D02*
X009867Y025221D01*
X008867Y025221D01*
X007867Y025221D01*
X006867Y025221D01*
X005867Y025221D01*
X004867Y025221D01*
X003867Y025221D01*
X002867Y025221D01*
D27*
X006867Y018221D03*
X018867Y022221D03*
D28*
X007867Y018221D03*
D29*
X015117Y026221D02*
X015617Y026221D01*
X016117Y026721D01*
X016117Y027471D01*
X015117Y026221D02*
X014617Y026721D01*
X014617Y028271D01*
X012417Y030471D01*
X006117Y030471D01*
X005867Y030221D01*
X004367Y030221D01*
D30*
X002867Y032221D03*
X002867Y001721D03*
X039867Y001721D03*
X039867Y032221D03*
M02*
