G75*
G70*
%OFA0B0*%
%FSLAX24Y24*%
%IPPOS*%
%LPD*%
%AMOC8*
5,1,8,0,0,1.08239X$1,22.5*
%
%ADD10C,0.0030*%
%ADD11C,0.0040*%
%ADD12C,0.0050*%
%ADD13C,0.0060*%
%ADD14C,0.0080*%
%ADD15C,0.0240*%
%ADD16R,0.0340X0.0240*%
%ADD17R,0.0240X0.0340*%
%ADD18C,0.0100*%
%ADD19R,0.0500X0.0250*%
%ADD20R,0.0200X0.0100*%
%ADD21R,0.0200X0.0200*%
%ADD22C,0.0020*%
%ADD23R,0.0500X0.0350*%
%ADD24R,0.0500X0.0650*%
%ADD25C,0.0070*%
%ADD26R,0.0200X0.0800*%
%ADD27C,0.0200*%
%ADD28R,0.0750X0.0200*%
%ADD29R,0.0200X0.1000*%
%ADD30C,0.0010*%
D10*
X001172Y011237D02*
X001234Y011176D01*
X001357Y011176D01*
X001419Y011237D01*
X001419Y011361D01*
X001296Y011361D01*
X001419Y011484D02*
X001357Y011546D01*
X001234Y011546D01*
X001172Y011484D01*
X001172Y011237D01*
X001541Y011176D02*
X001541Y011546D01*
X001787Y011176D01*
X001787Y011546D01*
X001909Y011546D02*
X002094Y011546D01*
X002156Y011484D01*
X002156Y011237D01*
X002094Y011176D01*
X001909Y011176D01*
X001909Y011546D01*
X004172Y011484D02*
X004172Y011237D01*
X004234Y011176D01*
X004357Y011176D01*
X004419Y011237D01*
X004419Y011361D01*
X004296Y011361D01*
X004419Y011484D02*
X004357Y011546D01*
X004234Y011546D01*
X004172Y011484D01*
X004541Y011546D02*
X004787Y011176D01*
X004787Y011546D01*
X004909Y011546D02*
X004909Y011176D01*
X005094Y011176D01*
X005156Y011237D01*
X005156Y011484D01*
X005094Y011546D01*
X004909Y011546D01*
X004541Y011546D02*
X004541Y011176D01*
X007172Y011237D02*
X007234Y011176D01*
X007357Y011176D01*
X007419Y011237D01*
X007419Y011361D01*
X007296Y011361D01*
X007419Y011484D02*
X007357Y011546D01*
X007234Y011546D01*
X007172Y011484D01*
X007172Y011237D01*
X007541Y011176D02*
X007541Y011546D01*
X007787Y011176D01*
X007787Y011546D01*
X007909Y011546D02*
X008094Y011546D01*
X008156Y011484D01*
X008156Y011237D01*
X008094Y011176D01*
X007909Y011176D01*
X007909Y011546D01*
X010172Y011484D02*
X010172Y011237D01*
X010234Y011176D01*
X010357Y011176D01*
X010419Y011237D01*
X010419Y011361D01*
X010296Y011361D01*
X010419Y011484D02*
X010357Y011546D01*
X010234Y011546D01*
X010172Y011484D01*
X010541Y011546D02*
X010787Y011176D01*
X010787Y011546D01*
X010909Y011546D02*
X010909Y011176D01*
X011094Y011176D01*
X011156Y011237D01*
X011156Y011484D01*
X011094Y011546D01*
X010909Y011546D01*
X010541Y011546D02*
X010541Y011176D01*
X013172Y011237D02*
X013234Y011176D01*
X013357Y011176D01*
X013419Y011237D01*
X013419Y011361D01*
X013296Y011361D01*
X013419Y011484D02*
X013357Y011546D01*
X013234Y011546D01*
X013172Y011484D01*
X013172Y011237D01*
X013541Y011176D02*
X013541Y011546D01*
X013787Y011176D01*
X013787Y011546D01*
X013909Y011546D02*
X014094Y011546D01*
X014156Y011484D01*
X014156Y011237D01*
X014094Y011176D01*
X013909Y011176D01*
X013909Y011546D01*
X016172Y011484D02*
X016172Y011237D01*
X016234Y011176D01*
X016357Y011176D01*
X016419Y011237D01*
X016419Y011361D01*
X016296Y011361D01*
X016419Y011484D02*
X016357Y011546D01*
X016234Y011546D01*
X016172Y011484D01*
X016541Y011546D02*
X016787Y011176D01*
X016787Y011546D01*
X016909Y011546D02*
X017094Y011546D01*
X017156Y011484D01*
X017156Y011237D01*
X017094Y011176D01*
X016909Y011176D01*
X016909Y011546D01*
X016541Y011546D02*
X016541Y011176D01*
X017102Y022876D02*
X017041Y022937D01*
X017102Y022876D02*
X017226Y022876D01*
X017287Y022937D01*
X017287Y023061D01*
X017226Y023123D01*
X017164Y023123D01*
X017041Y023061D01*
X017041Y023246D01*
X017287Y023246D01*
X017409Y023246D02*
X017409Y022999D01*
X017532Y022876D01*
X017656Y022999D01*
X017656Y023246D01*
X016919Y023061D02*
X016672Y023061D01*
X016796Y023184D02*
X016796Y022937D01*
X014656Y022999D02*
X014532Y022876D01*
X014409Y022999D01*
X014409Y023246D01*
X014287Y023246D02*
X014041Y023246D01*
X014041Y023061D01*
X014164Y023123D01*
X014226Y023123D01*
X014287Y023061D01*
X014287Y022937D01*
X014226Y022876D01*
X014102Y022876D01*
X014041Y022937D01*
X013919Y023061D02*
X013672Y023061D01*
X013796Y023184D02*
X013796Y022937D01*
X014656Y022999D02*
X014656Y023246D01*
X011656Y023246D02*
X011656Y022999D01*
X011532Y022876D01*
X011409Y022999D01*
X011409Y023246D01*
X011287Y023246D02*
X011041Y023246D01*
X011041Y023061D01*
X011164Y023123D01*
X011226Y023123D01*
X011287Y023061D01*
X011287Y022937D01*
X011226Y022876D01*
X011102Y022876D01*
X011041Y022937D01*
X010919Y023061D02*
X010672Y023061D01*
X010796Y023184D02*
X010796Y022937D01*
X005556Y025899D02*
X005556Y026146D01*
X005556Y025899D02*
X005432Y025776D01*
X005309Y025899D01*
X005309Y026146D01*
X005187Y026146D02*
X004941Y026146D01*
X004941Y025961D01*
X005064Y026023D01*
X005126Y026023D01*
X005187Y025961D01*
X005187Y025837D01*
X005126Y025776D01*
X005002Y025776D01*
X004941Y025837D01*
X004819Y025961D02*
X004572Y025961D01*
X004696Y026084D02*
X004696Y025837D01*
X002556Y025899D02*
X002556Y026146D01*
X002556Y025899D02*
X002432Y025776D01*
X002309Y025899D01*
X002309Y026146D01*
X002187Y026146D02*
X001941Y026146D01*
X001941Y025961D01*
X002064Y026023D01*
X002126Y026023D01*
X002187Y025961D01*
X002187Y025837D01*
X002126Y025776D01*
X002002Y025776D01*
X001941Y025837D01*
X001819Y025961D02*
X001572Y025961D01*
X001696Y026084D02*
X001696Y025837D01*
D11*
X003377Y001641D02*
X003377Y001181D01*
X003377Y001334D02*
X003607Y001334D01*
X003684Y001411D01*
X003684Y001564D01*
X003607Y001641D01*
X003377Y001641D01*
X003838Y001411D02*
X003838Y001257D01*
X003914Y001181D01*
X004068Y001181D01*
X004145Y001334D02*
X003838Y001334D01*
X003838Y001411D02*
X003914Y001488D01*
X004068Y001488D01*
X004145Y001411D01*
X004145Y001334D01*
X004298Y001181D02*
X004528Y001181D01*
X004605Y001257D01*
X004605Y001411D01*
X004528Y001488D01*
X004298Y001488D01*
X004298Y001641D02*
X004298Y001181D01*
X004758Y001181D02*
X004758Y001641D01*
X004758Y001488D02*
X004989Y001488D01*
X005065Y001411D01*
X005065Y001257D01*
X004989Y001181D01*
X004758Y001181D01*
X005219Y001181D02*
X005372Y001181D01*
X005295Y001181D02*
X005295Y001641D01*
X005219Y001641D01*
X005526Y001411D02*
X005526Y001257D01*
X005602Y001181D01*
X005756Y001181D01*
X005833Y001334D02*
X005526Y001334D01*
X005526Y001411D02*
X005602Y001488D01*
X005756Y001488D01*
X005833Y001411D01*
X005833Y001334D01*
X006446Y001181D02*
X006753Y001181D01*
X006600Y001181D02*
X006600Y001641D01*
X006446Y001488D01*
X006907Y001257D02*
X006983Y001257D01*
X006983Y001181D01*
X006907Y001181D01*
X006907Y001257D01*
X007137Y001181D02*
X007444Y001488D01*
X007444Y001564D01*
X007367Y001641D01*
X007214Y001641D01*
X007137Y001564D01*
X007137Y001181D02*
X007444Y001181D01*
X008058Y001411D02*
X008364Y001411D01*
X008978Y001181D02*
X009285Y001181D01*
X009439Y001257D02*
X009515Y001181D01*
X009746Y001181D01*
X009746Y001488D01*
X009899Y001641D02*
X009899Y001181D01*
X009899Y001334D02*
X010129Y001488D01*
X010283Y001411D02*
X010359Y001488D01*
X010513Y001488D01*
X010589Y001411D01*
X010589Y001334D01*
X010283Y001334D01*
X010283Y001257D02*
X010283Y001411D01*
X010283Y001257D02*
X010359Y001181D01*
X010513Y001181D01*
X010129Y001181D02*
X009899Y001334D01*
X009439Y001257D02*
X009439Y001488D01*
X008978Y001641D02*
X008978Y001181D01*
X011203Y001181D02*
X011357Y001334D01*
X011510Y001181D01*
X011510Y001641D01*
X011664Y001411D02*
X011740Y001488D01*
X011894Y001488D01*
X011971Y001411D01*
X011971Y001334D01*
X011664Y001334D01*
X011664Y001257D02*
X011664Y001411D01*
X011664Y001257D02*
X011740Y001181D01*
X011894Y001181D01*
X012124Y001181D02*
X012354Y001181D01*
X012431Y001257D01*
X012354Y001334D01*
X012201Y001334D01*
X012124Y001411D01*
X012201Y001488D01*
X012431Y001488D01*
X012584Y001488D02*
X012738Y001488D01*
X012661Y001564D02*
X012661Y001257D01*
X012738Y001181D01*
X012891Y001257D02*
X012968Y001181D01*
X013121Y001181D01*
X013198Y001257D01*
X013198Y001411D01*
X013121Y001488D01*
X012968Y001488D01*
X012891Y001411D01*
X012891Y001257D01*
X013352Y001181D02*
X013352Y001488D01*
X013582Y001488D01*
X013659Y001411D01*
X013659Y001181D01*
X014272Y001181D02*
X014579Y001488D01*
X014579Y001564D01*
X014502Y001641D01*
X014349Y001641D01*
X014272Y001564D01*
X014272Y001181D02*
X014579Y001181D01*
X014733Y001257D02*
X015040Y001564D01*
X015040Y001257D01*
X014963Y001181D01*
X014809Y001181D01*
X014733Y001257D01*
X014733Y001564D01*
X014809Y001641D01*
X014963Y001641D01*
X015040Y001564D01*
X015193Y001564D02*
X015270Y001641D01*
X015423Y001641D01*
X015500Y001564D01*
X015193Y001257D01*
X015270Y001181D01*
X015423Y001181D01*
X015500Y001257D01*
X015500Y001564D01*
X015653Y001564D02*
X015653Y001488D01*
X015730Y001411D01*
X015960Y001411D01*
X015960Y001564D02*
X015884Y001641D01*
X015730Y001641D01*
X015653Y001564D01*
X015653Y001257D02*
X015730Y001181D01*
X015884Y001181D01*
X015960Y001257D01*
X015960Y001564D01*
X015193Y001564D02*
X015193Y001257D01*
X011203Y001181D02*
X011203Y001641D01*
X024177Y006531D02*
X024484Y006531D01*
X024638Y006531D02*
X024638Y006991D01*
X024868Y006991D01*
X024945Y006914D01*
X024945Y006607D01*
X024868Y006531D01*
X024638Y006531D01*
X024449Y006224D02*
X025630Y006224D01*
X025650Y006222D01*
X025670Y006217D01*
X025689Y006208D01*
X025706Y006196D01*
X025720Y006182D01*
X025732Y006165D01*
X025741Y006146D01*
X025746Y006126D01*
X025748Y006106D01*
X025746Y006086D01*
X025741Y006066D01*
X025732Y006047D01*
X025720Y006030D01*
X025706Y006016D01*
X025689Y006004D01*
X025670Y005995D01*
X025650Y005990D01*
X025630Y005988D01*
X024685Y005988D01*
X024685Y005987D02*
X024665Y005985D01*
X024645Y005980D01*
X024626Y005971D01*
X024609Y005959D01*
X024595Y005945D01*
X024583Y005928D01*
X024574Y005909D01*
X024569Y005889D01*
X024567Y005869D01*
X024569Y005849D01*
X024574Y005829D01*
X024583Y005810D01*
X024595Y005793D01*
X024609Y005779D01*
X024626Y005767D01*
X024645Y005758D01*
X024665Y005753D01*
X024685Y005751D01*
X025630Y005751D01*
X025650Y005749D01*
X025670Y005744D01*
X025689Y005735D01*
X025706Y005723D01*
X025720Y005709D01*
X025732Y005692D01*
X025741Y005673D01*
X025746Y005653D01*
X025748Y005633D01*
X025746Y005613D01*
X025741Y005593D01*
X025732Y005574D01*
X025720Y005557D01*
X025706Y005543D01*
X025689Y005531D01*
X025670Y005522D01*
X025650Y005517D01*
X025630Y005515D01*
X024685Y005515D01*
X024665Y005513D01*
X024645Y005508D01*
X024626Y005499D01*
X024609Y005487D01*
X024595Y005473D01*
X024583Y005456D01*
X024574Y005437D01*
X024569Y005417D01*
X024567Y005397D01*
X024569Y005377D01*
X024574Y005357D01*
X024583Y005338D01*
X024595Y005321D01*
X024609Y005307D01*
X024626Y005295D01*
X024645Y005286D01*
X024665Y005281D01*
X024685Y005279D01*
X025630Y005279D01*
X025650Y005277D01*
X025670Y005272D01*
X025689Y005263D01*
X025706Y005251D01*
X025720Y005237D01*
X025732Y005220D01*
X025741Y005201D01*
X025746Y005181D01*
X025748Y005161D01*
X025746Y005141D01*
X025741Y005121D01*
X025732Y005102D01*
X025720Y005085D01*
X025706Y005071D01*
X025689Y005059D01*
X025670Y005050D01*
X025650Y005045D01*
X025630Y005043D01*
X024685Y005043D01*
X024665Y005041D01*
X024645Y005036D01*
X024626Y005027D01*
X024609Y005015D01*
X024595Y005001D01*
X024583Y004984D01*
X024574Y004965D01*
X024569Y004945D01*
X024567Y004925D01*
X024569Y004905D01*
X024574Y004885D01*
X024583Y004866D01*
X024595Y004849D01*
X024609Y004835D01*
X024626Y004823D01*
X024645Y004814D01*
X024665Y004809D01*
X024685Y004807D01*
X024685Y004806D02*
X025630Y004806D01*
X025650Y004804D01*
X025670Y004799D01*
X025689Y004790D01*
X025706Y004778D01*
X025720Y004764D01*
X025732Y004747D01*
X025741Y004728D01*
X025746Y004708D01*
X025748Y004688D01*
X025746Y004668D01*
X025741Y004648D01*
X025732Y004629D01*
X025720Y004612D01*
X025706Y004598D01*
X025689Y004586D01*
X025670Y004577D01*
X025650Y004572D01*
X025630Y004570D01*
X024685Y004570D01*
X024665Y004568D01*
X024645Y004563D01*
X024626Y004554D01*
X024609Y004542D01*
X024595Y004528D01*
X024583Y004511D01*
X024574Y004492D01*
X024569Y004472D01*
X024567Y004452D01*
X024569Y004432D01*
X024574Y004412D01*
X024583Y004393D01*
X024595Y004376D01*
X024609Y004362D01*
X024626Y004350D01*
X024645Y004341D01*
X024665Y004336D01*
X024685Y004334D01*
X025630Y004334D01*
X025650Y004332D01*
X025670Y004327D01*
X025689Y004318D01*
X025706Y004306D01*
X025720Y004292D01*
X025732Y004275D01*
X025741Y004256D01*
X025746Y004236D01*
X025748Y004216D01*
X025746Y004196D01*
X025741Y004176D01*
X025732Y004157D01*
X025720Y004140D01*
X025706Y004126D01*
X025689Y004114D01*
X025670Y004105D01*
X025650Y004100D01*
X025630Y004098D01*
X024449Y004098D01*
X024177Y006531D02*
X024177Y006991D01*
X025098Y006991D02*
X025098Y006531D01*
X025098Y006684D02*
X025328Y006684D01*
X025405Y006761D01*
X025405Y006914D01*
X025328Y006991D01*
X025098Y006991D01*
X025251Y006684D02*
X025405Y006531D01*
X026611Y016574D02*
X026727Y016691D01*
X026669Y016691D01*
X026669Y016749D01*
X026727Y016749D01*
X026727Y016691D01*
X026850Y016691D02*
X027083Y016924D01*
X027083Y016983D01*
X027025Y017041D01*
X026908Y017041D01*
X026850Y016983D01*
X026850Y016691D02*
X027083Y016691D01*
X027209Y016691D02*
X027209Y016924D01*
X027267Y016924D01*
X027326Y016866D01*
X027384Y016924D01*
X027443Y016866D01*
X027443Y016691D01*
X027326Y016691D02*
X027326Y016866D01*
X027568Y016924D02*
X027626Y016924D01*
X027685Y016866D01*
X027743Y016924D01*
X027802Y016866D01*
X027802Y016691D01*
X027685Y016691D02*
X027685Y016866D01*
X027568Y016924D02*
X027568Y016691D01*
X026485Y016749D02*
X026427Y016691D01*
X026310Y016691D01*
X026251Y016749D01*
X026251Y016866D02*
X026368Y016924D01*
X026427Y016924D01*
X026485Y016866D01*
X026485Y016749D01*
X026251Y016866D02*
X026251Y017041D01*
X026485Y017041D01*
X026009Y017041D02*
X026009Y016691D01*
X025892Y016691D02*
X026126Y016691D01*
X025892Y016924D02*
X026009Y017041D01*
X025767Y016924D02*
X025767Y016691D01*
X025767Y016866D02*
X025533Y016866D01*
X025533Y016924D02*
X025533Y016691D01*
X025533Y016924D02*
X025650Y017041D01*
X025767Y016924D01*
X027157Y032127D02*
X027233Y032127D01*
X027310Y032204D01*
X027310Y032588D01*
X027003Y032588D02*
X027003Y032357D01*
X027080Y032281D01*
X027310Y032281D01*
X026850Y032281D02*
X026773Y032357D01*
X026773Y032664D01*
X026696Y032588D02*
X026850Y032588D01*
X026466Y032588D02*
X026466Y032281D01*
X026390Y032281D02*
X026543Y032281D01*
X026236Y032281D02*
X026236Y032511D01*
X026159Y032588D01*
X025929Y032588D01*
X025929Y032281D01*
X025776Y032281D02*
X025776Y032588D01*
X025469Y032588D02*
X025469Y032357D01*
X025546Y032281D01*
X025776Y032281D01*
X025315Y032281D02*
X025315Y032511D01*
X025239Y032588D01*
X025162Y032511D01*
X025162Y032281D01*
X025008Y032281D02*
X025008Y032588D01*
X025085Y032588D01*
X025162Y032511D01*
X024855Y032511D02*
X024855Y032281D01*
X024702Y032281D02*
X024702Y032511D01*
X024778Y032588D01*
X024855Y032511D01*
X024702Y032511D02*
X024625Y032588D01*
X024548Y032588D01*
X024548Y032281D01*
X024395Y032357D02*
X024395Y032511D01*
X024318Y032588D01*
X024164Y032588D01*
X024088Y032511D01*
X024088Y032357D01*
X024164Y032281D01*
X024318Y032281D01*
X024395Y032357D01*
X023934Y032357D02*
X023858Y032281D01*
X023704Y032281D01*
X023627Y032357D01*
X023627Y032664D01*
X023704Y032741D01*
X023858Y032741D01*
X023934Y032664D01*
X023014Y032588D02*
X022783Y032588D01*
X022707Y032511D01*
X022707Y032357D01*
X022783Y032281D01*
X023014Y032281D01*
X023014Y032741D01*
X022553Y032511D02*
X022553Y032434D01*
X022246Y032434D01*
X022246Y032357D02*
X022246Y032511D01*
X022323Y032588D01*
X022476Y032588D01*
X022553Y032511D01*
X022476Y032281D02*
X022323Y032281D01*
X022246Y032357D01*
X022093Y032281D02*
X022016Y032357D01*
X022016Y032664D01*
X021939Y032588D02*
X022093Y032588D01*
X021786Y032588D02*
X021556Y032588D01*
X021479Y032511D01*
X021479Y032357D01*
X021556Y032281D01*
X021786Y032281D01*
X021326Y032434D02*
X021019Y032434D01*
X021019Y032357D02*
X021019Y032511D01*
X021095Y032588D01*
X021249Y032588D01*
X021326Y032511D01*
X021326Y032434D01*
X021249Y032281D02*
X021095Y032281D01*
X021019Y032357D01*
X020865Y032281D02*
X020865Y032511D01*
X020789Y032588D01*
X020558Y032588D01*
X020558Y032281D01*
X020405Y032281D02*
X020405Y032511D01*
X020328Y032588D01*
X020098Y032588D01*
X020098Y032281D01*
X019945Y032357D02*
X019945Y032511D01*
X019868Y032588D01*
X019714Y032588D01*
X019638Y032511D01*
X019638Y032357D01*
X019714Y032281D01*
X019868Y032281D01*
X019945Y032357D01*
X019484Y032357D02*
X019407Y032281D01*
X019254Y032281D01*
X019177Y032357D01*
X019177Y032664D01*
X019254Y032741D01*
X019407Y032741D01*
X019484Y032664D01*
X026390Y032588D02*
X026466Y032588D01*
X026466Y032741D02*
X026466Y032818D01*
X027924Y032741D02*
X027924Y032281D01*
X027924Y032511D02*
X028231Y032511D01*
X028384Y032357D02*
X028461Y032434D01*
X028691Y032434D01*
X028691Y032511D02*
X028691Y032281D01*
X028461Y032281D01*
X028384Y032357D01*
X028231Y032281D02*
X028231Y032741D01*
X028461Y032588D02*
X028615Y032588D01*
X028691Y032511D01*
X028845Y032511D02*
X028845Y032357D01*
X028921Y032281D01*
X029152Y032281D01*
X029305Y032281D02*
X029305Y032741D01*
X029152Y032588D02*
X028921Y032588D01*
X028845Y032511D01*
X029305Y032434D02*
X029535Y032588D01*
X029689Y032511D02*
X029765Y032588D01*
X029919Y032588D01*
X029996Y032511D01*
X029996Y032434D01*
X029689Y032434D01*
X029689Y032357D02*
X029689Y032511D01*
X029689Y032357D02*
X029765Y032281D01*
X029919Y032281D01*
X030149Y032281D02*
X030149Y032588D01*
X030302Y032588D02*
X030149Y032434D01*
X030302Y032588D02*
X030379Y032588D01*
X030533Y032511D02*
X030609Y032588D01*
X030840Y032588D01*
X030993Y032588D02*
X031223Y032588D01*
X031300Y032511D01*
X031300Y032357D01*
X031223Y032281D01*
X030993Y032281D01*
X030993Y032127D02*
X030993Y032588D01*
X030763Y032434D02*
X030609Y032434D01*
X030533Y032511D01*
X030533Y032281D02*
X030763Y032281D01*
X030840Y032357D01*
X030763Y032434D01*
X031453Y032357D02*
X031530Y032434D01*
X031760Y032434D01*
X031760Y032511D02*
X031760Y032281D01*
X031530Y032281D01*
X031453Y032357D01*
X031530Y032588D02*
X031684Y032588D01*
X031760Y032511D01*
X031914Y032511D02*
X031914Y032357D01*
X031990Y032281D01*
X032221Y032281D01*
X032374Y032357D02*
X032374Y032511D01*
X032451Y032588D01*
X032604Y032588D01*
X032681Y032511D01*
X032681Y032434D01*
X032374Y032434D01*
X032374Y032357D02*
X032451Y032281D01*
X032604Y032281D01*
X032221Y032588D02*
X031990Y032588D01*
X031914Y032511D01*
X033295Y032434D02*
X033295Y032588D01*
X033448Y032741D01*
X033602Y032741D02*
X033602Y032281D01*
X033448Y032281D02*
X033295Y032434D01*
X033602Y032741D02*
X033755Y032588D01*
X033909Y032741D01*
X033909Y032281D01*
X034062Y032357D02*
X034062Y032511D01*
X034139Y032588D01*
X034292Y032588D01*
X034369Y032511D01*
X034369Y032434D01*
X034062Y032434D01*
X034062Y032357D02*
X034139Y032281D01*
X034292Y032281D01*
X034522Y032281D02*
X034676Y032281D01*
X034599Y032281D02*
X034599Y032741D01*
X034522Y032741D01*
X034829Y032741D02*
X034829Y032281D01*
X035059Y032281D01*
X035136Y032357D01*
X035136Y032511D01*
X035059Y032588D01*
X034829Y032588D01*
X035290Y032511D02*
X035290Y032357D01*
X035366Y032281D01*
X035520Y032281D01*
X035597Y032357D01*
X035597Y032511D01*
X035520Y032588D01*
X035366Y032588D01*
X035290Y032511D01*
X035750Y032588D02*
X035750Y032357D01*
X035827Y032281D01*
X036057Y032281D01*
X036057Y032588D01*
X036210Y032588D02*
X036210Y032281D01*
X036210Y032434D02*
X036364Y032588D01*
X036441Y032588D01*
X036594Y032588D02*
X036824Y032588D01*
X036901Y032511D01*
X036901Y032281D01*
X037054Y032357D02*
X037054Y032511D01*
X037131Y032588D01*
X037284Y032588D01*
X037361Y032511D01*
X037361Y032434D01*
X037054Y032434D01*
X037054Y032357D02*
X037131Y032281D01*
X037284Y032281D01*
X037515Y032281D02*
X037668Y032434D01*
X037668Y032588D01*
X037515Y032741D01*
X036594Y032588D02*
X036594Y032281D01*
X029535Y032281D02*
X029305Y032434D01*
D12*
X029278Y031636D02*
X029353Y031561D01*
X029053Y031261D01*
X029128Y031186D01*
X029278Y031186D01*
X029353Y031261D01*
X029353Y031561D01*
X029278Y031636D02*
X029128Y031636D01*
X029053Y031561D01*
X029053Y031261D01*
X028893Y031186D02*
X028592Y031186D01*
X028742Y031186D02*
X028742Y031636D01*
X028592Y031486D01*
X029513Y031561D02*
X029513Y031261D01*
X029813Y031561D01*
X029813Y031261D01*
X029738Y031186D01*
X029588Y031186D01*
X029513Y031261D01*
X029513Y031561D02*
X029588Y031636D01*
X029738Y031636D01*
X029813Y031561D01*
X030434Y031636D02*
X030434Y031186D01*
X030434Y031336D02*
X030659Y031486D01*
X030434Y031336D02*
X030659Y031186D01*
X032157Y030661D02*
X032657Y030161D01*
X032657Y025911D01*
X033907Y024661D01*
X033907Y011911D01*
X032657Y010661D01*
X032657Y009661D01*
X006657Y009661D01*
X006657Y030661D01*
X032157Y030661D01*
X029382Y025902D02*
X029232Y025677D01*
X029082Y025902D01*
X028932Y025677D02*
X029382Y025677D01*
X029307Y025056D02*
X029007Y025056D01*
X029307Y024756D01*
X029382Y024831D01*
X029382Y024981D01*
X029307Y025056D01*
X029307Y024756D02*
X029007Y024756D01*
X028932Y024831D01*
X028932Y024981D01*
X029007Y025056D01*
X029382Y024596D02*
X029382Y024296D01*
X029382Y024446D02*
X028932Y024446D01*
X029082Y024296D01*
X029082Y020917D02*
X029232Y020692D01*
X029382Y020917D01*
X029382Y020692D02*
X028932Y020692D01*
X029007Y020072D02*
X029307Y019771D01*
X029382Y019846D01*
X029382Y019996D01*
X029307Y020072D01*
X029007Y020072D01*
X028932Y019996D01*
X028932Y019846D01*
X029007Y019771D01*
X029307Y019771D01*
X029382Y019611D02*
X029382Y019311D01*
X029382Y019461D02*
X028932Y019461D01*
X029082Y019311D01*
X027222Y019686D02*
X026922Y019686D01*
X027072Y019686D02*
X027072Y020136D01*
X026922Y019986D01*
X026222Y019986D02*
X026222Y020061D01*
X026147Y020136D01*
X025997Y020136D01*
X025922Y020061D01*
X026222Y019986D02*
X025922Y019686D01*
X026222Y019686D01*
X025222Y019761D02*
X025147Y019686D01*
X024997Y019686D01*
X024922Y019761D01*
X025072Y019911D02*
X025147Y019911D01*
X025222Y019836D01*
X025222Y019761D01*
X025147Y019911D02*
X025222Y019986D01*
X025222Y020061D01*
X025147Y020136D01*
X024997Y020136D01*
X024922Y020061D01*
X029370Y016286D02*
X029520Y016436D01*
X029520Y015986D01*
X029370Y015986D02*
X029670Y015986D01*
X029830Y016061D02*
X030131Y016361D01*
X030131Y016061D01*
X030056Y015986D01*
X029905Y015986D01*
X029830Y016061D01*
X029830Y016361D01*
X029905Y016436D01*
X030056Y016436D01*
X030131Y016361D01*
X030291Y016361D02*
X030291Y016061D01*
X030591Y016361D01*
X030591Y016061D01*
X030516Y015986D01*
X030366Y015986D01*
X030291Y016061D01*
X030291Y016361D02*
X030366Y016436D01*
X030516Y016436D01*
X030591Y016361D01*
X031211Y016286D02*
X031211Y015986D01*
X031211Y016286D02*
X031437Y016286D01*
X031512Y016211D01*
X031512Y015986D01*
X031672Y015986D02*
X031672Y016436D01*
X031972Y016436D01*
X031822Y016211D02*
X031672Y016211D01*
X032082Y013477D02*
X032082Y013177D01*
X032532Y013177D01*
X032532Y013017D02*
X032232Y013017D01*
X032307Y013177D02*
X032307Y013327D01*
X032532Y013017D02*
X032532Y012792D01*
X032457Y012717D01*
X032232Y012717D01*
X032157Y012096D02*
X032457Y011796D01*
X032532Y011871D01*
X032532Y012021D01*
X032457Y012096D01*
X032157Y012096D01*
X032082Y012021D01*
X032082Y011871D01*
X032157Y011796D01*
X032457Y011796D01*
X032532Y011636D02*
X032532Y011336D01*
X032532Y011486D02*
X032082Y011486D01*
X032232Y011336D01*
X034592Y010236D02*
X034742Y010386D01*
X034742Y009936D01*
X034592Y009936D02*
X034893Y009936D01*
X035053Y010011D02*
X035353Y010311D01*
X035353Y010011D01*
X035278Y009936D01*
X035128Y009936D01*
X035053Y010011D01*
X035053Y010311D01*
X035128Y010386D01*
X035278Y010386D01*
X035353Y010311D01*
X035513Y010311D02*
X035513Y010011D01*
X035813Y010311D01*
X035813Y010011D01*
X035738Y009936D01*
X035588Y009936D01*
X035513Y010011D01*
X035513Y010311D02*
X035588Y010386D01*
X035738Y010386D01*
X035813Y010311D01*
X036434Y010386D02*
X036434Y009936D01*
X036434Y010086D02*
X036659Y010086D01*
X036734Y010161D01*
X036734Y010311D01*
X036659Y010386D01*
X036434Y010386D01*
X036584Y010086D02*
X036734Y009936D01*
X038382Y011586D02*
X038532Y011436D01*
X038382Y011586D02*
X038832Y011586D01*
X038832Y011436D02*
X038832Y011736D01*
X038832Y011896D02*
X038382Y011896D01*
X038832Y012196D01*
X038382Y012196D01*
X038607Y012356D02*
X038607Y012657D01*
X038457Y012817D02*
X038382Y012892D01*
X038382Y013042D01*
X038457Y013117D01*
X038757Y012817D01*
X038832Y012892D01*
X038832Y013042D01*
X038757Y013117D01*
X038457Y013117D01*
X038457Y013277D02*
X038382Y013352D01*
X038382Y013502D01*
X038457Y013577D01*
X038757Y013277D01*
X038832Y013352D01*
X038832Y013502D01*
X038757Y013577D01*
X038457Y013577D01*
X038607Y013738D02*
X038607Y014038D01*
X038382Y013963D02*
X038607Y013738D01*
X038832Y013963D02*
X038382Y013963D01*
X038457Y013277D02*
X038757Y013277D01*
X038757Y012817D02*
X038457Y012817D01*
X038382Y012582D02*
X038607Y012356D01*
X038832Y012582D02*
X038382Y012582D01*
X030607Y006210D02*
X030607Y005714D01*
X030607Y005608D01*
X030607Y004714D01*
X030607Y004608D01*
X030607Y004112D01*
X030007Y004336D02*
X030007Y005986D01*
X029832Y005950D02*
X029832Y005800D01*
X029757Y005725D01*
X029457Y006025D01*
X029757Y006025D01*
X029832Y005950D01*
X029757Y005725D02*
X029457Y005725D01*
X029382Y005800D01*
X029382Y005950D01*
X029457Y006025D01*
X029457Y005565D02*
X029382Y005490D01*
X029382Y005340D01*
X029457Y005265D01*
X029457Y005105D02*
X029532Y005105D01*
X029607Y005030D01*
X029607Y004804D01*
X029532Y004644D02*
X029607Y004569D01*
X029607Y004419D01*
X029532Y004344D01*
X029457Y004344D01*
X029382Y004419D01*
X029382Y004569D01*
X029457Y004644D01*
X029532Y004644D01*
X029607Y004569D02*
X029682Y004644D01*
X029757Y004644D01*
X029832Y004569D01*
X029832Y004419D01*
X029757Y004344D01*
X029682Y004344D01*
X029607Y004419D01*
X029832Y004184D02*
X029832Y003884D01*
X029832Y004034D02*
X029382Y004034D01*
X029532Y003884D01*
X029457Y003724D02*
X029382Y003649D01*
X029382Y003498D01*
X029457Y003423D01*
X029532Y003423D01*
X029607Y003498D01*
X029607Y003649D01*
X029682Y003724D01*
X029757Y003724D01*
X029832Y003649D01*
X029832Y003498D01*
X029757Y003423D01*
X029757Y003263D02*
X029457Y003263D01*
X029382Y003188D01*
X029382Y002963D01*
X029832Y002963D01*
X029832Y003188D01*
X029757Y003263D01*
X029832Y004804D02*
X029382Y004804D01*
X029382Y005030D01*
X029457Y005105D01*
X029607Y005030D02*
X029682Y005105D01*
X029757Y005105D01*
X029832Y005030D01*
X029832Y004804D01*
X029832Y005265D02*
X029532Y005565D01*
X029457Y005565D01*
X029832Y005565D02*
X029832Y005265D01*
X030607Y004112D02*
X030671Y004111D01*
X030735Y004114D01*
X030799Y004121D01*
X030862Y004131D01*
X030924Y004146D01*
X030985Y004164D01*
X031046Y004186D01*
X031104Y004211D01*
X030219Y004207D02*
X030163Y004234D01*
X030109Y004265D01*
X030057Y004299D01*
X030007Y004336D01*
X030607Y006210D02*
X030671Y006211D01*
X030735Y006208D01*
X030799Y006201D01*
X030862Y006191D01*
X030924Y006176D01*
X030985Y006158D01*
X031046Y006136D01*
X031104Y006111D01*
X030210Y006111D02*
X030156Y006084D01*
X030105Y006054D01*
X030055Y006021D01*
X030007Y005986D01*
X031104Y006111D02*
X031161Y006082D01*
X031217Y006049D01*
X031270Y006014D01*
X031321Y005974D01*
X031369Y005932D01*
X031415Y005887D01*
X031458Y005840D01*
X031498Y005790D01*
X031535Y005737D01*
X031568Y005682D01*
X031599Y005626D01*
X031625Y005567D01*
X031648Y005507D01*
X031668Y005446D01*
X031683Y005384D01*
X031695Y005321D01*
X031703Y005257D01*
X031707Y005193D01*
X031707Y005129D01*
X031703Y005065D01*
X031695Y005001D01*
X031683Y004938D01*
X031668Y004876D01*
X031648Y004815D01*
X031625Y004755D01*
X031599Y004696D01*
X031568Y004640D01*
X031535Y004585D01*
X031498Y004532D01*
X031458Y004482D01*
X031415Y004435D01*
X031369Y004390D01*
X031321Y004348D01*
X031270Y004308D01*
X031217Y004273D01*
X031161Y004240D01*
X031104Y004211D01*
X030607Y004112D02*
X030548Y004117D01*
X030490Y004124D01*
X030432Y004135D01*
X030375Y004150D01*
X030319Y004167D01*
X030264Y004187D01*
X030210Y004211D01*
X030210Y006111D02*
X030264Y006135D01*
X030319Y006155D01*
X030375Y006172D01*
X030432Y006187D01*
X030490Y006198D01*
X030548Y006205D01*
X030607Y006210D01*
X029414Y007436D02*
X029189Y007586D01*
X029414Y007736D01*
X029189Y007886D02*
X029189Y007436D01*
X028568Y007511D02*
X028568Y007811D01*
X028268Y007511D01*
X028343Y007436D01*
X028493Y007436D01*
X028568Y007511D01*
X028268Y007511D02*
X028268Y007811D01*
X028343Y007886D01*
X028493Y007886D01*
X028568Y007811D01*
X027958Y007886D02*
X027958Y007436D01*
X027808Y007436D02*
X028108Y007436D01*
X027808Y007736D02*
X027958Y007886D01*
X023937Y007886D02*
X023937Y007811D01*
X023636Y007511D01*
X023636Y007436D01*
X023478Y007436D02*
X023253Y007586D01*
X023478Y007736D01*
X023636Y007886D02*
X023937Y007886D01*
X023253Y007886D02*
X023253Y007436D01*
X023017Y007436D02*
X023017Y007886D01*
X022792Y007661D01*
X023093Y007661D01*
X020864Y007186D02*
X020639Y007036D01*
X020864Y006886D01*
X020639Y006886D02*
X020639Y007336D01*
X020018Y007261D02*
X020018Y006961D01*
X019943Y006886D01*
X019793Y006886D01*
X019718Y006961D01*
X020018Y007261D01*
X019943Y007336D01*
X019793Y007336D01*
X019718Y007261D01*
X019718Y006961D01*
X019558Y006886D02*
X019258Y006886D01*
X019408Y006886D02*
X019408Y007336D01*
X019258Y007186D01*
X018522Y006186D02*
X018522Y005736D01*
X018372Y005736D02*
X018672Y005736D01*
X018372Y006036D02*
X018522Y006186D01*
X018987Y004736D02*
X019137Y004736D01*
X019212Y004661D01*
X019212Y004586D01*
X019137Y004511D01*
X019212Y004436D01*
X019212Y004361D01*
X019137Y004286D01*
X018987Y004286D01*
X018912Y004361D01*
X019062Y004511D02*
X019137Y004511D01*
X018912Y004661D02*
X018987Y004736D01*
X020422Y005861D02*
X020497Y005786D01*
X020647Y005786D01*
X020722Y005861D01*
X020722Y005936D01*
X020647Y006011D01*
X020572Y006011D01*
X020647Y006011D02*
X020722Y006086D01*
X020722Y006161D01*
X020647Y006236D01*
X020497Y006236D01*
X020422Y006161D01*
X016882Y006017D02*
X016732Y005792D01*
X016582Y006017D01*
X016432Y005792D02*
X016882Y005792D01*
X016807Y005172D02*
X016507Y005172D01*
X016807Y004871D01*
X016882Y004946D01*
X016882Y005096D01*
X016807Y005172D01*
X016507Y005172D02*
X016432Y005096D01*
X016432Y004946D01*
X016507Y004871D01*
X016807Y004871D01*
X016882Y004711D02*
X016882Y004411D01*
X016882Y004561D02*
X016432Y004561D01*
X016582Y004411D01*
X015232Y003611D02*
X015232Y003461D01*
X015157Y003386D01*
X015007Y003536D02*
X015007Y003611D01*
X015082Y003686D01*
X015157Y003686D01*
X015232Y003611D01*
X015007Y003611D02*
X014932Y003686D01*
X014857Y003686D01*
X014782Y003611D01*
X014782Y003461D01*
X014857Y003386D01*
X013482Y003486D02*
X013482Y003786D01*
X013482Y003636D02*
X013032Y003636D01*
X013182Y003486D01*
X012382Y004311D02*
X012382Y004611D01*
X012382Y004461D02*
X011932Y004461D01*
X012082Y004311D01*
X012007Y004771D02*
X011932Y004846D01*
X011932Y004996D01*
X012007Y005072D01*
X012307Y004771D01*
X012382Y004846D01*
X012382Y004996D01*
X012307Y005072D01*
X012007Y005072D01*
X012007Y004771D02*
X012307Y004771D01*
X012232Y005692D02*
X012082Y005917D01*
X011932Y005692D02*
X012382Y005692D01*
X012232Y005692D02*
X012382Y005917D01*
X013082Y006661D02*
X013157Y006586D01*
X013082Y006661D02*
X013082Y006811D01*
X013157Y006886D01*
X013232Y006886D01*
X013532Y006586D01*
X013532Y006886D01*
X014782Y006811D02*
X015007Y006586D01*
X015007Y006886D01*
X015232Y006811D02*
X014782Y006811D01*
X010882Y005917D02*
X010732Y005692D01*
X010582Y005917D01*
X010432Y005692D02*
X010882Y005692D01*
X010882Y005072D02*
X010882Y004771D01*
X010582Y005072D01*
X010507Y005072D01*
X010432Y004996D01*
X010432Y004846D01*
X010507Y004771D01*
X010507Y004611D02*
X010432Y004536D01*
X010432Y004386D01*
X010507Y004311D01*
X010507Y004611D02*
X010582Y004611D01*
X010882Y004311D01*
X010882Y004611D01*
X009232Y003611D02*
X009232Y003461D01*
X009157Y003386D01*
X009007Y003536D02*
X009007Y003611D01*
X009082Y003686D01*
X009157Y003686D01*
X009232Y003611D01*
X009007Y003611D02*
X008932Y003686D01*
X008857Y003686D01*
X008782Y003611D01*
X008782Y003461D01*
X008857Y003386D01*
X007482Y003486D02*
X007482Y003786D01*
X007482Y003636D02*
X007032Y003636D01*
X007182Y003486D01*
X005382Y004386D02*
X005307Y004311D01*
X005382Y004386D02*
X005382Y004536D01*
X005307Y004611D01*
X005232Y004611D01*
X005157Y004536D01*
X005157Y004461D01*
X005157Y004536D02*
X005082Y004611D01*
X005007Y004611D01*
X004932Y004536D01*
X004932Y004386D01*
X005007Y004311D01*
X005007Y004771D02*
X005082Y004771D01*
X005157Y004846D01*
X005157Y005072D01*
X005007Y005072D02*
X004932Y004996D01*
X004932Y004846D01*
X005007Y004771D01*
X005307Y004771D02*
X005382Y004846D01*
X005382Y004996D01*
X005307Y005072D01*
X005007Y005072D01*
X004932Y005692D02*
X005382Y005692D01*
X005232Y005692D02*
X005082Y005917D01*
X005232Y005692D02*
X005382Y005917D01*
X007082Y006661D02*
X007157Y006586D01*
X007082Y006661D02*
X007082Y006811D01*
X007157Y006886D01*
X007232Y006886D01*
X007532Y006586D01*
X007532Y006886D01*
X008782Y006811D02*
X009007Y006586D01*
X009007Y006886D01*
X009232Y006811D02*
X008782Y006811D01*
X003232Y006811D02*
X002782Y006811D01*
X003007Y006586D01*
X003007Y006886D01*
X001532Y006886D02*
X001532Y006586D01*
X001232Y006886D01*
X001157Y006886D01*
X001082Y006811D01*
X001082Y006661D01*
X001157Y006586D01*
X001482Y003786D02*
X001482Y003486D01*
X001482Y003636D02*
X001032Y003636D01*
X001182Y003486D01*
X002782Y003461D02*
X002782Y003611D01*
X002857Y003686D01*
X002932Y003686D01*
X003007Y003611D01*
X003082Y003686D01*
X003157Y003686D01*
X003232Y003611D01*
X003232Y003461D01*
X003157Y003386D01*
X003007Y003536D02*
X003007Y003611D01*
X002857Y003386D02*
X002782Y003461D01*
X015306Y025686D02*
X015306Y026136D01*
X015080Y025911D01*
X015381Y025911D01*
X015541Y025761D02*
X015541Y026061D01*
X015616Y026136D01*
X015766Y026136D01*
X015841Y026061D01*
X015541Y025761D01*
X015616Y025686D01*
X015766Y025686D01*
X015841Y025761D01*
X015841Y026061D01*
X016001Y026061D02*
X016001Y025986D01*
X016076Y025911D01*
X016301Y025911D01*
X016301Y025761D02*
X016301Y026061D01*
X016226Y026136D01*
X016076Y026136D01*
X016001Y026061D01*
X016001Y025761D02*
X016076Y025686D01*
X016226Y025686D01*
X016301Y025761D01*
X016461Y025911D02*
X016762Y025911D01*
X016687Y025686D02*
X016687Y026136D01*
X016461Y025911D01*
X016922Y025686D02*
X016922Y026136D01*
X017222Y025686D01*
X017222Y026136D01*
X012864Y028436D02*
X012639Y028586D01*
X012864Y028736D01*
X012639Y028886D02*
X012639Y028436D01*
X012018Y028511D02*
X011943Y028436D01*
X011793Y028436D01*
X011718Y028511D01*
X012018Y028811D01*
X012018Y028511D01*
X012018Y028811D02*
X011943Y028886D01*
X011793Y028886D01*
X011718Y028811D01*
X011718Y028511D01*
X011558Y028511D02*
X011558Y028811D01*
X011257Y028511D01*
X011333Y028436D01*
X011483Y028436D01*
X011558Y028511D01*
X011558Y028811D02*
X011483Y028886D01*
X011333Y028886D01*
X011257Y028811D01*
X011257Y028511D01*
X011097Y028436D02*
X010797Y028436D01*
X010947Y028436D02*
X010947Y028886D01*
X010797Y028736D01*
X009832Y028138D02*
X009382Y028138D01*
X009382Y028438D01*
X009607Y028288D02*
X009607Y028138D01*
X009607Y027977D02*
X009832Y027977D01*
X009607Y027977D02*
X009532Y027902D01*
X009532Y027677D01*
X009832Y027677D01*
X009757Y027057D02*
X009457Y027057D01*
X009757Y026756D01*
X009832Y026832D01*
X009832Y026982D01*
X009757Y027057D01*
X009457Y027057D02*
X009382Y026982D01*
X009382Y026832D01*
X009457Y026756D01*
X009757Y026756D01*
X009757Y026596D02*
X009457Y026596D01*
X009757Y026296D01*
X009832Y026371D01*
X009832Y026521D01*
X009757Y026596D01*
X009757Y026296D02*
X009457Y026296D01*
X009382Y026371D01*
X009382Y026521D01*
X009457Y026596D01*
X009832Y026136D02*
X009832Y025836D01*
X009832Y025986D02*
X009382Y025986D01*
X009532Y025836D01*
X007172Y029086D02*
X006872Y029086D01*
X007022Y029086D02*
X007022Y029536D01*
X006872Y029386D01*
X006414Y030116D02*
X006189Y030266D01*
X006414Y030416D01*
X006189Y030566D02*
X006189Y030116D01*
X005568Y030191D02*
X005493Y030116D01*
X005343Y030116D01*
X005268Y030191D01*
X005568Y030491D01*
X005568Y030191D01*
X005268Y030191D02*
X005268Y030491D01*
X005343Y030566D01*
X005493Y030566D01*
X005568Y030491D01*
X005108Y030116D02*
X004808Y030116D01*
X004958Y030116D02*
X004958Y030566D01*
X004808Y030416D01*
X004147Y029536D02*
X003997Y029536D01*
X003922Y029461D01*
X004072Y029311D02*
X004147Y029311D01*
X004222Y029236D01*
X004222Y029161D01*
X004147Y029086D01*
X003997Y029086D01*
X003922Y029161D01*
X004147Y029311D02*
X004222Y029386D01*
X004222Y029461D01*
X004147Y029536D01*
X003382Y029216D02*
X003232Y029065D01*
X003232Y029140D02*
X003232Y028915D01*
X003382Y028915D02*
X002932Y028915D01*
X002932Y029140D01*
X003007Y029216D01*
X003157Y029216D01*
X003232Y029140D01*
X003307Y028295D02*
X003007Y028295D01*
X003307Y027995D01*
X003382Y028070D01*
X003382Y028220D01*
X003307Y028295D01*
X003007Y028295D02*
X002932Y028220D01*
X002932Y028070D01*
X003007Y027995D01*
X003307Y027995D01*
X003307Y027834D02*
X003382Y027759D01*
X003382Y027609D01*
X003307Y027534D01*
X003007Y027834D01*
X003307Y027834D01*
X003307Y027534D02*
X003007Y027534D01*
X002932Y027609D01*
X002932Y027759D01*
X003007Y027834D01*
X003382Y027374D02*
X003382Y027074D01*
X003382Y027224D02*
X002932Y027224D01*
X003082Y027074D01*
X033982Y004636D02*
X034132Y004786D01*
X034132Y004336D01*
X033982Y004336D02*
X034283Y004336D01*
X034107Y003036D02*
X034183Y002961D01*
X034183Y002886D01*
X034107Y002811D01*
X034183Y002736D01*
X034183Y002661D01*
X034107Y002586D01*
X033957Y002586D01*
X033882Y002661D01*
X034032Y002811D02*
X034107Y002811D01*
X034107Y003036D02*
X033957Y003036D01*
X033882Y002961D01*
X034582Y002036D02*
X034807Y002036D01*
X034883Y001961D01*
X034883Y001811D01*
X034807Y001736D01*
X034582Y001736D01*
X034582Y001586D02*
X034582Y002036D01*
X034732Y001736D02*
X034883Y001586D01*
X035043Y001586D02*
X035343Y001586D01*
X035503Y001661D02*
X035578Y001586D01*
X035728Y001586D01*
X035803Y001661D01*
X035803Y001736D01*
X035728Y001811D01*
X035578Y001811D01*
X035503Y001886D01*
X035503Y001961D01*
X035578Y002036D01*
X035728Y002036D01*
X035803Y001961D01*
X035963Y002036D02*
X035963Y001586D01*
X036264Y001586D01*
X036114Y001811D02*
X035963Y001811D01*
X035963Y002036D02*
X036264Y002036D01*
X036424Y002036D02*
X036724Y002036D01*
X036574Y002036D02*
X036574Y001586D01*
X037307Y002586D02*
X037307Y003036D01*
X037082Y002811D01*
X037383Y002811D01*
X037383Y004286D02*
X037082Y004286D01*
X037383Y004586D01*
X037383Y004661D01*
X037307Y004736D01*
X037157Y004736D01*
X037082Y004661D01*
X035343Y002036D02*
X035043Y002036D01*
X035043Y001586D01*
X035043Y001811D02*
X035193Y001811D01*
X037732Y020536D02*
X037582Y020686D01*
X038032Y020686D01*
X038032Y020536D02*
X038032Y020836D01*
X038032Y020996D02*
X037582Y020996D01*
X038032Y021296D01*
X037582Y021296D01*
X037807Y021456D02*
X037807Y021757D01*
X037657Y021917D02*
X037582Y021992D01*
X037582Y022142D01*
X037657Y022217D01*
X037957Y021917D01*
X038032Y021992D01*
X038032Y022142D01*
X037957Y022217D01*
X037657Y022217D01*
X037657Y022377D02*
X037582Y022452D01*
X037582Y022602D01*
X037657Y022677D01*
X037957Y022377D01*
X038032Y022452D01*
X038032Y022602D01*
X037957Y022677D01*
X037657Y022677D01*
X037807Y022838D02*
X037807Y023138D01*
X037582Y023063D02*
X037807Y022838D01*
X038032Y023063D02*
X037582Y023063D01*
X037657Y022377D02*
X037957Y022377D01*
X037957Y021917D02*
X037657Y021917D01*
X037582Y021682D02*
X037807Y021456D01*
X038032Y021682D02*
X037582Y021682D01*
D13*
X037157Y020661D02*
X036157Y020661D01*
X034157Y020661D01*
X033157Y020661D01*
X033157Y027661D01*
X034157Y027661D01*
X034757Y027661D01*
X034759Y027622D01*
X034765Y027583D01*
X034774Y027545D01*
X034787Y027508D01*
X034804Y027472D01*
X034824Y027439D01*
X034848Y027407D01*
X034874Y027378D01*
X034903Y027352D01*
X034935Y027328D01*
X034968Y027308D01*
X035004Y027291D01*
X035041Y027278D01*
X035079Y027269D01*
X035118Y027263D01*
X035157Y027261D01*
X035196Y027263D01*
X035235Y027269D01*
X035273Y027278D01*
X035310Y027291D01*
X035346Y027308D01*
X035379Y027328D01*
X035411Y027352D01*
X035440Y027378D01*
X035466Y027407D01*
X035490Y027439D01*
X035510Y027472D01*
X035527Y027508D01*
X035540Y027545D01*
X035549Y027583D01*
X035555Y027622D01*
X035557Y027661D01*
X036157Y027661D01*
X036157Y020661D01*
X036457Y020311D02*
X034857Y020311D01*
X034840Y020309D01*
X034823Y020305D01*
X034807Y020298D01*
X034793Y020288D01*
X034780Y020275D01*
X034770Y020261D01*
X034763Y020245D01*
X034759Y020228D01*
X034757Y020211D01*
X034757Y019611D01*
X034759Y019594D01*
X034763Y019577D01*
X034770Y019561D01*
X034780Y019547D01*
X034793Y019534D01*
X034807Y019524D01*
X034823Y019517D01*
X034840Y019513D01*
X034857Y019511D01*
X036457Y019511D01*
X036474Y019513D01*
X036491Y019517D01*
X036507Y019524D01*
X036521Y019534D01*
X036534Y019547D01*
X036544Y019561D01*
X036551Y019577D01*
X036555Y019594D01*
X036557Y019611D01*
X036557Y020211D01*
X036555Y020228D01*
X036551Y020245D01*
X036544Y020261D01*
X036534Y020275D01*
X036521Y020288D01*
X036507Y020298D01*
X036491Y020305D01*
X036474Y020309D01*
X036457Y020311D01*
X036057Y020161D02*
X035657Y019911D01*
X035657Y019661D01*
X035657Y019911D02*
X035657Y020161D01*
X035657Y019911D02*
X035407Y019911D01*
X035657Y019911D02*
X036257Y019911D01*
X036057Y020161D02*
X036057Y019661D01*
X035657Y019911D01*
X035557Y019161D02*
X036157Y019161D01*
X036157Y012161D01*
X034157Y012161D01*
X033157Y012161D01*
X033157Y019161D01*
X034157Y019161D01*
X034757Y019161D01*
X034759Y019122D01*
X034765Y019083D01*
X034774Y019045D01*
X034787Y019008D01*
X034804Y018972D01*
X034824Y018939D01*
X034848Y018907D01*
X034874Y018878D01*
X034903Y018852D01*
X034935Y018828D01*
X034968Y018808D01*
X035004Y018791D01*
X035041Y018778D01*
X035079Y018769D01*
X035118Y018763D01*
X035157Y018761D01*
X035196Y018763D01*
X035235Y018769D01*
X035273Y018778D01*
X035310Y018791D01*
X035346Y018808D01*
X035379Y018828D01*
X035411Y018852D01*
X035440Y018878D01*
X035466Y018907D01*
X035490Y018939D01*
X035510Y018972D01*
X035527Y019008D01*
X035540Y019045D01*
X035549Y019083D01*
X035555Y019122D01*
X035557Y019161D01*
X036157Y019161D02*
X037157Y019161D01*
X037157Y012161D01*
X036157Y012161D01*
X036457Y011811D02*
X034857Y011811D01*
X034840Y011809D01*
X034823Y011805D01*
X034807Y011798D01*
X034793Y011788D01*
X034780Y011775D01*
X034770Y011761D01*
X034763Y011745D01*
X034759Y011728D01*
X034757Y011711D01*
X034757Y011111D01*
X034759Y011094D01*
X034763Y011077D01*
X034770Y011061D01*
X034780Y011047D01*
X034793Y011034D01*
X034807Y011024D01*
X034823Y011017D01*
X034840Y011013D01*
X034857Y011011D01*
X036457Y011011D01*
X036474Y011013D01*
X036491Y011017D01*
X036507Y011024D01*
X036521Y011034D01*
X036534Y011047D01*
X036544Y011061D01*
X036551Y011077D01*
X036555Y011094D01*
X036557Y011111D01*
X036557Y011711D01*
X036555Y011728D01*
X036551Y011745D01*
X036544Y011761D01*
X036534Y011775D01*
X036521Y011788D01*
X036507Y011798D01*
X036491Y011805D01*
X036474Y011809D01*
X036457Y011811D01*
X036057Y011661D02*
X036057Y011161D01*
X035657Y011411D01*
X035657Y011161D01*
X035657Y011411D02*
X035657Y011661D01*
X035657Y011411D02*
X035407Y011411D01*
X035657Y011411D02*
X036057Y011661D01*
X036257Y011411D02*
X035657Y011411D01*
X036607Y010561D02*
X034707Y010561D01*
X034657Y010611D01*
X034507Y010611D01*
X034490Y010609D01*
X034473Y010605D01*
X034457Y010598D01*
X034443Y010588D01*
X034430Y010575D01*
X034420Y010561D01*
X034413Y010545D01*
X034409Y010528D01*
X034407Y010511D01*
X034407Y009811D01*
X034409Y009794D01*
X034413Y009777D01*
X034420Y009761D01*
X034430Y009747D01*
X034443Y009734D01*
X034457Y009724D01*
X034473Y009717D01*
X034490Y009713D01*
X034507Y009711D01*
X034657Y009711D01*
X034707Y009761D01*
X036607Y009761D01*
X036657Y009711D01*
X036807Y009711D01*
X036824Y009713D01*
X036841Y009717D01*
X036857Y009724D01*
X036871Y009734D01*
X036884Y009747D01*
X036894Y009761D01*
X036901Y009777D01*
X036905Y009794D01*
X036907Y009811D01*
X036907Y010511D01*
X036905Y010528D01*
X036901Y010545D01*
X036894Y010561D01*
X036884Y010575D01*
X036871Y010588D01*
X036857Y010598D01*
X036841Y010605D01*
X036824Y010609D01*
X036807Y010611D01*
X036657Y010611D01*
X036607Y010561D01*
X034157Y012161D02*
X034157Y019161D01*
X034157Y020661D02*
X034157Y027661D01*
X033149Y029228D02*
X039165Y029228D01*
X038307Y029661D02*
X038309Y029698D01*
X038315Y029735D01*
X038325Y029771D01*
X038338Y029806D01*
X038355Y029839D01*
X038376Y029870D01*
X038400Y029898D01*
X038427Y029924D01*
X038456Y029947D01*
X038487Y029967D01*
X038521Y029983D01*
X038556Y029996D01*
X038592Y030005D01*
X038629Y030010D01*
X038666Y030011D01*
X038703Y030008D01*
X038740Y030001D01*
X038776Y029990D01*
X038810Y029976D01*
X038843Y029958D01*
X038873Y029936D01*
X038901Y029912D01*
X038926Y029884D01*
X038949Y029854D01*
X038968Y029822D01*
X038983Y029788D01*
X038995Y029753D01*
X039003Y029717D01*
X039007Y029680D01*
X039007Y029642D01*
X039003Y029605D01*
X038995Y029569D01*
X038983Y029534D01*
X038968Y029500D01*
X038949Y029468D01*
X038926Y029438D01*
X038901Y029410D01*
X038873Y029386D01*
X038843Y029364D01*
X038810Y029346D01*
X038776Y029332D01*
X038740Y029321D01*
X038703Y029314D01*
X038666Y029311D01*
X038629Y029312D01*
X038592Y029317D01*
X038556Y029326D01*
X038521Y029339D01*
X038487Y029355D01*
X038456Y029375D01*
X038427Y029398D01*
X038400Y029424D01*
X038376Y029452D01*
X038355Y029483D01*
X038338Y029516D01*
X038325Y029551D01*
X038315Y029587D01*
X038309Y029624D01*
X038307Y029661D01*
X038457Y029411D02*
X038907Y029861D01*
X037957Y029761D02*
X037357Y029611D01*
X037307Y029661D02*
X037309Y029698D01*
X037315Y029735D01*
X037325Y029771D01*
X037338Y029806D01*
X037355Y029839D01*
X037376Y029870D01*
X037400Y029898D01*
X037427Y029924D01*
X037456Y029947D01*
X037487Y029967D01*
X037521Y029983D01*
X037556Y029996D01*
X037592Y030005D01*
X037629Y030010D01*
X037666Y030011D01*
X037703Y030008D01*
X037740Y030001D01*
X037776Y029990D01*
X037810Y029976D01*
X037843Y029958D01*
X037873Y029936D01*
X037901Y029912D01*
X037926Y029884D01*
X037949Y029854D01*
X037968Y029822D01*
X037983Y029788D01*
X037995Y029753D01*
X038003Y029717D01*
X038007Y029680D01*
X038007Y029642D01*
X038003Y029605D01*
X037995Y029569D01*
X037983Y029534D01*
X037968Y029500D01*
X037949Y029468D01*
X037926Y029438D01*
X037901Y029410D01*
X037873Y029386D01*
X037843Y029364D01*
X037810Y029346D01*
X037776Y029332D01*
X037740Y029321D01*
X037703Y029314D01*
X037666Y029311D01*
X037629Y029312D01*
X037592Y029317D01*
X037556Y029326D01*
X037521Y029339D01*
X037487Y029355D01*
X037456Y029375D01*
X037427Y029398D01*
X037400Y029424D01*
X037376Y029452D01*
X037355Y029483D01*
X037338Y029516D01*
X037325Y029551D01*
X037315Y029587D01*
X037309Y029624D01*
X037307Y029661D01*
X036857Y029411D02*
X036457Y029911D01*
X036307Y029661D02*
X036309Y029698D01*
X036315Y029735D01*
X036325Y029771D01*
X036338Y029806D01*
X036355Y029839D01*
X036376Y029870D01*
X036400Y029898D01*
X036427Y029924D01*
X036456Y029947D01*
X036487Y029967D01*
X036521Y029983D01*
X036556Y029996D01*
X036592Y030005D01*
X036629Y030010D01*
X036666Y030011D01*
X036703Y030008D01*
X036740Y030001D01*
X036776Y029990D01*
X036810Y029976D01*
X036843Y029958D01*
X036873Y029936D01*
X036901Y029912D01*
X036926Y029884D01*
X036949Y029854D01*
X036968Y029822D01*
X036983Y029788D01*
X036995Y029753D01*
X037003Y029717D01*
X037007Y029680D01*
X037007Y029642D01*
X037003Y029605D01*
X036995Y029569D01*
X036983Y029534D01*
X036968Y029500D01*
X036949Y029468D01*
X036926Y029438D01*
X036901Y029410D01*
X036873Y029386D01*
X036843Y029364D01*
X036810Y029346D01*
X036776Y029332D01*
X036740Y029321D01*
X036703Y029314D01*
X036666Y029311D01*
X036629Y029312D01*
X036592Y029317D01*
X036556Y029326D01*
X036521Y029339D01*
X036487Y029355D01*
X036456Y029375D01*
X036427Y029398D01*
X036400Y029424D01*
X036376Y029452D01*
X036355Y029483D01*
X036338Y029516D01*
X036325Y029551D01*
X036315Y029587D01*
X036309Y029624D01*
X036307Y029661D01*
X035957Y029511D02*
X035357Y029811D01*
X035307Y029661D02*
X035309Y029698D01*
X035315Y029735D01*
X035325Y029771D01*
X035338Y029806D01*
X035355Y029839D01*
X035376Y029870D01*
X035400Y029898D01*
X035427Y029924D01*
X035456Y029947D01*
X035487Y029967D01*
X035521Y029983D01*
X035556Y029996D01*
X035592Y030005D01*
X035629Y030010D01*
X035666Y030011D01*
X035703Y030008D01*
X035740Y030001D01*
X035776Y029990D01*
X035810Y029976D01*
X035843Y029958D01*
X035873Y029936D01*
X035901Y029912D01*
X035926Y029884D01*
X035949Y029854D01*
X035968Y029822D01*
X035983Y029788D01*
X035995Y029753D01*
X036003Y029717D01*
X036007Y029680D01*
X036007Y029642D01*
X036003Y029605D01*
X035995Y029569D01*
X035983Y029534D01*
X035968Y029500D01*
X035949Y029468D01*
X035926Y029438D01*
X035901Y029410D01*
X035873Y029386D01*
X035843Y029364D01*
X035810Y029346D01*
X035776Y029332D01*
X035740Y029321D01*
X035703Y029314D01*
X035666Y029311D01*
X035629Y029312D01*
X035592Y029317D01*
X035556Y029326D01*
X035521Y029339D01*
X035487Y029355D01*
X035456Y029375D01*
X035427Y029398D01*
X035400Y029424D01*
X035376Y029452D01*
X035355Y029483D01*
X035338Y029516D01*
X035325Y029551D01*
X035315Y029587D01*
X035309Y029624D01*
X035307Y029661D01*
X034857Y029411D02*
X034457Y029911D01*
X034307Y029661D02*
X034309Y029698D01*
X034315Y029735D01*
X034325Y029771D01*
X034338Y029806D01*
X034355Y029839D01*
X034376Y029870D01*
X034400Y029898D01*
X034427Y029924D01*
X034456Y029947D01*
X034487Y029967D01*
X034521Y029983D01*
X034556Y029996D01*
X034592Y030005D01*
X034629Y030010D01*
X034666Y030011D01*
X034703Y030008D01*
X034740Y030001D01*
X034776Y029990D01*
X034810Y029976D01*
X034843Y029958D01*
X034873Y029936D01*
X034901Y029912D01*
X034926Y029884D01*
X034949Y029854D01*
X034968Y029822D01*
X034983Y029788D01*
X034995Y029753D01*
X035003Y029717D01*
X035007Y029680D01*
X035007Y029642D01*
X035003Y029605D01*
X034995Y029569D01*
X034983Y029534D01*
X034968Y029500D01*
X034949Y029468D01*
X034926Y029438D01*
X034901Y029410D01*
X034873Y029386D01*
X034843Y029364D01*
X034810Y029346D01*
X034776Y029332D01*
X034740Y029321D01*
X034703Y029314D01*
X034666Y029311D01*
X034629Y029312D01*
X034592Y029317D01*
X034556Y029326D01*
X034521Y029339D01*
X034487Y029355D01*
X034456Y029375D01*
X034427Y029398D01*
X034400Y029424D01*
X034376Y029452D01*
X034355Y029483D01*
X034338Y029516D01*
X034325Y029551D01*
X034315Y029587D01*
X034309Y029624D01*
X034307Y029661D01*
X033957Y029511D02*
X033357Y029811D01*
X033307Y029661D02*
X033309Y029698D01*
X033315Y029735D01*
X033325Y029771D01*
X033338Y029806D01*
X033355Y029839D01*
X033376Y029870D01*
X033400Y029898D01*
X033427Y029924D01*
X033456Y029947D01*
X033487Y029967D01*
X033521Y029983D01*
X033556Y029996D01*
X033592Y030005D01*
X033629Y030010D01*
X033666Y030011D01*
X033703Y030008D01*
X033740Y030001D01*
X033776Y029990D01*
X033810Y029976D01*
X033843Y029958D01*
X033873Y029936D01*
X033901Y029912D01*
X033926Y029884D01*
X033949Y029854D01*
X033968Y029822D01*
X033983Y029788D01*
X033995Y029753D01*
X034003Y029717D01*
X034007Y029680D01*
X034007Y029642D01*
X034003Y029605D01*
X033995Y029569D01*
X033983Y029534D01*
X033968Y029500D01*
X033949Y029468D01*
X033926Y029438D01*
X033901Y029410D01*
X033873Y029386D01*
X033843Y029364D01*
X033810Y029346D01*
X033776Y029332D01*
X033740Y029321D01*
X033703Y029314D01*
X033666Y029311D01*
X033629Y029312D01*
X033592Y029317D01*
X033556Y029326D01*
X033521Y029339D01*
X033487Y029355D01*
X033456Y029375D01*
X033427Y029398D01*
X033400Y029424D01*
X033376Y029452D01*
X033355Y029483D01*
X033338Y029516D01*
X033325Y029551D01*
X033315Y029587D01*
X033309Y029624D01*
X033307Y029661D01*
X030907Y031061D02*
X030907Y031761D01*
X030905Y031778D01*
X030901Y031795D01*
X030894Y031811D01*
X030884Y031825D01*
X030871Y031838D01*
X030857Y031848D01*
X030841Y031855D01*
X030824Y031859D01*
X030807Y031861D01*
X030657Y031861D01*
X030607Y031811D01*
X028707Y031811D01*
X028657Y031861D01*
X028507Y031861D01*
X028490Y031859D01*
X028473Y031855D01*
X028457Y031848D01*
X028443Y031838D01*
X028430Y031825D01*
X028420Y031811D01*
X028413Y031795D01*
X028409Y031778D01*
X028407Y031761D01*
X028407Y031061D01*
X028409Y031044D01*
X028413Y031027D01*
X028420Y031011D01*
X028430Y030997D01*
X028443Y030984D01*
X028457Y030974D01*
X028473Y030967D01*
X028490Y030963D01*
X028507Y030961D01*
X028657Y030961D01*
X028707Y031011D01*
X030607Y031011D01*
X030657Y030961D01*
X030807Y030961D01*
X030824Y030963D01*
X030841Y030967D01*
X030857Y030974D01*
X030871Y030984D01*
X030884Y030997D01*
X030894Y031011D01*
X030901Y031027D01*
X030905Y031044D01*
X030907Y031061D01*
X029507Y026411D02*
X028807Y026411D01*
X028790Y026409D01*
X028773Y026405D01*
X028757Y026398D01*
X028743Y026388D01*
X028730Y026375D01*
X028720Y026361D01*
X028713Y026345D01*
X028709Y026328D01*
X028707Y026311D01*
X028707Y026161D01*
X028757Y026111D01*
X028757Y024211D01*
X028707Y024161D01*
X028707Y024011D01*
X028709Y023994D01*
X028713Y023977D01*
X028720Y023961D01*
X028730Y023947D01*
X028743Y023934D01*
X028757Y023924D01*
X028773Y023917D01*
X028790Y023913D01*
X028807Y023911D01*
X029507Y023911D01*
X029524Y023913D01*
X029541Y023917D01*
X029557Y023924D01*
X029571Y023934D01*
X029584Y023947D01*
X029594Y023961D01*
X029601Y023977D01*
X029605Y023994D01*
X029607Y024011D01*
X029607Y024161D01*
X029557Y024211D01*
X029557Y026111D01*
X029607Y026161D01*
X029607Y026311D01*
X029605Y026328D01*
X029601Y026345D01*
X029594Y026361D01*
X029584Y026375D01*
X029571Y026388D01*
X029557Y026398D01*
X029541Y026405D01*
X029524Y026409D01*
X029507Y026411D01*
X029507Y021411D02*
X028807Y021411D01*
X028790Y021409D01*
X028773Y021405D01*
X028757Y021398D01*
X028743Y021388D01*
X028730Y021375D01*
X028720Y021361D01*
X028713Y021345D01*
X028709Y021328D01*
X028707Y021311D01*
X028707Y021161D01*
X028757Y021111D01*
X028757Y019211D01*
X028707Y019161D01*
X028707Y019011D01*
X028709Y018994D01*
X028713Y018977D01*
X028720Y018961D01*
X028730Y018947D01*
X028743Y018934D01*
X028757Y018924D01*
X028773Y018917D01*
X028790Y018913D01*
X028807Y018911D01*
X029507Y018911D01*
X029524Y018913D01*
X029541Y018917D01*
X029557Y018924D01*
X029571Y018934D01*
X029584Y018947D01*
X029594Y018961D01*
X029601Y018977D01*
X029605Y018994D01*
X029607Y019011D01*
X029607Y019161D01*
X029557Y019211D01*
X029557Y021111D01*
X029607Y021161D01*
X029607Y021311D01*
X029605Y021328D01*
X029601Y021345D01*
X029594Y021361D01*
X029584Y021375D01*
X029571Y021388D01*
X029557Y021398D01*
X029541Y021405D01*
X029524Y021409D01*
X029507Y021411D01*
X028207Y020661D02*
X028207Y015761D01*
X027857Y015761D01*
X027857Y015161D01*
X028207Y015161D01*
X028207Y014411D01*
X024107Y014411D01*
X024107Y015161D01*
X024457Y015161D01*
X024457Y015761D01*
X024107Y015761D01*
X024107Y020661D01*
X028207Y020661D01*
X029807Y015861D02*
X031507Y015861D01*
X031524Y015859D01*
X031541Y015855D01*
X031557Y015848D01*
X031571Y015838D01*
X031584Y015825D01*
X031594Y015811D01*
X031601Y015795D01*
X031605Y015778D01*
X031607Y015761D01*
X031607Y014961D01*
X031605Y014944D01*
X031601Y014927D01*
X031594Y014911D01*
X031584Y014897D01*
X031571Y014884D01*
X031557Y014874D01*
X031541Y014867D01*
X031524Y014863D01*
X031507Y014861D01*
X029807Y014861D01*
X029790Y014863D01*
X029773Y014867D01*
X029757Y014874D01*
X029743Y014884D01*
X029730Y014897D01*
X029720Y014911D01*
X029713Y014927D01*
X029709Y014944D01*
X029707Y014961D01*
X029707Y015761D01*
X029709Y015778D01*
X029713Y015795D01*
X029720Y015811D01*
X029730Y015825D01*
X029743Y015838D01*
X029757Y015848D01*
X029773Y015855D01*
X029790Y015859D01*
X029807Y015861D01*
X030157Y015361D02*
X030507Y015361D01*
X030557Y015361D01*
X030757Y015361D02*
X030807Y015361D01*
X031157Y015361D01*
X030557Y013161D02*
X030357Y013161D01*
X030357Y012661D01*
X030357Y012161D01*
X030557Y012161D01*
X030557Y013161D01*
X029557Y012661D02*
X029559Y012727D01*
X029565Y012792D01*
X029575Y012857D01*
X029588Y012922D01*
X029606Y012985D01*
X029627Y013048D01*
X029652Y013108D01*
X029681Y013168D01*
X029713Y013225D01*
X029748Y013281D01*
X029787Y013334D01*
X029829Y013385D01*
X029873Y013433D01*
X029921Y013478D01*
X029971Y013521D01*
X030024Y013560D01*
X030079Y013597D01*
X030136Y013630D01*
X030195Y013659D01*
X030255Y013685D01*
X030317Y013707D01*
X030380Y013726D01*
X030444Y013740D01*
X030509Y013751D01*
X030575Y013758D01*
X030641Y013761D01*
X030706Y013760D01*
X030772Y013755D01*
X030837Y013746D01*
X030902Y013733D01*
X030965Y013717D01*
X031028Y013697D01*
X031089Y013672D01*
X031149Y013645D01*
X031207Y013614D01*
X031263Y013579D01*
X031317Y013541D01*
X031368Y013500D01*
X031417Y013456D01*
X031463Y013409D01*
X031507Y013360D01*
X031547Y013308D01*
X031584Y013253D01*
X031618Y013197D01*
X031648Y013138D01*
X031675Y013078D01*
X031698Y013017D01*
X031717Y012954D01*
X031733Y012890D01*
X031745Y012825D01*
X031753Y012760D01*
X031757Y012694D01*
X031757Y012628D01*
X031753Y012562D01*
X031745Y012497D01*
X031733Y012432D01*
X031717Y012368D01*
X031698Y012305D01*
X031675Y012244D01*
X031648Y012184D01*
X031618Y012125D01*
X031584Y012069D01*
X031547Y012014D01*
X031507Y011962D01*
X031463Y011913D01*
X031417Y011866D01*
X031368Y011822D01*
X031317Y011781D01*
X031263Y011743D01*
X031207Y011708D01*
X031149Y011677D01*
X031089Y011650D01*
X031028Y011625D01*
X030965Y011605D01*
X030902Y011589D01*
X030837Y011576D01*
X030772Y011567D01*
X030706Y011562D01*
X030641Y011561D01*
X030575Y011564D01*
X030509Y011571D01*
X030444Y011582D01*
X030380Y011596D01*
X030317Y011615D01*
X030255Y011637D01*
X030195Y011663D01*
X030136Y011692D01*
X030079Y011725D01*
X030024Y011762D01*
X029971Y011801D01*
X029921Y011844D01*
X029873Y011889D01*
X029829Y011937D01*
X029787Y011988D01*
X029748Y012041D01*
X029713Y012097D01*
X029681Y012154D01*
X029652Y012214D01*
X029627Y012274D01*
X029606Y012337D01*
X029588Y012400D01*
X029575Y012465D01*
X029565Y012530D01*
X029559Y012595D01*
X029557Y012661D01*
X029607Y012661D02*
X029807Y012661D01*
X029707Y012561D02*
X029707Y012761D01*
X030007Y012661D02*
X030357Y012661D01*
X030907Y012661D02*
X031307Y012661D01*
X025447Y015761D02*
X025449Y015814D01*
X025455Y015867D01*
X025465Y015919D01*
X025479Y015970D01*
X025496Y016020D01*
X025517Y016069D01*
X025542Y016116D01*
X025570Y016161D01*
X025602Y016204D01*
X025637Y016244D01*
X025674Y016281D01*
X025714Y016316D01*
X025757Y016348D01*
X025802Y016376D01*
X025849Y016401D01*
X025898Y016422D01*
X025948Y016439D01*
X025999Y016453D01*
X026051Y016463D01*
X026104Y016469D01*
X026157Y016471D01*
X026210Y016469D01*
X026263Y016463D01*
X026315Y016453D01*
X026366Y016439D01*
X026416Y016422D01*
X026465Y016401D01*
X026512Y016376D01*
X026557Y016348D01*
X026600Y016316D01*
X026640Y016281D01*
X026677Y016244D01*
X026712Y016204D01*
X026744Y016161D01*
X026772Y016116D01*
X026797Y016069D01*
X026818Y016020D01*
X026835Y015970D01*
X026849Y015919D01*
X026859Y015867D01*
X026865Y015814D01*
X026867Y015761D01*
X026865Y015708D01*
X026859Y015655D01*
X026849Y015603D01*
X026835Y015552D01*
X026818Y015502D01*
X026797Y015453D01*
X026772Y015406D01*
X026744Y015361D01*
X026712Y015318D01*
X026677Y015278D01*
X026640Y015241D01*
X026600Y015206D01*
X026557Y015174D01*
X026512Y015146D01*
X026465Y015121D01*
X026416Y015100D01*
X026366Y015083D01*
X026315Y015069D01*
X026263Y015059D01*
X026210Y015053D01*
X026157Y015051D01*
X026104Y015053D01*
X026051Y015059D01*
X025999Y015069D01*
X025948Y015083D01*
X025898Y015100D01*
X025849Y015121D01*
X025802Y015146D01*
X025757Y015174D01*
X025714Y015206D01*
X025674Y015241D01*
X025637Y015278D01*
X025602Y015318D01*
X025570Y015361D01*
X025542Y015406D01*
X025517Y015453D01*
X025496Y015502D01*
X025479Y015552D01*
X025465Y015603D01*
X025455Y015655D01*
X025449Y015708D01*
X025447Y015761D01*
X019157Y010161D02*
X019157Y009661D01*
X018907Y009411D01*
X018407Y009411D01*
X018157Y009661D01*
X017907Y009411D01*
X017407Y009411D01*
X017157Y009661D01*
X016907Y009411D01*
X016407Y009411D01*
X016157Y009661D01*
X015907Y009411D01*
X015407Y009411D01*
X015157Y009661D01*
X014907Y009411D01*
X014407Y009411D01*
X014157Y009661D01*
X013907Y009411D01*
X013407Y009411D01*
X013157Y009661D01*
X012907Y009411D01*
X012407Y009411D01*
X012157Y009661D01*
X011907Y009411D01*
X011407Y009411D01*
X011157Y009661D01*
X010907Y009411D01*
X010407Y009411D01*
X010157Y009661D01*
X009907Y009411D01*
X009407Y009411D01*
X009157Y009661D01*
X008907Y009411D01*
X008407Y009411D01*
X008157Y009661D01*
X007907Y009411D01*
X007407Y009411D01*
X007157Y009661D01*
X006907Y009411D01*
X006407Y009411D01*
X006157Y009661D01*
X005907Y009411D01*
X005407Y009411D01*
X005157Y009661D01*
X004907Y009411D01*
X004407Y009411D01*
X004157Y009661D01*
X003907Y009411D01*
X003407Y009411D01*
X003157Y009661D01*
X003157Y010161D01*
X003407Y010411D01*
X003907Y010411D01*
X004157Y010161D01*
X004407Y010411D01*
X004907Y010411D01*
X005157Y010161D01*
X005157Y009661D01*
X005157Y010161D02*
X005407Y010411D01*
X005907Y010411D01*
X006157Y010161D01*
X006407Y010411D01*
X006907Y010411D01*
X007157Y010161D01*
X007407Y010411D01*
X007907Y010411D01*
X008157Y010161D01*
X008157Y009661D01*
X008157Y010161D02*
X008407Y010411D01*
X008907Y010411D01*
X009157Y010161D01*
X009407Y010411D01*
X009907Y010411D01*
X010157Y010161D01*
X010407Y010411D01*
X010907Y010411D01*
X011157Y010161D01*
X011157Y009661D01*
X011157Y010161D02*
X011407Y010411D01*
X011907Y010411D01*
X012157Y010161D01*
X012407Y010411D01*
X012907Y010411D01*
X013157Y010161D01*
X013407Y010411D01*
X013907Y010411D01*
X014157Y010161D01*
X014157Y009661D01*
X014157Y010161D02*
X014407Y010411D01*
X014907Y010411D01*
X015157Y010161D01*
X015407Y010411D01*
X015907Y010411D01*
X016157Y010161D01*
X016407Y010411D01*
X016907Y010411D01*
X017157Y010161D01*
X017157Y009661D01*
X017157Y010161D02*
X017407Y010411D01*
X017907Y010411D01*
X018157Y010161D01*
X018407Y010411D01*
X018907Y010411D01*
X019157Y010161D01*
X018157Y010161D02*
X018157Y009661D01*
X016157Y009661D02*
X016157Y010161D01*
X015157Y010161D02*
X015157Y009661D01*
X013157Y009661D02*
X013157Y010161D01*
X012157Y010161D02*
X012157Y009661D01*
X010157Y009661D02*
X010157Y010161D01*
X009157Y010161D02*
X009157Y009661D01*
X007157Y009661D02*
X007157Y010161D01*
X006157Y010161D02*
X006157Y009661D01*
X004157Y009661D02*
X004157Y010161D01*
X002457Y006461D02*
X001857Y006461D01*
X001857Y006361D01*
X001757Y006361D01*
X001157Y006361D01*
X000957Y006161D01*
X000957Y006011D01*
X000957Y005661D01*
X000957Y004661D01*
X000957Y004311D01*
X000957Y004161D01*
X001157Y003961D01*
X001757Y003961D01*
X001857Y003961D01*
X001857Y003861D01*
X002457Y003861D01*
X002457Y003961D01*
X002557Y003961D01*
X003157Y003961D01*
X003357Y004161D01*
X003357Y004311D01*
X003357Y004661D01*
X003357Y005611D01*
X003357Y006011D01*
X003357Y006161D01*
X003157Y006361D01*
X002557Y006361D01*
X002457Y006361D01*
X002457Y006461D01*
X002757Y006011D02*
X002759Y006039D01*
X002765Y006066D01*
X002774Y006092D01*
X002787Y006117D01*
X002804Y006140D01*
X002823Y006160D01*
X002845Y006177D01*
X002869Y006191D01*
X002895Y006201D01*
X002922Y006208D01*
X002950Y006211D01*
X002978Y006210D01*
X003005Y006205D01*
X003032Y006196D01*
X003057Y006184D01*
X003080Y006169D01*
X003101Y006150D01*
X003119Y006129D01*
X003134Y006105D01*
X003145Y006079D01*
X003153Y006053D01*
X003157Y006025D01*
X003157Y005997D01*
X003153Y005969D01*
X003145Y005943D01*
X003134Y005917D01*
X003119Y005893D01*
X003101Y005872D01*
X003080Y005853D01*
X003057Y005838D01*
X003032Y005826D01*
X003005Y005817D01*
X002978Y005812D01*
X002950Y005811D01*
X002922Y005814D01*
X002895Y005821D01*
X002869Y005831D01*
X002845Y005845D01*
X002823Y005862D01*
X002804Y005882D01*
X002787Y005905D01*
X002774Y005930D01*
X002765Y005956D01*
X002759Y005983D01*
X002757Y006011D01*
X003007Y005661D02*
X003007Y004661D01*
X002807Y004311D02*
X002809Y004339D01*
X002815Y004366D01*
X002824Y004392D01*
X002837Y004417D01*
X002854Y004440D01*
X002873Y004460D01*
X002895Y004477D01*
X002919Y004491D01*
X002945Y004501D01*
X002972Y004508D01*
X003000Y004511D01*
X003028Y004510D01*
X003055Y004505D01*
X003082Y004496D01*
X003107Y004484D01*
X003130Y004469D01*
X003151Y004450D01*
X003169Y004429D01*
X003184Y004405D01*
X003195Y004379D01*
X003203Y004353D01*
X003207Y004325D01*
X003207Y004297D01*
X003203Y004269D01*
X003195Y004243D01*
X003184Y004217D01*
X003169Y004193D01*
X003151Y004172D01*
X003130Y004153D01*
X003107Y004138D01*
X003082Y004126D01*
X003055Y004117D01*
X003028Y004112D01*
X003000Y004111D01*
X002972Y004114D01*
X002945Y004121D01*
X002919Y004131D01*
X002895Y004145D01*
X002873Y004162D01*
X002854Y004182D01*
X002837Y004205D01*
X002824Y004230D01*
X002815Y004256D01*
X002809Y004283D01*
X002807Y004311D01*
X002657Y004211D02*
X002357Y004211D01*
X002307Y004311D02*
X001957Y004211D01*
X001657Y004211D01*
X001107Y004311D02*
X001109Y004339D01*
X001115Y004366D01*
X001124Y004392D01*
X001137Y004417D01*
X001154Y004440D01*
X001173Y004460D01*
X001195Y004477D01*
X001219Y004491D01*
X001245Y004501D01*
X001272Y004508D01*
X001300Y004511D01*
X001328Y004510D01*
X001355Y004505D01*
X001382Y004496D01*
X001407Y004484D01*
X001430Y004469D01*
X001451Y004450D01*
X001469Y004429D01*
X001484Y004405D01*
X001495Y004379D01*
X001503Y004353D01*
X001507Y004325D01*
X001507Y004297D01*
X001503Y004269D01*
X001495Y004243D01*
X001484Y004217D01*
X001469Y004193D01*
X001451Y004172D01*
X001430Y004153D01*
X001407Y004138D01*
X001382Y004126D01*
X001355Y004117D01*
X001328Y004112D01*
X001300Y004111D01*
X001272Y004114D01*
X001245Y004121D01*
X001219Y004131D01*
X001195Y004145D01*
X001173Y004162D01*
X001154Y004182D01*
X001137Y004205D01*
X001124Y004230D01*
X001115Y004256D01*
X001109Y004283D01*
X001107Y004311D01*
X001257Y004661D02*
X001257Y005661D01*
X001107Y006011D02*
X001109Y006039D01*
X001115Y006066D01*
X001124Y006092D01*
X001137Y006117D01*
X001154Y006140D01*
X001173Y006160D01*
X001195Y006177D01*
X001219Y006191D01*
X001245Y006201D01*
X001272Y006208D01*
X001300Y006211D01*
X001328Y006210D01*
X001355Y006205D01*
X001382Y006196D01*
X001407Y006184D01*
X001430Y006169D01*
X001451Y006150D01*
X001469Y006129D01*
X001484Y006105D01*
X001495Y006079D01*
X001503Y006053D01*
X001507Y006025D01*
X001507Y005997D01*
X001503Y005969D01*
X001495Y005943D01*
X001484Y005917D01*
X001469Y005893D01*
X001451Y005872D01*
X001430Y005853D01*
X001407Y005838D01*
X001382Y005826D01*
X001355Y005817D01*
X001328Y005812D01*
X001300Y005811D01*
X001272Y005814D01*
X001245Y005821D01*
X001219Y005831D01*
X001195Y005845D01*
X001173Y005862D01*
X001154Y005882D01*
X001137Y005905D01*
X001124Y005930D01*
X001115Y005956D01*
X001109Y005983D01*
X001107Y006011D01*
X002057Y005161D02*
X002059Y005181D01*
X002065Y005199D01*
X002074Y005217D01*
X002086Y005232D01*
X002101Y005244D01*
X002119Y005253D01*
X002137Y005259D01*
X002157Y005261D01*
X002177Y005259D01*
X002195Y005253D01*
X002213Y005244D01*
X002228Y005232D01*
X002240Y005217D01*
X002249Y005199D01*
X002255Y005181D01*
X002257Y005161D01*
X002255Y005141D01*
X002249Y005123D01*
X002240Y005105D01*
X002228Y005090D01*
X002213Y005078D01*
X002195Y005069D01*
X002177Y005063D01*
X002157Y005061D01*
X002137Y005063D01*
X002119Y005069D01*
X002101Y005078D01*
X002086Y005090D01*
X002074Y005105D01*
X002065Y005123D01*
X002059Y005141D01*
X002057Y005161D01*
X001457Y005161D02*
X001459Y005213D01*
X001465Y005265D01*
X001475Y005317D01*
X001488Y005367D01*
X001505Y005417D01*
X001526Y005465D01*
X001551Y005511D01*
X001579Y005555D01*
X001610Y005597D01*
X001644Y005637D01*
X001681Y005674D01*
X001721Y005708D01*
X001763Y005739D01*
X001807Y005767D01*
X001853Y005792D01*
X001901Y005813D01*
X001951Y005830D01*
X002001Y005843D01*
X002053Y005853D01*
X002105Y005859D01*
X002157Y005861D01*
X002209Y005859D01*
X002261Y005853D01*
X002313Y005843D01*
X002363Y005830D01*
X002413Y005813D01*
X002461Y005792D01*
X002507Y005767D01*
X002551Y005739D01*
X002593Y005708D01*
X002633Y005674D01*
X002670Y005637D01*
X002704Y005597D01*
X002735Y005555D01*
X002763Y005511D01*
X002788Y005465D01*
X002809Y005417D01*
X002826Y005367D01*
X002839Y005317D01*
X002849Y005265D01*
X002855Y005213D01*
X002857Y005161D01*
X002855Y005109D01*
X002849Y005057D01*
X002839Y005005D01*
X002826Y004955D01*
X002809Y004905D01*
X002788Y004857D01*
X002763Y004811D01*
X002735Y004767D01*
X002704Y004725D01*
X002670Y004685D01*
X002633Y004648D01*
X002593Y004614D01*
X002551Y004583D01*
X002507Y004555D01*
X002461Y004530D01*
X002413Y004509D01*
X002363Y004492D01*
X002313Y004479D01*
X002261Y004469D01*
X002209Y004463D01*
X002157Y004461D01*
X002105Y004463D01*
X002053Y004469D01*
X002001Y004479D01*
X001951Y004492D01*
X001901Y004509D01*
X001853Y004530D01*
X001807Y004555D01*
X001763Y004583D01*
X001721Y004614D01*
X001681Y004648D01*
X001644Y004685D01*
X001610Y004725D01*
X001579Y004767D01*
X001551Y004811D01*
X001526Y004857D01*
X001505Y004905D01*
X001488Y004955D01*
X001475Y005005D01*
X001465Y005057D01*
X001459Y005109D01*
X001457Y005161D01*
X004707Y006161D02*
X004757Y006111D01*
X004757Y004211D01*
X004707Y004161D01*
X004707Y004011D01*
X004709Y003994D01*
X004713Y003977D01*
X004720Y003961D01*
X004730Y003947D01*
X004743Y003934D01*
X004757Y003924D01*
X004773Y003917D01*
X004790Y003913D01*
X004807Y003911D01*
X005507Y003911D01*
X005524Y003913D01*
X005541Y003917D01*
X005557Y003924D01*
X005571Y003934D01*
X005584Y003947D01*
X005594Y003961D01*
X005601Y003977D01*
X005605Y003994D01*
X005607Y004011D01*
X005607Y004161D01*
X005557Y004211D01*
X005557Y006111D01*
X005607Y006161D01*
X005607Y006311D01*
X005605Y006328D01*
X005601Y006345D01*
X005594Y006361D01*
X005584Y006375D01*
X005571Y006388D01*
X005557Y006398D01*
X005541Y006405D01*
X005524Y006409D01*
X005507Y006411D01*
X004807Y006411D01*
X004790Y006409D01*
X004773Y006405D01*
X004757Y006398D01*
X004743Y006388D01*
X004730Y006375D01*
X004720Y006361D01*
X004713Y006345D01*
X004709Y006328D01*
X004707Y006311D01*
X004707Y006161D01*
X006957Y006161D02*
X006957Y006011D01*
X006957Y005661D01*
X006957Y004661D01*
X006957Y004311D01*
X006957Y004161D01*
X007157Y003961D01*
X007757Y003961D01*
X007857Y003961D01*
X007857Y003861D01*
X008457Y003861D01*
X008457Y003961D01*
X008557Y003961D01*
X009157Y003961D01*
X009357Y004161D01*
X009357Y004311D01*
X009357Y004661D01*
X009357Y005611D01*
X009357Y006011D01*
X009357Y006161D01*
X009157Y006361D01*
X008557Y006361D01*
X008457Y006361D01*
X008457Y006461D01*
X007857Y006461D01*
X007857Y006361D01*
X007757Y006361D01*
X007157Y006361D01*
X006957Y006161D01*
X007107Y006011D02*
X007109Y006039D01*
X007115Y006066D01*
X007124Y006092D01*
X007137Y006117D01*
X007154Y006140D01*
X007173Y006160D01*
X007195Y006177D01*
X007219Y006191D01*
X007245Y006201D01*
X007272Y006208D01*
X007300Y006211D01*
X007328Y006210D01*
X007355Y006205D01*
X007382Y006196D01*
X007407Y006184D01*
X007430Y006169D01*
X007451Y006150D01*
X007469Y006129D01*
X007484Y006105D01*
X007495Y006079D01*
X007503Y006053D01*
X007507Y006025D01*
X007507Y005997D01*
X007503Y005969D01*
X007495Y005943D01*
X007484Y005917D01*
X007469Y005893D01*
X007451Y005872D01*
X007430Y005853D01*
X007407Y005838D01*
X007382Y005826D01*
X007355Y005817D01*
X007328Y005812D01*
X007300Y005811D01*
X007272Y005814D01*
X007245Y005821D01*
X007219Y005831D01*
X007195Y005845D01*
X007173Y005862D01*
X007154Y005882D01*
X007137Y005905D01*
X007124Y005930D01*
X007115Y005956D01*
X007109Y005983D01*
X007107Y006011D01*
X007257Y005661D02*
X007257Y004661D01*
X007107Y004311D02*
X007109Y004339D01*
X007115Y004366D01*
X007124Y004392D01*
X007137Y004417D01*
X007154Y004440D01*
X007173Y004460D01*
X007195Y004477D01*
X007219Y004491D01*
X007245Y004501D01*
X007272Y004508D01*
X007300Y004511D01*
X007328Y004510D01*
X007355Y004505D01*
X007382Y004496D01*
X007407Y004484D01*
X007430Y004469D01*
X007451Y004450D01*
X007469Y004429D01*
X007484Y004405D01*
X007495Y004379D01*
X007503Y004353D01*
X007507Y004325D01*
X007507Y004297D01*
X007503Y004269D01*
X007495Y004243D01*
X007484Y004217D01*
X007469Y004193D01*
X007451Y004172D01*
X007430Y004153D01*
X007407Y004138D01*
X007382Y004126D01*
X007355Y004117D01*
X007328Y004112D01*
X007300Y004111D01*
X007272Y004114D01*
X007245Y004121D01*
X007219Y004131D01*
X007195Y004145D01*
X007173Y004162D01*
X007154Y004182D01*
X007137Y004205D01*
X007124Y004230D01*
X007115Y004256D01*
X007109Y004283D01*
X007107Y004311D01*
X007657Y004211D02*
X007957Y004211D01*
X008307Y004311D01*
X008357Y004211D02*
X008657Y004211D01*
X008807Y004311D02*
X008809Y004339D01*
X008815Y004366D01*
X008824Y004392D01*
X008837Y004417D01*
X008854Y004440D01*
X008873Y004460D01*
X008895Y004477D01*
X008919Y004491D01*
X008945Y004501D01*
X008972Y004508D01*
X009000Y004511D01*
X009028Y004510D01*
X009055Y004505D01*
X009082Y004496D01*
X009107Y004484D01*
X009130Y004469D01*
X009151Y004450D01*
X009169Y004429D01*
X009184Y004405D01*
X009195Y004379D01*
X009203Y004353D01*
X009207Y004325D01*
X009207Y004297D01*
X009203Y004269D01*
X009195Y004243D01*
X009184Y004217D01*
X009169Y004193D01*
X009151Y004172D01*
X009130Y004153D01*
X009107Y004138D01*
X009082Y004126D01*
X009055Y004117D01*
X009028Y004112D01*
X009000Y004111D01*
X008972Y004114D01*
X008945Y004121D01*
X008919Y004131D01*
X008895Y004145D01*
X008873Y004162D01*
X008854Y004182D01*
X008837Y004205D01*
X008824Y004230D01*
X008815Y004256D01*
X008809Y004283D01*
X008807Y004311D01*
X009007Y004661D02*
X009007Y005661D01*
X008757Y006011D02*
X008759Y006039D01*
X008765Y006066D01*
X008774Y006092D01*
X008787Y006117D01*
X008804Y006140D01*
X008823Y006160D01*
X008845Y006177D01*
X008869Y006191D01*
X008895Y006201D01*
X008922Y006208D01*
X008950Y006211D01*
X008978Y006210D01*
X009005Y006205D01*
X009032Y006196D01*
X009057Y006184D01*
X009080Y006169D01*
X009101Y006150D01*
X009119Y006129D01*
X009134Y006105D01*
X009145Y006079D01*
X009153Y006053D01*
X009157Y006025D01*
X009157Y005997D01*
X009153Y005969D01*
X009145Y005943D01*
X009134Y005917D01*
X009119Y005893D01*
X009101Y005872D01*
X009080Y005853D01*
X009057Y005838D01*
X009032Y005826D01*
X009005Y005817D01*
X008978Y005812D01*
X008950Y005811D01*
X008922Y005814D01*
X008895Y005821D01*
X008869Y005831D01*
X008845Y005845D01*
X008823Y005862D01*
X008804Y005882D01*
X008787Y005905D01*
X008774Y005930D01*
X008765Y005956D01*
X008759Y005983D01*
X008757Y006011D01*
X008057Y005161D02*
X008059Y005181D01*
X008065Y005199D01*
X008074Y005217D01*
X008086Y005232D01*
X008101Y005244D01*
X008119Y005253D01*
X008137Y005259D01*
X008157Y005261D01*
X008177Y005259D01*
X008195Y005253D01*
X008213Y005244D01*
X008228Y005232D01*
X008240Y005217D01*
X008249Y005199D01*
X008255Y005181D01*
X008257Y005161D01*
X008255Y005141D01*
X008249Y005123D01*
X008240Y005105D01*
X008228Y005090D01*
X008213Y005078D01*
X008195Y005069D01*
X008177Y005063D01*
X008157Y005061D01*
X008137Y005063D01*
X008119Y005069D01*
X008101Y005078D01*
X008086Y005090D01*
X008074Y005105D01*
X008065Y005123D01*
X008059Y005141D01*
X008057Y005161D01*
X007457Y005161D02*
X007459Y005213D01*
X007465Y005265D01*
X007475Y005317D01*
X007488Y005367D01*
X007505Y005417D01*
X007526Y005465D01*
X007551Y005511D01*
X007579Y005555D01*
X007610Y005597D01*
X007644Y005637D01*
X007681Y005674D01*
X007721Y005708D01*
X007763Y005739D01*
X007807Y005767D01*
X007853Y005792D01*
X007901Y005813D01*
X007951Y005830D01*
X008001Y005843D01*
X008053Y005853D01*
X008105Y005859D01*
X008157Y005861D01*
X008209Y005859D01*
X008261Y005853D01*
X008313Y005843D01*
X008363Y005830D01*
X008413Y005813D01*
X008461Y005792D01*
X008507Y005767D01*
X008551Y005739D01*
X008593Y005708D01*
X008633Y005674D01*
X008670Y005637D01*
X008704Y005597D01*
X008735Y005555D01*
X008763Y005511D01*
X008788Y005465D01*
X008809Y005417D01*
X008826Y005367D01*
X008839Y005317D01*
X008849Y005265D01*
X008855Y005213D01*
X008857Y005161D01*
X008855Y005109D01*
X008849Y005057D01*
X008839Y005005D01*
X008826Y004955D01*
X008809Y004905D01*
X008788Y004857D01*
X008763Y004811D01*
X008735Y004767D01*
X008704Y004725D01*
X008670Y004685D01*
X008633Y004648D01*
X008593Y004614D01*
X008551Y004583D01*
X008507Y004555D01*
X008461Y004530D01*
X008413Y004509D01*
X008363Y004492D01*
X008313Y004479D01*
X008261Y004469D01*
X008209Y004463D01*
X008157Y004461D01*
X008105Y004463D01*
X008053Y004469D01*
X008001Y004479D01*
X007951Y004492D01*
X007901Y004509D01*
X007853Y004530D01*
X007807Y004555D01*
X007763Y004583D01*
X007721Y004614D01*
X007681Y004648D01*
X007644Y004685D01*
X007610Y004725D01*
X007579Y004767D01*
X007551Y004811D01*
X007526Y004857D01*
X007505Y004905D01*
X007488Y004955D01*
X007475Y005005D01*
X007465Y005057D01*
X007459Y005109D01*
X007457Y005161D01*
X010207Y006161D02*
X010257Y006111D01*
X010257Y004211D01*
X010207Y004161D01*
X010207Y004011D01*
X010209Y003994D01*
X010213Y003977D01*
X010220Y003961D01*
X010230Y003947D01*
X010243Y003934D01*
X010257Y003924D01*
X010273Y003917D01*
X010290Y003913D01*
X010307Y003911D01*
X011007Y003911D01*
X011024Y003913D01*
X011041Y003917D01*
X011057Y003924D01*
X011071Y003934D01*
X011084Y003947D01*
X011094Y003961D01*
X011101Y003977D01*
X011105Y003994D01*
X011107Y004011D01*
X011107Y004161D01*
X011057Y004211D01*
X011057Y006111D01*
X011107Y006161D01*
X011107Y006311D01*
X011105Y006328D01*
X011101Y006345D01*
X011094Y006361D01*
X011084Y006375D01*
X011071Y006388D01*
X011057Y006398D01*
X011041Y006405D01*
X011024Y006409D01*
X011007Y006411D01*
X010307Y006411D01*
X010290Y006409D01*
X010273Y006405D01*
X010257Y006398D01*
X010243Y006388D01*
X010230Y006375D01*
X010220Y006361D01*
X010213Y006345D01*
X010209Y006328D01*
X010207Y006311D01*
X010207Y006161D01*
X011707Y006161D02*
X011757Y006111D01*
X011757Y004211D01*
X011707Y004161D01*
X011707Y004011D01*
X011709Y003994D01*
X011713Y003977D01*
X011720Y003961D01*
X011730Y003947D01*
X011743Y003934D01*
X011757Y003924D01*
X011773Y003917D01*
X011790Y003913D01*
X011807Y003911D01*
X012507Y003911D01*
X012524Y003913D01*
X012541Y003917D01*
X012557Y003924D01*
X012571Y003934D01*
X012584Y003947D01*
X012594Y003961D01*
X012601Y003977D01*
X012605Y003994D01*
X012607Y004011D01*
X012607Y004161D01*
X012557Y004211D01*
X012557Y006111D01*
X012607Y006161D01*
X012607Y006311D01*
X012605Y006328D01*
X012601Y006345D01*
X012594Y006361D01*
X012584Y006375D01*
X012571Y006388D01*
X012557Y006398D01*
X012541Y006405D01*
X012524Y006409D01*
X012507Y006411D01*
X011807Y006411D01*
X011790Y006409D01*
X011773Y006405D01*
X011757Y006398D01*
X011743Y006388D01*
X011730Y006375D01*
X011720Y006361D01*
X011713Y006345D01*
X011709Y006328D01*
X011707Y006311D01*
X011707Y006161D01*
X012957Y006161D02*
X012957Y006011D01*
X012957Y005661D01*
X012957Y004661D01*
X012957Y004311D01*
X012957Y004161D01*
X013157Y003961D01*
X013757Y003961D01*
X013857Y003961D01*
X013857Y003861D01*
X014457Y003861D01*
X014457Y003961D01*
X014557Y003961D01*
X015157Y003961D01*
X015357Y004161D01*
X015357Y004311D01*
X015357Y004661D01*
X015357Y005611D01*
X015357Y006011D01*
X015357Y006161D01*
X015157Y006361D01*
X014557Y006361D01*
X014457Y006361D01*
X014457Y006461D01*
X013857Y006461D01*
X013857Y006361D01*
X013757Y006361D01*
X013157Y006361D01*
X012957Y006161D01*
X013107Y006011D02*
X013109Y006039D01*
X013115Y006066D01*
X013124Y006092D01*
X013137Y006117D01*
X013154Y006140D01*
X013173Y006160D01*
X013195Y006177D01*
X013219Y006191D01*
X013245Y006201D01*
X013272Y006208D01*
X013300Y006211D01*
X013328Y006210D01*
X013355Y006205D01*
X013382Y006196D01*
X013407Y006184D01*
X013430Y006169D01*
X013451Y006150D01*
X013469Y006129D01*
X013484Y006105D01*
X013495Y006079D01*
X013503Y006053D01*
X013507Y006025D01*
X013507Y005997D01*
X013503Y005969D01*
X013495Y005943D01*
X013484Y005917D01*
X013469Y005893D01*
X013451Y005872D01*
X013430Y005853D01*
X013407Y005838D01*
X013382Y005826D01*
X013355Y005817D01*
X013328Y005812D01*
X013300Y005811D01*
X013272Y005814D01*
X013245Y005821D01*
X013219Y005831D01*
X013195Y005845D01*
X013173Y005862D01*
X013154Y005882D01*
X013137Y005905D01*
X013124Y005930D01*
X013115Y005956D01*
X013109Y005983D01*
X013107Y006011D01*
X013257Y005661D02*
X013257Y004661D01*
X013107Y004311D02*
X013109Y004339D01*
X013115Y004366D01*
X013124Y004392D01*
X013137Y004417D01*
X013154Y004440D01*
X013173Y004460D01*
X013195Y004477D01*
X013219Y004491D01*
X013245Y004501D01*
X013272Y004508D01*
X013300Y004511D01*
X013328Y004510D01*
X013355Y004505D01*
X013382Y004496D01*
X013407Y004484D01*
X013430Y004469D01*
X013451Y004450D01*
X013469Y004429D01*
X013484Y004405D01*
X013495Y004379D01*
X013503Y004353D01*
X013507Y004325D01*
X013507Y004297D01*
X013503Y004269D01*
X013495Y004243D01*
X013484Y004217D01*
X013469Y004193D01*
X013451Y004172D01*
X013430Y004153D01*
X013407Y004138D01*
X013382Y004126D01*
X013355Y004117D01*
X013328Y004112D01*
X013300Y004111D01*
X013272Y004114D01*
X013245Y004121D01*
X013219Y004131D01*
X013195Y004145D01*
X013173Y004162D01*
X013154Y004182D01*
X013137Y004205D01*
X013124Y004230D01*
X013115Y004256D01*
X013109Y004283D01*
X013107Y004311D01*
X013657Y004211D02*
X013957Y004211D01*
X014307Y004311D01*
X014357Y004211D02*
X014657Y004211D01*
X014807Y004311D02*
X014809Y004339D01*
X014815Y004366D01*
X014824Y004392D01*
X014837Y004417D01*
X014854Y004440D01*
X014873Y004460D01*
X014895Y004477D01*
X014919Y004491D01*
X014945Y004501D01*
X014972Y004508D01*
X015000Y004511D01*
X015028Y004510D01*
X015055Y004505D01*
X015082Y004496D01*
X015107Y004484D01*
X015130Y004469D01*
X015151Y004450D01*
X015169Y004429D01*
X015184Y004405D01*
X015195Y004379D01*
X015203Y004353D01*
X015207Y004325D01*
X015207Y004297D01*
X015203Y004269D01*
X015195Y004243D01*
X015184Y004217D01*
X015169Y004193D01*
X015151Y004172D01*
X015130Y004153D01*
X015107Y004138D01*
X015082Y004126D01*
X015055Y004117D01*
X015028Y004112D01*
X015000Y004111D01*
X014972Y004114D01*
X014945Y004121D01*
X014919Y004131D01*
X014895Y004145D01*
X014873Y004162D01*
X014854Y004182D01*
X014837Y004205D01*
X014824Y004230D01*
X014815Y004256D01*
X014809Y004283D01*
X014807Y004311D01*
X015007Y004661D02*
X015007Y005661D01*
X014757Y006011D02*
X014759Y006039D01*
X014765Y006066D01*
X014774Y006092D01*
X014787Y006117D01*
X014804Y006140D01*
X014823Y006160D01*
X014845Y006177D01*
X014869Y006191D01*
X014895Y006201D01*
X014922Y006208D01*
X014950Y006211D01*
X014978Y006210D01*
X015005Y006205D01*
X015032Y006196D01*
X015057Y006184D01*
X015080Y006169D01*
X015101Y006150D01*
X015119Y006129D01*
X015134Y006105D01*
X015145Y006079D01*
X015153Y006053D01*
X015157Y006025D01*
X015157Y005997D01*
X015153Y005969D01*
X015145Y005943D01*
X015134Y005917D01*
X015119Y005893D01*
X015101Y005872D01*
X015080Y005853D01*
X015057Y005838D01*
X015032Y005826D01*
X015005Y005817D01*
X014978Y005812D01*
X014950Y005811D01*
X014922Y005814D01*
X014895Y005821D01*
X014869Y005831D01*
X014845Y005845D01*
X014823Y005862D01*
X014804Y005882D01*
X014787Y005905D01*
X014774Y005930D01*
X014765Y005956D01*
X014759Y005983D01*
X014757Y006011D01*
X014057Y005161D02*
X014059Y005181D01*
X014065Y005199D01*
X014074Y005217D01*
X014086Y005232D01*
X014101Y005244D01*
X014119Y005253D01*
X014137Y005259D01*
X014157Y005261D01*
X014177Y005259D01*
X014195Y005253D01*
X014213Y005244D01*
X014228Y005232D01*
X014240Y005217D01*
X014249Y005199D01*
X014255Y005181D01*
X014257Y005161D01*
X014255Y005141D01*
X014249Y005123D01*
X014240Y005105D01*
X014228Y005090D01*
X014213Y005078D01*
X014195Y005069D01*
X014177Y005063D01*
X014157Y005061D01*
X014137Y005063D01*
X014119Y005069D01*
X014101Y005078D01*
X014086Y005090D01*
X014074Y005105D01*
X014065Y005123D01*
X014059Y005141D01*
X014057Y005161D01*
X013457Y005161D02*
X013459Y005213D01*
X013465Y005265D01*
X013475Y005317D01*
X013488Y005367D01*
X013505Y005417D01*
X013526Y005465D01*
X013551Y005511D01*
X013579Y005555D01*
X013610Y005597D01*
X013644Y005637D01*
X013681Y005674D01*
X013721Y005708D01*
X013763Y005739D01*
X013807Y005767D01*
X013853Y005792D01*
X013901Y005813D01*
X013951Y005830D01*
X014001Y005843D01*
X014053Y005853D01*
X014105Y005859D01*
X014157Y005861D01*
X014209Y005859D01*
X014261Y005853D01*
X014313Y005843D01*
X014363Y005830D01*
X014413Y005813D01*
X014461Y005792D01*
X014507Y005767D01*
X014551Y005739D01*
X014593Y005708D01*
X014633Y005674D01*
X014670Y005637D01*
X014704Y005597D01*
X014735Y005555D01*
X014763Y005511D01*
X014788Y005465D01*
X014809Y005417D01*
X014826Y005367D01*
X014839Y005317D01*
X014849Y005265D01*
X014855Y005213D01*
X014857Y005161D01*
X014855Y005109D01*
X014849Y005057D01*
X014839Y005005D01*
X014826Y004955D01*
X014809Y004905D01*
X014788Y004857D01*
X014763Y004811D01*
X014735Y004767D01*
X014704Y004725D01*
X014670Y004685D01*
X014633Y004648D01*
X014593Y004614D01*
X014551Y004583D01*
X014507Y004555D01*
X014461Y004530D01*
X014413Y004509D01*
X014363Y004492D01*
X014313Y004479D01*
X014261Y004469D01*
X014209Y004463D01*
X014157Y004461D01*
X014105Y004463D01*
X014053Y004469D01*
X014001Y004479D01*
X013951Y004492D01*
X013901Y004509D01*
X013853Y004530D01*
X013807Y004555D01*
X013763Y004583D01*
X013721Y004614D01*
X013681Y004648D01*
X013644Y004685D01*
X013610Y004725D01*
X013579Y004767D01*
X013551Y004811D01*
X013526Y004857D01*
X013505Y004905D01*
X013488Y004955D01*
X013475Y005005D01*
X013465Y005057D01*
X013459Y005109D01*
X013457Y005161D01*
X016207Y006161D02*
X016257Y006111D01*
X016257Y004211D01*
X016207Y004161D01*
X016207Y004011D01*
X016209Y003994D01*
X016213Y003977D01*
X016220Y003961D01*
X016230Y003947D01*
X016243Y003934D01*
X016257Y003924D01*
X016273Y003917D01*
X016290Y003913D01*
X016307Y003911D01*
X017007Y003911D01*
X017024Y003913D01*
X017041Y003917D01*
X017057Y003924D01*
X017071Y003934D01*
X017084Y003947D01*
X017094Y003961D01*
X017101Y003977D01*
X017105Y003994D01*
X017107Y004011D01*
X017107Y004161D01*
X017057Y004211D01*
X017057Y006111D01*
X017107Y006161D01*
X017107Y006311D01*
X017105Y006328D01*
X017101Y006345D01*
X017094Y006361D01*
X017084Y006375D01*
X017071Y006388D01*
X017057Y006398D01*
X017041Y006405D01*
X017024Y006409D01*
X017007Y006411D01*
X016307Y006411D01*
X016290Y006409D01*
X016273Y006405D01*
X016257Y006398D01*
X016243Y006388D01*
X016230Y006375D01*
X016220Y006361D01*
X016213Y006345D01*
X016209Y006328D01*
X016207Y006311D01*
X016207Y006161D01*
X018307Y006661D02*
X018307Y005461D01*
X018307Y004961D01*
X018307Y004061D01*
X018657Y004061D01*
X018657Y004761D01*
X018657Y005011D01*
X018307Y005011D01*
X018657Y004061D02*
X020657Y004061D01*
X020657Y004761D01*
X020657Y005011D01*
X021007Y005011D01*
X021007Y004961D02*
X021007Y004061D01*
X020657Y004061D01*
X020457Y004511D02*
X019607Y004511D01*
X019607Y004661D01*
X019657Y004711D01*
X019657Y004311D01*
X019607Y004361D01*
X019607Y004511D01*
X019457Y004511D01*
X019507Y004461D01*
X019557Y004411D01*
X019607Y004361D01*
X019557Y004411D02*
X019557Y004611D01*
X019507Y004561D01*
X019507Y004461D01*
X019457Y004511D02*
X019507Y004561D01*
X019557Y004611D02*
X019607Y004661D01*
X021007Y004961D02*
X021007Y005461D01*
X021007Y006661D01*
X018307Y006661D01*
X022407Y007311D02*
X022407Y008011D01*
X022409Y008028D01*
X022413Y008045D01*
X022420Y008061D01*
X022430Y008075D01*
X022443Y008088D01*
X022457Y008098D01*
X022473Y008105D01*
X022490Y008109D01*
X022507Y008111D01*
X022657Y008111D01*
X022707Y008061D01*
X024607Y008061D01*
X024657Y008111D01*
X024807Y008111D01*
X024824Y008109D01*
X024841Y008105D01*
X024857Y008098D01*
X024871Y008088D01*
X024884Y008075D01*
X024894Y008061D01*
X024901Y008045D01*
X024905Y008028D01*
X024907Y008011D01*
X024907Y007311D01*
X024905Y007294D01*
X024901Y007277D01*
X024894Y007261D01*
X024884Y007247D01*
X024871Y007234D01*
X024857Y007224D01*
X024841Y007217D01*
X024824Y007213D01*
X024807Y007211D01*
X024657Y007211D01*
X024607Y007261D01*
X022707Y007261D01*
X022657Y007211D01*
X022507Y007211D01*
X022490Y007213D01*
X022473Y007217D01*
X022457Y007224D01*
X022443Y007234D01*
X022430Y007247D01*
X022420Y007261D01*
X022413Y007277D01*
X022409Y007294D01*
X022407Y007311D01*
X027407Y007311D02*
X027407Y008011D01*
X027409Y008028D01*
X027413Y008045D01*
X027420Y008061D01*
X027430Y008075D01*
X027443Y008088D01*
X027457Y008098D01*
X027473Y008105D01*
X027490Y008109D01*
X027507Y008111D01*
X027657Y008111D01*
X027707Y008061D01*
X029607Y008061D01*
X029657Y008111D01*
X029807Y008111D01*
X029824Y008109D01*
X029841Y008105D01*
X029857Y008098D01*
X029871Y008088D01*
X029884Y008075D01*
X029894Y008061D01*
X029901Y008045D01*
X029905Y008028D01*
X029907Y008011D01*
X029907Y007311D01*
X029905Y007294D01*
X029901Y007277D01*
X029894Y007261D01*
X029884Y007247D01*
X029871Y007234D01*
X029857Y007224D01*
X029841Y007217D01*
X029824Y007213D01*
X029807Y007211D01*
X029657Y007211D01*
X029607Y007261D01*
X027707Y007261D01*
X027657Y007211D01*
X027507Y007211D01*
X027490Y007213D01*
X027473Y007217D01*
X027457Y007224D01*
X027443Y007234D01*
X027430Y007247D01*
X027420Y007261D01*
X027413Y007277D01*
X027409Y007294D01*
X027407Y007311D01*
X034258Y007109D02*
X034296Y007140D01*
X034336Y007168D01*
X034378Y007192D01*
X034421Y007213D01*
X034467Y007230D01*
X034513Y007243D01*
X034561Y007253D01*
X034609Y007259D01*
X034657Y007261D01*
X034257Y006661D02*
X034259Y006622D01*
X034265Y006583D01*
X034274Y006545D01*
X034287Y006508D01*
X034304Y006472D01*
X034324Y006439D01*
X034348Y006407D01*
X034374Y006378D01*
X034403Y006352D01*
X034435Y006328D01*
X034468Y006308D01*
X034504Y006291D01*
X034541Y006278D01*
X034579Y006269D01*
X034618Y006263D01*
X034657Y006261D01*
X034657Y006411D02*
X034627Y006413D01*
X034597Y006418D01*
X034568Y006427D01*
X034541Y006440D01*
X034515Y006455D01*
X034491Y006474D01*
X034470Y006495D01*
X034451Y006519D01*
X034436Y006545D01*
X034423Y006572D01*
X034414Y006601D01*
X034409Y006631D01*
X034407Y006661D01*
X034657Y007061D02*
X034696Y007059D01*
X034735Y007053D01*
X034773Y007044D01*
X034810Y007031D01*
X034846Y007014D01*
X034879Y006994D01*
X034911Y006970D01*
X034940Y006944D01*
X034966Y006915D01*
X034990Y006883D01*
X035010Y006850D01*
X035027Y006814D01*
X035040Y006777D01*
X035049Y006739D01*
X035055Y006700D01*
X035057Y006661D01*
X034907Y006661D02*
X034905Y006691D01*
X034900Y006721D01*
X034891Y006750D01*
X034878Y006777D01*
X034863Y006803D01*
X034844Y006827D01*
X034823Y006848D01*
X034799Y006867D01*
X034773Y006882D01*
X034746Y006895D01*
X034717Y006904D01*
X034687Y006909D01*
X034657Y006911D01*
X034289Y007135D02*
X034254Y007105D01*
X034221Y007074D01*
X034191Y007039D01*
X034164Y007003D01*
X034140Y006965D01*
X034118Y006925D01*
X034100Y006883D01*
X034084Y006840D01*
X034072Y006796D01*
X034064Y006752D01*
X034059Y006706D01*
X034057Y006661D01*
X034059Y006616D01*
X034064Y006570D01*
X034072Y006526D01*
X034084Y006482D01*
X034100Y006439D01*
X034118Y006397D01*
X034140Y006357D01*
X034164Y006319D01*
X034191Y006283D01*
X034221Y006248D01*
X034254Y006217D01*
X034289Y006187D01*
X035257Y006661D02*
X035255Y006707D01*
X035250Y006753D01*
X035241Y006799D01*
X035229Y006844D01*
X035213Y006887D01*
X035194Y006929D01*
X035171Y006970D01*
X035146Y007009D01*
X035118Y007045D01*
X035087Y007080D01*
X035053Y007112D01*
X035017Y007141D01*
X035257Y006661D02*
X035255Y006614D01*
X035249Y006566D01*
X035240Y006520D01*
X035227Y006474D01*
X035211Y006430D01*
X035191Y006386D01*
X035167Y006345D01*
X035141Y006306D01*
X035111Y006269D01*
X035078Y006234D01*
X035043Y006202D01*
X035006Y006173D01*
X034657Y006061D02*
X034611Y006063D01*
X034565Y006068D01*
X034519Y006077D01*
X034475Y006089D01*
X034431Y006105D01*
X034389Y006124D01*
X034348Y006146D01*
X034310Y006172D01*
X034273Y006200D01*
X034657Y006061D02*
X034704Y006063D01*
X034751Y006068D01*
X034797Y006078D01*
X034843Y006091D01*
X034887Y006107D01*
X034930Y006127D01*
X034971Y006150D01*
X035010Y006176D01*
X035047Y006205D01*
X035041Y007122D02*
X035004Y007150D01*
X034966Y007176D01*
X034925Y007198D01*
X034883Y007217D01*
X034839Y007233D01*
X034795Y007245D01*
X034749Y007254D01*
X034703Y007259D01*
X034657Y007261D01*
X034657Y004861D02*
X034807Y004861D01*
X035157Y004861D01*
X036157Y004861D01*
X036507Y004861D01*
X036657Y004861D01*
X036857Y004661D01*
X036857Y004061D01*
X036857Y003961D01*
X036957Y003961D01*
X036957Y003361D01*
X036857Y003361D01*
X036857Y003261D01*
X036857Y002661D01*
X036657Y002461D01*
X036507Y002461D01*
X036107Y002461D01*
X035157Y002461D01*
X034807Y002461D01*
X034657Y002461D01*
X034457Y002661D01*
X034457Y003261D01*
X034457Y003361D01*
X034357Y003361D01*
X034357Y003961D01*
X034457Y003961D01*
X034457Y004061D01*
X034457Y004661D01*
X034657Y004861D01*
X034607Y004511D02*
X034609Y004539D01*
X034615Y004566D01*
X034624Y004592D01*
X034637Y004617D01*
X034654Y004640D01*
X034673Y004660D01*
X034695Y004677D01*
X034719Y004691D01*
X034745Y004701D01*
X034772Y004708D01*
X034800Y004711D01*
X034828Y004710D01*
X034855Y004705D01*
X034882Y004696D01*
X034907Y004684D01*
X034930Y004669D01*
X034951Y004650D01*
X034969Y004629D01*
X034984Y004605D01*
X034995Y004579D01*
X035003Y004553D01*
X035007Y004525D01*
X035007Y004497D01*
X035003Y004469D01*
X034995Y004443D01*
X034984Y004417D01*
X034969Y004393D01*
X034951Y004372D01*
X034930Y004353D01*
X034907Y004338D01*
X034882Y004326D01*
X034855Y004317D01*
X034828Y004312D01*
X034800Y004311D01*
X034772Y004314D01*
X034745Y004321D01*
X034719Y004331D01*
X034695Y004345D01*
X034673Y004362D01*
X034654Y004382D01*
X034637Y004405D01*
X034624Y004430D01*
X034615Y004456D01*
X034609Y004483D01*
X034607Y004511D01*
X034707Y004161D02*
X034707Y003861D01*
X034807Y003511D01*
X034707Y003461D02*
X034707Y003161D01*
X034607Y002811D02*
X034609Y002839D01*
X034615Y002866D01*
X034624Y002892D01*
X034637Y002917D01*
X034654Y002940D01*
X034673Y002960D01*
X034695Y002977D01*
X034719Y002991D01*
X034745Y003001D01*
X034772Y003008D01*
X034800Y003011D01*
X034828Y003010D01*
X034855Y003005D01*
X034882Y002996D01*
X034907Y002984D01*
X034930Y002969D01*
X034951Y002950D01*
X034969Y002929D01*
X034984Y002905D01*
X034995Y002879D01*
X035003Y002853D01*
X035007Y002825D01*
X035007Y002797D01*
X035003Y002769D01*
X034995Y002743D01*
X034984Y002717D01*
X034969Y002693D01*
X034951Y002672D01*
X034930Y002653D01*
X034907Y002638D01*
X034882Y002626D01*
X034855Y002617D01*
X034828Y002612D01*
X034800Y002611D01*
X034772Y002614D01*
X034745Y002621D01*
X034719Y002631D01*
X034695Y002645D01*
X034673Y002662D01*
X034654Y002682D01*
X034637Y002705D01*
X034624Y002730D01*
X034615Y002756D01*
X034609Y002783D01*
X034607Y002811D01*
X035157Y002811D02*
X036157Y002811D01*
X036307Y002861D02*
X036309Y002889D01*
X036315Y002916D01*
X036324Y002942D01*
X036337Y002967D01*
X036354Y002990D01*
X036373Y003010D01*
X036395Y003027D01*
X036419Y003041D01*
X036445Y003051D01*
X036472Y003058D01*
X036500Y003061D01*
X036528Y003060D01*
X036555Y003055D01*
X036582Y003046D01*
X036607Y003034D01*
X036630Y003019D01*
X036651Y003000D01*
X036669Y002979D01*
X036684Y002955D01*
X036695Y002929D01*
X036703Y002903D01*
X036707Y002875D01*
X036707Y002847D01*
X036703Y002819D01*
X036695Y002793D01*
X036684Y002767D01*
X036669Y002743D01*
X036651Y002722D01*
X036630Y002703D01*
X036607Y002688D01*
X036582Y002676D01*
X036555Y002667D01*
X036528Y002662D01*
X036500Y002661D01*
X036472Y002664D01*
X036445Y002671D01*
X036419Y002681D01*
X036395Y002695D01*
X036373Y002712D01*
X036354Y002732D01*
X036337Y002755D01*
X036324Y002780D01*
X036315Y002806D01*
X036309Y002833D01*
X036307Y002861D01*
X035557Y003661D02*
X035559Y003681D01*
X035565Y003699D01*
X035574Y003717D01*
X035586Y003732D01*
X035601Y003744D01*
X035619Y003753D01*
X035637Y003759D01*
X035657Y003761D01*
X035677Y003759D01*
X035695Y003753D01*
X035713Y003744D01*
X035728Y003732D01*
X035740Y003717D01*
X035749Y003699D01*
X035755Y003681D01*
X035757Y003661D01*
X035755Y003641D01*
X035749Y003623D01*
X035740Y003605D01*
X035728Y003590D01*
X035713Y003578D01*
X035695Y003569D01*
X035677Y003563D01*
X035657Y003561D01*
X035637Y003563D01*
X035619Y003569D01*
X035601Y003578D01*
X035586Y003590D01*
X035574Y003605D01*
X035565Y003623D01*
X035559Y003641D01*
X035557Y003661D01*
X034957Y003661D02*
X034959Y003713D01*
X034965Y003765D01*
X034975Y003817D01*
X034988Y003867D01*
X035005Y003917D01*
X035026Y003965D01*
X035051Y004011D01*
X035079Y004055D01*
X035110Y004097D01*
X035144Y004137D01*
X035181Y004174D01*
X035221Y004208D01*
X035263Y004239D01*
X035307Y004267D01*
X035353Y004292D01*
X035401Y004313D01*
X035451Y004330D01*
X035501Y004343D01*
X035553Y004353D01*
X035605Y004359D01*
X035657Y004361D01*
X035709Y004359D01*
X035761Y004353D01*
X035813Y004343D01*
X035863Y004330D01*
X035913Y004313D01*
X035961Y004292D01*
X036007Y004267D01*
X036051Y004239D01*
X036093Y004208D01*
X036133Y004174D01*
X036170Y004137D01*
X036204Y004097D01*
X036235Y004055D01*
X036263Y004011D01*
X036288Y003965D01*
X036309Y003917D01*
X036326Y003867D01*
X036339Y003817D01*
X036349Y003765D01*
X036355Y003713D01*
X036357Y003661D01*
X036355Y003609D01*
X036349Y003557D01*
X036339Y003505D01*
X036326Y003455D01*
X036309Y003405D01*
X036288Y003357D01*
X036263Y003311D01*
X036235Y003267D01*
X036204Y003225D01*
X036170Y003185D01*
X036133Y003148D01*
X036093Y003114D01*
X036051Y003083D01*
X036007Y003055D01*
X035961Y003030D01*
X035913Y003009D01*
X035863Y002992D01*
X035813Y002979D01*
X035761Y002969D01*
X035709Y002963D01*
X035657Y002961D01*
X035605Y002963D01*
X035553Y002969D01*
X035501Y002979D01*
X035451Y002992D01*
X035401Y003009D01*
X035353Y003030D01*
X035307Y003055D01*
X035263Y003083D01*
X035221Y003114D01*
X035181Y003148D01*
X035144Y003185D01*
X035110Y003225D01*
X035079Y003267D01*
X035051Y003311D01*
X035026Y003357D01*
X035005Y003405D01*
X034988Y003455D01*
X034975Y003505D01*
X034965Y003557D01*
X034959Y003609D01*
X034957Y003661D01*
X035157Y004561D02*
X036157Y004561D01*
X036307Y004511D02*
X036309Y004539D01*
X036315Y004566D01*
X036324Y004592D01*
X036337Y004617D01*
X036354Y004640D01*
X036373Y004660D01*
X036395Y004677D01*
X036419Y004691D01*
X036445Y004701D01*
X036472Y004708D01*
X036500Y004711D01*
X036528Y004710D01*
X036555Y004705D01*
X036582Y004696D01*
X036607Y004684D01*
X036630Y004669D01*
X036651Y004650D01*
X036669Y004629D01*
X036684Y004605D01*
X036695Y004579D01*
X036703Y004553D01*
X036707Y004525D01*
X036707Y004497D01*
X036703Y004469D01*
X036695Y004443D01*
X036684Y004417D01*
X036669Y004393D01*
X036651Y004372D01*
X036630Y004353D01*
X036607Y004338D01*
X036582Y004326D01*
X036555Y004317D01*
X036528Y004312D01*
X036500Y004311D01*
X036472Y004314D01*
X036445Y004321D01*
X036419Y004331D01*
X036395Y004345D01*
X036373Y004362D01*
X036354Y004382D01*
X036337Y004405D01*
X036324Y004430D01*
X036315Y004456D01*
X036309Y004483D01*
X036307Y004511D01*
X037157Y020661D02*
X037157Y027661D01*
X036157Y027661D01*
X019157Y031411D02*
X018907Y031161D01*
X018407Y031161D01*
X018157Y031411D01*
X017907Y031161D01*
X017407Y031161D01*
X017157Y031411D01*
X016907Y031161D01*
X016407Y031161D01*
X016157Y031411D01*
X015907Y031161D01*
X015407Y031161D01*
X015157Y031411D01*
X014907Y031161D01*
X014407Y031161D01*
X014157Y031411D01*
X013907Y031161D01*
X013407Y031161D01*
X013157Y031411D01*
X012907Y031161D01*
X012407Y031161D01*
X012157Y031411D01*
X011907Y031161D01*
X011407Y031161D01*
X011157Y031411D01*
X010907Y031161D01*
X010407Y031161D01*
X010157Y031411D01*
X009907Y031161D01*
X009407Y031161D01*
X009157Y031411D01*
X008907Y031161D01*
X008407Y031161D01*
X008157Y031411D01*
X007907Y031161D01*
X007407Y031161D01*
X007157Y031411D01*
X006907Y031161D01*
X006407Y031161D01*
X006157Y031411D01*
X005907Y031161D01*
X005407Y031161D01*
X005157Y031411D01*
X004907Y031161D01*
X004407Y031161D01*
X004157Y031411D01*
X003907Y031161D01*
X003407Y031161D01*
X003157Y031411D01*
X003157Y031911D01*
X003407Y032161D01*
X003907Y032161D01*
X004157Y031911D01*
X004407Y032161D01*
X004907Y032161D01*
X005157Y031911D01*
X005157Y031411D01*
X005157Y031911D02*
X005407Y032161D01*
X005907Y032161D01*
X006157Y031911D01*
X006407Y032161D01*
X006907Y032161D01*
X007157Y031911D01*
X007407Y032161D01*
X007907Y032161D01*
X008157Y031911D01*
X008157Y031411D01*
X008157Y031911D02*
X008407Y032161D01*
X008907Y032161D01*
X009157Y031911D01*
X009407Y032161D01*
X009907Y032161D01*
X010157Y031911D01*
X010407Y032161D01*
X010907Y032161D01*
X011157Y031911D01*
X011157Y031411D01*
X011157Y031911D02*
X011407Y032161D01*
X011907Y032161D01*
X012157Y031911D01*
X012407Y032161D01*
X012907Y032161D01*
X013157Y031911D01*
X013407Y032161D01*
X013907Y032161D01*
X014157Y031911D01*
X014157Y031411D01*
X014157Y031911D02*
X014407Y032161D01*
X014907Y032161D01*
X015157Y031911D01*
X015407Y032161D01*
X015907Y032161D01*
X016157Y031911D01*
X016407Y032161D01*
X016907Y032161D01*
X017157Y031911D01*
X017157Y031411D01*
X017157Y031911D02*
X017407Y032161D01*
X017907Y032161D01*
X018157Y031911D01*
X018407Y032161D01*
X018907Y032161D01*
X019157Y031911D01*
X019157Y031411D01*
X018157Y031411D02*
X018157Y031911D01*
X016157Y031911D02*
X016157Y031411D01*
X015157Y031411D02*
X015157Y031911D01*
X013157Y031911D02*
X013157Y031411D01*
X012157Y031411D02*
X012157Y031911D01*
X010157Y031911D02*
X010157Y031411D01*
X009157Y031411D02*
X009157Y031911D01*
X007157Y031911D02*
X007157Y031411D01*
X006157Y031411D02*
X006157Y031911D01*
X004157Y031911D02*
X004157Y031411D01*
X004157Y030061D02*
X003757Y030061D01*
X003757Y026271D01*
X007557Y026271D01*
X007557Y030061D01*
X007157Y030061D01*
X007157Y029711D01*
X004157Y029711D01*
X004157Y030061D01*
X003507Y029411D02*
X002807Y029411D01*
X002790Y029409D01*
X002773Y029405D01*
X002757Y029398D01*
X002743Y029388D01*
X002730Y029375D01*
X002720Y029361D01*
X002713Y029345D01*
X002709Y029328D01*
X002707Y029311D01*
X002707Y029161D01*
X002757Y029111D01*
X002757Y027211D01*
X002707Y027161D01*
X002707Y027011D01*
X002709Y026994D01*
X002713Y026977D01*
X002720Y026961D01*
X002730Y026947D01*
X002743Y026934D01*
X002757Y026924D01*
X002773Y026917D01*
X002790Y026913D01*
X002807Y026911D01*
X003507Y026911D01*
X003524Y026913D01*
X003541Y026917D01*
X003557Y026924D01*
X003571Y026934D01*
X003584Y026947D01*
X003594Y026961D01*
X003601Y026977D01*
X003605Y026994D01*
X003607Y027011D01*
X003607Y027161D01*
X003557Y027211D01*
X003557Y029111D01*
X003607Y029161D01*
X003607Y029311D01*
X003605Y029328D01*
X003601Y029345D01*
X003594Y029361D01*
X003584Y029375D01*
X003571Y029388D01*
X003557Y029398D01*
X003541Y029405D01*
X003524Y029409D01*
X003507Y029411D01*
X001657Y030561D02*
X001618Y030559D01*
X001579Y030553D01*
X001541Y030544D01*
X001504Y030531D01*
X001468Y030514D01*
X001435Y030494D01*
X001403Y030470D01*
X001374Y030444D01*
X001348Y030415D01*
X001324Y030383D01*
X001304Y030350D01*
X001287Y030314D01*
X001274Y030277D01*
X001265Y030239D01*
X001259Y030200D01*
X001257Y030161D01*
X001407Y030161D02*
X001409Y030191D01*
X001414Y030221D01*
X001423Y030250D01*
X001436Y030277D01*
X001451Y030303D01*
X001470Y030327D01*
X001491Y030348D01*
X001515Y030367D01*
X001541Y030382D01*
X001568Y030395D01*
X001597Y030404D01*
X001627Y030409D01*
X001657Y030411D01*
X002105Y030560D02*
X002136Y030522D01*
X002164Y030482D01*
X002188Y030440D01*
X002209Y030397D01*
X002226Y030351D01*
X002239Y030305D01*
X002249Y030257D01*
X002255Y030209D01*
X002257Y030161D01*
X002057Y030161D02*
X002055Y030122D01*
X002049Y030083D01*
X002040Y030045D01*
X002027Y030008D01*
X002010Y029972D01*
X001990Y029939D01*
X001966Y029907D01*
X001940Y029878D01*
X001911Y029852D01*
X001879Y029828D01*
X001846Y029808D01*
X001810Y029791D01*
X001773Y029778D01*
X001735Y029769D01*
X001696Y029763D01*
X001657Y029761D01*
X001657Y029911D02*
X001687Y029913D01*
X001717Y029918D01*
X001746Y029927D01*
X001773Y029940D01*
X001799Y029955D01*
X001823Y029974D01*
X001844Y029995D01*
X001863Y030019D01*
X001878Y030045D01*
X001891Y030072D01*
X001900Y030101D01*
X001905Y030131D01*
X001907Y030161D01*
X002131Y030529D02*
X002101Y030564D01*
X002070Y030597D01*
X002035Y030627D01*
X001999Y030654D01*
X001961Y030678D01*
X001921Y030700D01*
X001879Y030718D01*
X001836Y030734D01*
X001792Y030746D01*
X001748Y030754D01*
X001702Y030759D01*
X001657Y030761D01*
X001612Y030759D01*
X001566Y030754D01*
X001522Y030746D01*
X001478Y030734D01*
X001435Y030718D01*
X001393Y030700D01*
X001353Y030678D01*
X001315Y030654D01*
X001279Y030627D01*
X001244Y030597D01*
X001213Y030564D01*
X001183Y030529D01*
X001657Y029561D02*
X001703Y029563D01*
X001749Y029568D01*
X001795Y029577D01*
X001840Y029589D01*
X001883Y029605D01*
X001925Y029624D01*
X001966Y029647D01*
X002005Y029672D01*
X002041Y029700D01*
X002076Y029731D01*
X002108Y029765D01*
X002137Y029801D01*
X001657Y029561D02*
X001610Y029563D01*
X001562Y029569D01*
X001516Y029578D01*
X001470Y029591D01*
X001426Y029607D01*
X001382Y029627D01*
X001341Y029651D01*
X001302Y029677D01*
X001265Y029707D01*
X001230Y029740D01*
X001198Y029775D01*
X001169Y029812D01*
X001057Y030161D02*
X001059Y030207D01*
X001064Y030253D01*
X001073Y030299D01*
X001085Y030343D01*
X001101Y030387D01*
X001120Y030429D01*
X001142Y030470D01*
X001168Y030508D01*
X001196Y030545D01*
X001057Y030161D02*
X001059Y030114D01*
X001064Y030067D01*
X001074Y030021D01*
X001087Y029975D01*
X001103Y029931D01*
X001123Y029888D01*
X001146Y029847D01*
X001172Y029808D01*
X001201Y029771D01*
X002118Y029777D02*
X002146Y029814D01*
X002172Y029852D01*
X002194Y029893D01*
X002213Y029935D01*
X002229Y029979D01*
X002241Y030023D01*
X002250Y030069D01*
X002255Y030115D01*
X002257Y030161D01*
X005657Y026761D02*
X005726Y026763D01*
X005794Y026768D01*
X005863Y026776D01*
X005930Y026788D01*
X005997Y026803D01*
X006064Y026821D01*
X006129Y026843D01*
X006193Y026868D01*
X006256Y026896D01*
X006317Y026927D01*
X006377Y026961D01*
X006324Y026930D02*
X006386Y026966D01*
X006446Y027005D01*
X006504Y027046D01*
X006560Y027091D01*
X006614Y027139D01*
X006665Y027189D01*
X006713Y027242D01*
X006759Y027297D01*
X006801Y027355D01*
X006841Y027414D01*
X006878Y027476D01*
X006911Y027539D01*
X006941Y027604D01*
X006968Y027670D01*
X006992Y027738D01*
X007011Y027807D01*
X007028Y027877D01*
X007041Y027947D01*
X007050Y028018D01*
X007055Y028089D01*
X007057Y028161D01*
X005031Y026909D02*
X004966Y026944D01*
X004903Y026982D01*
X004841Y027023D01*
X004783Y027068D01*
X004726Y027115D01*
X004672Y027166D01*
X004621Y027219D01*
X004573Y027275D01*
X004528Y027333D01*
X004486Y027394D01*
X004447Y027457D01*
X004412Y027521D01*
X004380Y027588D01*
X004351Y027656D01*
X004326Y027725D01*
X004305Y027796D01*
X004288Y027868D01*
X004274Y027940D01*
X004265Y028014D01*
X004259Y028087D01*
X004257Y028161D01*
X004927Y026966D02*
X004987Y026931D01*
X005050Y026900D01*
X005113Y026871D01*
X005178Y026845D01*
X005244Y026823D01*
X005312Y026804D01*
X005380Y026789D01*
X005448Y026777D01*
X005518Y026768D01*
X005587Y026763D01*
X005657Y026761D01*
X006873Y027466D02*
X006907Y027531D01*
X006938Y027597D01*
X006966Y027665D01*
X006990Y027734D01*
X007011Y027804D01*
X007028Y027875D01*
X007041Y027947D01*
X007050Y028020D01*
X007055Y028093D01*
X007057Y028166D01*
X007055Y028239D01*
X007049Y028312D01*
X007039Y028384D01*
X007026Y028456D01*
X007008Y028527D01*
X006987Y028597D01*
X006963Y028666D01*
X006935Y028734D01*
X006903Y028800D01*
X006868Y028864D01*
X006830Y028926D01*
X006788Y028986D01*
X006743Y029044D01*
X006696Y029100D01*
X006645Y029153D01*
X006592Y029203D01*
X006536Y029250D01*
X006478Y029295D01*
X006418Y029336D01*
X006356Y029374D01*
X006291Y029409D01*
X006225Y029440D01*
X006158Y029468D01*
X006089Y029493D01*
X006019Y029513D01*
X005947Y029531D01*
X005876Y029544D01*
X005803Y029553D01*
X005730Y029559D01*
X005657Y029561D01*
X005583Y029559D01*
X005509Y029553D01*
X005436Y029543D01*
X005364Y029530D01*
X005292Y029513D01*
X005221Y029491D01*
X005151Y029467D01*
X005083Y029438D01*
X005017Y029406D01*
X004952Y029370D01*
X004889Y029332D01*
X004828Y029289D01*
X004770Y029244D01*
X004714Y029196D01*
X004661Y029145D01*
X004610Y029091D01*
X004563Y029034D01*
X004518Y028975D01*
X004477Y028914D01*
X004439Y028851D01*
X004404Y028786D01*
X004373Y028719D01*
X004345Y028650D01*
X004321Y028580D01*
X004301Y028509D01*
X004284Y028437D01*
X004272Y028364D01*
X004263Y028291D01*
X004258Y028217D01*
X004257Y028143D01*
X004260Y028070D01*
X004267Y027996D01*
X004277Y027923D01*
X004292Y027850D01*
X004310Y027779D01*
X004332Y027708D01*
X004358Y027639D01*
X004387Y027571D01*
X004420Y027505D01*
X004456Y027441D01*
X008157Y026911D02*
X008157Y025211D01*
X008159Y025194D01*
X008163Y025177D01*
X008170Y025161D01*
X008180Y025147D01*
X008193Y025134D01*
X008207Y025124D01*
X008223Y025117D01*
X008240Y025113D01*
X008257Y025111D01*
X009057Y025111D01*
X009074Y025113D01*
X009091Y025117D01*
X009107Y025124D01*
X009121Y025134D01*
X009134Y025147D01*
X009144Y025161D01*
X009151Y025177D01*
X009155Y025194D01*
X009157Y025211D01*
X009157Y026911D01*
X009155Y026928D01*
X009151Y026945D01*
X009144Y026961D01*
X009134Y026975D01*
X009121Y026988D01*
X009107Y026998D01*
X009091Y027005D01*
X009074Y027009D01*
X009057Y027011D01*
X008257Y027011D01*
X008240Y027009D01*
X008223Y027005D01*
X008207Y026998D01*
X008193Y026988D01*
X008180Y026975D01*
X008170Y026961D01*
X008163Y026945D01*
X008159Y026928D01*
X008157Y026911D01*
X008657Y026561D02*
X008657Y026211D01*
X008657Y026161D01*
X008657Y025961D02*
X008657Y025911D01*
X008657Y025561D01*
X010407Y024761D02*
X010407Y027061D01*
X018407Y027061D01*
X018407Y026311D01*
X018368Y026309D01*
X018329Y026303D01*
X018291Y026294D01*
X018254Y026281D01*
X018218Y026264D01*
X018185Y026244D01*
X018153Y026220D01*
X018124Y026194D01*
X018098Y026165D01*
X018074Y026133D01*
X018054Y026100D01*
X018037Y026064D01*
X018024Y026027D01*
X018015Y025989D01*
X018009Y025950D01*
X018007Y025911D01*
X018009Y025872D01*
X018015Y025833D01*
X018024Y025795D01*
X018037Y025758D01*
X018054Y025722D01*
X018074Y025689D01*
X018098Y025657D01*
X018124Y025628D01*
X018153Y025602D01*
X018185Y025578D01*
X018218Y025558D01*
X018254Y025541D01*
X018291Y025528D01*
X018329Y025519D01*
X018368Y025513D01*
X018407Y025511D01*
X018407Y024761D01*
X010407Y024761D01*
X010757Y028211D02*
X010907Y028211D01*
X010957Y028261D01*
X012857Y028261D01*
X012907Y028211D01*
X013057Y028211D01*
X013074Y028213D01*
X013091Y028217D01*
X013107Y028224D01*
X013121Y028234D01*
X013134Y028247D01*
X013144Y028261D01*
X013151Y028277D01*
X013155Y028294D01*
X013157Y028311D01*
X013157Y029011D01*
X013155Y029028D01*
X013151Y029045D01*
X013144Y029061D01*
X013134Y029075D01*
X013121Y029088D01*
X013107Y029098D01*
X013091Y029105D01*
X013074Y029109D01*
X013057Y029111D01*
X012907Y029111D01*
X012857Y029061D01*
X010957Y029061D01*
X010907Y029111D01*
X010757Y029111D01*
X010740Y029109D01*
X010723Y029105D01*
X010707Y029098D01*
X010693Y029088D01*
X010680Y029075D01*
X010670Y029061D01*
X010663Y029045D01*
X010659Y029028D01*
X010657Y029011D01*
X010657Y028311D01*
X010659Y028294D01*
X010663Y028277D01*
X010670Y028261D01*
X010680Y028247D01*
X010693Y028234D01*
X010707Y028224D01*
X010723Y028217D01*
X010740Y028213D01*
X010757Y028211D01*
D14*
X022834Y025027D02*
X022834Y016956D01*
X022834Y016661D01*
X022834Y014200D01*
X032480Y014200D01*
X032480Y016661D01*
X022834Y016661D01*
X022834Y016956D02*
X023819Y016956D01*
X023819Y025027D01*
X022834Y025027D01*
X025689Y027527D01*
X029626Y027527D01*
X029901Y027291D01*
X029626Y027527D02*
X032480Y025027D01*
X032480Y016956D01*
X032480Y016661D01*
X032480Y016956D02*
X031496Y016956D01*
X031496Y025027D01*
X032480Y025027D01*
X029626Y027527D02*
X025689Y027527D01*
X025413Y027291D01*
X025846Y006303D02*
X024459Y006303D01*
X024458Y006303D02*
X024398Y006264D01*
X024340Y006221D01*
X024284Y006175D01*
X024231Y006127D01*
X024181Y006075D01*
X024133Y006021D01*
X024089Y005965D01*
X024047Y005906D01*
X024009Y005845D01*
X023974Y005782D01*
X023943Y005717D01*
X023915Y005651D01*
X023890Y005583D01*
X023870Y005514D01*
X023853Y005444D01*
X023839Y005373D01*
X023830Y005302D01*
X023825Y005230D01*
X023823Y005158D01*
X023825Y005086D01*
X023831Y005015D01*
X023841Y004943D01*
X023855Y004873D01*
X023873Y004803D01*
X023894Y004734D01*
X023919Y004666D01*
X023947Y004600D01*
X023979Y004536D01*
X024015Y004473D01*
X024054Y004413D01*
X024096Y004354D01*
X024141Y004298D01*
X024189Y004244D01*
X024240Y004193D01*
X024293Y004145D01*
X024349Y004100D01*
X024407Y004058D01*
X024468Y004019D01*
X025856Y004019D01*
X025916Y004058D01*
X025974Y004101D01*
X026030Y004147D01*
X026083Y004195D01*
X026133Y004247D01*
X026181Y004301D01*
X026225Y004357D01*
X026267Y004416D01*
X026305Y004477D01*
X026340Y004540D01*
X026371Y004605D01*
X026399Y004671D01*
X026424Y004739D01*
X026444Y004808D01*
X026461Y004878D01*
X026475Y004949D01*
X026484Y005020D01*
X026489Y005092D01*
X026491Y005164D01*
X026489Y005236D01*
X026483Y005307D01*
X026473Y005379D01*
X026459Y005449D01*
X026441Y005519D01*
X026420Y005588D01*
X026395Y005656D01*
X026367Y005722D01*
X026335Y005786D01*
X026299Y005849D01*
X026260Y005909D01*
X026218Y005968D01*
X026173Y006024D01*
X026125Y006078D01*
X026074Y006129D01*
X026021Y006177D01*
X025965Y006222D01*
X025907Y006264D01*
X025846Y006303D01*
D15*
X025657Y007661D02*
X025257Y007661D01*
X026657Y007661D02*
X027057Y007661D01*
X030257Y007661D02*
X030657Y007661D01*
X033657Y010161D02*
X034057Y010161D01*
X037257Y010161D02*
X037657Y010161D01*
X029157Y018161D02*
X029157Y018561D01*
X029157Y021761D02*
X029157Y022161D01*
X029157Y023161D02*
X029157Y023561D01*
X029157Y026761D02*
X029157Y027161D01*
X028057Y031411D02*
X027657Y031411D01*
X031257Y031411D02*
X031657Y031411D01*
X013907Y028661D02*
X013507Y028661D01*
X010307Y028661D02*
X009907Y028661D01*
X003157Y029761D02*
X003157Y030161D01*
X003157Y026561D02*
X003157Y026161D01*
X021657Y007661D02*
X022057Y007661D01*
X016657Y007161D02*
X016657Y006761D01*
X016657Y003561D02*
X016657Y003161D01*
X012157Y003161D02*
X012157Y003561D01*
X010657Y003561D02*
X010657Y003161D01*
X010657Y006761D02*
X010657Y007161D01*
X012157Y007161D02*
X012157Y006761D01*
X005157Y006761D02*
X005157Y007161D01*
X005157Y003561D02*
X005157Y003161D01*
D16*
X022237Y007661D03*
X025077Y007661D03*
X027237Y007661D03*
X030077Y007661D03*
X034237Y010161D03*
X037077Y010161D03*
X013327Y028661D03*
X010487Y028661D03*
X028237Y031411D03*
X031077Y031411D03*
D17*
X029157Y026581D03*
X029157Y023741D03*
X029157Y021581D03*
X029157Y018741D03*
X016657Y006581D03*
X016657Y003741D03*
X012157Y003741D03*
X010657Y003741D03*
X010657Y006581D03*
X012157Y006581D03*
X005157Y006581D03*
X005157Y003741D03*
X003157Y026741D03*
X003157Y029581D03*
D18*
X002352Y030558D02*
X002322Y030606D01*
X002289Y030651D01*
X002253Y030694D01*
X002215Y030735D01*
X002173Y030772D01*
X002129Y030807D01*
X002083Y030838D01*
X002034Y030867D01*
X001984Y030891D01*
X001932Y030912D01*
X001878Y030930D01*
X001824Y030943D01*
X001769Y030953D01*
X001713Y030959D01*
X001657Y030961D01*
X001037Y030661D02*
X001037Y029661D01*
X002361Y029782D02*
X002386Y029832D01*
X002408Y029885D01*
X002425Y029938D01*
X002439Y029993D01*
X002449Y030048D01*
X002455Y030105D01*
X002457Y030161D01*
X002455Y030216D01*
X002449Y030271D01*
X002440Y030325D01*
X002427Y030379D01*
X002410Y030431D01*
X002390Y030483D01*
X002366Y030532D01*
X002338Y030580D01*
X001657Y030961D02*
X001604Y030959D01*
X001550Y030954D01*
X001498Y030945D01*
X001446Y030933D01*
X001395Y030917D01*
X001345Y030898D01*
X001296Y030875D01*
X001249Y030849D01*
X001204Y030821D01*
X001161Y030789D01*
X001121Y030755D01*
X001082Y030717D01*
X001046Y030678D01*
X001657Y029361D02*
X001711Y029363D01*
X001765Y029368D01*
X001818Y029377D01*
X001871Y029390D01*
X001922Y029406D01*
X001972Y029426D01*
X002021Y029449D01*
X002069Y029475D01*
X002114Y029504D01*
X002157Y029537D01*
X002198Y029572D01*
X002237Y029610D01*
X002273Y029650D01*
X002306Y029693D01*
X002336Y029738D01*
X002363Y029785D01*
X001657Y029361D02*
X001603Y029363D01*
X001550Y029368D01*
X001496Y029377D01*
X001444Y029390D01*
X001393Y029406D01*
X001342Y029426D01*
X001293Y029448D01*
X001246Y029474D01*
X001201Y029504D01*
X001158Y029536D01*
X001117Y029571D01*
X001078Y029609D01*
X001042Y029649D01*
X005537Y028781D02*
X005537Y027911D01*
X005557Y027911D01*
X005537Y027911D02*
X005507Y027911D01*
X005407Y027911D01*
X005657Y027411D01*
X005907Y027911D01*
X005807Y027911D01*
X005787Y027911D01*
X005757Y027911D01*
X005787Y027911D02*
X005787Y028781D01*
X005537Y028781D01*
X005607Y028761D02*
X005607Y027561D01*
X005707Y027561D01*
X005707Y028761D01*
X005657Y028761D01*
X005657Y029011D02*
X005601Y029009D01*
X005545Y029004D01*
X005489Y028994D01*
X005434Y028981D01*
X005381Y028965D01*
X005328Y028945D01*
X005277Y028921D01*
X005657Y029011D02*
X005709Y029009D01*
X005762Y029005D01*
X005814Y028996D01*
X005865Y028985D01*
X005915Y028971D01*
X005965Y028953D01*
X006013Y028933D01*
X005359Y028957D02*
X005305Y028935D01*
X005254Y028909D01*
X005204Y028880D01*
X005156Y028848D01*
X005111Y028812D01*
X005068Y028774D01*
X005028Y028732D01*
X004990Y028688D01*
X004956Y028642D01*
X004925Y028593D01*
X004897Y028542D01*
X004873Y028490D01*
X004853Y028436D01*
X004836Y028381D01*
X004823Y028325D01*
X004814Y028268D01*
X004808Y028210D01*
X004807Y028153D01*
X004810Y028095D01*
X004816Y028038D01*
X004826Y027981D01*
X004840Y027925D01*
X004858Y027870D01*
X004880Y027817D01*
X004905Y027765D01*
X004934Y027715D01*
X004965Y027667D01*
X005001Y027621D01*
X005039Y027578D01*
X005080Y027537D01*
X005123Y027499D01*
X005169Y027465D01*
X005218Y027433D01*
X005268Y027405D01*
X005320Y027381D01*
X005374Y027359D01*
X005429Y027342D01*
X005485Y027329D01*
X005542Y027319D01*
X005599Y027313D01*
X005657Y027311D01*
X005507Y027761D02*
X005507Y027911D01*
X005657Y027311D02*
X005715Y027313D01*
X005772Y027319D01*
X005829Y027329D01*
X005885Y027342D01*
X005940Y027359D01*
X005994Y027381D01*
X006046Y027405D01*
X006096Y027433D01*
X006145Y027465D01*
X006191Y027499D01*
X006234Y027537D01*
X006275Y027578D01*
X006313Y027621D01*
X006349Y027667D01*
X006380Y027715D01*
X006409Y027765D01*
X006434Y027817D01*
X006456Y027870D01*
X006474Y027925D01*
X006488Y027981D01*
X006498Y028038D01*
X006504Y028095D01*
X006507Y028153D01*
X006506Y028210D01*
X006500Y028268D01*
X006491Y028325D01*
X006478Y028381D01*
X006461Y028436D01*
X006441Y028490D01*
X006417Y028542D01*
X006389Y028593D01*
X006358Y028642D01*
X006324Y028688D01*
X006286Y028732D01*
X006246Y028774D01*
X006203Y028812D01*
X006158Y028848D01*
X006110Y028880D01*
X006060Y028909D01*
X006009Y028935D01*
X005955Y028957D01*
X005807Y027911D02*
X005807Y027761D01*
X008357Y026161D02*
X008657Y026161D01*
X008957Y026161D01*
X008957Y025961D02*
X008657Y025961D01*
X008357Y025961D01*
X030557Y015661D02*
X030557Y015361D01*
X030557Y015061D01*
X030757Y015061D02*
X030757Y015361D01*
X030757Y015661D01*
X034238Y007342D02*
X034286Y007370D01*
X034335Y007394D01*
X034387Y007414D01*
X034439Y007431D01*
X034493Y007444D01*
X034547Y007453D01*
X034602Y007459D01*
X034657Y007461D01*
X034260Y007356D02*
X034212Y007326D01*
X034167Y007293D01*
X034124Y007257D01*
X034083Y007219D01*
X034046Y007177D01*
X034011Y007133D01*
X033980Y007087D01*
X033951Y007038D01*
X033927Y006988D01*
X033906Y006936D01*
X033888Y006882D01*
X033875Y006828D01*
X033865Y006773D01*
X033859Y006717D01*
X033857Y006661D01*
X034157Y006041D02*
X035157Y006041D01*
X035036Y007365D02*
X034986Y007390D01*
X034933Y007412D01*
X034880Y007429D01*
X034825Y007443D01*
X034770Y007453D01*
X034713Y007459D01*
X034657Y007461D01*
X033857Y006661D02*
X033859Y006608D01*
X033864Y006554D01*
X033873Y006502D01*
X033885Y006450D01*
X033901Y006399D01*
X033920Y006349D01*
X033943Y006300D01*
X033969Y006253D01*
X033997Y006208D01*
X034029Y006165D01*
X034063Y006125D01*
X034101Y006086D01*
X034140Y006050D01*
X035457Y006661D02*
X035455Y006715D01*
X035450Y006769D01*
X035441Y006822D01*
X035428Y006875D01*
X035412Y006926D01*
X035392Y006976D01*
X035369Y007025D01*
X035343Y007073D01*
X035314Y007118D01*
X035281Y007161D01*
X035246Y007202D01*
X035208Y007241D01*
X035168Y007277D01*
X035125Y007310D01*
X035080Y007340D01*
X035033Y007367D01*
X035457Y006661D02*
X035455Y006607D01*
X035450Y006554D01*
X035441Y006500D01*
X035428Y006448D01*
X035412Y006397D01*
X035392Y006346D01*
X035370Y006297D01*
X035344Y006250D01*
X035314Y006205D01*
X035282Y006162D01*
X035247Y006121D01*
X035209Y006082D01*
X035169Y006046D01*
X033106Y029090D02*
X039209Y029090D01*
X039209Y030232D01*
X033106Y030232D01*
X033106Y029090D01*
D19*
X020007Y003936D03*
X019307Y003936D03*
D20*
X019657Y004011D03*
D21*
X018657Y009911D03*
X017657Y009911D03*
X016657Y009911D03*
X015657Y009911D03*
X014657Y009911D03*
X013657Y009911D03*
X012657Y009911D03*
X011657Y009911D03*
X010657Y009911D03*
X009657Y009911D03*
X008657Y009911D03*
X007657Y009911D03*
X006657Y009911D03*
X005657Y009911D03*
X004657Y009911D03*
X003657Y009911D03*
X003657Y031661D03*
X004657Y031661D03*
X005657Y031661D03*
X006657Y031661D03*
X007657Y031661D03*
X008657Y031661D03*
X009657Y031661D03*
X010657Y031661D03*
X011657Y031661D03*
X012657Y031661D03*
X013657Y031661D03*
X014657Y031661D03*
X015657Y031661D03*
X016657Y031661D03*
X017657Y031661D03*
X018657Y031661D03*
D22*
X024357Y020411D02*
X024357Y017161D01*
X027957Y017161D01*
X027957Y020411D01*
X024357Y020411D01*
X015357Y005611D02*
X015257Y005611D01*
X015257Y004661D01*
X015357Y004661D01*
X014657Y004661D02*
X014657Y005661D01*
X013657Y005661D01*
X013657Y004661D01*
X014657Y004661D01*
X013907Y005161D02*
X013909Y005192D01*
X013915Y005223D01*
X013925Y005253D01*
X013938Y005281D01*
X013955Y005308D01*
X013975Y005332D01*
X013998Y005354D01*
X014023Y005372D01*
X014051Y005387D01*
X014080Y005399D01*
X014110Y005407D01*
X014141Y005411D01*
X014173Y005411D01*
X014204Y005407D01*
X014234Y005399D01*
X014263Y005387D01*
X014291Y005372D01*
X014316Y005354D01*
X014339Y005332D01*
X014359Y005308D01*
X014376Y005281D01*
X014389Y005253D01*
X014399Y005223D01*
X014405Y005192D01*
X014407Y005161D01*
X014405Y005130D01*
X014399Y005099D01*
X014389Y005069D01*
X014376Y005041D01*
X014359Y005014D01*
X014339Y004990D01*
X014316Y004968D01*
X014291Y004950D01*
X014263Y004935D01*
X014234Y004923D01*
X014204Y004915D01*
X014173Y004911D01*
X014141Y004911D01*
X014110Y004915D01*
X014080Y004923D01*
X014051Y004935D01*
X014023Y004950D01*
X013998Y004968D01*
X013975Y004990D01*
X013955Y005014D01*
X013938Y005041D01*
X013925Y005069D01*
X013915Y005099D01*
X013909Y005130D01*
X013907Y005161D01*
X013057Y005661D02*
X013057Y004661D01*
X012957Y004661D01*
X012957Y005661D02*
X013057Y005661D01*
X009357Y005611D02*
X009257Y005611D01*
X009257Y004661D01*
X009357Y004661D01*
X008657Y004661D02*
X008657Y005661D01*
X007657Y005661D01*
X007657Y004661D01*
X008657Y004661D01*
X007907Y005161D02*
X007909Y005192D01*
X007915Y005223D01*
X007925Y005253D01*
X007938Y005281D01*
X007955Y005308D01*
X007975Y005332D01*
X007998Y005354D01*
X008023Y005372D01*
X008051Y005387D01*
X008080Y005399D01*
X008110Y005407D01*
X008141Y005411D01*
X008173Y005411D01*
X008204Y005407D01*
X008234Y005399D01*
X008263Y005387D01*
X008291Y005372D01*
X008316Y005354D01*
X008339Y005332D01*
X008359Y005308D01*
X008376Y005281D01*
X008389Y005253D01*
X008399Y005223D01*
X008405Y005192D01*
X008407Y005161D01*
X008405Y005130D01*
X008399Y005099D01*
X008389Y005069D01*
X008376Y005041D01*
X008359Y005014D01*
X008339Y004990D01*
X008316Y004968D01*
X008291Y004950D01*
X008263Y004935D01*
X008234Y004923D01*
X008204Y004915D01*
X008173Y004911D01*
X008141Y004911D01*
X008110Y004915D01*
X008080Y004923D01*
X008051Y004935D01*
X008023Y004950D01*
X007998Y004968D01*
X007975Y004990D01*
X007955Y005014D01*
X007938Y005041D01*
X007925Y005069D01*
X007915Y005099D01*
X007909Y005130D01*
X007907Y005161D01*
X007057Y005661D02*
X007057Y004661D01*
X006957Y004661D01*
X006957Y005661D02*
X007057Y005661D01*
X003357Y005611D02*
X003257Y005611D01*
X003257Y004661D01*
X003357Y004661D01*
X002657Y004661D02*
X002657Y005661D01*
X001657Y005661D01*
X001657Y004661D01*
X002657Y004661D01*
X001907Y005161D02*
X001909Y005192D01*
X001915Y005223D01*
X001925Y005253D01*
X001938Y005281D01*
X001955Y005308D01*
X001975Y005332D01*
X001998Y005354D01*
X002023Y005372D01*
X002051Y005387D01*
X002080Y005399D01*
X002110Y005407D01*
X002141Y005411D01*
X002173Y005411D01*
X002204Y005407D01*
X002234Y005399D01*
X002263Y005387D01*
X002291Y005372D01*
X002316Y005354D01*
X002339Y005332D01*
X002359Y005308D01*
X002376Y005281D01*
X002389Y005253D01*
X002399Y005223D01*
X002405Y005192D01*
X002407Y005161D01*
X002405Y005130D01*
X002399Y005099D01*
X002389Y005069D01*
X002376Y005041D01*
X002359Y005014D01*
X002339Y004990D01*
X002316Y004968D01*
X002291Y004950D01*
X002263Y004935D01*
X002234Y004923D01*
X002204Y004915D01*
X002173Y004911D01*
X002141Y004911D01*
X002110Y004915D01*
X002080Y004923D01*
X002051Y004935D01*
X002023Y004950D01*
X001998Y004968D01*
X001975Y004990D01*
X001955Y005014D01*
X001938Y005041D01*
X001925Y005069D01*
X001915Y005099D01*
X001909Y005130D01*
X001907Y005161D01*
X001057Y005661D02*
X001057Y004661D01*
X000957Y004661D01*
X000957Y005661D02*
X001057Y005661D01*
X035157Y004861D02*
X035157Y004761D01*
X036157Y004761D01*
X036157Y004861D01*
X036157Y004161D02*
X035157Y004161D01*
X035157Y003161D01*
X036157Y003161D01*
X036157Y004161D01*
X035407Y003661D02*
X035409Y003692D01*
X035415Y003723D01*
X035425Y003753D01*
X035438Y003781D01*
X035455Y003808D01*
X035475Y003832D01*
X035498Y003854D01*
X035523Y003872D01*
X035551Y003887D01*
X035580Y003899D01*
X035610Y003907D01*
X035641Y003911D01*
X035673Y003911D01*
X035704Y003907D01*
X035734Y003899D01*
X035763Y003887D01*
X035791Y003872D01*
X035816Y003854D01*
X035839Y003832D01*
X035859Y003808D01*
X035876Y003781D01*
X035889Y003753D01*
X035899Y003723D01*
X035905Y003692D01*
X035907Y003661D01*
X035905Y003630D01*
X035899Y003599D01*
X035889Y003569D01*
X035876Y003541D01*
X035859Y003514D01*
X035839Y003490D01*
X035816Y003468D01*
X035791Y003450D01*
X035763Y003435D01*
X035734Y003423D01*
X035704Y003415D01*
X035673Y003411D01*
X035641Y003411D01*
X035610Y003415D01*
X035580Y003423D01*
X035551Y003435D01*
X035523Y003450D01*
X035498Y003468D01*
X035475Y003490D01*
X035455Y003514D01*
X035438Y003541D01*
X035425Y003569D01*
X035415Y003599D01*
X035409Y003630D01*
X035407Y003661D01*
X035157Y002561D02*
X035157Y002461D01*
X035157Y002561D02*
X036107Y002561D01*
X036107Y002461D01*
D23*
X027157Y020836D03*
X026157Y020836D03*
X025157Y020836D03*
D24*
X025157Y021336D03*
X026157Y021336D03*
X027157Y021336D03*
D25*
X027169Y013926D02*
X026959Y013926D01*
X026854Y013821D01*
X026630Y013926D02*
X026630Y013506D01*
X026420Y013296D01*
X026209Y013506D01*
X026209Y013926D01*
X025985Y013926D02*
X025985Y013821D01*
X025565Y013401D01*
X025565Y013296D01*
X025341Y013296D02*
X024920Y013296D01*
X025131Y013296D02*
X025131Y013926D01*
X024920Y013716D01*
X024696Y013296D02*
X024276Y013296D01*
X024486Y013296D02*
X024486Y013926D01*
X024276Y013716D01*
X024052Y013296D02*
X023631Y013296D01*
X023842Y013296D02*
X023842Y013926D01*
X023631Y013716D01*
X023407Y013821D02*
X023302Y013926D01*
X022987Y013926D01*
X022987Y013296D01*
X023302Y013296D01*
X023407Y013401D01*
X023407Y013821D01*
X022763Y013296D02*
X022342Y013296D01*
X022342Y013926D01*
X025565Y013926D02*
X025985Y013926D01*
X026854Y013401D02*
X026959Y013296D01*
X027169Y013296D01*
X027274Y013401D01*
X027274Y013506D01*
X027169Y013611D01*
X027064Y013611D01*
X027169Y013611D02*
X027274Y013716D01*
X027274Y013821D01*
X027169Y013926D01*
X027499Y013821D02*
X027604Y013926D01*
X027814Y013926D01*
X027919Y013821D01*
X027919Y013716D01*
X027814Y013611D01*
X027919Y013506D01*
X027919Y013401D01*
X027814Y013296D01*
X027604Y013296D01*
X027499Y013401D01*
X027709Y013611D02*
X027814Y013611D01*
D26*
X035007Y011411D03*
X035007Y019911D03*
D27*
X034007Y019911D02*
X033657Y019911D01*
X037307Y019911D02*
X037657Y019911D01*
X037657Y011411D02*
X037307Y011411D01*
X034007Y011411D02*
X033657Y011411D01*
D28*
X034382Y011411D03*
X036932Y011411D03*
X036932Y019911D03*
X034382Y019911D03*
D29*
X030857Y012661D03*
D30*
X025294Y017166D02*
X025194Y017166D01*
X025294Y017266D01*
X025294Y017291D01*
X025269Y017316D01*
X025219Y017316D01*
X025194Y017291D01*
X025146Y017291D02*
X025146Y017266D01*
X025121Y017241D01*
X025046Y017241D01*
X025046Y017166D02*
X025046Y017316D01*
X025121Y017316D01*
X025146Y017291D01*
X025121Y017241D02*
X025146Y017216D01*
X025146Y017191D01*
X025121Y017166D01*
X025046Y017166D01*
X024999Y017166D02*
X024899Y017166D01*
X024949Y017166D02*
X024949Y017316D01*
X024899Y017266D01*
X024852Y017241D02*
X024752Y017241D01*
X024704Y017316D02*
X024604Y017316D01*
X024604Y017166D01*
X024704Y017166D01*
X024654Y017241D02*
X024604Y017241D01*
X024557Y017316D02*
X024457Y017316D01*
X024457Y017166D01*
X024557Y017166D01*
X024507Y017241D02*
X024457Y017241D01*
X024410Y017266D02*
X024385Y017241D01*
X024310Y017241D01*
X024385Y017241D02*
X024410Y017216D01*
X024410Y017191D01*
X024385Y017166D01*
X024310Y017166D01*
X024310Y017316D01*
X024385Y017316D01*
X024410Y017291D01*
X024410Y017266D01*
X024262Y017316D02*
X024162Y017166D01*
X024262Y017166D02*
X024162Y017316D01*
M02*
