%
M48
M72
T01C0.0197
T02C0.0236
T03C0.0276
T04C0.0315
T05C0.0320
T06C0.0354
T07C0.0400
T08C0.0472
T09C0.1300
%
T01
X2867Y12221
X2867Y13221
X3867Y13221
X3867Y12221
X4867Y12221
X4867Y13221
X5867Y13221
X5867Y12221
X6867Y12221
X7867Y12221
X7867Y13221
X6867Y13221
X6867Y14221
X7867Y14221
X8867Y14221
X9867Y14221
X9867Y13221
X9867Y12221
X8867Y12221
X8867Y13221
X10867Y13221
X10867Y12221
X11867Y12221
X12867Y12221
X12867Y13221
X11867Y13221
X11867Y14221
X12867Y14221
X13867Y14221
X14867Y14221
X14867Y13221
X14867Y12221
X13867Y12221
X13867Y13221
X15867Y13221
X15867Y12221
X16867Y12221
X17867Y12221
X17867Y13221
X16867Y13221
X16867Y14221
X17867Y14221
X18867Y14221
X19867Y14221
X19867Y13221
X19867Y12221
X18867Y12221
X18867Y13221
X20867Y13221
X20867Y12221
X21867Y12221
X21867Y13221
X21867Y14221
X20867Y14221
X20867Y15221
X21867Y15221
X21867Y16221
X20867Y16221
X19867Y16221
X18867Y16221
X18867Y15221
X19867Y15221
X17867Y15221
X16867Y15221
X15867Y15221
X15867Y14221
X14867Y15221
X13867Y15221
X12867Y15221
X11867Y15221
X10867Y15221
X10867Y14221
X9867Y15221
X8867Y15221
X7867Y15221
X6867Y15221
X5867Y15221
X5867Y14221
X4867Y14221
X3867Y14221
X2867Y14221
X2867Y15221
X3867Y15221
X4867Y15221
X4867Y16221
X3867Y16221
X2867Y16221
X2867Y17221
X3867Y17221
X4867Y17221
X5867Y17221
X6867Y17221
X7867Y17221
X7867Y16221
X6867Y16221
X5867Y16221
X5867Y18221
X6867Y18221
X7867Y18221
X8867Y18221
X9867Y18221
X9867Y17221
X8867Y17221
X8867Y16221
X9867Y16221
X10867Y16221
X11867Y16221
X12867Y16221
X13867Y16221
X14867Y16221
X15867Y16221
X16867Y16221
X17867Y16221
X17867Y17221
X16867Y17221
X15867Y17221
X14867Y17221
X13867Y17221
X12867Y17221
X11867Y17221
X10867Y17221
X10867Y18221
X11867Y18221
X12867Y18221
X13867Y18221
X14867Y18221
X15867Y18221
X16867Y18221
X17867Y18221
X18867Y18221
X19867Y18221
X19867Y17221
X18867Y17221
X20867Y17221
X21867Y17221
X21867Y18221
X20867Y18221
X20867Y19221
X21867Y19221
X21867Y20221
X20867Y20221
X19867Y20221
X18867Y20221
X18867Y19221
X19867Y19221
X17867Y19221
X16867Y19221
X15867Y19221
X14867Y19221
X13867Y19221
X12867Y19221
X11867Y19221
X10867Y19221
X9867Y19221
X8867Y19221
X7867Y19221
X6867Y19221
X5867Y19221
X4867Y19221
X3867Y19221
X3867Y18221
X4867Y18221
X2867Y18221
X2867Y19221
X2867Y20221
X3867Y20221
X4867Y20221
X5867Y20221
X6867Y20221
X7867Y20221
X8867Y20221
X9867Y20221
X10867Y20221
X11867Y20221
X12867Y20221
X13867Y20221
X14867Y20221
X15867Y20221
X16867Y20221
X17867Y20221
X17867Y21221
X16867Y21221
X15867Y21221
X14867Y21221
X13867Y21221
X12867Y21221
X11867Y21221
X10867Y21221
X9867Y21221
X8867Y21221
X7867Y21221
X6867Y21221
X5867Y21221
X4867Y21221
X3867Y21221
X2867Y21221
X2867Y22221
X3867Y22221
X4867Y22221
X5867Y22221
X6867Y22221
X7867Y22221
X8867Y22221
X9867Y22221
X10867Y22221
X11867Y22221
X12867Y22221
X13867Y22221
X14867Y22221
X15867Y22221
X16867Y22221
X17867Y22221
X18867Y22221
X18867Y22221
X19867Y22221
X19867Y21221
X18867Y21221
X20867Y21221
X21867Y21221
X21867Y22221
X20867Y22221
X26243Y24595
X26247Y24601
X27867Y24721
X22317Y27171
X20367Y27471
X20367Y27471
X10867Y25221
X10867Y24221
X10867Y23221
X9867Y23221
X8867Y23221
X7867Y23221
X6867Y23221
X5867Y23221
X4867Y23221
X3867Y23221
X2867Y23221
X2867Y24221
X3867Y24221
X4867Y24221
X5867Y24221
X6867Y24221
X7867Y24221
X8867Y24221
X9867Y24221
X9867Y25221
X8867Y25221
X7867Y25221
X6867Y25221
X5867Y25221
X4867Y25221
X3867Y25221
X2867Y25221
X8867Y29721
X10117Y28721
X10117Y26221
X31367Y19721
X36067Y17221
X36067Y17221
X33867Y9721
X23367Y3221
X23367Y3221
X19367Y7721
X20867Y8471
X33667Y25521
T02
X2867Y1721
X2867Y32221
X39867Y32221
X39867Y1721
T03
X31867Y7721
X34867Y10221
X32367Y12721
X31367Y12721
X31867Y14721
X30867Y14721
X32867Y14721
X30367Y18221
X30367Y22221
X30367Y23221
X30367Y27221
X28867Y31471
X32867Y31471
X15117Y28721
X11117Y28721
X4367Y30221
X4367Y26221
X22867Y7721
X26867Y7721
X27867Y7721
X17867Y7221
X13367Y7221
X11867Y7221
X11867Y3221
X13367Y3221
X17867Y3221
X6367Y3221
X6367Y7221
X38867Y10221
T04
X33197Y17509
X33197Y18296
X33197Y19083
X33197Y19871
X33197Y20658
X33197Y21446
X33197Y22233
X33197Y23020
X33197Y23808
X33197Y24595
X24536Y24595
X24536Y23808
X24536Y23020
X24536Y22233
X24536Y21446
X24536Y20658
X24536Y19871
X24536Y19083
X24536Y18296
X24536Y17509
X25367Y5221
X27367Y5221
X21867Y5271
X20867Y5271
X19867Y5271
X7867Y27221
X5867Y27221
X6867Y29221
T05
X3367Y30221
X2367Y30221
X12117Y27471
X13117Y27471
X14117Y27471
X15117Y27471
X16117Y27471
X17117Y27471
X18117Y27471
X19117Y27471
X19117Y24471
X18117Y24471
X17117Y24471
X16117Y24471
X15117Y24471
X14117Y24471
X13117Y24471
X12117Y24471
X34867Y24221
X34867Y23221
X34867Y22221
X34867Y21221
X34867Y19971
X34867Y18721
X34867Y17721
X34867Y16721
X34867Y15721
X34867Y14721
X34867Y13721
X34867Y12721
X34867Y11471
X37867Y12721
X37867Y13721
X37867Y14721
X37867Y15721
X37867Y16721
X37867Y17721
X37867Y18721
X38867Y19971
X37867Y21221
X37867Y22221
X37867Y23221
X37867Y24221
X37867Y25221
X37867Y26221
X37867Y27221
X34867Y27221
X34867Y26221
X34867Y25221
X38867Y11471
X35867Y7221
X35867Y6221
X31867Y6221
X31867Y5221
X31867Y4221
T06
X31867Y10721
X30867Y10721
X29867Y10721
X28867Y10721
X27867Y10721
X25867Y10721
X24867Y10721
X23867Y10721
X22867Y10721
X21867Y10721
X20867Y10721
X32867Y10721
X32867Y29721
X31867Y29721
X30867Y29721
X29867Y29721
X28867Y29721
X27867Y29721
X26867Y29721
X25867Y29721
X24117Y29721
X23117Y29721
X22117Y29721
X21117Y29721
X20117Y29721
X19117Y29721
X18117Y29721
X17117Y29721
T07
X16867Y31721
X17867Y31721
X18867Y31721
X19867Y31721
X15867Y31721
X14867Y31721
X13867Y31721
X12867Y31721
X11867Y31721
X10867Y31721
X9867Y31721
X8867Y31721
X7867Y31721
X6867Y31721
X5867Y31721
X4867Y31721
X26367Y21721
X27367Y21721
X28367Y21721
X19867Y9971
X18867Y9971
X17867Y9971
X16867Y9971
X15867Y9971
X14867Y9971
X13867Y9971
X12867Y9971
X11867Y9971
X10867Y9971
X9867Y9971
X8867Y9971
X7867Y9971
X6867Y9971
X5867Y9971
X4867Y9971
X4257Y6501
X2477Y6501
X2477Y3941
X4257Y3941
X8477Y3941
X10257Y3941
X10257Y6501
X8477Y6501
X14477Y6501
X16257Y6501
X16257Y3941
X14477Y3941
X35587Y4611
X35587Y2831
X38147Y2831
X38147Y4611
T08
X37867Y29721
X38867Y29721
X39867Y29721
X36867Y29721
X35867Y29721
X34867Y29721
T09
X27367Y15821
M30
