G75*
G70*
%OFA0B0*%
%FSLAX24Y24*%
%IPPOS*%
%LPD*%
%AMOC8*
5,1,8,0,0,1.08239X$1,22.5*
%
%ADD10C,0.0180*%
%ADD11C,0.0594*%
%ADD12C,0.0560*%
%ADD13C,0.0787*%
%ADD14OC8,0.0551*%
%ADD15OC8,0.0560*%
%ADD16C,0.0709*%
%ADD17C,0.0640*%
%ADD18C,0.0551*%
%ADD19C,0.0712*%
%ADD20C,0.0555*%
%ADD21OC8,0.0630*%
%ADD22C,0.0240*%
%ADD23C,0.0400*%
%ADD24C,0.0436*%
%ADD25C,0.0100*%
%ADD26C,0.0700*%
%ADD27C,0.0197*%
%ADD28C,0.0320*%
%ADD29C,0.0515*%
%ADD30C,0.0500*%
%ADD31C,0.0161*%
%ADD32C,0.0500*%
%ADD33C,0.0160*%
%ADD34C,0.0461*%
%ADD35C,0.0660*%
%ADD36C,0.0476*%
%ADD37C,0.0860*%
D10*
X022798Y032051D02*
X022798Y032571D01*
X022971Y032398D01*
X023145Y032571D01*
X023145Y032051D01*
X023442Y032138D02*
X023442Y032484D01*
X023529Y032571D01*
X023702Y032571D01*
X023789Y032484D01*
X023789Y032138D01*
X023702Y032051D01*
X023529Y032051D01*
X023442Y032138D01*
X024087Y032571D02*
X024434Y032571D01*
X024260Y032571D02*
X024260Y032051D01*
X024905Y032051D02*
X024905Y032571D01*
X025078Y032571D02*
X024731Y032571D01*
X025376Y032484D02*
X025376Y032138D01*
X025463Y032051D01*
X025636Y032051D01*
X025723Y032138D01*
X025723Y032484D01*
X025636Y032571D01*
X025463Y032571D01*
X025376Y032484D01*
X026020Y032484D02*
X026020Y032398D01*
X026107Y032311D01*
X026367Y032311D01*
X026107Y032311D02*
X026020Y032224D01*
X026020Y032138D01*
X026107Y032051D01*
X026367Y032051D01*
X026367Y032571D01*
X026107Y032571D01*
X026020Y032484D01*
D11*
X025657Y029958D02*
X025657Y029364D01*
X024657Y029364D02*
X024657Y029958D01*
X022907Y029958D02*
X022907Y029364D01*
X021907Y029364D02*
X021907Y029958D01*
X020907Y029958D02*
X020907Y029364D01*
X019907Y029364D02*
X019907Y029958D01*
X018907Y029958D02*
X018907Y029364D01*
X017907Y029364D02*
X017907Y029958D01*
X016907Y029958D02*
X016907Y029364D01*
X015907Y029364D02*
X015907Y029958D01*
X026657Y029958D02*
X026657Y029364D01*
X027657Y029364D02*
X027657Y029958D01*
X028657Y029958D02*
X028657Y029364D01*
X029657Y029364D02*
X029657Y029958D01*
X030657Y029958D02*
X030657Y029364D01*
X031657Y029364D02*
X031657Y029958D01*
X031657Y010958D02*
X031657Y010364D01*
X030657Y010364D02*
X030657Y010958D01*
X029657Y010958D02*
X029657Y010364D01*
X028657Y010364D02*
X028657Y010958D01*
X027657Y010958D02*
X027657Y010364D01*
X026657Y010364D02*
X026657Y010958D01*
X024657Y010958D02*
X024657Y010364D01*
X023657Y010364D02*
X023657Y010958D01*
X022657Y010958D02*
X022657Y010364D01*
X021657Y010364D02*
X021657Y010958D01*
X020657Y010958D02*
X020657Y010364D01*
X019657Y010364D02*
X019657Y010958D01*
D12*
X030377Y006161D02*
X030937Y006161D01*
X030937Y005161D02*
X030377Y005161D01*
X030377Y004161D02*
X030937Y004161D01*
X033377Y011411D02*
X033937Y011411D01*
X033937Y012661D02*
X033377Y012661D01*
X033377Y013661D02*
X033937Y013661D01*
X033937Y014661D02*
X033377Y014661D01*
X033377Y015661D02*
X033937Y015661D01*
X033937Y016661D02*
X033377Y016661D01*
X033377Y017661D02*
X033937Y017661D01*
X033937Y018661D02*
X033377Y018661D01*
X033377Y019911D02*
X033937Y019911D01*
X033937Y021161D02*
X033377Y021161D01*
X033377Y022161D02*
X033937Y022161D01*
X033937Y023161D02*
X033377Y023161D01*
X033377Y024161D02*
X033937Y024161D01*
X033937Y025161D02*
X033377Y025161D01*
X033377Y026161D02*
X033937Y026161D01*
X033937Y027161D02*
X033377Y027161D01*
X036377Y027161D02*
X036937Y027161D01*
X036937Y026161D02*
X036377Y026161D01*
X036377Y025161D02*
X036937Y025161D01*
X036937Y024161D02*
X036377Y024161D01*
X036377Y023161D02*
X036937Y023161D01*
X036937Y022161D02*
X036377Y022161D01*
X036377Y021161D02*
X036937Y021161D01*
X037377Y019911D02*
X037937Y019911D01*
X036937Y018661D02*
X036377Y018661D01*
X036377Y017661D02*
X036937Y017661D01*
X036937Y016661D02*
X036377Y016661D01*
X036377Y015661D02*
X036937Y015661D01*
X036937Y014661D02*
X036377Y014661D01*
X036377Y013661D02*
X036937Y013661D01*
X036937Y012661D02*
X036377Y012661D01*
X037377Y011411D02*
X037937Y011411D01*
X017907Y024131D02*
X017907Y024691D01*
X016907Y024691D02*
X016907Y024131D01*
X015907Y024131D02*
X015907Y024691D01*
X014907Y024691D02*
X014907Y024131D01*
X013907Y024131D02*
X013907Y024691D01*
X012907Y024691D02*
X012907Y024131D01*
X011907Y024131D02*
X011907Y024691D01*
X010907Y024691D02*
X010907Y024131D01*
X010907Y027131D02*
X010907Y027691D01*
X011907Y027691D02*
X011907Y027131D01*
X012907Y027131D02*
X012907Y027691D01*
X013907Y027691D02*
X013907Y027131D01*
X014907Y027131D02*
X014907Y027691D01*
X015907Y027691D02*
X015907Y027131D01*
X016907Y027131D02*
X016907Y027691D01*
X017907Y027691D02*
X017907Y027131D01*
D13*
X024157Y005161D03*
X026157Y005161D03*
D14*
X025657Y007661D03*
X026657Y007661D03*
X030657Y007661D03*
X033657Y010161D03*
X031157Y012661D03*
X029157Y018161D03*
X029157Y022161D03*
X029157Y023161D03*
X029157Y027161D03*
X027657Y031411D03*
X031657Y031411D03*
X013907Y028661D03*
X009907Y028661D03*
X003157Y030161D03*
X003157Y026161D03*
X021657Y007661D03*
X016657Y007161D03*
X012157Y007161D03*
X010657Y007161D03*
X010657Y003161D03*
X012157Y003161D03*
X016657Y003161D03*
X005157Y003161D03*
X005157Y007161D03*
X037657Y010161D03*
D15*
X034657Y007161D03*
X034657Y006161D03*
X002157Y030161D03*
X001157Y030161D03*
D16*
X003657Y031306D02*
X003657Y032015D01*
X004657Y032015D02*
X004657Y031306D01*
X005657Y031306D02*
X005657Y032015D01*
X006657Y032015D02*
X006657Y031306D01*
X007657Y031306D02*
X007657Y032015D01*
X008657Y032015D02*
X008657Y031306D01*
X009657Y031306D02*
X009657Y032015D01*
X010657Y032015D02*
X010657Y031306D01*
X011657Y031306D02*
X011657Y032015D01*
X012657Y032015D02*
X012657Y031306D01*
X013657Y031306D02*
X013657Y032015D01*
X014657Y032015D02*
X014657Y031306D01*
X015657Y031306D02*
X015657Y032015D01*
X016657Y032015D02*
X016657Y031306D01*
X017657Y031306D02*
X017657Y032015D01*
X018657Y032015D02*
X018657Y031306D01*
X006657Y027515D02*
X006657Y026806D01*
X004657Y026806D02*
X004657Y027515D01*
X005657Y028806D02*
X005657Y029515D01*
X005657Y010265D02*
X005657Y009556D01*
X006657Y009556D02*
X006657Y010265D01*
X007657Y010265D02*
X007657Y009556D01*
X008657Y009556D02*
X008657Y010265D01*
X009657Y010265D02*
X009657Y009556D01*
X010657Y009556D02*
X010657Y010265D01*
X011657Y010265D02*
X011657Y009556D01*
X012657Y009556D02*
X012657Y010265D01*
X013657Y010265D02*
X013657Y009556D01*
X014657Y009556D02*
X014657Y010265D01*
X015657Y010265D02*
X015657Y009556D01*
X016657Y009556D02*
X016657Y010265D01*
X017657Y010265D02*
X017657Y009556D01*
X018657Y009556D02*
X018657Y010265D01*
X018657Y005565D02*
X018657Y004856D01*
X019657Y004856D02*
X019657Y005565D01*
X020657Y005565D02*
X020657Y004856D01*
X004657Y009556D02*
X004657Y010265D01*
X003657Y010265D02*
X003657Y009556D01*
D17*
X003047Y006761D02*
X003047Y006121D01*
X001267Y006121D02*
X001267Y006761D01*
X001267Y004201D02*
X001267Y003561D01*
X003047Y003561D02*
X003047Y004201D01*
X007267Y004201D02*
X007267Y003561D01*
X009047Y003561D02*
X009047Y004201D01*
X009047Y006121D02*
X009047Y006761D01*
X007267Y006761D02*
X007267Y006121D01*
X013267Y006121D02*
X013267Y006761D01*
X015047Y006761D02*
X015047Y006121D01*
X015047Y004201D02*
X015047Y003561D01*
X013267Y003561D02*
X013267Y004201D01*
X025157Y021341D02*
X025157Y021981D01*
X026157Y021981D02*
X026157Y021341D01*
X027157Y021341D02*
X027157Y021981D01*
X034057Y004551D02*
X034697Y004551D01*
X036617Y004551D02*
X037257Y004551D01*
X037257Y002771D02*
X036617Y002771D01*
X034697Y002771D02*
X034057Y002771D01*
D18*
X030157Y012661D03*
D19*
X033657Y029305D02*
X033657Y030017D01*
X034657Y030017D02*
X034657Y029305D01*
X035657Y029305D02*
X035657Y030017D01*
X036657Y030017D02*
X036657Y029305D01*
X037657Y029305D02*
X037657Y030017D01*
X038657Y030017D02*
X038657Y029305D01*
D20*
X032266Y024535D02*
X031711Y024535D01*
X031711Y023747D02*
X032266Y023747D01*
X032266Y022960D02*
X031711Y022960D01*
X031711Y022173D02*
X032266Y022173D01*
X032266Y021385D02*
X031711Y021385D01*
X031711Y020598D02*
X032266Y020598D01*
X032266Y019810D02*
X031711Y019810D01*
X031711Y019023D02*
X032266Y019023D01*
X032266Y018236D02*
X031711Y018236D01*
X031711Y017448D02*
X032266Y017448D01*
X023604Y017448D02*
X023049Y017448D01*
X023049Y018236D02*
X023604Y018236D01*
X023604Y019023D02*
X023049Y019023D01*
X023049Y019810D02*
X023604Y019810D01*
X023604Y020598D02*
X023049Y020598D01*
X023049Y021385D02*
X023604Y021385D01*
X023604Y022173D02*
X023049Y022173D01*
X023049Y022960D02*
X023604Y022960D01*
X023604Y023747D02*
X023049Y023747D01*
X023049Y024535D02*
X023604Y024535D01*
D21*
X030157Y015361D03*
X031157Y015361D03*
X008657Y025561D03*
X008657Y026561D03*
D22*
X009907Y027161D02*
X011907Y025161D01*
X011907Y024411D01*
X009907Y027161D02*
X009907Y028661D01*
X007657Y031661D02*
X007657Y031662D01*
X006657Y031661D02*
X006657Y031662D01*
X005657Y031661D02*
X005655Y031659D01*
X005655Y029163D02*
X005657Y029161D01*
X004655Y027163D02*
X004657Y027161D01*
X016907Y024411D02*
X017907Y024411D01*
X019457Y025861D02*
X017907Y027411D01*
X019457Y027161D02*
X020257Y026361D01*
X026357Y026361D01*
X028657Y028661D01*
X028657Y029661D01*
X029657Y029661D02*
X029657Y028661D01*
X026857Y025861D01*
X019457Y025861D01*
X029157Y022161D02*
X029157Y022161D01*
X034657Y018661D02*
X034657Y029661D01*
X035657Y029661D02*
X035657Y028661D01*
X035157Y028161D01*
X035157Y019161D01*
X035657Y018661D01*
X036657Y018661D01*
X035657Y017661D02*
X035657Y012911D01*
X035907Y012661D01*
X036657Y012661D01*
X035657Y017661D02*
X034657Y018661D01*
X036157Y021161D02*
X036657Y021161D01*
X036157Y021161D02*
X035657Y021661D01*
X035657Y027661D01*
X036657Y028661D01*
X036657Y029661D01*
D23*
X033657Y029661D02*
X033657Y028661D01*
X030157Y025161D01*
X030157Y019661D01*
X029157Y022161D02*
X029157Y023161D01*
X026657Y024661D02*
X026057Y025261D01*
X022757Y025261D01*
X020657Y023161D01*
X020657Y022161D01*
X023327Y020598D02*
X023970Y020598D01*
X024407Y020161D01*
X024407Y016911D01*
X023407Y015911D01*
X023407Y013911D01*
X025657Y011661D01*
X032157Y011661D01*
X033657Y010161D01*
X032657Y009661D02*
X032657Y004911D01*
X031907Y004161D01*
X030657Y004161D01*
X025157Y004161D01*
X024157Y005161D01*
X021657Y007661D01*
X019657Y008411D02*
X025297Y002771D01*
X034377Y002771D01*
X030657Y005161D02*
X028157Y005161D01*
X027657Y005661D01*
X027657Y008411D01*
X027157Y008911D01*
X025907Y008911D01*
X025657Y008661D01*
X025657Y007661D01*
X026657Y007661D02*
X026657Y005661D01*
X026157Y005161D01*
X022157Y003161D02*
X020157Y003161D01*
X019657Y003661D01*
X019657Y005211D01*
X018657Y005211D02*
X018657Y007161D01*
X018157Y007661D01*
X016657Y007161D02*
X015907Y007911D01*
X012907Y007911D01*
X012157Y007161D01*
X010657Y007161D01*
X009907Y007911D01*
X005907Y007911D01*
X005157Y007161D01*
X003047Y006441D02*
X003047Y003881D01*
X003767Y003161D01*
X005157Y003161D01*
X009047Y003881D02*
X009047Y006441D01*
X009047Y003881D02*
X009767Y003161D01*
X010657Y003161D01*
X012157Y003161D02*
X013157Y002161D01*
X017157Y002161D01*
X018657Y003661D01*
X018657Y005211D01*
X016657Y003161D02*
X015767Y003161D01*
X015047Y003881D01*
X015047Y006441D01*
X028457Y013261D02*
X028457Y017211D01*
X026157Y019511D01*
X026157Y021661D01*
X025011Y024535D02*
X023327Y024535D01*
X025011Y024535D02*
X025017Y024541D01*
X026107Y027111D02*
X021107Y027111D01*
X017907Y024411D02*
X016907Y024411D01*
X016907Y023411D01*
X016657Y023161D01*
X016657Y022161D01*
X011907Y027411D02*
X011907Y029661D01*
X011407Y030161D01*
X009157Y030161D01*
X008657Y030661D01*
X008657Y031661D01*
X007657Y031661D02*
X007657Y029661D01*
X005655Y029163D02*
X005655Y031659D01*
X004657Y031661D02*
X004657Y027161D01*
X003157Y026161D02*
X002157Y027161D01*
X002157Y030161D01*
X026107Y027111D02*
X027657Y028661D01*
X027657Y029661D01*
X033657Y017661D02*
X034457Y017661D01*
X034857Y017261D01*
X034407Y013661D02*
X033657Y013661D01*
X034407Y013661D02*
X034657Y013411D01*
X034657Y012411D01*
X033657Y011411D01*
X035657Y010161D02*
X034657Y009161D01*
X034657Y007161D01*
X035657Y010161D02*
X037657Y010161D01*
X030157Y012661D02*
X029057Y012661D01*
X028457Y013261D01*
D24*
X030157Y019661D03*
X026657Y024661D03*
X025017Y024541D03*
X021107Y027111D03*
X019457Y027161D03*
X008657Y028711D03*
X007657Y029661D03*
X019657Y008411D03*
X018157Y007661D03*
D25*
X000527Y000531D02*
X000527Y033291D01*
X039787Y033291D01*
X039787Y000531D01*
X000527Y000531D01*
X000527Y000591D02*
X039787Y000591D01*
X039787Y000690D02*
X000527Y000690D01*
X000527Y000788D02*
X039787Y000788D01*
X039787Y000887D02*
X038880Y000887D01*
X038816Y000861D02*
X039110Y000983D01*
X039336Y001208D01*
X039457Y001502D01*
X039457Y001820D01*
X039336Y002114D01*
X039110Y002339D01*
X038816Y002461D01*
X038498Y002461D01*
X038204Y002339D01*
X037979Y002114D01*
X037857Y001820D01*
X037857Y001502D01*
X037979Y001208D01*
X038204Y000983D01*
X038498Y000861D01*
X038816Y000861D01*
X039113Y000986D02*
X039787Y000986D01*
X039787Y001084D02*
X039212Y001084D01*
X039311Y001183D02*
X039787Y001183D01*
X039787Y001281D02*
X039366Y001281D01*
X039407Y001380D02*
X039787Y001380D01*
X039787Y001478D02*
X039448Y001478D01*
X039457Y001577D02*
X039787Y001577D01*
X039787Y001675D02*
X039457Y001675D01*
X039457Y001774D02*
X039787Y001774D01*
X039787Y001872D02*
X039436Y001872D01*
X039395Y001971D02*
X039787Y001971D01*
X039787Y002070D02*
X039354Y002070D01*
X039281Y002168D02*
X039787Y002168D01*
X039787Y002267D02*
X039183Y002267D01*
X039047Y002365D02*
X039787Y002365D01*
X039787Y002464D02*
X037877Y002464D01*
X037842Y002380D02*
X037947Y002634D01*
X037947Y002908D01*
X037842Y003162D01*
X037648Y003356D01*
X037395Y003461D01*
X036480Y003461D01*
X036226Y003356D01*
X036171Y003301D01*
X035143Y003301D01*
X035088Y003356D01*
X034835Y003461D01*
X033920Y003461D01*
X033666Y003356D01*
X033651Y003341D01*
X025533Y003341D01*
X025283Y003591D01*
X030055Y003591D01*
X030248Y003511D01*
X031067Y003511D01*
X031260Y003591D01*
X032021Y003591D01*
X032230Y003678D01*
X032391Y003838D01*
X033141Y004588D01*
X033227Y004797D01*
X033227Y005024D01*
X033227Y009417D01*
X033277Y009537D01*
X033277Y009628D01*
X033390Y009515D01*
X033925Y009515D01*
X034303Y009893D01*
X034303Y010428D01*
X033970Y010761D01*
X034067Y010761D01*
X034306Y010860D01*
X034488Y011043D01*
X034587Y011281D01*
X034587Y011535D01*
X035141Y012088D01*
X035227Y012297D01*
X035227Y012524D01*
X035227Y012669D01*
X035242Y012633D01*
X035492Y012383D01*
X035630Y012245D01*
X035810Y012171D01*
X035948Y012171D01*
X036009Y012110D01*
X036248Y012011D01*
X037067Y012011D01*
X037306Y012110D01*
X037488Y012293D01*
X037587Y012531D01*
X037587Y012790D01*
X037488Y013029D01*
X037357Y013161D01*
X037488Y013293D01*
X037587Y013531D01*
X037587Y013790D01*
X037488Y014029D01*
X037357Y014161D01*
X037488Y014293D01*
X037587Y014531D01*
X037587Y014790D01*
X037488Y015029D01*
X037357Y015161D01*
X037488Y015293D01*
X037587Y015531D01*
X037587Y015790D01*
X037488Y016029D01*
X037357Y016161D01*
X039787Y016161D01*
X039787Y016063D02*
X037455Y016063D01*
X037515Y015964D02*
X039787Y015964D01*
X039787Y015866D02*
X037556Y015866D01*
X037587Y015767D02*
X039787Y015767D01*
X039787Y015669D02*
X037587Y015669D01*
X037587Y015570D02*
X039787Y015570D01*
X039787Y015471D02*
X037562Y015471D01*
X037522Y015373D02*
X039787Y015373D01*
X039787Y015274D02*
X037470Y015274D01*
X037372Y015176D02*
X039787Y015176D01*
X039787Y015077D02*
X037440Y015077D01*
X037509Y014979D02*
X039787Y014979D01*
X039787Y014880D02*
X037550Y014880D01*
X037587Y014782D02*
X039787Y014782D01*
X039787Y014683D02*
X037587Y014683D01*
X037587Y014585D02*
X039787Y014585D01*
X039787Y014486D02*
X037568Y014486D01*
X037528Y014387D02*
X039787Y014387D01*
X039787Y014289D02*
X037485Y014289D01*
X037386Y014190D02*
X039787Y014190D01*
X039787Y014092D02*
X037426Y014092D01*
X037503Y013993D02*
X039787Y013993D01*
X039787Y013895D02*
X037544Y013895D01*
X037585Y013796D02*
X039787Y013796D01*
X039787Y013698D02*
X037587Y013698D01*
X037587Y013599D02*
X039787Y013599D01*
X039787Y013501D02*
X037574Y013501D01*
X037534Y013402D02*
X039787Y013402D01*
X039787Y013303D02*
X037493Y013303D01*
X037401Y013205D02*
X039787Y013205D01*
X039787Y013106D02*
X037411Y013106D01*
X037497Y013008D02*
X039787Y013008D01*
X039787Y012909D02*
X037538Y012909D01*
X037579Y012811D02*
X039787Y012811D01*
X039787Y012712D02*
X037587Y012712D01*
X037587Y012614D02*
X039787Y012614D01*
X039787Y012515D02*
X037581Y012515D01*
X037540Y012417D02*
X039787Y012417D01*
X039787Y012318D02*
X037499Y012318D01*
X037415Y012219D02*
X039787Y012219D01*
X039787Y012121D02*
X037317Y012121D01*
X037095Y012022D02*
X039787Y012022D01*
X039787Y011924D02*
X034976Y011924D01*
X034878Y011825D02*
X037255Y011825D01*
X037292Y011841D02*
X037134Y011775D01*
X037013Y011654D01*
X036947Y011496D01*
X036947Y011441D01*
X037627Y011441D01*
X037627Y011381D01*
X036947Y011381D01*
X036947Y011325D01*
X037013Y011167D01*
X037134Y011046D01*
X037292Y010981D01*
X037627Y010981D01*
X037627Y011381D01*
X037687Y011381D01*
X037687Y010981D01*
X038023Y010981D01*
X038181Y011046D01*
X038302Y011167D01*
X038367Y011325D01*
X038367Y011381D01*
X037688Y011381D01*
X037688Y011441D01*
X038367Y011441D01*
X038367Y011496D01*
X038302Y011654D01*
X038181Y011775D01*
X038023Y011841D01*
X037687Y011841D01*
X037687Y011441D01*
X037627Y011441D01*
X037627Y011841D01*
X037292Y011841D01*
X037085Y011727D02*
X034779Y011727D01*
X034681Y011628D02*
X037002Y011628D01*
X036961Y011530D02*
X034587Y011530D01*
X034587Y011431D02*
X037627Y011431D01*
X037688Y011431D02*
X039787Y011431D01*
X039787Y011333D02*
X038367Y011333D01*
X038329Y011234D02*
X039787Y011234D01*
X039787Y011136D02*
X038270Y011136D01*
X038158Y011037D02*
X039787Y011037D01*
X039787Y010938D02*
X034384Y010938D01*
X034483Y011037D02*
X037156Y011037D01*
X037044Y011136D02*
X034527Y011136D01*
X034568Y011234D02*
X036985Y011234D01*
X036947Y011333D02*
X034587Y011333D01*
X034258Y010840D02*
X039787Y010840D01*
X039787Y010741D02*
X037990Y010741D01*
X037925Y010806D02*
X037390Y010806D01*
X037314Y010731D01*
X035771Y010731D01*
X035544Y010731D01*
X035334Y010644D01*
X034174Y009484D01*
X034087Y009274D01*
X034087Y009047D01*
X034087Y007510D01*
X034007Y007430D01*
X034007Y006892D01*
X034388Y006511D01*
X034399Y006511D01*
X034227Y006339D01*
X034227Y006191D01*
X034627Y006191D01*
X034627Y006131D01*
X034227Y006131D01*
X034227Y005983D01*
X034479Y005731D01*
X034627Y005731D01*
X034627Y006131D01*
X034687Y006131D01*
X034687Y005731D01*
X034835Y005731D01*
X035087Y005983D01*
X035087Y006131D01*
X034688Y006131D01*
X034688Y006191D01*
X035087Y006191D01*
X035087Y006339D01*
X034915Y006511D01*
X034927Y006511D01*
X035307Y006892D01*
X035307Y007430D01*
X035227Y007510D01*
X035227Y008925D01*
X035893Y009591D01*
X037314Y009591D01*
X037390Y009515D01*
X037925Y009515D01*
X038303Y009893D01*
X038303Y010428D01*
X037925Y010806D01*
X038088Y010643D02*
X039787Y010643D01*
X039787Y010544D02*
X038187Y010544D01*
X038285Y010446D02*
X039787Y010446D01*
X039787Y010347D02*
X038303Y010347D01*
X038303Y010249D02*
X039787Y010249D01*
X039787Y010150D02*
X038303Y010150D01*
X038303Y010052D02*
X039787Y010052D01*
X039787Y009953D02*
X038303Y009953D01*
X038264Y009854D02*
X039787Y009854D01*
X039787Y009756D02*
X038165Y009756D01*
X038067Y009657D02*
X039787Y009657D01*
X039787Y009559D02*
X037968Y009559D01*
X037346Y009559D02*
X035861Y009559D01*
X035763Y009460D02*
X039787Y009460D01*
X039787Y009362D02*
X035664Y009362D01*
X035566Y009263D02*
X039787Y009263D01*
X039787Y009165D02*
X035467Y009165D01*
X035369Y009066D02*
X039787Y009066D01*
X039787Y008968D02*
X035270Y008968D01*
X035227Y008869D02*
X039787Y008869D01*
X039787Y008770D02*
X035227Y008770D01*
X035227Y008672D02*
X039787Y008672D01*
X039787Y008573D02*
X035227Y008573D01*
X035227Y008475D02*
X039787Y008475D01*
X039787Y008376D02*
X035227Y008376D01*
X035227Y008278D02*
X039787Y008278D01*
X039787Y008179D02*
X035227Y008179D01*
X035227Y008081D02*
X039787Y008081D01*
X039787Y007982D02*
X035227Y007982D01*
X035227Y007884D02*
X039787Y007884D01*
X039787Y007785D02*
X035227Y007785D01*
X035227Y007686D02*
X039787Y007686D01*
X039787Y007588D02*
X035227Y007588D01*
X035248Y007489D02*
X039787Y007489D01*
X039787Y007391D02*
X035307Y007391D01*
X035307Y007292D02*
X039787Y007292D01*
X039787Y007194D02*
X035307Y007194D01*
X035307Y007095D02*
X039787Y007095D01*
X039787Y006997D02*
X035307Y006997D01*
X035307Y006898D02*
X039787Y006898D01*
X039787Y006800D02*
X035215Y006800D01*
X035117Y006701D02*
X039787Y006701D01*
X039787Y006603D02*
X035018Y006603D01*
X034922Y006504D02*
X039787Y006504D01*
X039787Y006405D02*
X035021Y006405D01*
X035087Y006307D02*
X039787Y006307D01*
X039787Y006208D02*
X035087Y006208D01*
X035087Y006110D02*
X039787Y006110D01*
X039787Y006011D02*
X035087Y006011D01*
X035017Y005913D02*
X039787Y005913D01*
X039787Y005814D02*
X034919Y005814D01*
X034687Y005814D02*
X034627Y005814D01*
X034627Y005913D02*
X034687Y005913D01*
X034687Y006011D02*
X034627Y006011D01*
X034627Y006110D02*
X034687Y006110D01*
X034396Y005814D02*
X033227Y005814D01*
X033227Y005716D02*
X039787Y005716D01*
X039787Y005617D02*
X033227Y005617D01*
X033227Y005519D02*
X039787Y005519D01*
X039787Y005420D02*
X033227Y005420D01*
X033227Y005321D02*
X039787Y005321D01*
X039787Y005223D02*
X033227Y005223D01*
X033227Y005124D02*
X039787Y005124D01*
X039787Y005026D02*
X033227Y005026D01*
X033227Y004927D02*
X033769Y004927D01*
X033791Y004949D02*
X033659Y004817D01*
X033587Y004644D01*
X033587Y004601D01*
X034327Y004601D01*
X034327Y004501D01*
X033587Y004501D01*
X033587Y004457D01*
X033659Y004285D01*
X033791Y004152D01*
X033964Y004081D01*
X034327Y004081D01*
X034327Y004501D01*
X034427Y004501D01*
X034427Y004081D01*
X034791Y004081D01*
X034964Y004152D01*
X035096Y004285D01*
X035167Y004457D01*
X035167Y004501D01*
X034427Y004501D01*
X034427Y004601D01*
X034327Y004601D01*
X034327Y005021D01*
X033964Y005021D01*
X033791Y004949D01*
X033671Y004829D02*
X033227Y004829D01*
X033199Y004730D02*
X033623Y004730D01*
X033587Y004632D02*
X033159Y004632D01*
X033086Y004533D02*
X034327Y004533D01*
X034327Y004435D02*
X034427Y004435D01*
X034427Y004533D02*
X036887Y004533D01*
X036887Y004501D02*
X036147Y004501D01*
X036147Y004457D01*
X036219Y004285D01*
X036351Y004152D01*
X036524Y004081D01*
X036887Y004081D01*
X036887Y004501D01*
X036887Y004601D01*
X036147Y004601D01*
X036147Y004644D01*
X036219Y004817D01*
X036351Y004949D01*
X036524Y005021D01*
X036887Y005021D01*
X036887Y004601D01*
X036987Y004601D01*
X036987Y005021D01*
X037351Y005021D01*
X037524Y004949D01*
X037656Y004817D01*
X037727Y004644D01*
X037727Y004601D01*
X036987Y004601D01*
X036987Y004501D01*
X036987Y004081D01*
X037351Y004081D01*
X037524Y004152D01*
X037656Y004285D01*
X037727Y004457D01*
X037727Y004501D01*
X036987Y004501D01*
X036887Y004501D01*
X036887Y004435D02*
X036987Y004435D01*
X036987Y004533D02*
X039787Y004533D01*
X039787Y004435D02*
X037718Y004435D01*
X037677Y004336D02*
X039787Y004336D01*
X039787Y004237D02*
X037609Y004237D01*
X037491Y004139D02*
X039787Y004139D01*
X039787Y004040D02*
X032593Y004040D01*
X032494Y003942D02*
X039787Y003942D01*
X039787Y003843D02*
X032396Y003843D01*
X032391Y003838D02*
X032391Y003838D01*
X032297Y003745D02*
X039787Y003745D01*
X039787Y003646D02*
X032155Y003646D01*
X032692Y004139D02*
X033823Y004139D01*
X033706Y004237D02*
X032790Y004237D01*
X032889Y004336D02*
X033638Y004336D01*
X033597Y004435D02*
X032987Y004435D01*
X032087Y005147D02*
X031671Y004731D01*
X031426Y004731D01*
X031488Y004793D01*
X031587Y005031D01*
X031587Y005290D01*
X031488Y005529D01*
X031306Y005712D01*
X031141Y005780D01*
X031181Y005796D01*
X031302Y005917D01*
X031367Y006075D01*
X031367Y006131D01*
X030688Y006131D01*
X030688Y006191D01*
X031367Y006191D01*
X031367Y006246D01*
X031302Y006404D01*
X031181Y006525D01*
X031023Y006591D01*
X030687Y006591D01*
X030687Y006191D01*
X030627Y006191D01*
X030627Y006131D01*
X029947Y006131D01*
X029947Y006075D01*
X030013Y005917D01*
X030134Y005796D01*
X030173Y005780D01*
X030055Y005731D01*
X028393Y005731D01*
X028227Y005897D01*
X028227Y008297D01*
X028227Y008524D01*
X028141Y008734D01*
X027641Y009234D01*
X027480Y009394D01*
X027271Y009481D01*
X026021Y009481D01*
X025794Y009481D01*
X025584Y009394D01*
X025334Y009144D01*
X025174Y008984D01*
X025087Y008774D01*
X025087Y008004D01*
X025012Y007928D01*
X025012Y007393D01*
X025390Y007015D01*
X025925Y007015D01*
X026087Y007178D01*
X026087Y005924D01*
X026005Y005924D01*
X025725Y005808D01*
X025510Y005593D01*
X025394Y005313D01*
X025394Y005009D01*
X025509Y004731D01*
X025393Y004731D01*
X024921Y005203D01*
X024921Y005313D01*
X024805Y005593D01*
X024590Y005808D01*
X024309Y005924D01*
X024200Y005924D01*
X022303Y007821D01*
X022303Y007928D01*
X021925Y008306D01*
X021390Y008306D01*
X021012Y007928D01*
X021012Y007862D01*
X020174Y008700D01*
X020156Y008744D01*
X019990Y008909D01*
X019774Y008999D01*
X019540Y008999D01*
X019324Y008909D01*
X019159Y008744D01*
X019069Y008528D01*
X019069Y008294D01*
X019159Y008078D01*
X019324Y007912D01*
X019368Y007894D01*
X024974Y002288D01*
X025184Y002201D01*
X025411Y002201D01*
X033651Y002201D01*
X033666Y002186D01*
X033920Y002081D01*
X034835Y002081D01*
X035088Y002186D01*
X035143Y002241D01*
X036171Y002241D01*
X036226Y002186D01*
X036480Y002081D01*
X037395Y002081D01*
X037648Y002186D01*
X037842Y002380D01*
X037827Y002365D02*
X038267Y002365D01*
X038132Y002267D02*
X037729Y002267D01*
X037605Y002168D02*
X038033Y002168D01*
X037961Y002070D02*
X017872Y002070D01*
X017971Y002168D02*
X033709Y002168D01*
X033661Y003351D02*
X025524Y003351D01*
X025425Y003449D02*
X033892Y003449D01*
X034327Y004139D02*
X034427Y004139D01*
X034427Y004237D02*
X034327Y004237D01*
X034327Y004336D02*
X034427Y004336D01*
X034427Y004601D02*
X035167Y004601D01*
X035167Y004644D01*
X035096Y004817D01*
X034964Y004949D01*
X034791Y005021D01*
X034427Y005021D01*
X034427Y004601D01*
X034427Y004632D02*
X034327Y004632D01*
X034327Y004730D02*
X034427Y004730D01*
X034427Y004829D02*
X034327Y004829D01*
X034327Y004927D02*
X034427Y004927D01*
X034985Y004927D02*
X036329Y004927D01*
X036231Y004829D02*
X035084Y004829D01*
X035132Y004730D02*
X036183Y004730D01*
X036147Y004632D02*
X035167Y004632D01*
X035158Y004435D02*
X036157Y004435D01*
X036198Y004336D02*
X035117Y004336D01*
X035049Y004237D02*
X036266Y004237D01*
X036383Y004139D02*
X034931Y004139D01*
X034863Y003449D02*
X036452Y003449D01*
X036221Y003351D02*
X035093Y003351D01*
X035045Y002168D02*
X036269Y002168D01*
X037857Y001774D02*
X017577Y001774D01*
X017480Y001678D02*
X017271Y001591D01*
X017044Y001591D01*
X013044Y001591D01*
X012834Y001678D01*
X012674Y001838D01*
X011997Y002515D01*
X011890Y002515D01*
X011512Y002893D01*
X011512Y003428D01*
X011890Y003806D01*
X012425Y003806D01*
X012803Y003428D01*
X012803Y003321D01*
X013393Y002731D01*
X015391Y002731D01*
X015232Y002890D01*
X015185Y002871D01*
X014910Y002871D01*
X014656Y002976D01*
X014462Y003170D01*
X014357Y003424D01*
X014357Y004338D01*
X014462Y004592D01*
X014477Y004607D01*
X014477Y005715D01*
X014462Y005730D01*
X014357Y005984D01*
X014357Y006898D01*
X014462Y007152D01*
X014652Y007341D01*
X013143Y007341D01*
X012803Y007000D01*
X012803Y006893D01*
X012425Y006515D01*
X011890Y006515D01*
X011814Y006591D01*
X011000Y006591D01*
X010925Y006515D01*
X010390Y006515D01*
X010012Y006893D01*
X010012Y007000D01*
X009671Y007341D01*
X009443Y007341D01*
X009632Y007152D01*
X009737Y006898D01*
X010012Y006898D01*
X010012Y006997D02*
X009696Y006997D01*
X009656Y007095D02*
X009917Y007095D01*
X009818Y007194D02*
X009590Y007194D01*
X009492Y007292D02*
X009720Y007292D01*
X009737Y006898D02*
X009737Y005984D01*
X009632Y005730D01*
X009617Y005715D01*
X009617Y004607D01*
X009632Y004592D01*
X009737Y004338D01*
X009737Y003997D01*
X010003Y003731D01*
X010314Y003731D01*
X010390Y003806D01*
X010925Y003806D01*
X011303Y003428D01*
X011303Y002893D01*
X010925Y002515D01*
X010390Y002515D01*
X010314Y002591D01*
X009881Y002591D01*
X009654Y002591D01*
X009444Y002678D01*
X009232Y002890D01*
X009185Y002871D01*
X008910Y002871D01*
X008656Y002976D01*
X008462Y003170D01*
X008357Y003424D01*
X008357Y004338D01*
X008462Y004592D01*
X008477Y004607D01*
X008477Y005715D01*
X008462Y005730D01*
X008357Y005984D01*
X008357Y006898D01*
X008462Y007152D01*
X008652Y007341D01*
X006143Y007341D01*
X005803Y007000D01*
X005803Y006893D01*
X005425Y006515D01*
X004890Y006515D01*
X004512Y006893D01*
X004512Y007428D01*
X004890Y007806D01*
X004997Y007806D01*
X005424Y008234D01*
X005584Y008394D01*
X005794Y008481D01*
X009794Y008481D01*
X010021Y008481D01*
X010230Y008394D01*
X010818Y007806D01*
X010925Y007806D01*
X011000Y007731D01*
X011814Y007731D01*
X011890Y007806D01*
X011997Y007806D01*
X012424Y008234D01*
X012584Y008394D01*
X012794Y008481D01*
X015794Y008481D01*
X016021Y008481D01*
X016230Y008394D01*
X016818Y007806D01*
X016925Y007806D01*
X017303Y007428D01*
X017303Y006893D01*
X016925Y006515D01*
X016390Y006515D01*
X016012Y006893D01*
X016012Y007000D01*
X015671Y007341D01*
X015443Y007341D01*
X015632Y007152D01*
X015737Y006898D01*
X016012Y006898D01*
X016012Y006997D02*
X015696Y006997D01*
X015656Y007095D02*
X015917Y007095D01*
X015818Y007194D02*
X015590Y007194D01*
X015492Y007292D02*
X015720Y007292D01*
X015737Y006898D02*
X015737Y005984D01*
X015632Y005730D01*
X015617Y005715D01*
X015617Y004607D01*
X015632Y004592D01*
X015737Y004338D01*
X015737Y003997D01*
X016003Y003731D01*
X016314Y003731D01*
X016390Y003806D01*
X016925Y003806D01*
X017303Y003428D01*
X017303Y003112D01*
X018087Y003897D01*
X018087Y004402D01*
X018043Y004446D01*
X017933Y004712D01*
X017933Y005709D01*
X018043Y005975D01*
X018087Y006019D01*
X018087Y006925D01*
X017868Y007144D01*
X017824Y007162D01*
X017659Y007328D01*
X017569Y007544D01*
X017569Y007778D01*
X017659Y007994D01*
X017824Y008159D01*
X018040Y008249D01*
X018274Y008249D01*
X018490Y008159D01*
X018656Y007994D01*
X018674Y007950D01*
X019141Y007484D01*
X019227Y007274D01*
X019227Y007047D01*
X019227Y006159D01*
X019247Y006179D01*
X019513Y006289D01*
X019801Y006289D01*
X020068Y006179D01*
X020271Y005975D01*
X020296Y005917D01*
X020372Y005993D01*
X020557Y006069D01*
X020629Y006069D01*
X020629Y005240D01*
X020686Y005240D01*
X020686Y006069D01*
X020758Y006069D01*
X020943Y005993D01*
X021085Y005851D01*
X021162Y005665D01*
X021162Y005240D01*
X020686Y005240D01*
X020686Y005182D01*
X020686Y004352D01*
X020758Y004352D01*
X020943Y004429D01*
X021085Y004571D01*
X021162Y004756D01*
X021162Y005182D01*
X020686Y005182D01*
X020629Y005182D01*
X020629Y004352D01*
X020557Y004352D01*
X020372Y004429D01*
X020296Y004505D01*
X020271Y004446D01*
X020227Y004402D01*
X020227Y003897D01*
X020393Y003731D01*
X021894Y003731D01*
X022032Y003788D01*
X022282Y003788D01*
X022513Y003693D01*
X022689Y003516D01*
X022785Y003286D01*
X022785Y003036D01*
X022689Y002805D01*
X022513Y002629D01*
X022282Y002533D01*
X022032Y002533D01*
X021894Y002591D01*
X020044Y002591D01*
X019834Y002678D01*
X019674Y002838D01*
X019174Y003338D01*
X019157Y003378D01*
X019141Y003338D01*
X018980Y003178D01*
X017480Y001678D01*
X017475Y001675D02*
X037857Y001675D01*
X037857Y001577D02*
X002457Y001577D01*
X002457Y001502D02*
X002336Y001208D01*
X002110Y000983D01*
X001816Y000861D01*
X001498Y000861D01*
X001204Y000983D01*
X000979Y001208D01*
X000857Y001502D01*
X000857Y001820D01*
X000979Y002114D01*
X001204Y002339D01*
X001498Y002461D01*
X001816Y002461D01*
X002110Y002339D01*
X002336Y002114D01*
X002457Y001820D01*
X002457Y001502D01*
X002448Y001478D02*
X037867Y001478D01*
X037908Y001380D02*
X002407Y001380D01*
X002366Y001281D02*
X037949Y001281D01*
X038004Y001183D02*
X002311Y001183D01*
X002212Y001084D02*
X038103Y001084D01*
X038201Y000986D02*
X002113Y000986D01*
X001880Y000887D02*
X038435Y000887D01*
X037879Y001872D02*
X017675Y001872D01*
X017774Y001971D02*
X037920Y001971D01*
X037918Y002562D02*
X039787Y002562D01*
X039787Y002661D02*
X037947Y002661D01*
X037947Y002759D02*
X039787Y002759D01*
X039787Y002858D02*
X037947Y002858D01*
X037927Y002956D02*
X039787Y002956D01*
X039787Y003055D02*
X037886Y003055D01*
X037846Y003154D02*
X039787Y003154D01*
X039787Y003252D02*
X037752Y003252D01*
X037653Y003351D02*
X039787Y003351D01*
X039787Y003449D02*
X037423Y003449D01*
X036987Y004139D02*
X036887Y004139D01*
X036887Y004237D02*
X036987Y004237D01*
X036987Y004336D02*
X036887Y004336D01*
X036887Y004632D02*
X036987Y004632D01*
X036987Y004730D02*
X036887Y004730D01*
X036887Y004829D02*
X036987Y004829D01*
X036987Y004927D02*
X036887Y004927D01*
X037545Y004927D02*
X039787Y004927D01*
X039787Y004829D02*
X037644Y004829D01*
X037692Y004730D02*
X039787Y004730D01*
X039787Y004632D02*
X037727Y004632D01*
X039787Y003548D02*
X031156Y003548D01*
X030159Y003548D02*
X025326Y003548D01*
X024503Y002759D02*
X022643Y002759D01*
X022711Y002858D02*
X024404Y002858D01*
X024306Y002956D02*
X022752Y002956D01*
X022785Y003055D02*
X024207Y003055D01*
X024108Y003154D02*
X022785Y003154D01*
X022785Y003252D02*
X024010Y003252D01*
X023911Y003351D02*
X022758Y003351D01*
X022717Y003449D02*
X023813Y003449D01*
X023714Y003548D02*
X022658Y003548D01*
X022559Y003646D02*
X023616Y003646D01*
X023517Y003745D02*
X022387Y003745D01*
X021928Y003745D02*
X020379Y003745D01*
X020281Y003843D02*
X023419Y003843D01*
X023320Y003942D02*
X020227Y003942D01*
X020227Y004040D02*
X023222Y004040D01*
X023123Y004139D02*
X020227Y004139D01*
X020227Y004237D02*
X023024Y004237D01*
X022926Y004336D02*
X020227Y004336D01*
X020260Y004435D02*
X020366Y004435D01*
X020629Y004435D02*
X020686Y004435D01*
X020686Y004533D02*
X020629Y004533D01*
X020629Y004632D02*
X020686Y004632D01*
X020686Y004730D02*
X020629Y004730D01*
X020629Y004829D02*
X020686Y004829D01*
X020686Y004927D02*
X020629Y004927D01*
X020629Y005026D02*
X020686Y005026D01*
X020686Y005124D02*
X020629Y005124D01*
X020686Y005223D02*
X022039Y005223D01*
X021941Y005321D02*
X021162Y005321D01*
X021162Y005420D02*
X021842Y005420D01*
X021743Y005519D02*
X021162Y005519D01*
X021162Y005617D02*
X021645Y005617D01*
X021546Y005716D02*
X021141Y005716D01*
X021100Y005814D02*
X021448Y005814D01*
X021349Y005913D02*
X021023Y005913D01*
X020898Y006011D02*
X021251Y006011D01*
X021152Y006110D02*
X020137Y006110D01*
X020235Y006011D02*
X020417Y006011D01*
X020629Y006011D02*
X020686Y006011D01*
X020686Y005913D02*
X020629Y005913D01*
X020629Y005814D02*
X020686Y005814D01*
X020686Y005716D02*
X020629Y005716D01*
X020629Y005617D02*
X020686Y005617D01*
X020686Y005519D02*
X020629Y005519D01*
X020629Y005420D02*
X020686Y005420D01*
X020686Y005321D02*
X020629Y005321D01*
X021162Y005124D02*
X022138Y005124D01*
X022236Y005026D02*
X021162Y005026D01*
X021162Y004927D02*
X022335Y004927D01*
X022433Y004829D02*
X021162Y004829D01*
X021151Y004730D02*
X022532Y004730D01*
X022630Y004632D02*
X021110Y004632D01*
X021047Y004533D02*
X022729Y004533D01*
X022827Y004435D02*
X020949Y004435D01*
X019457Y003055D02*
X018858Y003055D01*
X018956Y003154D02*
X019358Y003154D01*
X019260Y003252D02*
X019055Y003252D01*
X019146Y003351D02*
X019169Y003351D01*
X019556Y002956D02*
X018759Y002956D01*
X018661Y002858D02*
X019654Y002858D01*
X019753Y002759D02*
X018562Y002759D01*
X018463Y002661D02*
X019875Y002661D01*
X018365Y002562D02*
X021963Y002562D01*
X022352Y002562D02*
X024700Y002562D01*
X024798Y002464D02*
X018266Y002464D01*
X018168Y002365D02*
X024897Y002365D01*
X025025Y002267D02*
X018069Y002267D01*
X017344Y003154D02*
X017303Y003154D01*
X017303Y003252D02*
X017443Y003252D01*
X017541Y003351D02*
X017303Y003351D01*
X017282Y003449D02*
X017640Y003449D01*
X017738Y003548D02*
X017183Y003548D01*
X017085Y003646D02*
X017837Y003646D01*
X017935Y003745D02*
X016986Y003745D01*
X016328Y003745D02*
X015989Y003745D01*
X015891Y003843D02*
X018034Y003843D01*
X018087Y003942D02*
X015792Y003942D01*
X015737Y004040D02*
X018087Y004040D01*
X018087Y004139D02*
X015737Y004139D01*
X015737Y004237D02*
X018087Y004237D01*
X018087Y004336D02*
X015737Y004336D01*
X015697Y004435D02*
X018055Y004435D01*
X018007Y004533D02*
X015656Y004533D01*
X015617Y004632D02*
X017966Y004632D01*
X017933Y004730D02*
X015617Y004730D01*
X015617Y004829D02*
X017933Y004829D01*
X017933Y004927D02*
X015617Y004927D01*
X015617Y005026D02*
X017933Y005026D01*
X017933Y005124D02*
X015617Y005124D01*
X015617Y005223D02*
X017933Y005223D01*
X017933Y005321D02*
X015617Y005321D01*
X015617Y005420D02*
X017933Y005420D01*
X017933Y005519D02*
X015617Y005519D01*
X015617Y005617D02*
X017933Y005617D01*
X017936Y005716D02*
X015618Y005716D01*
X015667Y005814D02*
X017976Y005814D01*
X018017Y005913D02*
X015708Y005913D01*
X015737Y006011D02*
X018079Y006011D01*
X018087Y006110D02*
X015737Y006110D01*
X015737Y006208D02*
X018087Y006208D01*
X018087Y006307D02*
X015737Y006307D01*
X015737Y006405D02*
X018087Y006405D01*
X018087Y006504D02*
X015737Y006504D01*
X015737Y006603D02*
X016303Y006603D01*
X016204Y006701D02*
X015737Y006701D01*
X015737Y006800D02*
X016106Y006800D01*
X017012Y006603D02*
X018087Y006603D01*
X018087Y006701D02*
X017111Y006701D01*
X017209Y006800D02*
X018087Y006800D01*
X018087Y006898D02*
X017303Y006898D01*
X017303Y006997D02*
X018015Y006997D01*
X017917Y007095D02*
X017303Y007095D01*
X017303Y007194D02*
X017793Y007194D01*
X017694Y007292D02*
X017303Y007292D01*
X017303Y007391D02*
X017633Y007391D01*
X017592Y007489D02*
X017242Y007489D01*
X017143Y007588D02*
X017569Y007588D01*
X017569Y007686D02*
X017045Y007686D01*
X016946Y007785D02*
X017572Y007785D01*
X017613Y007884D02*
X016741Y007884D01*
X016642Y007982D02*
X017654Y007982D01*
X017746Y008081D02*
X016544Y008081D01*
X016445Y008179D02*
X017872Y008179D01*
X018442Y008179D02*
X019117Y008179D01*
X019157Y008081D02*
X018569Y008081D01*
X018661Y007982D02*
X019254Y007982D01*
X019378Y007884D02*
X018741Y007884D01*
X018839Y007785D02*
X019477Y007785D01*
X019575Y007686D02*
X018938Y007686D01*
X019036Y007588D02*
X019674Y007588D01*
X019773Y007489D02*
X019135Y007489D01*
X019179Y007391D02*
X019871Y007391D01*
X019970Y007292D02*
X019220Y007292D01*
X019227Y007194D02*
X020068Y007194D01*
X020167Y007095D02*
X019227Y007095D01*
X019227Y006997D02*
X020265Y006997D01*
X020364Y006898D02*
X019227Y006898D01*
X019227Y006800D02*
X020462Y006800D01*
X020561Y006701D02*
X019227Y006701D01*
X019227Y006603D02*
X020659Y006603D01*
X020758Y006504D02*
X019227Y006504D01*
X019227Y006405D02*
X020857Y006405D01*
X020955Y006307D02*
X019227Y006307D01*
X019227Y006208D02*
X019318Y006208D01*
X019997Y006208D02*
X021054Y006208D01*
X022438Y007686D02*
X025012Y007686D01*
X025012Y007588D02*
X022536Y007588D01*
X022635Y007489D02*
X025012Y007489D01*
X025014Y007391D02*
X022733Y007391D01*
X022832Y007292D02*
X025113Y007292D01*
X025211Y007194D02*
X022930Y007194D01*
X023029Y007095D02*
X025310Y007095D01*
X026005Y007095D02*
X026087Y007095D01*
X026087Y006997D02*
X023127Y006997D01*
X023226Y006898D02*
X026087Y006898D01*
X026087Y006800D02*
X023325Y006800D01*
X023423Y006701D02*
X026087Y006701D01*
X026087Y006603D02*
X023522Y006603D01*
X023620Y006504D02*
X026087Y006504D01*
X026087Y006405D02*
X023719Y006405D01*
X023817Y006307D02*
X026087Y006307D01*
X026087Y006208D02*
X023916Y006208D01*
X024014Y006110D02*
X026087Y006110D01*
X026087Y006011D02*
X024113Y006011D01*
X024338Y005913D02*
X025977Y005913D01*
X025739Y005814D02*
X024575Y005814D01*
X024682Y005716D02*
X025632Y005716D01*
X025534Y005617D02*
X024781Y005617D01*
X024836Y005519D02*
X025479Y005519D01*
X025438Y005420D02*
X024877Y005420D01*
X024917Y005321D02*
X025397Y005321D01*
X025394Y005223D02*
X024921Y005223D01*
X025000Y005124D02*
X025394Y005124D01*
X025394Y005026D02*
X025098Y005026D01*
X025197Y004927D02*
X025427Y004927D01*
X025468Y004829D02*
X025295Y004829D01*
X024601Y002661D02*
X022545Y002661D01*
X028227Y005913D02*
X030017Y005913D01*
X029974Y006011D02*
X028227Y006011D01*
X028227Y006110D02*
X029947Y006110D01*
X029947Y006191D02*
X030627Y006191D01*
X030627Y006591D01*
X030292Y006591D01*
X030134Y006525D01*
X030013Y006404D01*
X029947Y006246D01*
X029947Y006191D01*
X029947Y006208D02*
X028227Y006208D01*
X028227Y006307D02*
X029972Y006307D01*
X030014Y006405D02*
X028227Y006405D01*
X028227Y006504D02*
X030112Y006504D01*
X030627Y006504D02*
X030687Y006504D01*
X030687Y006405D02*
X030627Y006405D01*
X030627Y006307D02*
X030687Y006307D01*
X030687Y006208D02*
X030627Y006208D01*
X030116Y005814D02*
X028310Y005814D01*
X028227Y006603D02*
X032087Y006603D01*
X032087Y006701D02*
X028227Y006701D01*
X028227Y006800D02*
X032087Y006800D01*
X032087Y006898D02*
X028227Y006898D01*
X028227Y006997D02*
X032087Y006997D01*
X032087Y007095D02*
X028227Y007095D01*
X028227Y007194D02*
X032087Y007194D01*
X032087Y007292D02*
X030891Y007292D01*
X030834Y007235D02*
X031083Y007484D01*
X031083Y007642D01*
X030676Y007642D01*
X030676Y007235D01*
X030834Y007235D01*
X030676Y007292D02*
X030638Y007292D01*
X030638Y007235D02*
X030638Y007642D01*
X030232Y007642D01*
X030232Y007484D01*
X030481Y007235D01*
X030638Y007235D01*
X030638Y007391D02*
X030676Y007391D01*
X030676Y007489D02*
X030638Y007489D01*
X030638Y007588D02*
X030676Y007588D01*
X030676Y007642D02*
X030638Y007642D01*
X030638Y007680D01*
X030232Y007680D01*
X030232Y007837D01*
X030481Y008086D01*
X030638Y008086D01*
X030638Y007680D01*
X030676Y007680D01*
X030676Y008086D01*
X030834Y008086D01*
X031083Y007837D01*
X031083Y007680D01*
X030676Y007680D01*
X030676Y007642D01*
X030676Y007686D02*
X030638Y007686D01*
X030638Y007785D02*
X030676Y007785D01*
X030676Y007884D02*
X030638Y007884D01*
X030638Y007982D02*
X030676Y007982D01*
X030676Y008081D02*
X030638Y008081D01*
X030475Y008081D02*
X028227Y008081D01*
X028227Y008179D02*
X032087Y008179D01*
X032087Y008081D02*
X030839Y008081D01*
X030938Y007982D02*
X032087Y007982D01*
X032087Y007884D02*
X031036Y007884D01*
X031083Y007785D02*
X032087Y007785D01*
X032087Y007686D02*
X031083Y007686D01*
X031083Y007588D02*
X032087Y007588D01*
X032087Y007489D02*
X031083Y007489D01*
X030989Y007391D02*
X032087Y007391D01*
X032087Y006504D02*
X031202Y006504D01*
X031301Y006405D02*
X032087Y006405D01*
X032087Y006307D02*
X031342Y006307D01*
X031367Y006208D02*
X032087Y006208D01*
X032087Y006110D02*
X031367Y006110D01*
X031341Y006011D02*
X032087Y006011D01*
X032087Y005913D02*
X031297Y005913D01*
X031199Y005814D02*
X032087Y005814D01*
X032087Y005716D02*
X031296Y005716D01*
X031400Y005617D02*
X032087Y005617D01*
X032087Y005519D02*
X031493Y005519D01*
X031534Y005420D02*
X032087Y005420D01*
X032087Y005321D02*
X031574Y005321D01*
X031587Y005223D02*
X032087Y005223D01*
X032087Y005147D02*
X032087Y009417D01*
X032037Y009537D01*
X032037Y009784D01*
X032049Y009812D01*
X032035Y009798D01*
X031790Y009696D01*
X031525Y009696D01*
X031279Y009798D01*
X031157Y009920D01*
X031035Y009798D01*
X030790Y009696D01*
X030525Y009696D01*
X030279Y009798D01*
X030157Y009920D01*
X030035Y009798D01*
X029790Y009696D01*
X029525Y009696D01*
X029279Y009798D01*
X029157Y009920D01*
X029035Y009798D01*
X028790Y009696D01*
X028525Y009696D01*
X028279Y009798D01*
X028157Y009920D01*
X028035Y009798D01*
X027790Y009696D01*
X027525Y009696D01*
X027279Y009798D01*
X027157Y009920D01*
X027035Y009798D01*
X026790Y009696D01*
X026525Y009696D01*
X026279Y009798D01*
X026092Y009986D01*
X025990Y010231D01*
X025990Y011091D01*
X025990Y011091D01*
X025544Y011091D01*
X025334Y011178D01*
X025256Y011256D01*
X025324Y011091D01*
X025324Y010231D01*
X025223Y009986D01*
X025035Y009798D01*
X024790Y009696D01*
X024525Y009696D01*
X024279Y009798D01*
X024092Y009986D01*
X024038Y010115D01*
X024036Y010110D01*
X023911Y009985D01*
X023746Y009916D01*
X023696Y009916D01*
X023696Y010622D01*
X023619Y010622D01*
X023619Y009916D01*
X023568Y009916D01*
X023404Y009985D01*
X023278Y010110D01*
X023210Y010275D01*
X023210Y010622D01*
X023618Y010622D01*
X023618Y010699D01*
X023210Y010699D01*
X023210Y011047D01*
X023278Y011211D01*
X023404Y011337D01*
X023568Y011405D01*
X023619Y011405D01*
X023619Y010700D01*
X023696Y010700D01*
X023696Y011405D01*
X023746Y011405D01*
X023911Y011337D01*
X024036Y011211D01*
X024038Y011207D01*
X024092Y011336D01*
X024279Y011524D01*
X024525Y011625D01*
X024790Y011625D01*
X024955Y011557D01*
X023084Y013428D01*
X023084Y013428D01*
X022924Y013588D01*
X022837Y013797D01*
X022837Y016024D01*
X022924Y016234D01*
X023084Y016394D01*
X023727Y017036D01*
X023689Y017021D01*
X023355Y017021D01*
X023355Y017419D01*
X023298Y017419D01*
X023298Y017021D01*
X022964Y017021D01*
X022807Y017086D01*
X022687Y017206D01*
X022622Y017363D01*
X022622Y017419D01*
X023298Y017419D01*
X023298Y017477D01*
X022622Y017477D01*
X022622Y017533D01*
X022685Y017686D01*
X022682Y017687D01*
X022500Y017869D01*
X022402Y018107D01*
X022402Y018364D01*
X022500Y018602D01*
X022527Y018629D01*
X022500Y018656D01*
X022402Y018894D01*
X022402Y019152D01*
X022500Y019390D01*
X022527Y019417D01*
X022500Y019444D01*
X022402Y019682D01*
X022402Y019939D01*
X022500Y020177D01*
X022527Y020204D01*
X022500Y020231D01*
X022402Y020469D01*
X022402Y020727D01*
X022500Y020965D01*
X022527Y020991D01*
X022500Y021018D01*
X022402Y021256D01*
X022402Y021514D01*
X022500Y021752D01*
X022527Y021779D01*
X022500Y021806D01*
X022402Y022044D01*
X022402Y022301D01*
X022500Y022539D01*
X022527Y022566D01*
X022500Y022593D01*
X022402Y022831D01*
X022402Y023089D01*
X022500Y023327D01*
X022527Y023354D01*
X022500Y023381D01*
X022402Y023619D01*
X022402Y023876D01*
X022500Y024114D01*
X022527Y024141D01*
X022500Y024168D01*
X022492Y024189D01*
X021227Y022925D01*
X021227Y022609D01*
X021268Y022569D01*
X021377Y022304D01*
X021377Y022018D01*
X021268Y021753D01*
X021176Y021661D01*
X021268Y021569D01*
X021377Y021304D01*
X021377Y021018D01*
X021268Y020753D01*
X021176Y020661D01*
X021268Y020569D01*
X021377Y020304D01*
X021377Y020018D01*
X021268Y019753D01*
X021176Y019661D01*
X021268Y019569D01*
X021377Y019304D01*
X021377Y019018D01*
X021268Y018753D01*
X021176Y018661D01*
X021268Y018569D01*
X021377Y018304D01*
X021377Y018018D01*
X021268Y017753D01*
X021176Y017661D01*
X021268Y017569D01*
X021377Y017304D01*
X021377Y017018D01*
X021268Y016753D01*
X021176Y016661D01*
X021268Y016569D01*
X021377Y016304D01*
X021377Y016018D01*
X021268Y015753D01*
X021176Y015661D01*
X021268Y015569D01*
X021377Y015304D01*
X021377Y015018D01*
X021268Y014753D01*
X021176Y014661D01*
X021268Y014569D01*
X021377Y014304D01*
X021377Y014018D01*
X021268Y013753D01*
X021176Y013661D01*
X021268Y013569D01*
X021377Y013304D01*
X021377Y013018D01*
X021268Y012753D01*
X021065Y012550D01*
X020801Y012441D01*
X020514Y012441D01*
X020249Y012550D01*
X020157Y012643D01*
X020065Y012550D01*
X019801Y012441D01*
X019514Y012441D01*
X019249Y012550D01*
X019157Y012643D01*
X019065Y012550D01*
X018801Y012441D01*
X018514Y012441D01*
X018249Y012550D01*
X018157Y012643D01*
X018065Y012550D01*
X017801Y012441D01*
X017514Y012441D01*
X017249Y012550D01*
X017157Y012643D01*
X017065Y012550D01*
X016801Y012441D01*
X016514Y012441D01*
X016249Y012550D01*
X016157Y012643D01*
X016065Y012550D01*
X015801Y012441D01*
X015514Y012441D01*
X015249Y012550D01*
X015157Y012643D01*
X015065Y012550D01*
X014801Y012441D01*
X014514Y012441D01*
X014249Y012550D01*
X014157Y012643D01*
X014065Y012550D01*
X013801Y012441D01*
X013514Y012441D01*
X013249Y012550D01*
X013157Y012643D01*
X013065Y012550D01*
X012801Y012441D01*
X012514Y012441D01*
X012249Y012550D01*
X012157Y012643D01*
X012065Y012550D01*
X011801Y012441D01*
X011514Y012441D01*
X011249Y012550D01*
X011157Y012643D01*
X011065Y012550D01*
X010801Y012441D01*
X010514Y012441D01*
X010249Y012550D01*
X010157Y012643D01*
X010065Y012550D01*
X009801Y012441D01*
X009514Y012441D01*
X009249Y012550D01*
X009157Y012643D01*
X009065Y012550D01*
X008801Y012441D01*
X008514Y012441D01*
X008249Y012550D01*
X008157Y012643D01*
X008065Y012550D01*
X007801Y012441D01*
X007514Y012441D01*
X007249Y012550D01*
X007157Y012643D01*
X007065Y012550D01*
X006801Y012441D01*
X006514Y012441D01*
X006249Y012550D01*
X006157Y012643D01*
X006065Y012550D01*
X005801Y012441D01*
X005514Y012441D01*
X005249Y012550D01*
X005157Y012643D01*
X005065Y012550D01*
X004801Y012441D01*
X004514Y012441D01*
X004249Y012550D01*
X004157Y012643D01*
X004065Y012550D01*
X003801Y012441D01*
X003514Y012441D01*
X003249Y012550D01*
X003157Y012643D01*
X003065Y012550D01*
X002801Y012441D01*
X002514Y012441D01*
X002249Y012550D01*
X002157Y012643D01*
X002065Y012550D01*
X001801Y012441D01*
X001514Y012441D01*
X001249Y012550D01*
X001047Y012753D01*
X000937Y013018D01*
X000937Y013304D01*
X001047Y013569D01*
X001139Y013661D01*
X001047Y013753D01*
X000937Y014018D01*
X000937Y014304D01*
X001047Y014569D01*
X001139Y014661D01*
X001047Y014753D01*
X000937Y015018D01*
X000937Y015304D01*
X001047Y015569D01*
X001139Y015661D01*
X001047Y015753D01*
X000937Y016018D01*
X000937Y016304D01*
X001047Y016569D01*
X001139Y016661D01*
X001047Y016753D01*
X000937Y017018D01*
X000937Y017304D01*
X001047Y017569D01*
X001139Y017661D01*
X001047Y017753D01*
X000937Y018018D01*
X000937Y018304D01*
X001047Y018569D01*
X001139Y018661D01*
X001047Y018753D01*
X000937Y019018D01*
X000937Y019304D01*
X001047Y019569D01*
X001139Y019661D01*
X001047Y019753D01*
X000937Y020018D01*
X000937Y020304D01*
X001047Y020569D01*
X001139Y020661D01*
X001047Y020753D01*
X000937Y021018D01*
X000937Y021304D01*
X001047Y021569D01*
X001139Y021661D01*
X001047Y021753D01*
X000937Y022018D01*
X000937Y022304D01*
X001047Y022569D01*
X001139Y022661D01*
X001047Y022753D01*
X000937Y023018D01*
X000937Y023304D01*
X001047Y023569D01*
X001139Y023661D01*
X001047Y023753D01*
X000937Y024018D01*
X000937Y024304D01*
X001047Y024569D01*
X001139Y024661D01*
X001047Y024753D01*
X000937Y025018D01*
X000937Y025304D01*
X001047Y025569D01*
X001249Y025771D01*
X001514Y025881D01*
X001801Y025881D01*
X002042Y025781D01*
X002273Y025781D01*
X002514Y025881D01*
X002524Y025881D01*
X002512Y025893D01*
X002512Y026000D01*
X001674Y026838D01*
X001587Y027047D01*
X001587Y027274D01*
X001587Y029812D01*
X001507Y029892D01*
X001507Y029903D01*
X001335Y029731D01*
X001187Y029731D01*
X001187Y030131D01*
X001127Y030131D01*
X000727Y030131D01*
X000727Y029983D01*
X000979Y029731D01*
X001127Y029731D01*
X001127Y030131D01*
X001127Y030191D01*
X000727Y030191D01*
X000727Y030339D01*
X000979Y030591D01*
X001127Y030591D01*
X001127Y030191D01*
X001187Y030191D01*
X001187Y030591D01*
X001335Y030591D01*
X001507Y030419D01*
X001507Y030430D01*
X001888Y030811D01*
X002427Y030811D01*
X002660Y030577D01*
X002890Y030806D01*
X003425Y030806D01*
X003803Y030428D01*
X003803Y029893D01*
X003425Y029515D01*
X002890Y029515D01*
X002727Y029678D01*
X002727Y027397D01*
X003318Y026806D01*
X003425Y026806D01*
X003803Y026428D01*
X003803Y025893D01*
X003790Y025881D01*
X003801Y025881D01*
X004042Y025781D01*
X004273Y025781D01*
X004514Y025881D01*
X004801Y025881D01*
X005042Y025781D01*
X005273Y025781D01*
X005514Y025881D01*
X005801Y025881D01*
X006042Y025781D01*
X006273Y025781D01*
X006514Y025881D01*
X006801Y025881D01*
X007042Y025781D01*
X007273Y025781D01*
X007514Y025881D01*
X007801Y025881D01*
X007972Y025810D01*
X007972Y025844D01*
X008344Y026216D01*
X008192Y026368D01*
X008192Y026531D01*
X008627Y026531D01*
X008627Y026591D01*
X008192Y026591D01*
X008192Y026753D01*
X008465Y027026D01*
X008627Y027026D01*
X008627Y026591D01*
X008687Y026591D01*
X008687Y026994D01*
X006382Y029300D01*
X006382Y028662D01*
X006271Y028396D01*
X006068Y028192D01*
X005801Y028082D01*
X005513Y028082D01*
X005247Y028192D01*
X005227Y028212D01*
X005227Y027969D01*
X005271Y027925D01*
X005382Y027659D01*
X005382Y026662D01*
X005271Y026396D01*
X005068Y026192D01*
X004801Y026082D01*
X004513Y026082D01*
X004247Y026192D01*
X004043Y026396D01*
X003933Y026662D01*
X003933Y027659D01*
X004043Y027925D01*
X004087Y027969D01*
X004087Y030852D01*
X004043Y030896D01*
X004019Y030955D01*
X003943Y030879D01*
X003758Y030802D01*
X003707Y030802D01*
X003707Y031611D01*
X003607Y031611D01*
X003153Y031611D01*
X003153Y031206D01*
X003230Y031021D01*
X003372Y030879D01*
X003557Y030802D01*
X003607Y030802D01*
X003607Y031611D01*
X003607Y031711D01*
X003153Y031711D01*
X003153Y032115D01*
X003230Y032301D01*
X003372Y032443D01*
X003557Y032519D01*
X003607Y032519D01*
X003607Y031711D01*
X003707Y031711D01*
X003707Y032519D01*
X003758Y032519D01*
X003943Y032443D01*
X004019Y032367D01*
X004043Y032425D01*
X004247Y032629D01*
X004513Y032739D01*
X004801Y032739D01*
X005068Y032629D01*
X005157Y032539D01*
X005247Y032629D01*
X005513Y032739D01*
X005801Y032739D01*
X006068Y032629D01*
X006157Y032539D01*
X006247Y032629D01*
X006513Y032739D01*
X006801Y032739D01*
X007068Y032629D01*
X007157Y032539D01*
X007247Y032629D01*
X007513Y032739D01*
X007801Y032739D01*
X008068Y032629D01*
X008157Y032539D01*
X008247Y032629D01*
X008513Y032739D01*
X008801Y032739D01*
X009068Y032629D01*
X009157Y032539D01*
X009247Y032629D01*
X009513Y032739D01*
X009801Y032739D01*
X010068Y032629D01*
X010157Y032539D01*
X010247Y032629D01*
X010513Y032739D01*
X010801Y032739D01*
X011068Y032629D01*
X011157Y032539D01*
X011247Y032629D01*
X011513Y032739D01*
X011801Y032739D01*
X012068Y032629D01*
X012157Y032539D01*
X012247Y032629D01*
X012513Y032739D01*
X012801Y032739D01*
X013068Y032629D01*
X013157Y032539D01*
X013247Y032629D01*
X013513Y032739D01*
X013801Y032739D01*
X014068Y032629D01*
X014157Y032539D01*
X014247Y032629D01*
X014513Y032739D01*
X014801Y032739D01*
X015068Y032629D01*
X015157Y032539D01*
X015247Y032629D01*
X015513Y032739D01*
X015801Y032739D01*
X016068Y032629D01*
X016157Y032539D01*
X016247Y032629D01*
X016513Y032739D01*
X016801Y032739D01*
X017068Y032629D01*
X017157Y032539D01*
X017247Y032629D01*
X017513Y032739D01*
X017801Y032739D01*
X018068Y032629D01*
X018271Y032425D01*
X018296Y032367D01*
X018372Y032443D01*
X018557Y032519D01*
X018607Y032519D01*
X018607Y031711D01*
X018707Y031711D01*
X018707Y032519D01*
X018758Y032519D01*
X018943Y032443D01*
X019085Y032301D01*
X019162Y032115D01*
X019162Y031711D01*
X018707Y031711D01*
X018707Y031611D01*
X018707Y030802D01*
X018758Y030802D01*
X018943Y030879D01*
X019085Y031021D01*
X019162Y031206D01*
X019162Y031611D01*
X018707Y031611D01*
X018607Y031611D01*
X018607Y030802D01*
X018557Y030802D01*
X018372Y030879D01*
X018296Y030955D01*
X018271Y030896D01*
X018107Y030732D01*
X018107Y030597D01*
X018285Y030524D01*
X018407Y030401D01*
X018529Y030524D01*
X018775Y030625D01*
X019040Y030625D01*
X019285Y030524D01*
X019407Y030401D01*
X019529Y030524D01*
X019775Y030625D01*
X020040Y030625D01*
X020285Y030524D01*
X020407Y030401D01*
X020529Y030524D01*
X020775Y030625D01*
X021040Y030625D01*
X021285Y030524D01*
X021407Y030401D01*
X021529Y030524D01*
X021775Y030625D01*
X022040Y030625D01*
X022285Y030524D01*
X022407Y030401D01*
X022529Y030524D01*
X022775Y030625D01*
X023040Y030625D01*
X023285Y030524D01*
X023473Y030336D01*
X023574Y030091D01*
X023574Y029231D01*
X023473Y028986D01*
X023285Y028798D01*
X023040Y028696D01*
X022775Y028696D01*
X022529Y028798D01*
X022407Y028920D01*
X022285Y028798D01*
X022040Y028696D01*
X021775Y028696D01*
X021529Y028798D01*
X021407Y028920D01*
X021285Y028798D01*
X021040Y028696D01*
X020775Y028696D01*
X020529Y028798D01*
X020407Y028920D01*
X020285Y028798D01*
X020040Y028696D01*
X019775Y028696D01*
X019529Y028798D01*
X019407Y028920D01*
X019285Y028798D01*
X019040Y028696D01*
X018775Y028696D01*
X018529Y028798D01*
X018407Y028920D01*
X018285Y028798D01*
X018040Y028696D01*
X017858Y028696D01*
X017858Y028341D01*
X018037Y028341D01*
X018276Y028242D01*
X018458Y028059D01*
X018557Y027820D01*
X018557Y027454D01*
X018869Y027142D01*
X018869Y027278D01*
X018959Y027494D01*
X019124Y027659D01*
X019340Y027749D01*
X019574Y027749D01*
X019790Y027659D01*
X019956Y027494D01*
X020045Y027278D01*
X020045Y027266D01*
X020460Y026851D01*
X020579Y026851D01*
X020519Y026994D01*
X020519Y027228D01*
X020609Y027444D01*
X020774Y027609D01*
X020990Y027699D01*
X021224Y027699D01*
X021268Y027681D01*
X025871Y027681D01*
X026955Y028765D01*
X026790Y028696D01*
X026525Y028696D01*
X026279Y028798D01*
X026157Y028920D01*
X026035Y028798D01*
X025790Y028696D01*
X025525Y028696D01*
X025279Y028798D01*
X025157Y028920D01*
X025035Y028798D01*
X024790Y028696D01*
X024525Y028696D01*
X024279Y028798D01*
X024092Y028986D01*
X023990Y029231D01*
X023990Y030091D01*
X024092Y030336D01*
X024279Y030524D01*
X024525Y030625D01*
X024790Y030625D01*
X025035Y030524D01*
X025157Y030401D01*
X025279Y030524D01*
X025525Y030625D01*
X025790Y030625D01*
X026035Y030524D01*
X026157Y030401D01*
X026279Y030524D01*
X026525Y030625D01*
X026790Y030625D01*
X027035Y030524D01*
X027157Y030401D01*
X027279Y030524D01*
X027525Y030625D01*
X027790Y030625D01*
X028035Y030524D01*
X028157Y030401D01*
X028279Y030524D01*
X028525Y030625D01*
X028790Y030625D01*
X029035Y030524D01*
X029157Y030401D01*
X029279Y030524D01*
X029525Y030625D01*
X029790Y030625D01*
X030035Y030524D01*
X030157Y030401D01*
X030279Y030524D01*
X030525Y030625D01*
X030790Y030625D01*
X031035Y030524D01*
X031127Y030431D01*
X031127Y031028D01*
X031012Y031143D01*
X031012Y031678D01*
X031390Y032056D01*
X031925Y032056D01*
X032303Y031678D01*
X032303Y031143D01*
X032187Y031028D01*
X032187Y030371D01*
X032223Y030336D01*
X032324Y030091D01*
X032324Y029231D01*
X032223Y028986D01*
X032187Y028950D01*
X032187Y028641D01*
X032187Y028430D01*
X032107Y028236D01*
X027362Y023491D01*
X027938Y023491D01*
X028057Y023610D01*
X028252Y023691D01*
X028463Y023691D01*
X028774Y023691D01*
X028890Y023806D01*
X029425Y023806D01*
X029587Y023644D01*
X029587Y025047D01*
X029587Y025274D01*
X029674Y025484D01*
X033063Y028872D01*
X033042Y028893D01*
X032931Y029160D01*
X032931Y030161D01*
X033042Y030428D01*
X033246Y030633D01*
X033513Y030743D01*
X033802Y030743D01*
X034069Y030633D01*
X034157Y030544D01*
X034246Y030633D01*
X034513Y030743D01*
X034802Y030743D01*
X035069Y030633D01*
X035157Y030544D01*
X035246Y030633D01*
X035513Y030743D01*
X035802Y030743D01*
X036069Y030633D01*
X036157Y030544D01*
X036246Y030633D01*
X036513Y030743D01*
X036802Y030743D01*
X037069Y030633D01*
X037157Y030544D01*
X037246Y030633D01*
X037513Y030743D01*
X037802Y030743D01*
X038069Y030633D01*
X038273Y030428D01*
X038296Y030372D01*
X038371Y030446D01*
X038557Y030523D01*
X038607Y030523D01*
X038607Y029711D01*
X038707Y029711D01*
X038707Y030523D01*
X038758Y030523D01*
X038944Y030446D01*
X039086Y030304D01*
X039164Y030118D01*
X039164Y029711D01*
X038707Y029711D01*
X038707Y029611D01*
X038707Y028798D01*
X038758Y028798D01*
X038944Y028875D01*
X039086Y029018D01*
X039164Y029204D01*
X039164Y029611D01*
X038707Y029611D01*
X038607Y029611D01*
X038607Y028798D01*
X038557Y028798D01*
X038371Y028875D01*
X038296Y028950D01*
X038273Y028893D01*
X038187Y028808D01*
X038187Y028555D01*
X038107Y028361D01*
X037958Y028211D01*
X037957Y028211D01*
X037382Y027636D01*
X037488Y027529D01*
X037587Y027290D01*
X037587Y027031D01*
X037488Y026793D01*
X037357Y026661D01*
X037488Y026529D01*
X037587Y026290D01*
X037587Y026031D01*
X037488Y025793D01*
X037357Y025661D01*
X037488Y025529D01*
X037587Y025290D01*
X037587Y025031D01*
X037488Y024793D01*
X037357Y024661D01*
X037488Y024529D01*
X037587Y024290D01*
X037587Y024031D01*
X037488Y023793D01*
X037357Y023661D01*
X037488Y023529D01*
X037587Y023290D01*
X037587Y023031D01*
X037488Y022793D01*
X037357Y022661D01*
X037488Y022529D01*
X037587Y022290D01*
X037587Y022031D01*
X037488Y021793D01*
X037357Y021661D01*
X037488Y021529D01*
X037587Y021290D01*
X037587Y021031D01*
X037488Y020793D01*
X039787Y020793D01*
X039787Y020891D02*
X037529Y020891D01*
X037488Y020793D02*
X037306Y020610D01*
X037067Y020511D01*
X036248Y020511D01*
X036009Y020610D01*
X035826Y020793D01*
X035647Y020793D01*
X035647Y020891D02*
X035734Y020891D01*
X035742Y020883D02*
X035822Y020803D01*
X035826Y020793D01*
X035742Y020883D02*
X035647Y020978D01*
X035647Y019364D01*
X035860Y019151D01*
X035948Y019151D01*
X036009Y019212D01*
X036248Y019311D01*
X037067Y019311D01*
X037306Y019212D01*
X037488Y019029D01*
X037587Y018790D01*
X037587Y018531D01*
X037488Y018293D01*
X037357Y018161D01*
X037488Y018029D01*
X037587Y017790D01*
X037587Y017531D01*
X037488Y017293D01*
X037357Y017161D01*
X037488Y017029D01*
X037587Y016790D01*
X037587Y016531D01*
X037488Y016293D01*
X037357Y016161D01*
X037456Y016260D02*
X039787Y016260D01*
X039787Y016358D02*
X037516Y016358D01*
X037556Y016457D02*
X039787Y016457D01*
X039787Y016555D02*
X037587Y016555D01*
X037587Y016654D02*
X039787Y016654D01*
X039787Y016752D02*
X037587Y016752D01*
X037562Y016851D02*
X039787Y016851D01*
X039787Y016950D02*
X037521Y016950D01*
X037469Y017048D02*
X039787Y017048D01*
X039787Y017147D02*
X037371Y017147D01*
X037441Y017245D02*
X039787Y017245D01*
X039787Y017344D02*
X037510Y017344D01*
X037550Y017442D02*
X039787Y017442D01*
X039787Y017541D02*
X037587Y017541D01*
X037587Y017639D02*
X039787Y017639D01*
X039787Y017738D02*
X037587Y017738D01*
X037568Y017836D02*
X039787Y017836D01*
X039787Y017935D02*
X037527Y017935D01*
X037484Y018034D02*
X039787Y018034D01*
X039787Y018132D02*
X037385Y018132D01*
X037426Y018231D02*
X039787Y018231D01*
X039787Y018329D02*
X037504Y018329D01*
X037544Y018428D02*
X039787Y018428D01*
X039787Y018526D02*
X037585Y018526D01*
X037587Y018625D02*
X039787Y018625D01*
X039787Y018723D02*
X037587Y018723D01*
X037574Y018822D02*
X039787Y018822D01*
X039787Y018920D02*
X037533Y018920D01*
X037493Y019019D02*
X039787Y019019D01*
X039787Y019118D02*
X037400Y019118D01*
X037295Y019216D02*
X039787Y019216D01*
X039787Y019315D02*
X035696Y019315D01*
X035647Y019413D02*
X039787Y019413D01*
X039787Y019512D02*
X038097Y019512D01*
X038023Y019481D02*
X038181Y019546D01*
X038302Y019667D01*
X038367Y019825D01*
X038367Y019881D01*
X037688Y019881D01*
X037688Y019941D01*
X038367Y019941D01*
X038367Y019996D01*
X038302Y020154D01*
X038181Y020275D01*
X038023Y020341D01*
X037687Y020341D01*
X037687Y019941D01*
X037627Y019941D01*
X037627Y019881D01*
X036947Y019881D01*
X036947Y019825D01*
X037013Y019667D01*
X037134Y019546D01*
X037292Y019481D01*
X037627Y019481D01*
X037627Y019881D01*
X037687Y019881D01*
X037687Y019481D01*
X038023Y019481D01*
X038245Y019610D02*
X039787Y019610D01*
X039787Y019709D02*
X038319Y019709D01*
X038360Y019807D02*
X039787Y019807D01*
X039787Y019906D02*
X037688Y019906D01*
X037627Y019906D02*
X035647Y019906D01*
X035647Y020004D02*
X036951Y020004D01*
X036947Y019996D02*
X036947Y019941D01*
X037627Y019941D01*
X037627Y020341D01*
X037292Y020341D01*
X037134Y020275D01*
X037013Y020154D01*
X036947Y019996D01*
X036992Y020103D02*
X035647Y020103D01*
X035647Y020201D02*
X037060Y020201D01*
X037194Y020300D02*
X035647Y020300D01*
X035647Y020399D02*
X039787Y020399D01*
X039787Y020497D02*
X035647Y020497D01*
X035647Y020596D02*
X036043Y020596D01*
X035925Y020694D02*
X035647Y020694D01*
X035647Y019807D02*
X036955Y019807D01*
X036996Y019709D02*
X035647Y019709D01*
X035647Y019610D02*
X037070Y019610D01*
X037217Y019512D02*
X035647Y019512D01*
X035795Y019216D02*
X036019Y019216D01*
X034690Y017935D02*
X034271Y017935D01*
X034302Y017904D02*
X034181Y018025D01*
X034141Y018042D01*
X034306Y018110D01*
X034410Y018215D01*
X035167Y017458D01*
X035167Y013669D01*
X035141Y013734D01*
X034891Y013984D01*
X034730Y014144D01*
X034521Y014231D01*
X034426Y014231D01*
X034488Y014293D01*
X034587Y014531D01*
X034587Y014790D01*
X034488Y015029D01*
X034357Y015161D01*
X034488Y015293D01*
X034587Y015531D01*
X034587Y015790D01*
X034488Y016029D01*
X034357Y016161D01*
X035167Y016161D01*
X035167Y016063D02*
X034455Y016063D01*
X034515Y015964D02*
X035167Y015964D01*
X035167Y015866D02*
X034556Y015866D01*
X034587Y015767D02*
X035167Y015767D01*
X035167Y015669D02*
X034587Y015669D01*
X034587Y015570D02*
X035167Y015570D01*
X035167Y015471D02*
X034562Y015471D01*
X034522Y015373D02*
X035167Y015373D01*
X035167Y015274D02*
X034470Y015274D01*
X034372Y015176D02*
X035167Y015176D01*
X035167Y015077D02*
X034440Y015077D01*
X034509Y014979D02*
X035167Y014979D01*
X035167Y014880D02*
X034550Y014880D01*
X034587Y014782D02*
X035167Y014782D01*
X035167Y014683D02*
X034587Y014683D01*
X034587Y014585D02*
X035167Y014585D01*
X035167Y014486D02*
X034568Y014486D01*
X034528Y014387D02*
X035167Y014387D01*
X035167Y014289D02*
X034485Y014289D01*
X034618Y014190D02*
X035167Y014190D01*
X035167Y014092D02*
X034782Y014092D01*
X034881Y013993D02*
X035167Y013993D01*
X035167Y013895D02*
X034979Y013895D01*
X035078Y013796D02*
X035167Y013796D01*
X035155Y013698D02*
X035167Y013698D01*
X035227Y012614D02*
X035261Y012614D01*
X035227Y012515D02*
X035360Y012515D01*
X035459Y012417D02*
X035227Y012417D01*
X035227Y012318D02*
X035557Y012318D01*
X035692Y012219D02*
X035195Y012219D01*
X035154Y012121D02*
X035998Y012121D01*
X036220Y012022D02*
X035075Y012022D01*
X035333Y010643D02*
X034088Y010643D01*
X033990Y010741D02*
X037325Y010741D01*
X037627Y011037D02*
X037687Y011037D01*
X037687Y011136D02*
X037627Y011136D01*
X037627Y011234D02*
X037687Y011234D01*
X037687Y011333D02*
X037627Y011333D01*
X037627Y011530D02*
X037687Y011530D01*
X037687Y011628D02*
X037627Y011628D01*
X037627Y011727D02*
X037687Y011727D01*
X037687Y011825D02*
X037627Y011825D01*
X038060Y011825D02*
X039787Y011825D01*
X039787Y011727D02*
X038229Y011727D01*
X038313Y011628D02*
X039787Y011628D01*
X039787Y011530D02*
X038353Y011530D01*
X035235Y010544D02*
X034187Y010544D01*
X034285Y010446D02*
X035136Y010446D01*
X035038Y010347D02*
X034303Y010347D01*
X034303Y010249D02*
X034939Y010249D01*
X034841Y010150D02*
X034303Y010150D01*
X034303Y010052D02*
X034742Y010052D01*
X034643Y009953D02*
X034303Y009953D01*
X034264Y009854D02*
X034545Y009854D01*
X034446Y009756D02*
X034165Y009756D01*
X034067Y009657D02*
X034348Y009657D01*
X034249Y009559D02*
X033968Y009559D01*
X034164Y009460D02*
X033245Y009460D01*
X033227Y009362D02*
X034124Y009362D01*
X034087Y009263D02*
X033227Y009263D01*
X033227Y009165D02*
X034087Y009165D01*
X034087Y009066D02*
X033227Y009066D01*
X033227Y008968D02*
X034087Y008968D01*
X034087Y008869D02*
X033227Y008869D01*
X033227Y008770D02*
X034087Y008770D01*
X034087Y008672D02*
X033227Y008672D01*
X033227Y008573D02*
X034087Y008573D01*
X034087Y008475D02*
X033227Y008475D01*
X033227Y008376D02*
X034087Y008376D01*
X034087Y008278D02*
X033227Y008278D01*
X033227Y008179D02*
X034087Y008179D01*
X034087Y008081D02*
X033227Y008081D01*
X033227Y007982D02*
X034087Y007982D01*
X034087Y007884D02*
X033227Y007884D01*
X033227Y007785D02*
X034087Y007785D01*
X034087Y007686D02*
X033227Y007686D01*
X033227Y007588D02*
X034087Y007588D01*
X034067Y007489D02*
X033227Y007489D01*
X033227Y007391D02*
X034007Y007391D01*
X034007Y007292D02*
X033227Y007292D01*
X033227Y007194D02*
X034007Y007194D01*
X034007Y007095D02*
X033227Y007095D01*
X033227Y006997D02*
X034007Y006997D01*
X034007Y006898D02*
X033227Y006898D01*
X033227Y006800D02*
X034099Y006800D01*
X034198Y006701D02*
X033227Y006701D01*
X033227Y006603D02*
X034296Y006603D01*
X034392Y006504D02*
X033227Y006504D01*
X033227Y006405D02*
X034294Y006405D01*
X034227Y006307D02*
X033227Y006307D01*
X033227Y006208D02*
X034227Y006208D01*
X034227Y006110D02*
X033227Y006110D01*
X033227Y006011D02*
X034227Y006011D01*
X034297Y005913D02*
X033227Y005913D01*
X032065Y005124D02*
X031587Y005124D01*
X031585Y005026D02*
X031966Y005026D01*
X031868Y004927D02*
X031544Y004927D01*
X031503Y004829D02*
X031769Y004829D01*
X030424Y007292D02*
X028227Y007292D01*
X028227Y007391D02*
X030325Y007391D01*
X030232Y007489D02*
X028227Y007489D01*
X028227Y007588D02*
X030232Y007588D01*
X030232Y007686D02*
X028227Y007686D01*
X028227Y007785D02*
X030232Y007785D01*
X030278Y007884D02*
X028227Y007884D01*
X028227Y007982D02*
X030377Y007982D01*
X032087Y008278D02*
X028227Y008278D01*
X028227Y008376D02*
X032087Y008376D01*
X032087Y008475D02*
X028227Y008475D01*
X028207Y008573D02*
X032087Y008573D01*
X032087Y008672D02*
X028166Y008672D01*
X028104Y008770D02*
X032087Y008770D01*
X032087Y008869D02*
X028005Y008869D01*
X027907Y008968D02*
X032087Y008968D01*
X032087Y009066D02*
X027808Y009066D01*
X027710Y009165D02*
X032087Y009165D01*
X032087Y009263D02*
X027611Y009263D01*
X027512Y009362D02*
X032087Y009362D01*
X032069Y009460D02*
X027320Y009460D01*
X027381Y009756D02*
X026934Y009756D01*
X027092Y009854D02*
X027223Y009854D01*
X027934Y009756D02*
X028381Y009756D01*
X028223Y009854D02*
X028092Y009854D01*
X028934Y009756D02*
X029381Y009756D01*
X029223Y009854D02*
X029092Y009854D01*
X029934Y009756D02*
X030381Y009756D01*
X030223Y009854D02*
X030092Y009854D01*
X030934Y009756D02*
X031381Y009756D01*
X031223Y009854D02*
X031092Y009854D01*
X031934Y009756D02*
X032037Y009756D01*
X032037Y009657D02*
X019382Y009657D01*
X019382Y009559D02*
X032037Y009559D01*
X033277Y009559D02*
X033346Y009559D01*
X032836Y011788D02*
X032641Y011984D01*
X032480Y012144D01*
X032271Y012231D01*
X030640Y012231D01*
X030705Y012295D01*
X030768Y012448D01*
X030981Y012235D01*
X031138Y012235D01*
X031138Y012642D01*
X031176Y012642D01*
X031176Y012235D01*
X031334Y012235D01*
X031583Y012484D01*
X031583Y012642D01*
X031176Y012642D01*
X031176Y012680D01*
X031138Y012680D01*
X031138Y013086D01*
X030981Y013086D01*
X030768Y012873D01*
X030705Y013026D01*
X030523Y013208D01*
X030286Y013306D01*
X030029Y013306D01*
X029846Y013231D01*
X029293Y013231D01*
X029027Y013497D01*
X029027Y017324D01*
X028941Y017534D01*
X028780Y017694D01*
X026727Y019747D01*
X026727Y020935D01*
X026742Y020950D01*
X026784Y021050D01*
X026891Y020942D01*
X027064Y020871D01*
X027107Y020871D01*
X027107Y021611D01*
X027207Y021611D01*
X027207Y020871D01*
X027251Y020871D01*
X027424Y020942D01*
X027556Y021075D01*
X027627Y021247D01*
X027627Y021611D01*
X027207Y021611D01*
X027207Y021711D01*
X027627Y021711D01*
X027627Y022074D01*
X028512Y022074D01*
X028512Y022172D02*
X027587Y022172D01*
X027556Y022247D02*
X027424Y022379D01*
X027299Y022431D01*
X028263Y022431D01*
X028458Y022511D01*
X028577Y022631D01*
X028587Y022631D01*
X028587Y022504D01*
X028512Y022428D01*
X028512Y021893D01*
X028890Y021515D01*
X029425Y021515D01*
X029587Y021678D01*
X029587Y019821D01*
X029569Y019778D01*
X029569Y019544D01*
X029659Y019328D01*
X029824Y019162D01*
X030040Y019073D01*
X030274Y019073D01*
X030490Y019162D01*
X030656Y019328D01*
X030745Y019544D01*
X030745Y019778D01*
X030727Y019821D01*
X030727Y024925D01*
X032759Y026956D01*
X032826Y026793D01*
X033009Y026610D01*
X033173Y026542D01*
X033134Y026525D01*
X033013Y026404D01*
X032947Y026246D01*
X032947Y026191D01*
X033627Y026191D01*
X033627Y026131D01*
X032947Y026131D01*
X032947Y026075D01*
X033013Y025917D01*
X032861Y025917D01*
X032802Y025976D02*
X032578Y026069D01*
X032336Y026069D01*
X032113Y025976D01*
X031942Y025805D01*
X031850Y025582D01*
X031850Y025340D01*
X031915Y025182D01*
X031582Y025182D01*
X031344Y025084D01*
X031162Y024902D01*
X031063Y024664D01*
X031063Y024406D01*
X031162Y024168D01*
X031189Y024141D01*
X031162Y024114D01*
X031063Y023876D01*
X031063Y023619D01*
X031162Y023381D01*
X031189Y023354D01*
X031162Y023327D01*
X031063Y023089D01*
X031063Y022831D01*
X031162Y022593D01*
X031189Y022566D01*
X031162Y022539D01*
X031063Y022301D01*
X031063Y022044D01*
X031162Y021806D01*
X031189Y021779D01*
X031162Y021752D01*
X031063Y021514D01*
X031063Y021256D01*
X031162Y021018D01*
X031189Y020991D01*
X031162Y020965D01*
X031063Y020727D01*
X031063Y020469D01*
X031162Y020231D01*
X031189Y020204D01*
X031162Y020177D01*
X031063Y019939D01*
X031063Y019682D01*
X031162Y019444D01*
X031189Y019417D01*
X031162Y019390D01*
X031063Y019152D01*
X031063Y018894D01*
X031162Y018656D01*
X031189Y018629D01*
X031162Y018602D01*
X031063Y018364D01*
X031063Y018107D01*
X031162Y017869D01*
X031189Y017842D01*
X031162Y017815D01*
X031063Y017577D01*
X031063Y017319D01*
X031162Y017081D01*
X031344Y016899D01*
X031582Y016801D01*
X032394Y016801D01*
X032632Y016899D01*
X032814Y017081D01*
X032913Y017319D01*
X032913Y017577D01*
X032814Y017815D01*
X032787Y017842D01*
X032814Y017869D01*
X032913Y018107D01*
X032913Y018206D01*
X033009Y018110D01*
X033173Y018042D01*
X033134Y018025D01*
X033013Y017904D01*
X032947Y017746D01*
X032947Y017691D01*
X033627Y017691D01*
X033627Y017631D01*
X032947Y017631D01*
X032947Y017575D01*
X033013Y017417D01*
X033134Y017296D01*
X033173Y017280D01*
X033009Y017212D01*
X032826Y017029D01*
X032727Y016790D01*
X032727Y016531D01*
X032826Y016293D01*
X032958Y016161D01*
X032826Y016029D01*
X032727Y015790D01*
X032727Y015531D01*
X032826Y015293D01*
X032958Y015161D01*
X032826Y015029D01*
X032727Y014790D01*
X032727Y014531D01*
X032826Y014293D01*
X032958Y014161D01*
X032826Y014029D01*
X032727Y013790D01*
X032727Y013531D01*
X032826Y013293D01*
X032958Y013161D01*
X032826Y013029D01*
X032727Y012790D01*
X032727Y012531D01*
X032826Y012293D01*
X033009Y012110D01*
X033188Y012036D01*
X033009Y011962D01*
X032836Y011788D01*
X032799Y011825D02*
X032873Y011825D01*
X032971Y011924D02*
X032700Y011924D01*
X032641Y011984D02*
X032641Y011984D01*
X032602Y012022D02*
X033155Y012022D01*
X032998Y012121D02*
X032503Y012121D01*
X032298Y012219D02*
X032899Y012219D01*
X032816Y012318D02*
X031416Y012318D01*
X031515Y012417D02*
X032775Y012417D01*
X032734Y012515D02*
X031583Y012515D01*
X031583Y012614D02*
X032727Y012614D01*
X032727Y012712D02*
X031583Y012712D01*
X031583Y012680D02*
X031583Y012837D01*
X031334Y013086D01*
X031176Y013086D01*
X031176Y012680D01*
X031583Y012680D01*
X031583Y012811D02*
X032736Y012811D01*
X032777Y012909D02*
X031511Y012909D01*
X031412Y013008D02*
X032818Y013008D01*
X032904Y013106D02*
X030625Y013106D01*
X030712Y013008D02*
X030903Y013008D01*
X030804Y012909D02*
X030753Y012909D01*
X030526Y013205D02*
X032914Y013205D01*
X032822Y013303D02*
X030293Y013303D01*
X030022Y013303D02*
X029221Y013303D01*
X029122Y013402D02*
X032781Y013402D01*
X032740Y013501D02*
X029027Y013501D01*
X029027Y013599D02*
X032727Y013599D01*
X032727Y013698D02*
X029027Y013698D01*
X029027Y013796D02*
X032730Y013796D01*
X032771Y013895D02*
X029027Y013895D01*
X029027Y013993D02*
X032811Y013993D01*
X032889Y014092D02*
X029027Y014092D01*
X029027Y014190D02*
X032928Y014190D01*
X032830Y014289D02*
X029027Y014289D01*
X029027Y014387D02*
X032787Y014387D01*
X032746Y014486D02*
X029027Y014486D01*
X029027Y014585D02*
X032727Y014585D01*
X032727Y014683D02*
X030448Y014683D01*
X030441Y014676D02*
X030813Y015048D01*
X030965Y014896D01*
X031127Y014896D01*
X031127Y015331D01*
X031187Y015331D01*
X031187Y014896D01*
X031350Y014896D01*
X031622Y015168D01*
X031622Y015331D01*
X031188Y015331D01*
X031188Y015391D01*
X031622Y015391D01*
X031622Y015553D01*
X031350Y015826D01*
X031187Y015826D01*
X031187Y015391D01*
X031127Y015391D01*
X031127Y015826D01*
X030965Y015826D01*
X030813Y015674D01*
X030441Y016046D01*
X029874Y016046D01*
X029472Y015644D01*
X029472Y015077D01*
X029874Y014676D01*
X030441Y014676D01*
X030547Y014782D02*
X032727Y014782D01*
X032765Y014880D02*
X030645Y014880D01*
X030744Y014979D02*
X030882Y014979D01*
X031127Y014979D02*
X031187Y014979D01*
X031187Y015077D02*
X031127Y015077D01*
X031127Y015176D02*
X031187Y015176D01*
X031187Y015274D02*
X031127Y015274D01*
X031188Y015373D02*
X032793Y015373D01*
X032752Y015471D02*
X031622Y015471D01*
X031606Y015570D02*
X032727Y015570D01*
X032727Y015669D02*
X031507Y015669D01*
X031409Y015767D02*
X032727Y015767D01*
X032759Y015866D02*
X030621Y015866D01*
X030523Y015964D02*
X032799Y015964D01*
X032860Y016063D02*
X029027Y016063D01*
X029027Y016161D02*
X032958Y016161D01*
X032859Y016260D02*
X029027Y016260D01*
X029027Y016358D02*
X032799Y016358D01*
X032758Y016457D02*
X029027Y016457D01*
X029027Y016555D02*
X032727Y016555D01*
X032727Y016654D02*
X029027Y016654D01*
X029027Y016752D02*
X032727Y016752D01*
X032753Y016851D02*
X032516Y016851D01*
X032683Y016950D02*
X032793Y016950D01*
X032781Y017048D02*
X032845Y017048D01*
X032841Y017147D02*
X032944Y017147D01*
X032882Y017245D02*
X033090Y017245D01*
X033086Y017344D02*
X032913Y017344D01*
X032913Y017442D02*
X033002Y017442D01*
X032962Y017541D02*
X032913Y017541D01*
X032887Y017639D02*
X033627Y017639D01*
X033688Y017639D02*
X034986Y017639D01*
X035084Y017541D02*
X034353Y017541D01*
X034367Y017575D02*
X034367Y017631D01*
X033688Y017631D01*
X033688Y017691D01*
X034367Y017691D01*
X034367Y017746D01*
X034302Y017904D01*
X034330Y017836D02*
X034789Y017836D01*
X034887Y017738D02*
X034367Y017738D01*
X034367Y017575D02*
X034302Y017417D01*
X034181Y017296D01*
X034141Y017280D01*
X034306Y017212D01*
X034488Y017029D01*
X034587Y016790D01*
X034587Y016531D01*
X034488Y016293D01*
X034357Y016161D01*
X034456Y016260D02*
X035167Y016260D01*
X035167Y016358D02*
X034516Y016358D01*
X034556Y016457D02*
X035167Y016457D01*
X035167Y016555D02*
X034587Y016555D01*
X034587Y016654D02*
X035167Y016654D01*
X035167Y016752D02*
X034587Y016752D01*
X034562Y016851D02*
X035167Y016851D01*
X035167Y016950D02*
X034521Y016950D01*
X034469Y017048D02*
X035167Y017048D01*
X035167Y017147D02*
X034371Y017147D01*
X034225Y017245D02*
X035167Y017245D01*
X035167Y017344D02*
X034228Y017344D01*
X034312Y017442D02*
X035167Y017442D01*
X034592Y018034D02*
X034161Y018034D01*
X034328Y018132D02*
X034493Y018132D01*
X033154Y018034D02*
X032883Y018034D01*
X032913Y018132D02*
X032987Y018132D01*
X033043Y017935D02*
X032842Y017935D01*
X032793Y017836D02*
X032985Y017836D01*
X032947Y017738D02*
X032846Y017738D01*
X031460Y016851D02*
X029027Y016851D01*
X029027Y016950D02*
X031294Y016950D01*
X031195Y017048D02*
X029027Y017048D01*
X029027Y017147D02*
X031135Y017147D01*
X031094Y017245D02*
X029027Y017245D01*
X029019Y017344D02*
X031063Y017344D01*
X031063Y017442D02*
X028978Y017442D01*
X028933Y017541D02*
X031063Y017541D01*
X031089Y017639D02*
X028835Y017639D01*
X028780Y017694D02*
X028780Y017694D01*
X028736Y017738D02*
X028978Y017738D01*
X028981Y017735D02*
X028732Y017984D01*
X028732Y018142D01*
X029138Y018142D01*
X029138Y018180D01*
X028732Y018180D01*
X028732Y018337D01*
X028981Y018586D01*
X029138Y018586D01*
X029138Y018180D01*
X029176Y018180D01*
X029176Y018586D01*
X029334Y018586D01*
X029583Y018337D01*
X029583Y018180D01*
X029177Y018180D01*
X029177Y018142D01*
X029583Y018142D01*
X029583Y017984D01*
X029334Y017735D01*
X029176Y017735D01*
X029176Y018142D01*
X029138Y018142D01*
X029138Y017735D01*
X028981Y017735D01*
X028880Y017836D02*
X028638Y017836D01*
X028539Y017935D02*
X028781Y017935D01*
X028732Y018034D02*
X028441Y018034D01*
X028342Y018132D02*
X028732Y018132D01*
X028732Y018231D02*
X028244Y018231D01*
X028145Y018329D02*
X028732Y018329D01*
X028822Y018428D02*
X028046Y018428D01*
X027948Y018526D02*
X028921Y018526D01*
X029138Y018526D02*
X029176Y018526D01*
X029176Y018428D02*
X029138Y018428D01*
X029138Y018329D02*
X029176Y018329D01*
X029176Y018231D02*
X029138Y018231D01*
X029138Y018132D02*
X029176Y018132D01*
X029176Y018034D02*
X029138Y018034D01*
X029138Y017935D02*
X029176Y017935D01*
X029176Y017836D02*
X029138Y017836D01*
X029138Y017738D02*
X029176Y017738D01*
X029336Y017738D02*
X031130Y017738D01*
X031183Y017836D02*
X029435Y017836D01*
X029533Y017935D02*
X031134Y017935D01*
X031093Y018034D02*
X029583Y018034D01*
X029583Y018132D02*
X031063Y018132D01*
X031063Y018231D02*
X029583Y018231D01*
X029583Y018329D02*
X031063Y018329D01*
X031089Y018428D02*
X029492Y018428D01*
X029394Y018526D02*
X031130Y018526D01*
X031184Y018625D02*
X027849Y018625D01*
X027751Y018723D02*
X031134Y018723D01*
X031093Y018822D02*
X027652Y018822D01*
X027554Y018920D02*
X031063Y018920D01*
X031063Y019019D02*
X027455Y019019D01*
X027357Y019118D02*
X029932Y019118D01*
X029770Y019216D02*
X027258Y019216D01*
X027160Y019315D02*
X029672Y019315D01*
X029623Y019413D02*
X027061Y019413D01*
X026962Y019512D02*
X029582Y019512D01*
X029569Y019610D02*
X026864Y019610D01*
X026765Y019709D02*
X029569Y019709D01*
X029581Y019807D02*
X026727Y019807D01*
X026727Y019906D02*
X029587Y019906D01*
X029587Y020004D02*
X026727Y020004D01*
X026727Y020103D02*
X029587Y020103D01*
X029587Y020201D02*
X026727Y020201D01*
X026727Y020300D02*
X029587Y020300D01*
X029587Y020399D02*
X026727Y020399D01*
X026727Y020497D02*
X029587Y020497D01*
X029587Y020596D02*
X026727Y020596D01*
X026727Y020694D02*
X029587Y020694D01*
X029587Y020793D02*
X026727Y020793D01*
X026727Y020891D02*
X027014Y020891D01*
X027107Y020891D02*
X027207Y020891D01*
X027300Y020891D02*
X029587Y020891D01*
X029587Y020990D02*
X027471Y020990D01*
X027561Y021088D02*
X029587Y021088D01*
X029587Y021187D02*
X027602Y021187D01*
X027627Y021285D02*
X029587Y021285D01*
X029587Y021384D02*
X027627Y021384D01*
X027627Y021483D02*
X029587Y021483D01*
X029587Y021581D02*
X029491Y021581D01*
X028824Y021581D02*
X027627Y021581D01*
X027627Y021778D02*
X028627Y021778D01*
X028726Y021680D02*
X027207Y021680D01*
X027207Y021581D02*
X027107Y021581D01*
X027107Y021483D02*
X027207Y021483D01*
X027207Y021384D02*
X027107Y021384D01*
X027107Y021285D02*
X027207Y021285D01*
X027207Y021187D02*
X027107Y021187D01*
X027107Y021088D02*
X027207Y021088D01*
X027207Y020990D02*
X027107Y020990D01*
X026844Y020990D02*
X026759Y020990D01*
X027627Y021877D02*
X028528Y021877D01*
X028512Y021975D02*
X027627Y021975D01*
X027627Y022074D02*
X027556Y022247D01*
X027532Y022271D02*
X028512Y022271D01*
X028512Y022369D02*
X027433Y022369D01*
X028353Y022468D02*
X028552Y022468D01*
X028587Y022567D02*
X028513Y022567D01*
X027999Y023552D02*
X027423Y023552D01*
X027522Y023651D02*
X028155Y023651D01*
X027817Y023946D02*
X029587Y023946D01*
X029587Y023848D02*
X027719Y023848D01*
X027620Y023749D02*
X028833Y023749D01*
X029482Y023749D02*
X029587Y023749D01*
X029581Y023651D02*
X029587Y023651D01*
X029587Y024045D02*
X027916Y024045D01*
X028014Y024143D02*
X029587Y024143D01*
X029587Y024242D02*
X028113Y024242D01*
X028211Y024340D02*
X029587Y024340D01*
X029587Y024439D02*
X028310Y024439D01*
X028408Y024537D02*
X029587Y024537D01*
X029587Y024636D02*
X028507Y024636D01*
X028606Y024734D02*
X029587Y024734D01*
X029587Y024833D02*
X028704Y024833D01*
X028803Y024932D02*
X029587Y024932D01*
X029587Y025030D02*
X028901Y025030D01*
X029000Y025129D02*
X029587Y025129D01*
X029587Y025227D02*
X029098Y025227D01*
X029197Y025326D02*
X029609Y025326D01*
X029650Y025424D02*
X029295Y025424D01*
X029394Y025523D02*
X029713Y025523D01*
X029812Y025621D02*
X029492Y025621D01*
X029591Y025720D02*
X029910Y025720D01*
X030009Y025818D02*
X029689Y025818D01*
X029788Y025917D02*
X030107Y025917D01*
X030206Y026016D02*
X029887Y026016D01*
X029985Y026114D02*
X030305Y026114D01*
X030403Y026213D02*
X030084Y026213D01*
X030182Y026311D02*
X030502Y026311D01*
X030600Y026410D02*
X030281Y026410D01*
X030379Y026508D02*
X030699Y026508D01*
X030797Y026607D02*
X030478Y026607D01*
X030576Y026705D02*
X030896Y026705D01*
X030994Y026804D02*
X030675Y026804D01*
X030773Y026902D02*
X031093Y026902D01*
X031191Y027001D02*
X030872Y027001D01*
X030971Y027100D02*
X031290Y027100D01*
X031389Y027198D02*
X031069Y027198D01*
X031168Y027297D02*
X031487Y027297D01*
X031586Y027395D02*
X031266Y027395D01*
X031365Y027494D02*
X031684Y027494D01*
X031783Y027592D02*
X031463Y027592D01*
X031562Y027691D02*
X031881Y027691D01*
X031980Y027789D02*
X031660Y027789D01*
X031759Y027888D02*
X032078Y027888D01*
X032177Y027986D02*
X031857Y027986D01*
X031956Y028085D02*
X032275Y028085D01*
X032374Y028184D02*
X032055Y028184D01*
X032126Y028282D02*
X032473Y028282D01*
X032571Y028381D02*
X032167Y028381D01*
X032187Y028479D02*
X032670Y028479D01*
X032768Y028578D02*
X032187Y028578D01*
X032187Y028676D02*
X032867Y028676D01*
X032965Y028775D02*
X032187Y028775D01*
X032187Y028873D02*
X033062Y028873D01*
X033009Y028972D02*
X032209Y028972D01*
X032258Y029070D02*
X032968Y029070D01*
X032931Y029169D02*
X032299Y029169D01*
X032324Y029267D02*
X032931Y029267D01*
X032931Y029366D02*
X032324Y029366D01*
X032324Y029465D02*
X032931Y029465D01*
X032931Y029563D02*
X032324Y029563D01*
X032324Y029662D02*
X032931Y029662D01*
X032931Y029760D02*
X032324Y029760D01*
X032324Y029859D02*
X032931Y029859D01*
X032931Y029957D02*
X032324Y029957D01*
X032324Y030056D02*
X032931Y030056D01*
X032931Y030154D02*
X032298Y030154D01*
X032257Y030253D02*
X032969Y030253D01*
X033010Y030351D02*
X032207Y030351D01*
X032187Y030450D02*
X033063Y030450D01*
X033162Y030549D02*
X032187Y030549D01*
X032187Y030647D02*
X033281Y030647D01*
X034034Y030647D02*
X034281Y030647D01*
X034162Y030549D02*
X034153Y030549D01*
X035034Y030647D02*
X035281Y030647D01*
X035162Y030549D02*
X035153Y030549D01*
X036034Y030647D02*
X036281Y030647D01*
X036162Y030549D02*
X036153Y030549D01*
X037034Y030647D02*
X037281Y030647D01*
X037162Y030549D02*
X037153Y030549D01*
X038034Y030647D02*
X039787Y030647D01*
X039787Y030549D02*
X038153Y030549D01*
X038251Y030450D02*
X038380Y030450D01*
X038607Y030450D02*
X038707Y030450D01*
X038707Y030351D02*
X038607Y030351D01*
X038607Y030253D02*
X038707Y030253D01*
X038707Y030154D02*
X038607Y030154D01*
X038607Y030056D02*
X038707Y030056D01*
X038707Y029957D02*
X038607Y029957D01*
X038607Y029859D02*
X038707Y029859D01*
X038707Y029760D02*
X038607Y029760D01*
X038707Y029662D02*
X039787Y029662D01*
X039787Y029760D02*
X039164Y029760D01*
X039164Y029859D02*
X039787Y029859D01*
X039787Y029957D02*
X039164Y029957D01*
X039164Y030056D02*
X039787Y030056D01*
X039787Y030154D02*
X039148Y030154D01*
X039108Y030253D02*
X039787Y030253D01*
X039787Y030351D02*
X039039Y030351D01*
X038935Y030450D02*
X039787Y030450D01*
X039787Y030746D02*
X032187Y030746D01*
X032187Y030844D02*
X039787Y030844D01*
X039787Y030943D02*
X032187Y030943D01*
X032201Y031041D02*
X039787Y031041D01*
X039787Y031140D02*
X032299Y031140D01*
X032303Y031238D02*
X039787Y031238D01*
X039787Y031337D02*
X032303Y031337D01*
X032303Y031435D02*
X038318Y031435D01*
X038204Y031483D02*
X038498Y031361D01*
X038816Y031361D01*
X039110Y031483D01*
X039336Y031708D01*
X039457Y032002D01*
X039457Y032320D01*
X039336Y032614D01*
X039110Y032839D01*
X038816Y032961D01*
X038498Y032961D01*
X038204Y032839D01*
X037979Y032614D01*
X037857Y032320D01*
X037857Y032002D01*
X037979Y031708D01*
X038204Y031483D01*
X038153Y031534D02*
X032303Y031534D01*
X032303Y031633D02*
X038054Y031633D01*
X037969Y031731D02*
X032250Y031731D01*
X032151Y031830D02*
X037929Y031830D01*
X037888Y031928D02*
X032053Y031928D01*
X031954Y032027D02*
X037857Y032027D01*
X037857Y032125D02*
X026827Y032125D01*
X026827Y032142D02*
X026827Y032219D01*
X026827Y032402D01*
X026827Y032480D01*
X026827Y032663D01*
X026757Y032832D01*
X026628Y032961D01*
X026459Y033031D01*
X026199Y033031D01*
X026016Y033031D01*
X025872Y032971D01*
X025728Y033031D01*
X025554Y033031D01*
X025371Y033031D01*
X025270Y032989D01*
X025170Y033031D01*
X024640Y033031D01*
X024583Y033007D01*
X024525Y033031D01*
X023995Y033031D01*
X023895Y032989D01*
X023794Y033031D01*
X023621Y033031D01*
X023437Y033031D01*
X023337Y032989D01*
X023304Y033003D01*
X023236Y033031D01*
X023053Y033031D01*
X022971Y032997D01*
X022889Y033031D01*
X022706Y033031D01*
X022537Y032961D01*
X022408Y032832D01*
X022338Y032663D01*
X022338Y032480D01*
X022338Y031959D01*
X022408Y031790D01*
X022537Y031661D01*
X022706Y031591D01*
X022889Y031591D01*
X022971Y031625D01*
X023053Y031591D01*
X023236Y031591D01*
X023337Y031632D01*
X023437Y031591D01*
X023621Y031591D01*
X023794Y031591D01*
X023963Y031661D01*
X023981Y031679D01*
X024000Y031661D01*
X024169Y031591D01*
X024352Y031591D01*
X024521Y031661D01*
X024583Y031723D01*
X024644Y031661D01*
X024813Y031591D01*
X024996Y031591D01*
X025165Y031661D01*
X025184Y031679D01*
X025202Y031661D01*
X025371Y031591D01*
X025554Y031591D01*
X025728Y031591D01*
X025872Y031650D01*
X026016Y031591D01*
X026459Y031591D01*
X026628Y031661D01*
X026757Y031790D01*
X026827Y031959D01*
X026827Y032142D01*
X026827Y032224D02*
X037857Y032224D01*
X037858Y032322D02*
X026827Y032322D01*
X026827Y032421D02*
X037899Y032421D01*
X037940Y032519D02*
X026827Y032519D01*
X026827Y032618D02*
X037983Y032618D01*
X038082Y032716D02*
X026805Y032716D01*
X026764Y032815D02*
X038180Y032815D01*
X038384Y032914D02*
X026675Y032914D01*
X026505Y033012D02*
X039787Y033012D01*
X039787Y032914D02*
X038930Y032914D01*
X039134Y032815D02*
X039787Y032815D01*
X039787Y032716D02*
X039233Y032716D01*
X039331Y032618D02*
X039787Y032618D01*
X039787Y032519D02*
X039375Y032519D01*
X039416Y032421D02*
X039787Y032421D01*
X039787Y032322D02*
X039456Y032322D01*
X039457Y032224D02*
X039787Y032224D01*
X039787Y032125D02*
X039457Y032125D01*
X039457Y032027D02*
X039787Y032027D01*
X039787Y031928D02*
X039427Y031928D01*
X039386Y031830D02*
X039787Y031830D01*
X039787Y031731D02*
X039345Y031731D01*
X039260Y031633D02*
X039787Y031633D01*
X039787Y031534D02*
X039162Y031534D01*
X038997Y031435D02*
X039787Y031435D01*
X039787Y033111D02*
X000527Y033111D01*
X000527Y033209D02*
X039787Y033209D01*
X039787Y029563D02*
X039164Y029563D01*
X039164Y029465D02*
X039787Y029465D01*
X039787Y029366D02*
X039164Y029366D01*
X039164Y029267D02*
X039787Y029267D01*
X039787Y029169D02*
X039149Y029169D01*
X039108Y029070D02*
X039787Y029070D01*
X039787Y028972D02*
X039041Y028972D01*
X038939Y028873D02*
X039787Y028873D01*
X039787Y028775D02*
X038187Y028775D01*
X038187Y028676D02*
X039787Y028676D01*
X039787Y028578D02*
X038187Y028578D01*
X038156Y028479D02*
X039787Y028479D01*
X039787Y028381D02*
X038115Y028381D01*
X038028Y028282D02*
X039787Y028282D01*
X039787Y028184D02*
X037930Y028184D01*
X037831Y028085D02*
X039787Y028085D01*
X039787Y027986D02*
X037732Y027986D01*
X037634Y027888D02*
X039787Y027888D01*
X039787Y027789D02*
X037535Y027789D01*
X037437Y027691D02*
X039787Y027691D01*
X039787Y027592D02*
X037425Y027592D01*
X037503Y027494D02*
X039787Y027494D01*
X039787Y027395D02*
X037544Y027395D01*
X037585Y027297D02*
X039787Y027297D01*
X039787Y027198D02*
X037587Y027198D01*
X037587Y027100D02*
X039787Y027100D01*
X039787Y027001D02*
X037575Y027001D01*
X037534Y026902D02*
X039787Y026902D01*
X039787Y026804D02*
X037493Y026804D01*
X037401Y026705D02*
X039787Y026705D01*
X039787Y026607D02*
X037411Y026607D01*
X037497Y026508D02*
X039787Y026508D01*
X039787Y026410D02*
X037538Y026410D01*
X037579Y026311D02*
X039787Y026311D01*
X039787Y026213D02*
X037587Y026213D01*
X037587Y026114D02*
X039787Y026114D01*
X039787Y026016D02*
X037581Y026016D01*
X037540Y025917D02*
X039787Y025917D01*
X039787Y025818D02*
X037499Y025818D01*
X037416Y025720D02*
X039787Y025720D01*
X039787Y025621D02*
X037396Y025621D01*
X037491Y025523D02*
X039787Y025523D01*
X039787Y025424D02*
X037532Y025424D01*
X037573Y025326D02*
X039787Y025326D01*
X039787Y025227D02*
X037587Y025227D01*
X037587Y025129D02*
X039787Y025129D01*
X039787Y025030D02*
X037587Y025030D01*
X037546Y024932D02*
X039787Y024932D01*
X039787Y024833D02*
X037505Y024833D01*
X037430Y024734D02*
X039787Y024734D01*
X039787Y024636D02*
X037381Y024636D01*
X037480Y024537D02*
X039787Y024537D01*
X039787Y024439D02*
X037526Y024439D01*
X037566Y024340D02*
X039787Y024340D01*
X039787Y024242D02*
X037587Y024242D01*
X037587Y024143D02*
X039787Y024143D01*
X039787Y024045D02*
X037587Y024045D01*
X037552Y023946D02*
X039787Y023946D01*
X039787Y023848D02*
X037511Y023848D01*
X037445Y023749D02*
X039787Y023749D01*
X039787Y023651D02*
X037367Y023651D01*
X037465Y023552D02*
X039787Y023552D01*
X039787Y023453D02*
X037520Y023453D01*
X037560Y023355D02*
X039787Y023355D01*
X039787Y023256D02*
X037587Y023256D01*
X037587Y023158D02*
X039787Y023158D01*
X039787Y023059D02*
X037587Y023059D01*
X037558Y022961D02*
X039787Y022961D01*
X039787Y022862D02*
X037517Y022862D01*
X037459Y022764D02*
X039787Y022764D01*
X039787Y022665D02*
X037361Y022665D01*
X037451Y022567D02*
X039787Y022567D01*
X039787Y022468D02*
X037514Y022468D01*
X037554Y022369D02*
X039787Y022369D01*
X039787Y022271D02*
X037587Y022271D01*
X037587Y022172D02*
X039787Y022172D01*
X039787Y022074D02*
X037587Y022074D01*
X037564Y021975D02*
X039787Y021975D01*
X039787Y021877D02*
X037523Y021877D01*
X037474Y021778D02*
X039787Y021778D01*
X039787Y021680D02*
X037375Y021680D01*
X037436Y021581D02*
X039787Y021581D01*
X039787Y021483D02*
X037508Y021483D01*
X037548Y021384D02*
X039787Y021384D01*
X039787Y021285D02*
X037587Y021285D01*
X037587Y021187D02*
X039787Y021187D01*
X039787Y021088D02*
X037587Y021088D01*
X037570Y020990D02*
X039787Y020990D01*
X039787Y020694D02*
X037390Y020694D01*
X037272Y020596D02*
X039787Y020596D01*
X039787Y020300D02*
X038121Y020300D01*
X038255Y020201D02*
X039787Y020201D01*
X039787Y020103D02*
X038323Y020103D01*
X038364Y020004D02*
X039787Y020004D01*
X037687Y020004D02*
X037627Y020004D01*
X037627Y020103D02*
X037687Y020103D01*
X037687Y020201D02*
X037627Y020201D01*
X037627Y020300D02*
X037687Y020300D01*
X037687Y019807D02*
X037627Y019807D01*
X037627Y019709D02*
X037687Y019709D01*
X037687Y019610D02*
X037627Y019610D01*
X037627Y019512D02*
X037687Y019512D01*
X032844Y015274D02*
X031622Y015274D01*
X031622Y015176D02*
X032943Y015176D01*
X032875Y015077D02*
X031531Y015077D01*
X031433Y014979D02*
X032805Y014979D01*
X031187Y015471D02*
X031127Y015471D01*
X031127Y015570D02*
X031187Y015570D01*
X031187Y015669D02*
X031127Y015669D01*
X031127Y015767D02*
X031187Y015767D01*
X030906Y015767D02*
X030720Y015767D01*
X029792Y015964D02*
X029027Y015964D01*
X029027Y015866D02*
X029693Y015866D01*
X029595Y015767D02*
X029027Y015767D01*
X029027Y015669D02*
X029496Y015669D01*
X029472Y015570D02*
X029027Y015570D01*
X029027Y015471D02*
X029472Y015471D01*
X029472Y015373D02*
X029027Y015373D01*
X029027Y015274D02*
X029472Y015274D01*
X029472Y015176D02*
X029027Y015176D01*
X029027Y015077D02*
X029472Y015077D01*
X029571Y014979D02*
X029027Y014979D01*
X029027Y014880D02*
X029669Y014880D01*
X029768Y014782D02*
X029027Y014782D01*
X029027Y014683D02*
X029866Y014683D01*
X031138Y013008D02*
X031176Y013008D01*
X031176Y012909D02*
X031138Y012909D01*
X031138Y012811D02*
X031176Y012811D01*
X031176Y012712D02*
X031138Y012712D01*
X031138Y012614D02*
X031176Y012614D01*
X031176Y012515D02*
X031138Y012515D01*
X031138Y012417D02*
X031176Y012417D01*
X031176Y012318D02*
X031138Y012318D01*
X030898Y012318D02*
X030714Y012318D01*
X030755Y012417D02*
X030800Y012417D01*
X026381Y009756D02*
X024934Y009756D01*
X025092Y009854D02*
X026223Y009854D01*
X026124Y009953D02*
X025190Y009953D01*
X025250Y010052D02*
X026064Y010052D01*
X026024Y010150D02*
X025291Y010150D01*
X025324Y010249D02*
X025990Y010249D01*
X025990Y010347D02*
X025324Y010347D01*
X025324Y010446D02*
X025990Y010446D01*
X025990Y010544D02*
X025324Y010544D01*
X025324Y010643D02*
X025990Y010643D01*
X025990Y010741D02*
X025324Y010741D01*
X025324Y010840D02*
X025990Y010840D01*
X025990Y010938D02*
X025324Y010938D01*
X025324Y011037D02*
X025990Y011037D01*
X025436Y011136D02*
X025306Y011136D01*
X025278Y011234D02*
X025265Y011234D01*
X024884Y011628D02*
X000527Y011628D01*
X000527Y011530D02*
X019294Y011530D01*
X019279Y011524D02*
X019092Y011336D01*
X018990Y011091D01*
X018990Y010911D01*
X018801Y010989D01*
X018513Y010989D01*
X018247Y010879D01*
X018157Y010789D01*
X018068Y010879D01*
X017801Y010989D01*
X017513Y010989D01*
X017247Y010879D01*
X017157Y010789D01*
X017068Y010879D01*
X016801Y010989D01*
X016513Y010989D01*
X016247Y010879D01*
X016157Y010789D01*
X016068Y010879D01*
X015801Y010989D01*
X015513Y010989D01*
X015247Y010879D01*
X015157Y010789D01*
X015068Y010879D01*
X014801Y010989D01*
X014513Y010989D01*
X014247Y010879D01*
X014157Y010789D01*
X014068Y010879D01*
X013801Y010989D01*
X013513Y010989D01*
X013247Y010879D01*
X013157Y010789D01*
X013068Y010879D01*
X012801Y010989D01*
X012513Y010989D01*
X012247Y010879D01*
X012157Y010789D01*
X012068Y010879D01*
X011801Y010989D01*
X011513Y010989D01*
X011247Y010879D01*
X011157Y010789D01*
X011068Y010879D01*
X010801Y010989D01*
X010513Y010989D01*
X010247Y010879D01*
X010157Y010789D01*
X010068Y010879D01*
X009801Y010989D01*
X009513Y010989D01*
X009247Y010879D01*
X009157Y010789D01*
X009068Y010879D01*
X008801Y010989D01*
X008513Y010989D01*
X008247Y010879D01*
X008157Y010789D01*
X008068Y010879D01*
X007801Y010989D01*
X007513Y010989D01*
X007247Y010879D01*
X007157Y010789D01*
X007068Y010879D01*
X006801Y010989D01*
X006513Y010989D01*
X006247Y010879D01*
X006157Y010789D01*
X006068Y010879D01*
X005801Y010989D01*
X005513Y010989D01*
X005247Y010879D01*
X005157Y010789D01*
X005068Y010879D01*
X004801Y010989D01*
X004513Y010989D01*
X004247Y010879D01*
X004157Y010789D01*
X004068Y010879D01*
X003801Y010989D01*
X003513Y010989D01*
X003247Y010879D01*
X003043Y010675D01*
X002933Y010409D01*
X002933Y009412D01*
X003043Y009146D01*
X003247Y008942D01*
X003513Y008832D01*
X003801Y008832D01*
X004068Y008942D01*
X004157Y009032D01*
X004247Y008942D01*
X004513Y008832D01*
X004801Y008832D01*
X005068Y008942D01*
X005157Y009032D01*
X005247Y008942D01*
X005513Y008832D01*
X005801Y008832D01*
X006068Y008942D01*
X006157Y009032D01*
X006247Y008942D01*
X006513Y008832D01*
X006801Y008832D01*
X007068Y008942D01*
X007157Y009032D01*
X007247Y008942D01*
X007513Y008832D01*
X007801Y008832D01*
X008068Y008942D01*
X008157Y009032D01*
X008247Y008942D01*
X008513Y008832D01*
X008801Y008832D01*
X009068Y008942D01*
X009157Y009032D01*
X009247Y008942D01*
X009513Y008832D01*
X009801Y008832D01*
X010068Y008942D01*
X010157Y009032D01*
X010247Y008942D01*
X010513Y008832D01*
X010801Y008832D01*
X011068Y008942D01*
X011157Y009032D01*
X011247Y008942D01*
X011513Y008832D01*
X011801Y008832D01*
X012068Y008942D01*
X012157Y009032D01*
X012247Y008942D01*
X012513Y008832D01*
X012801Y008832D01*
X013068Y008942D01*
X013157Y009032D01*
X013247Y008942D01*
X013513Y008832D01*
X013801Y008832D01*
X014068Y008942D01*
X014157Y009032D01*
X014247Y008942D01*
X014513Y008832D01*
X014801Y008832D01*
X015068Y008942D01*
X015157Y009032D01*
X015247Y008942D01*
X015513Y008832D01*
X015801Y008832D01*
X016068Y008942D01*
X016157Y009032D01*
X016247Y008942D01*
X016513Y008832D01*
X016801Y008832D01*
X017068Y008942D01*
X017157Y009032D01*
X017247Y008942D01*
X017513Y008832D01*
X017801Y008832D01*
X018068Y008942D01*
X018157Y009032D01*
X018247Y008942D01*
X018513Y008832D01*
X018801Y008832D01*
X019068Y008942D01*
X019271Y009146D01*
X019382Y009412D01*
X019382Y009756D01*
X019525Y009696D01*
X019790Y009696D01*
X020035Y009798D01*
X020157Y009920D01*
X020279Y009798D01*
X020525Y009696D01*
X020790Y009696D01*
X021035Y009798D01*
X021157Y009920D01*
X021279Y009798D01*
X021525Y009696D01*
X021790Y009696D01*
X022035Y009798D01*
X022223Y009986D01*
X022276Y010115D01*
X022278Y010110D01*
X022404Y009985D01*
X022568Y009916D01*
X022619Y009916D01*
X022619Y010622D01*
X022696Y010622D01*
X022696Y009916D01*
X022746Y009916D01*
X022911Y009985D01*
X023036Y010110D01*
X023104Y010275D01*
X023104Y010622D01*
X022696Y010622D01*
X022696Y010699D01*
X023104Y010699D01*
X023104Y011047D01*
X023036Y011211D01*
X022911Y011337D01*
X022746Y011405D01*
X022696Y011405D01*
X022696Y010700D01*
X022619Y010700D01*
X022619Y011405D01*
X022568Y011405D01*
X022404Y011337D01*
X022278Y011211D01*
X022276Y011207D01*
X022223Y011336D01*
X022035Y011524D01*
X021790Y011625D01*
X021525Y011625D01*
X021279Y011524D01*
X021157Y011401D01*
X021035Y011524D01*
X020790Y011625D01*
X020525Y011625D01*
X020279Y011524D01*
X020157Y011401D01*
X020035Y011524D01*
X019790Y011625D01*
X019525Y011625D01*
X019279Y011524D01*
X019187Y011431D02*
X000527Y011431D01*
X000527Y011333D02*
X019090Y011333D01*
X019050Y011234D02*
X000527Y011234D01*
X000527Y011136D02*
X019009Y011136D01*
X018990Y011037D02*
X000527Y011037D01*
X000527Y010938D02*
X003390Y010938D01*
X003208Y010840D02*
X000527Y010840D01*
X000527Y010741D02*
X003109Y010741D01*
X003030Y010643D02*
X000527Y010643D01*
X000527Y010544D02*
X002989Y010544D01*
X002948Y010446D02*
X000527Y010446D01*
X000527Y010347D02*
X002933Y010347D01*
X002933Y010249D02*
X000527Y010249D01*
X000527Y010150D02*
X002933Y010150D01*
X002933Y010052D02*
X000527Y010052D01*
X000527Y009953D02*
X002933Y009953D01*
X002933Y009854D02*
X000527Y009854D01*
X000527Y009756D02*
X002933Y009756D01*
X002933Y009657D02*
X000527Y009657D01*
X000527Y009559D02*
X002933Y009559D01*
X002933Y009460D02*
X000527Y009460D01*
X000527Y009362D02*
X002954Y009362D01*
X002995Y009263D02*
X000527Y009263D01*
X000527Y009165D02*
X003036Y009165D01*
X003123Y009066D02*
X000527Y009066D01*
X000527Y008968D02*
X003222Y008968D01*
X003424Y008869D02*
X000527Y008869D01*
X000527Y008770D02*
X019185Y008770D01*
X019129Y008672D02*
X000527Y008672D01*
X000527Y008573D02*
X019088Y008573D01*
X019069Y008475D02*
X016035Y008475D01*
X016248Y008376D02*
X019069Y008376D01*
X019076Y008278D02*
X016346Y008278D01*
X016424Y008869D02*
X015890Y008869D01*
X016093Y008968D02*
X016222Y008968D01*
X016890Y008869D02*
X017424Y008869D01*
X017222Y008968D02*
X017093Y008968D01*
X017890Y008869D02*
X018424Y008869D01*
X018222Y008968D02*
X018093Y008968D01*
X018890Y008869D02*
X019284Y008869D01*
X019465Y008968D02*
X019093Y008968D01*
X019191Y009066D02*
X025257Y009066D01*
X025167Y008968D02*
X019850Y008968D01*
X020031Y008869D02*
X025127Y008869D01*
X025087Y008770D02*
X020129Y008770D01*
X020202Y008672D02*
X025087Y008672D01*
X025087Y008573D02*
X020301Y008573D01*
X020399Y008475D02*
X025087Y008475D01*
X025087Y008376D02*
X020498Y008376D01*
X020596Y008278D02*
X021361Y008278D01*
X021263Y008179D02*
X020695Y008179D01*
X020793Y008081D02*
X021164Y008081D01*
X021066Y007982D02*
X020892Y007982D01*
X020991Y007884D02*
X021012Y007884D01*
X021953Y008278D02*
X025087Y008278D01*
X025087Y008179D02*
X022052Y008179D01*
X022150Y008081D02*
X025087Y008081D01*
X025066Y007982D02*
X022249Y007982D01*
X022303Y007884D02*
X025012Y007884D01*
X025012Y007785D02*
X022339Y007785D01*
X021934Y009756D02*
X024381Y009756D01*
X024223Y009854D02*
X022092Y009854D01*
X022190Y009953D02*
X022480Y009953D01*
X022619Y009953D02*
X022696Y009953D01*
X022696Y010052D02*
X022619Y010052D01*
X022619Y010150D02*
X022696Y010150D01*
X022696Y010249D02*
X022619Y010249D01*
X022619Y010347D02*
X022696Y010347D01*
X022696Y010446D02*
X022619Y010446D01*
X022619Y010544D02*
X022696Y010544D01*
X022696Y010643D02*
X023618Y010643D01*
X023619Y010741D02*
X023696Y010741D01*
X023696Y010840D02*
X023619Y010840D01*
X023619Y010938D02*
X023696Y010938D01*
X023696Y011037D02*
X023619Y011037D01*
X023619Y011136D02*
X023696Y011136D01*
X023696Y011234D02*
X023619Y011234D01*
X023619Y011333D02*
X023696Y011333D01*
X023915Y011333D02*
X024090Y011333D01*
X024050Y011234D02*
X024014Y011234D01*
X024187Y011431D02*
X022128Y011431D01*
X022224Y011333D02*
X022400Y011333D01*
X022301Y011234D02*
X022265Y011234D01*
X022619Y011234D02*
X022696Y011234D01*
X022696Y011136D02*
X022619Y011136D01*
X022619Y011037D02*
X022696Y011037D01*
X022696Y010938D02*
X022619Y010938D01*
X022619Y010840D02*
X022696Y010840D01*
X022696Y010741D02*
X022619Y010741D01*
X023104Y010741D02*
X023210Y010741D01*
X023210Y010840D02*
X023104Y010840D01*
X023104Y010938D02*
X023210Y010938D01*
X023210Y011037D02*
X023104Y011037D01*
X023068Y011136D02*
X023247Y011136D01*
X023301Y011234D02*
X023014Y011234D01*
X022915Y011333D02*
X023400Y011333D01*
X022696Y011333D02*
X022619Y011333D01*
X022020Y011530D02*
X024294Y011530D01*
X024687Y011825D02*
X000527Y011825D01*
X000527Y011727D02*
X024785Y011727D01*
X024588Y011924D02*
X000527Y011924D01*
X000527Y012022D02*
X024490Y012022D01*
X024391Y012121D02*
X000527Y012121D01*
X000527Y012219D02*
X024293Y012219D01*
X024194Y012318D02*
X000527Y012318D01*
X000527Y012417D02*
X024095Y012417D01*
X023997Y012515D02*
X020980Y012515D01*
X021128Y012614D02*
X023898Y012614D01*
X023800Y012712D02*
X021227Y012712D01*
X021292Y012811D02*
X023701Y012811D01*
X023603Y012909D02*
X021332Y012909D01*
X021373Y013008D02*
X023504Y013008D01*
X023406Y013106D02*
X021377Y013106D01*
X021377Y013205D02*
X023307Y013205D01*
X023209Y013303D02*
X021377Y013303D01*
X021337Y013402D02*
X023110Y013402D01*
X023011Y013501D02*
X021296Y013501D01*
X021237Y013599D02*
X022919Y013599D01*
X022879Y013698D02*
X021212Y013698D01*
X021286Y013796D02*
X022838Y013796D01*
X022837Y013895D02*
X021326Y013895D01*
X021367Y013993D02*
X022837Y013993D01*
X022837Y014092D02*
X021377Y014092D01*
X021377Y014190D02*
X022837Y014190D01*
X022837Y014289D02*
X021377Y014289D01*
X021343Y014387D02*
X022837Y014387D01*
X022837Y014486D02*
X021302Y014486D01*
X021252Y014585D02*
X022837Y014585D01*
X022837Y014683D02*
X021198Y014683D01*
X021280Y014782D02*
X022837Y014782D01*
X022837Y014880D02*
X021320Y014880D01*
X021361Y014979D02*
X022837Y014979D01*
X022837Y015077D02*
X021377Y015077D01*
X021377Y015176D02*
X022837Y015176D01*
X022837Y015274D02*
X021377Y015274D01*
X021349Y015373D02*
X022837Y015373D01*
X022837Y015471D02*
X021308Y015471D01*
X021266Y015570D02*
X022837Y015570D01*
X022837Y015669D02*
X021183Y015669D01*
X021274Y015767D02*
X022837Y015767D01*
X022837Y015866D02*
X021314Y015866D01*
X021355Y015964D02*
X022837Y015964D01*
X022853Y016063D02*
X021377Y016063D01*
X021377Y016161D02*
X022894Y016161D01*
X022950Y016260D02*
X021377Y016260D01*
X021355Y016358D02*
X023049Y016358D01*
X023147Y016457D02*
X021314Y016457D01*
X021273Y016555D02*
X023246Y016555D01*
X023344Y016654D02*
X021182Y016654D01*
X021267Y016752D02*
X023443Y016752D01*
X023541Y016851D02*
X021308Y016851D01*
X021349Y016950D02*
X023640Y016950D01*
X023355Y017048D02*
X023298Y017048D01*
X023298Y017147D02*
X023355Y017147D01*
X023355Y017245D02*
X023298Y017245D01*
X023298Y017344D02*
X023355Y017344D01*
X023298Y017442D02*
X021320Y017442D01*
X021361Y017344D02*
X022630Y017344D01*
X022670Y017245D02*
X021377Y017245D01*
X021377Y017147D02*
X022746Y017147D01*
X022898Y017048D02*
X021377Y017048D01*
X021279Y017541D02*
X022625Y017541D01*
X022666Y017639D02*
X021197Y017639D01*
X021253Y017738D02*
X022631Y017738D01*
X022533Y017836D02*
X021302Y017836D01*
X021343Y017935D02*
X022473Y017935D01*
X022432Y018034D02*
X021377Y018034D01*
X021377Y018132D02*
X022402Y018132D01*
X022402Y018231D02*
X021377Y018231D01*
X021367Y018329D02*
X022402Y018329D01*
X022428Y018428D02*
X021326Y018428D01*
X021285Y018526D02*
X022469Y018526D01*
X022523Y018625D02*
X021211Y018625D01*
X021238Y018723D02*
X022472Y018723D01*
X022432Y018822D02*
X021296Y018822D01*
X021337Y018920D02*
X022402Y018920D01*
X022402Y019019D02*
X021377Y019019D01*
X021377Y019118D02*
X022402Y019118D01*
X022428Y019216D02*
X021377Y019216D01*
X021373Y019315D02*
X022469Y019315D01*
X022524Y019413D02*
X021332Y019413D01*
X021291Y019512D02*
X022472Y019512D01*
X022431Y019610D02*
X021226Y019610D01*
X021224Y019709D02*
X022402Y019709D01*
X022402Y019807D02*
X021290Y019807D01*
X021331Y019906D02*
X022402Y019906D01*
X022429Y020004D02*
X021372Y020004D01*
X021377Y020103D02*
X022470Y020103D01*
X022525Y020201D02*
X021377Y020201D01*
X021377Y020300D02*
X022472Y020300D01*
X022431Y020399D02*
X021338Y020399D01*
X021297Y020497D02*
X022402Y020497D01*
X022402Y020596D02*
X021241Y020596D01*
X021209Y020694D02*
X022402Y020694D01*
X022429Y020793D02*
X021284Y020793D01*
X021325Y020891D02*
X022470Y020891D01*
X022526Y020990D02*
X021366Y020990D01*
X021377Y021088D02*
X022471Y021088D01*
X022430Y021187D02*
X021377Y021187D01*
X021377Y021285D02*
X022402Y021285D01*
X022402Y021384D02*
X021344Y021384D01*
X021303Y021483D02*
X022402Y021483D01*
X022429Y021581D02*
X021255Y021581D01*
X021194Y021680D02*
X022470Y021680D01*
X022527Y021778D02*
X021278Y021778D01*
X021319Y021877D02*
X022471Y021877D01*
X022430Y021975D02*
X021360Y021975D01*
X021377Y022074D02*
X022402Y022074D01*
X022402Y022172D02*
X021377Y022172D01*
X021377Y022271D02*
X022402Y022271D01*
X022430Y022369D02*
X021350Y022369D01*
X021309Y022468D02*
X022471Y022468D01*
X022527Y022567D02*
X021269Y022567D01*
X021227Y022665D02*
X022470Y022665D01*
X022430Y022764D02*
X021227Y022764D01*
X021227Y022862D02*
X022402Y022862D01*
X022402Y022961D02*
X021263Y022961D01*
X021362Y023059D02*
X022402Y023059D01*
X022430Y023158D02*
X021460Y023158D01*
X021559Y023256D02*
X022471Y023256D01*
X022526Y023355D02*
X021657Y023355D01*
X021756Y023453D02*
X022470Y023453D01*
X022429Y023552D02*
X021855Y023552D01*
X021953Y023651D02*
X022402Y023651D01*
X022402Y023749D02*
X022052Y023749D01*
X022150Y023848D02*
X022402Y023848D01*
X022431Y023946D02*
X022249Y023946D01*
X022347Y024045D02*
X022471Y024045D01*
X022446Y024143D02*
X022525Y024143D01*
X020557Y026902D02*
X020409Y026902D01*
X020310Y027001D02*
X020519Y027001D01*
X020519Y027100D02*
X020211Y027100D01*
X020113Y027198D02*
X020519Y027198D01*
X020548Y027297D02*
X020038Y027297D01*
X019997Y027395D02*
X020589Y027395D01*
X020659Y027494D02*
X019956Y027494D01*
X019858Y027592D02*
X020757Y027592D01*
X020971Y027691D02*
X019715Y027691D01*
X019200Y027691D02*
X018557Y027691D01*
X018557Y027789D02*
X025980Y027789D01*
X025881Y027691D02*
X021244Y027691D01*
X021229Y028775D02*
X021586Y028775D01*
X021454Y028873D02*
X021361Y028873D01*
X020586Y028775D02*
X020229Y028775D01*
X020361Y028873D02*
X020454Y028873D01*
X019586Y028775D02*
X019229Y028775D01*
X019361Y028873D02*
X019454Y028873D01*
X018586Y028775D02*
X018229Y028775D01*
X018361Y028873D02*
X018454Y028873D01*
X017858Y028676D02*
X026867Y028676D01*
X026768Y028578D02*
X017858Y028578D01*
X017858Y028479D02*
X026670Y028479D01*
X026571Y028381D02*
X017858Y028381D01*
X018178Y028282D02*
X026473Y028282D01*
X026374Y028184D02*
X018334Y028184D01*
X018432Y028085D02*
X026275Y028085D01*
X026177Y027986D02*
X018488Y027986D01*
X018529Y027888D02*
X026078Y027888D01*
X025979Y028775D02*
X026336Y028775D01*
X026204Y028873D02*
X026111Y028873D01*
X025336Y028775D02*
X024979Y028775D01*
X025111Y028873D02*
X025204Y028873D01*
X024336Y028775D02*
X023229Y028775D01*
X023361Y028873D02*
X024204Y028873D01*
X024106Y028972D02*
X023459Y028972D01*
X023508Y029070D02*
X024057Y029070D01*
X024016Y029169D02*
X023549Y029169D01*
X023574Y029267D02*
X023990Y029267D01*
X023990Y029366D02*
X023574Y029366D01*
X023574Y029465D02*
X023990Y029465D01*
X023990Y029563D02*
X023574Y029563D01*
X023574Y029662D02*
X023990Y029662D01*
X023990Y029760D02*
X023574Y029760D01*
X023574Y029859D02*
X023990Y029859D01*
X023990Y029957D02*
X023574Y029957D01*
X023574Y030056D02*
X023990Y030056D01*
X024017Y030154D02*
X023548Y030154D01*
X023507Y030253D02*
X024057Y030253D01*
X024107Y030351D02*
X023457Y030351D01*
X023359Y030450D02*
X024206Y030450D01*
X024340Y030549D02*
X023225Y030549D01*
X022590Y030549D02*
X022225Y030549D01*
X022359Y030450D02*
X022456Y030450D01*
X021590Y030549D02*
X021225Y030549D01*
X021359Y030450D02*
X021456Y030450D01*
X020590Y030549D02*
X020225Y030549D01*
X020359Y030450D02*
X020456Y030450D01*
X019590Y030549D02*
X019225Y030549D01*
X019359Y030450D02*
X019456Y030450D01*
X019007Y030943D02*
X031127Y030943D01*
X031127Y030844D02*
X018859Y030844D01*
X018707Y030844D02*
X018607Y030844D01*
X018607Y030943D02*
X018707Y030943D01*
X018707Y031041D02*
X018607Y031041D01*
X018607Y031140D02*
X018707Y031140D01*
X018707Y031238D02*
X018607Y031238D01*
X018607Y031337D02*
X018707Y031337D01*
X018707Y031435D02*
X018607Y031435D01*
X018607Y031534D02*
X018707Y031534D01*
X018707Y031633D02*
X022605Y031633D01*
X022467Y031731D02*
X019162Y031731D01*
X019162Y031830D02*
X022391Y031830D01*
X022351Y031928D02*
X019162Y031928D01*
X019162Y032027D02*
X022338Y032027D01*
X022338Y032125D02*
X019158Y032125D01*
X019117Y032224D02*
X022338Y032224D01*
X022338Y032322D02*
X019063Y032322D01*
X018965Y032421D02*
X022338Y032421D01*
X022338Y032519D02*
X018177Y032519D01*
X018273Y032421D02*
X018350Y032421D01*
X018607Y032421D02*
X018707Y032421D01*
X018707Y032322D02*
X018607Y032322D01*
X018607Y032224D02*
X018707Y032224D01*
X018707Y032125D02*
X018607Y032125D01*
X018607Y032027D02*
X018707Y032027D01*
X018707Y031928D02*
X018607Y031928D01*
X018607Y031830D02*
X018707Y031830D01*
X018707Y031731D02*
X018607Y031731D01*
X019162Y031534D02*
X027232Y031534D01*
X027232Y031587D02*
X027232Y031430D01*
X027638Y031430D01*
X027638Y031392D01*
X027232Y031392D01*
X027232Y031234D01*
X027481Y030985D01*
X027638Y030985D01*
X027638Y031392D01*
X027676Y031392D01*
X027676Y030985D01*
X027834Y030985D01*
X028083Y031234D01*
X028083Y031392D01*
X027676Y031392D01*
X027676Y031430D01*
X027638Y031430D01*
X027638Y031836D01*
X027481Y031836D01*
X027232Y031587D01*
X027277Y031633D02*
X026560Y031633D01*
X026698Y031731D02*
X027376Y031731D01*
X027474Y031830D02*
X026774Y031830D01*
X026814Y031928D02*
X031262Y031928D01*
X031360Y032027D02*
X026827Y032027D01*
X027232Y031435D02*
X019162Y031435D01*
X019162Y031337D02*
X027232Y031337D01*
X027232Y031238D02*
X019162Y031238D01*
X019134Y031140D02*
X027326Y031140D01*
X027425Y031041D02*
X019093Y031041D01*
X018590Y030549D02*
X018225Y030549D01*
X018107Y030647D02*
X031127Y030647D01*
X031127Y030549D02*
X030975Y030549D01*
X031109Y030450D02*
X031127Y030450D01*
X031127Y030746D02*
X018121Y030746D01*
X018219Y030844D02*
X018455Y030844D01*
X018308Y030943D02*
X018291Y030943D01*
X018359Y030450D02*
X018456Y030450D01*
X018079Y032618D02*
X022338Y032618D01*
X022360Y032716D02*
X017857Y032716D01*
X017458Y032716D02*
X016857Y032716D01*
X017079Y032618D02*
X017236Y032618D01*
X016458Y032716D02*
X015857Y032716D01*
X016079Y032618D02*
X016236Y032618D01*
X015458Y032716D02*
X014857Y032716D01*
X015079Y032618D02*
X015236Y032618D01*
X014458Y032716D02*
X013857Y032716D01*
X014079Y032618D02*
X014236Y032618D01*
X013458Y032716D02*
X012857Y032716D01*
X013079Y032618D02*
X013236Y032618D01*
X012458Y032716D02*
X011857Y032716D01*
X012079Y032618D02*
X012236Y032618D01*
X011458Y032716D02*
X010857Y032716D01*
X011079Y032618D02*
X011236Y032618D01*
X010458Y032716D02*
X009857Y032716D01*
X010079Y032618D02*
X010236Y032618D01*
X009458Y032716D02*
X008857Y032716D01*
X009079Y032618D02*
X009236Y032618D01*
X008458Y032716D02*
X007857Y032716D01*
X008079Y032618D02*
X008236Y032618D01*
X007458Y032716D02*
X006857Y032716D01*
X007079Y032618D02*
X007236Y032618D01*
X006458Y032716D02*
X005857Y032716D01*
X006079Y032618D02*
X006236Y032618D01*
X005458Y032716D02*
X004857Y032716D01*
X005079Y032618D02*
X005236Y032618D01*
X004458Y032716D02*
X002233Y032716D01*
X002331Y032618D02*
X004236Y032618D01*
X004137Y032519D02*
X002375Y032519D01*
X002336Y032614D02*
X002110Y032839D01*
X001816Y032961D01*
X001498Y032961D01*
X001204Y032839D01*
X000979Y032614D01*
X000857Y032320D01*
X000857Y032002D01*
X000979Y031708D01*
X001204Y031483D01*
X001498Y031361D01*
X001816Y031361D01*
X002110Y031483D01*
X002336Y031708D01*
X002457Y032002D01*
X002457Y032320D01*
X002336Y032614D01*
X002416Y032421D02*
X003350Y032421D01*
X003251Y032322D02*
X002456Y032322D01*
X002457Y032224D02*
X003198Y032224D01*
X003157Y032125D02*
X002457Y032125D01*
X002457Y032027D02*
X003153Y032027D01*
X003153Y031928D02*
X002427Y031928D01*
X002386Y031830D02*
X003153Y031830D01*
X003153Y031731D02*
X002345Y031731D01*
X002260Y031633D02*
X003607Y031633D01*
X003607Y031731D02*
X003707Y031731D01*
X003707Y031830D02*
X003607Y031830D01*
X003607Y031928D02*
X003707Y031928D01*
X003707Y032027D02*
X003607Y032027D01*
X003607Y032125D02*
X003707Y032125D01*
X003707Y032224D02*
X003607Y032224D01*
X003607Y032322D02*
X003707Y032322D01*
X003707Y032421D02*
X003607Y032421D01*
X003965Y032421D02*
X004041Y032421D01*
X003707Y031534D02*
X003607Y031534D01*
X003607Y031435D02*
X003707Y031435D01*
X003707Y031337D02*
X003607Y031337D01*
X003607Y031238D02*
X003707Y031238D01*
X003707Y031140D02*
X003607Y031140D01*
X003607Y031041D02*
X003707Y031041D01*
X003707Y030943D02*
X003607Y030943D01*
X003607Y030844D02*
X003707Y030844D01*
X003859Y030844D02*
X004087Y030844D01*
X004087Y030746D02*
X003485Y030746D01*
X003455Y030844D02*
X000527Y030844D01*
X000527Y030746D02*
X001823Y030746D01*
X001724Y030647D02*
X000527Y030647D01*
X000527Y030549D02*
X000937Y030549D01*
X000838Y030450D02*
X000527Y030450D01*
X000527Y030351D02*
X000740Y030351D01*
X000727Y030253D02*
X000527Y030253D01*
X000527Y030154D02*
X001127Y030154D01*
X001127Y030056D02*
X001187Y030056D01*
X001187Y029957D02*
X001127Y029957D01*
X001127Y029859D02*
X001187Y029859D01*
X001187Y029760D02*
X001127Y029760D01*
X000950Y029760D02*
X000527Y029760D01*
X000527Y029662D02*
X001587Y029662D01*
X001587Y029760D02*
X001365Y029760D01*
X001463Y029859D02*
X001540Y029859D01*
X001587Y029563D02*
X000527Y029563D01*
X000527Y029465D02*
X001587Y029465D01*
X001587Y029366D02*
X000527Y029366D01*
X000527Y029267D02*
X001587Y029267D01*
X001587Y029169D02*
X000527Y029169D01*
X000527Y029070D02*
X001587Y029070D01*
X001587Y028972D02*
X000527Y028972D01*
X000527Y028873D02*
X001587Y028873D01*
X001587Y028775D02*
X000527Y028775D01*
X000527Y028676D02*
X001587Y028676D01*
X001587Y028578D02*
X000527Y028578D01*
X000527Y028479D02*
X001587Y028479D01*
X001587Y028381D02*
X000527Y028381D01*
X000527Y028282D02*
X001587Y028282D01*
X001587Y028184D02*
X000527Y028184D01*
X000527Y028085D02*
X001587Y028085D01*
X001587Y027986D02*
X000527Y027986D01*
X000527Y027888D02*
X001587Y027888D01*
X001587Y027789D02*
X000527Y027789D01*
X000527Y027691D02*
X001587Y027691D01*
X001587Y027592D02*
X000527Y027592D01*
X000527Y027494D02*
X001587Y027494D01*
X001587Y027395D02*
X000527Y027395D01*
X000527Y027297D02*
X001587Y027297D01*
X001587Y027198D02*
X000527Y027198D01*
X000527Y027100D02*
X001587Y027100D01*
X001606Y027001D02*
X000527Y027001D01*
X000527Y026902D02*
X001647Y026902D01*
X001708Y026804D02*
X000527Y026804D01*
X000527Y026705D02*
X001807Y026705D01*
X001905Y026607D02*
X000527Y026607D01*
X000527Y026508D02*
X002004Y026508D01*
X002102Y026410D02*
X000527Y026410D01*
X000527Y026311D02*
X002201Y026311D01*
X002299Y026213D02*
X000527Y026213D01*
X000527Y026114D02*
X002398Y026114D01*
X002496Y026016D02*
X000527Y026016D01*
X000527Y025917D02*
X002512Y025917D01*
X002364Y025818D02*
X001951Y025818D01*
X001364Y025818D02*
X000527Y025818D01*
X000527Y025720D02*
X001198Y025720D01*
X001100Y025621D02*
X000527Y025621D01*
X000527Y025523D02*
X001028Y025523D01*
X000987Y025424D02*
X000527Y025424D01*
X000527Y025326D02*
X000946Y025326D01*
X000937Y025227D02*
X000527Y025227D01*
X000527Y025129D02*
X000937Y025129D01*
X000937Y025030D02*
X000527Y025030D01*
X000527Y024932D02*
X000973Y024932D01*
X001014Y024833D02*
X000527Y024833D01*
X000527Y024734D02*
X001065Y024734D01*
X001114Y024636D02*
X000527Y024636D01*
X000527Y024537D02*
X001034Y024537D01*
X000993Y024439D02*
X000527Y024439D01*
X000527Y024340D02*
X000952Y024340D01*
X000937Y024242D02*
X000527Y024242D01*
X000527Y024143D02*
X000937Y024143D01*
X000937Y024045D02*
X000527Y024045D01*
X000527Y023946D02*
X000967Y023946D01*
X001008Y023848D02*
X000527Y023848D01*
X000527Y023749D02*
X001051Y023749D01*
X001129Y023651D02*
X000527Y023651D01*
X000527Y023552D02*
X001040Y023552D01*
X000999Y023453D02*
X000527Y023453D01*
X000527Y023355D02*
X000958Y023355D01*
X000937Y023256D02*
X000527Y023256D01*
X000527Y023158D02*
X000937Y023158D01*
X000937Y023059D02*
X000527Y023059D01*
X000527Y022961D02*
X000961Y022961D01*
X001002Y022862D02*
X000527Y022862D01*
X000527Y022764D02*
X001042Y022764D01*
X001135Y022665D02*
X000527Y022665D01*
X000527Y022567D02*
X001046Y022567D01*
X001005Y022468D02*
X000527Y022468D01*
X000527Y022369D02*
X000964Y022369D01*
X000937Y022271D02*
X000527Y022271D01*
X000527Y022172D02*
X000937Y022172D01*
X000937Y022074D02*
X000527Y022074D01*
X000527Y021975D02*
X000955Y021975D01*
X000996Y021877D02*
X000527Y021877D01*
X000527Y021778D02*
X001036Y021778D01*
X001120Y021680D02*
X000527Y021680D01*
X000527Y021581D02*
X001059Y021581D01*
X001011Y021483D02*
X000527Y021483D01*
X000527Y021384D02*
X000970Y021384D01*
X000937Y021285D02*
X000527Y021285D01*
X000527Y021187D02*
X000937Y021187D01*
X000937Y021088D02*
X000527Y021088D01*
X000527Y020990D02*
X000949Y020990D01*
X000990Y020891D02*
X000527Y020891D01*
X000527Y020793D02*
X001030Y020793D01*
X001106Y020694D02*
X000527Y020694D01*
X000527Y020596D02*
X001074Y020596D01*
X001017Y020497D02*
X000527Y020497D01*
X000527Y020399D02*
X000976Y020399D01*
X000937Y020300D02*
X000527Y020300D01*
X000527Y020201D02*
X000937Y020201D01*
X000937Y020103D02*
X000527Y020103D01*
X000527Y020004D02*
X000943Y020004D01*
X000984Y019906D02*
X000527Y019906D01*
X000527Y019807D02*
X001024Y019807D01*
X001091Y019709D02*
X000527Y019709D01*
X000527Y019610D02*
X001089Y019610D01*
X001023Y019512D02*
X000527Y019512D01*
X000527Y019413D02*
X000983Y019413D01*
X000942Y019315D02*
X000527Y019315D01*
X000527Y019216D02*
X000937Y019216D01*
X000937Y019118D02*
X000527Y019118D01*
X000527Y019019D02*
X000937Y019019D01*
X000978Y018920D02*
X000527Y018920D01*
X000527Y018822D02*
X001018Y018822D01*
X001076Y018723D02*
X000527Y018723D01*
X000527Y018625D02*
X001103Y018625D01*
X001029Y018526D02*
X000527Y018526D01*
X000527Y018428D02*
X000989Y018428D01*
X000948Y018329D02*
X000527Y018329D01*
X000527Y018231D02*
X000937Y018231D01*
X000937Y018132D02*
X000527Y018132D01*
X000527Y018034D02*
X000937Y018034D01*
X000971Y017935D02*
X000527Y017935D01*
X000527Y017836D02*
X001012Y017836D01*
X001062Y017738D02*
X000527Y017738D01*
X000527Y017639D02*
X001118Y017639D01*
X001035Y017541D02*
X000527Y017541D01*
X000527Y017442D02*
X000995Y017442D01*
X000954Y017344D02*
X000527Y017344D01*
X000527Y017245D02*
X000937Y017245D01*
X000937Y017147D02*
X000527Y017147D01*
X000527Y017048D02*
X000937Y017048D01*
X000965Y016950D02*
X000527Y016950D01*
X000527Y016851D02*
X001006Y016851D01*
X001047Y016752D02*
X000527Y016752D01*
X000527Y016654D02*
X001132Y016654D01*
X001041Y016555D02*
X000527Y016555D01*
X000527Y016457D02*
X001001Y016457D01*
X000960Y016358D02*
X000527Y016358D01*
X000527Y016260D02*
X000937Y016260D01*
X000937Y016161D02*
X000527Y016161D01*
X000527Y016063D02*
X000937Y016063D01*
X000959Y015964D02*
X000527Y015964D01*
X000527Y015866D02*
X001000Y015866D01*
X001041Y015767D02*
X000527Y015767D01*
X000527Y015669D02*
X001131Y015669D01*
X001048Y015570D02*
X000527Y015570D01*
X000527Y015471D02*
X001007Y015471D01*
X000966Y015373D02*
X000527Y015373D01*
X000527Y015274D02*
X000937Y015274D01*
X000937Y015176D02*
X000527Y015176D01*
X000527Y015077D02*
X000937Y015077D01*
X000953Y014979D02*
X000527Y014979D01*
X000527Y014880D02*
X000994Y014880D01*
X001035Y014782D02*
X000527Y014782D01*
X000527Y014683D02*
X001117Y014683D01*
X001063Y014585D02*
X000527Y014585D01*
X000527Y014486D02*
X001013Y014486D01*
X000972Y014387D02*
X000527Y014387D01*
X000527Y014289D02*
X000937Y014289D01*
X000937Y014190D02*
X000527Y014190D01*
X000527Y014092D02*
X000937Y014092D01*
X000947Y013993D02*
X000527Y013993D01*
X000527Y013895D02*
X000988Y013895D01*
X001029Y013796D02*
X000527Y013796D01*
X000527Y013698D02*
X001102Y013698D01*
X001077Y013599D02*
X000527Y013599D01*
X000527Y013501D02*
X001019Y013501D01*
X000978Y013402D02*
X000527Y013402D01*
X000527Y013303D02*
X000937Y013303D01*
X000937Y013205D02*
X000527Y013205D01*
X000527Y013106D02*
X000937Y013106D01*
X000941Y013008D02*
X000527Y013008D01*
X000527Y012909D02*
X000982Y012909D01*
X001023Y012811D02*
X000527Y012811D01*
X000527Y012712D02*
X001088Y012712D01*
X001186Y012614D02*
X000527Y012614D01*
X000527Y012515D02*
X001335Y012515D01*
X001980Y012515D02*
X002335Y012515D01*
X002186Y012614D02*
X002128Y012614D01*
X002980Y012515D02*
X003335Y012515D01*
X003186Y012614D02*
X003128Y012614D01*
X003980Y012515D02*
X004335Y012515D01*
X004186Y012614D02*
X004128Y012614D01*
X004980Y012515D02*
X005335Y012515D01*
X005186Y012614D02*
X005128Y012614D01*
X005980Y012515D02*
X006335Y012515D01*
X006186Y012614D02*
X006128Y012614D01*
X006980Y012515D02*
X007335Y012515D01*
X007186Y012614D02*
X007128Y012614D01*
X007980Y012515D02*
X008335Y012515D01*
X008186Y012614D02*
X008128Y012614D01*
X008980Y012515D02*
X009335Y012515D01*
X009186Y012614D02*
X009128Y012614D01*
X009980Y012515D02*
X010335Y012515D01*
X010186Y012614D02*
X010128Y012614D01*
X010980Y012515D02*
X011335Y012515D01*
X011186Y012614D02*
X011128Y012614D01*
X011980Y012515D02*
X012335Y012515D01*
X012186Y012614D02*
X012128Y012614D01*
X012980Y012515D02*
X013335Y012515D01*
X013186Y012614D02*
X013128Y012614D01*
X013980Y012515D02*
X014335Y012515D01*
X014186Y012614D02*
X014128Y012614D01*
X014980Y012515D02*
X015335Y012515D01*
X015186Y012614D02*
X015128Y012614D01*
X015980Y012515D02*
X016335Y012515D01*
X016186Y012614D02*
X016128Y012614D01*
X016980Y012515D02*
X017335Y012515D01*
X017186Y012614D02*
X017128Y012614D01*
X017980Y012515D02*
X018335Y012515D01*
X018186Y012614D02*
X018128Y012614D01*
X018980Y012515D02*
X019335Y012515D01*
X019186Y012614D02*
X019128Y012614D01*
X019980Y012515D02*
X020335Y012515D01*
X020186Y012614D02*
X020128Y012614D01*
X020020Y011530D02*
X020294Y011530D01*
X020187Y011431D02*
X020128Y011431D01*
X018990Y010938D02*
X018924Y010938D01*
X018390Y010938D02*
X017924Y010938D01*
X018107Y010840D02*
X018208Y010840D01*
X017390Y010938D02*
X016924Y010938D01*
X017107Y010840D02*
X017208Y010840D01*
X016390Y010938D02*
X015924Y010938D01*
X016107Y010840D02*
X016208Y010840D01*
X015390Y010938D02*
X014924Y010938D01*
X015107Y010840D02*
X015208Y010840D01*
X014390Y010938D02*
X013924Y010938D01*
X014107Y010840D02*
X014208Y010840D01*
X013390Y010938D02*
X012924Y010938D01*
X013107Y010840D02*
X013208Y010840D01*
X012390Y010938D02*
X011924Y010938D01*
X012107Y010840D02*
X012208Y010840D01*
X011390Y010938D02*
X010924Y010938D01*
X011107Y010840D02*
X011208Y010840D01*
X010390Y010938D02*
X009924Y010938D01*
X010107Y010840D02*
X010208Y010840D01*
X009390Y010938D02*
X008924Y010938D01*
X009107Y010840D02*
X009208Y010840D01*
X008390Y010938D02*
X007924Y010938D01*
X008107Y010840D02*
X008208Y010840D01*
X007390Y010938D02*
X006924Y010938D01*
X007107Y010840D02*
X007208Y010840D01*
X006390Y010938D02*
X005924Y010938D01*
X006107Y010840D02*
X006208Y010840D01*
X005390Y010938D02*
X004924Y010938D01*
X005107Y010840D02*
X005208Y010840D01*
X004390Y010938D02*
X003924Y010938D01*
X004107Y010840D02*
X004208Y010840D01*
X004222Y008968D02*
X004093Y008968D01*
X003890Y008869D02*
X004424Y008869D01*
X004890Y008869D02*
X005424Y008869D01*
X005222Y008968D02*
X005093Y008968D01*
X005567Y008376D02*
X000527Y008376D01*
X000527Y008278D02*
X005468Y008278D01*
X005370Y008179D02*
X000527Y008179D01*
X000527Y008081D02*
X005271Y008081D01*
X005173Y007982D02*
X000527Y007982D01*
X000527Y007884D02*
X005074Y007884D01*
X004869Y007785D02*
X000527Y007785D01*
X000527Y007686D02*
X004770Y007686D01*
X004672Y007588D02*
X000527Y007588D01*
X000527Y007489D02*
X004573Y007489D01*
X004512Y007391D02*
X003329Y007391D01*
X003438Y007346D02*
X003185Y007451D01*
X002910Y007451D01*
X002656Y007346D01*
X002462Y007152D01*
X002357Y006898D01*
X002357Y005984D01*
X002462Y005730D01*
X002477Y005715D01*
X002477Y004607D01*
X002462Y004592D01*
X002357Y004338D01*
X002357Y003424D01*
X002462Y003170D01*
X002656Y002976D01*
X002910Y002871D01*
X003185Y002871D01*
X003232Y002890D01*
X003444Y002678D01*
X003654Y002591D01*
X003881Y002591D01*
X004814Y002591D01*
X004890Y002515D01*
X005425Y002515D01*
X005803Y002893D01*
X005803Y003428D01*
X005425Y003806D01*
X004890Y003806D01*
X004814Y003731D01*
X004003Y003731D01*
X003737Y003997D01*
X003737Y004338D01*
X003632Y004592D01*
X003617Y004607D01*
X003617Y005715D01*
X003632Y005730D01*
X003737Y005984D01*
X003737Y006898D01*
X004512Y006898D01*
X004512Y006997D02*
X003696Y006997D01*
X003656Y007095D02*
X004512Y007095D01*
X004512Y007194D02*
X003590Y007194D01*
X003632Y007152D02*
X003438Y007346D01*
X003492Y007292D02*
X004512Y007292D01*
X004606Y006800D02*
X003737Y006800D01*
X003737Y006898D02*
X003632Y007152D01*
X003737Y006701D02*
X004704Y006701D01*
X004803Y006603D02*
X003737Y006603D01*
X003737Y006504D02*
X006797Y006504D01*
X006797Y006491D02*
X007217Y006491D01*
X007217Y006391D01*
X006797Y006391D01*
X006797Y006027D01*
X006869Y005855D01*
X007001Y005722D01*
X007174Y005651D01*
X007217Y005651D01*
X007217Y006391D01*
X007317Y006391D01*
X007317Y005651D01*
X007361Y005651D01*
X007534Y005722D01*
X007666Y005855D01*
X007737Y006027D01*
X007737Y006391D01*
X007317Y006391D01*
X007317Y006491D01*
X007217Y006491D01*
X007217Y007231D01*
X007174Y007231D01*
X007001Y007159D01*
X006869Y007027D01*
X006797Y006854D01*
X006797Y006491D01*
X006797Y006603D02*
X005512Y006603D01*
X005611Y006701D02*
X006797Y006701D01*
X006797Y006800D02*
X005709Y006800D01*
X005803Y006898D02*
X006816Y006898D01*
X006856Y006997D02*
X005803Y006997D01*
X005898Y007095D02*
X006937Y007095D01*
X007085Y007194D02*
X005996Y007194D01*
X006095Y007292D02*
X008603Y007292D01*
X008505Y007194D02*
X007450Y007194D01*
X007534Y007159D02*
X007361Y007231D01*
X007317Y007231D01*
X007317Y006491D01*
X007737Y006491D01*
X007737Y006854D01*
X007666Y007027D01*
X007534Y007159D01*
X007598Y007095D02*
X008439Y007095D01*
X008398Y006997D02*
X007678Y006997D01*
X007719Y006898D02*
X008357Y006898D01*
X008357Y006800D02*
X007737Y006800D01*
X007737Y006701D02*
X008357Y006701D01*
X008357Y006603D02*
X007737Y006603D01*
X007737Y006504D02*
X008357Y006504D01*
X008357Y006405D02*
X007317Y006405D01*
X007317Y006307D02*
X007217Y006307D01*
X007217Y006405D02*
X003737Y006405D01*
X003737Y006307D02*
X006797Y006307D01*
X006797Y006208D02*
X003737Y006208D01*
X003737Y006110D02*
X006797Y006110D01*
X006804Y006011D02*
X003737Y006011D01*
X003708Y005913D02*
X006845Y005913D01*
X006909Y005814D02*
X003667Y005814D01*
X003618Y005716D02*
X007017Y005716D01*
X007217Y005716D02*
X007317Y005716D01*
X007317Y005814D02*
X007217Y005814D01*
X007217Y005913D02*
X007317Y005913D01*
X007317Y006011D02*
X007217Y006011D01*
X007217Y006110D02*
X007317Y006110D01*
X007317Y006208D02*
X007217Y006208D01*
X007217Y006504D02*
X007317Y006504D01*
X007317Y006603D02*
X007217Y006603D01*
X007217Y006701D02*
X007317Y006701D01*
X007317Y006800D02*
X007217Y006800D01*
X007217Y006898D02*
X007317Y006898D01*
X007317Y006997D02*
X007217Y006997D01*
X007217Y007095D02*
X007317Y007095D01*
X007317Y007194D02*
X007217Y007194D01*
X007737Y006307D02*
X008357Y006307D01*
X008357Y006208D02*
X007737Y006208D01*
X007737Y006110D02*
X008357Y006110D01*
X008357Y006011D02*
X007731Y006011D01*
X007690Y005913D02*
X008387Y005913D01*
X008427Y005814D02*
X007625Y005814D01*
X007517Y005716D02*
X008477Y005716D01*
X008477Y005617D02*
X003617Y005617D01*
X003617Y005519D02*
X008477Y005519D01*
X008477Y005420D02*
X003617Y005420D01*
X003617Y005321D02*
X008477Y005321D01*
X008477Y005223D02*
X003617Y005223D01*
X003617Y005124D02*
X008477Y005124D01*
X008477Y005026D02*
X003617Y005026D01*
X003617Y004927D02*
X008477Y004927D01*
X008477Y004829D02*
X003617Y004829D01*
X003617Y004730D02*
X008477Y004730D01*
X008477Y004632D02*
X007455Y004632D01*
X007534Y004599D02*
X007361Y004671D01*
X007317Y004671D01*
X007317Y003931D01*
X007217Y003931D01*
X007217Y003831D01*
X006797Y003831D01*
X006797Y003467D01*
X006869Y003295D01*
X007001Y003162D01*
X007174Y003091D01*
X007217Y003091D01*
X007217Y003831D01*
X007317Y003831D01*
X007317Y003091D01*
X007361Y003091D01*
X007534Y003162D01*
X007666Y003295D01*
X007737Y003467D01*
X007737Y003831D01*
X007317Y003831D01*
X007317Y003931D01*
X007737Y003931D01*
X007737Y004294D01*
X007666Y004467D01*
X007534Y004599D01*
X007600Y004533D02*
X008438Y004533D01*
X008397Y004435D02*
X007679Y004435D01*
X007720Y004336D02*
X008357Y004336D01*
X008357Y004237D02*
X007737Y004237D01*
X007737Y004139D02*
X008357Y004139D01*
X008357Y004040D02*
X007737Y004040D01*
X007737Y003942D02*
X008357Y003942D01*
X008357Y003843D02*
X007317Y003843D01*
X007317Y003745D02*
X007217Y003745D01*
X007217Y003843D02*
X003891Y003843D01*
X003989Y003745D02*
X004828Y003745D01*
X005486Y003745D02*
X006797Y003745D01*
X006797Y003646D02*
X005585Y003646D01*
X005683Y003548D02*
X006797Y003548D01*
X006805Y003449D02*
X005782Y003449D01*
X005803Y003351D02*
X006846Y003351D01*
X006911Y003252D02*
X005803Y003252D01*
X005803Y003154D02*
X007022Y003154D01*
X007217Y003154D02*
X007317Y003154D01*
X007317Y003252D02*
X007217Y003252D01*
X007217Y003351D02*
X007317Y003351D01*
X007317Y003449D02*
X007217Y003449D01*
X007217Y003548D02*
X007317Y003548D01*
X007317Y003646D02*
X007217Y003646D01*
X007217Y003931D02*
X006797Y003931D01*
X006797Y004294D01*
X006869Y004467D01*
X007001Y004599D01*
X007174Y004671D01*
X007217Y004671D01*
X007217Y003931D01*
X007217Y003942D02*
X007317Y003942D01*
X007317Y004040D02*
X007217Y004040D01*
X007217Y004139D02*
X007317Y004139D01*
X007317Y004237D02*
X007217Y004237D01*
X007217Y004336D02*
X007317Y004336D01*
X007317Y004435D02*
X007217Y004435D01*
X007217Y004533D02*
X007317Y004533D01*
X007317Y004632D02*
X007217Y004632D01*
X007079Y004632D02*
X003617Y004632D01*
X003656Y004533D02*
X006935Y004533D01*
X006855Y004435D02*
X003697Y004435D01*
X003737Y004336D02*
X006815Y004336D01*
X006797Y004237D02*
X003737Y004237D01*
X003737Y004139D02*
X006797Y004139D01*
X006797Y004040D02*
X003737Y004040D01*
X003792Y003942D02*
X006797Y003942D01*
X007512Y003154D02*
X008479Y003154D01*
X008428Y003252D02*
X007623Y003252D01*
X007689Y003351D02*
X008388Y003351D01*
X008357Y003449D02*
X007730Y003449D01*
X007737Y003548D02*
X008357Y003548D01*
X008357Y003646D02*
X007737Y003646D01*
X007737Y003745D02*
X008357Y003745D01*
X008577Y003055D02*
X005803Y003055D01*
X005803Y002956D02*
X008703Y002956D01*
X009264Y002858D02*
X005767Y002858D01*
X005669Y002759D02*
X009363Y002759D01*
X009485Y002661D02*
X005570Y002661D01*
X005472Y002562D02*
X010343Y002562D01*
X010972Y002562D02*
X011843Y002562D01*
X011744Y002661D02*
X011070Y002661D01*
X011169Y002759D02*
X011646Y002759D01*
X011547Y002858D02*
X011267Y002858D01*
X011303Y002956D02*
X011512Y002956D01*
X011512Y003055D02*
X011303Y003055D01*
X011303Y003154D02*
X011512Y003154D01*
X011512Y003252D02*
X011303Y003252D01*
X011303Y003351D02*
X011512Y003351D01*
X011533Y003449D02*
X011282Y003449D01*
X011183Y003548D02*
X011631Y003548D01*
X011730Y003646D02*
X011085Y003646D01*
X010986Y003745D02*
X011828Y003745D01*
X012486Y003745D02*
X012797Y003745D01*
X012797Y003831D02*
X012797Y003467D01*
X012869Y003295D01*
X013001Y003162D01*
X013174Y003091D01*
X013217Y003091D01*
X013217Y003831D01*
X012797Y003831D01*
X012797Y003931D02*
X013217Y003931D01*
X013217Y003831D01*
X013317Y003831D01*
X013317Y003091D01*
X013361Y003091D01*
X013534Y003162D01*
X013666Y003295D01*
X013737Y003467D01*
X013737Y003831D01*
X013317Y003831D01*
X013317Y003931D01*
X013217Y003931D01*
X013217Y004671D01*
X013174Y004671D01*
X013001Y004599D01*
X012869Y004467D01*
X012797Y004294D01*
X012797Y003931D01*
X012797Y003942D02*
X009792Y003942D01*
X009737Y004040D02*
X012797Y004040D01*
X012797Y004139D02*
X009737Y004139D01*
X009737Y004237D02*
X012797Y004237D01*
X012815Y004336D02*
X009737Y004336D01*
X009697Y004435D02*
X012855Y004435D01*
X012935Y004533D02*
X009656Y004533D01*
X009617Y004632D02*
X013079Y004632D01*
X013217Y004632D02*
X013317Y004632D01*
X013317Y004671D02*
X013317Y003931D01*
X013737Y003931D01*
X013737Y004294D01*
X013666Y004467D01*
X013534Y004599D01*
X013361Y004671D01*
X013317Y004671D01*
X013317Y004533D02*
X013217Y004533D01*
X013217Y004435D02*
X013317Y004435D01*
X013317Y004336D02*
X013217Y004336D01*
X013217Y004237D02*
X013317Y004237D01*
X013317Y004139D02*
X013217Y004139D01*
X013217Y004040D02*
X013317Y004040D01*
X013317Y003942D02*
X013217Y003942D01*
X013217Y003843D02*
X009891Y003843D01*
X009989Y003745D02*
X010328Y003745D01*
X009617Y004730D02*
X014477Y004730D01*
X014477Y004632D02*
X013455Y004632D01*
X013600Y004533D02*
X014438Y004533D01*
X014397Y004435D02*
X013679Y004435D01*
X013720Y004336D02*
X014357Y004336D01*
X014357Y004237D02*
X013737Y004237D01*
X013737Y004139D02*
X014357Y004139D01*
X014357Y004040D02*
X013737Y004040D01*
X013737Y003942D02*
X014357Y003942D01*
X014357Y003843D02*
X013317Y003843D01*
X013317Y003745D02*
X013217Y003745D01*
X013217Y003646D02*
X013317Y003646D01*
X013317Y003548D02*
X013217Y003548D01*
X013217Y003449D02*
X013317Y003449D01*
X013317Y003351D02*
X013217Y003351D01*
X013217Y003252D02*
X013317Y003252D01*
X013317Y003154D02*
X013217Y003154D01*
X013069Y003055D02*
X014577Y003055D01*
X014479Y003154D02*
X013512Y003154D01*
X013623Y003252D02*
X014428Y003252D01*
X014388Y003351D02*
X013689Y003351D01*
X013730Y003449D02*
X014357Y003449D01*
X014357Y003548D02*
X013737Y003548D01*
X013737Y003646D02*
X014357Y003646D01*
X014357Y003745D02*
X013737Y003745D01*
X013022Y003154D02*
X012971Y003154D01*
X012911Y003252D02*
X012872Y003252D01*
X012846Y003351D02*
X012803Y003351D01*
X012805Y003449D02*
X012782Y003449D01*
X012797Y003548D02*
X012683Y003548D01*
X012585Y003646D02*
X012797Y003646D01*
X013168Y002956D02*
X014703Y002956D01*
X015264Y002858D02*
X013266Y002858D01*
X013365Y002759D02*
X015363Y002759D01*
X014477Y004829D02*
X009617Y004829D01*
X009617Y004927D02*
X014477Y004927D01*
X014477Y005026D02*
X009617Y005026D01*
X009617Y005124D02*
X014477Y005124D01*
X014477Y005223D02*
X009617Y005223D01*
X009617Y005321D02*
X014477Y005321D01*
X014477Y005420D02*
X009617Y005420D01*
X009617Y005519D02*
X014477Y005519D01*
X014477Y005617D02*
X009617Y005617D01*
X009618Y005716D02*
X013017Y005716D01*
X013001Y005722D02*
X013174Y005651D01*
X013217Y005651D01*
X013217Y006391D01*
X012797Y006391D01*
X012797Y006027D01*
X012869Y005855D01*
X013001Y005722D01*
X012909Y005814D02*
X009667Y005814D01*
X009708Y005913D02*
X012845Y005913D01*
X012804Y006011D02*
X009737Y006011D01*
X009737Y006110D02*
X012797Y006110D01*
X012797Y006208D02*
X009737Y006208D01*
X009737Y006307D02*
X012797Y006307D01*
X012797Y006491D02*
X013217Y006491D01*
X013217Y006391D01*
X013317Y006391D01*
X013317Y005651D01*
X013361Y005651D01*
X013534Y005722D01*
X013666Y005855D01*
X013737Y006027D01*
X013737Y006391D01*
X013317Y006391D01*
X013317Y006491D01*
X013217Y006491D01*
X013217Y007231D01*
X013174Y007231D01*
X013001Y007159D01*
X012869Y007027D01*
X012797Y006854D01*
X012797Y006491D01*
X012797Y006504D02*
X009737Y006504D01*
X009737Y006603D02*
X010303Y006603D01*
X010204Y006701D02*
X009737Y006701D01*
X009737Y006800D02*
X010106Y006800D01*
X009737Y006405D02*
X013217Y006405D01*
X013217Y006307D02*
X013317Y006307D01*
X013317Y006405D02*
X014357Y006405D01*
X014357Y006307D02*
X013737Y006307D01*
X013737Y006208D02*
X014357Y006208D01*
X014357Y006110D02*
X013737Y006110D01*
X013731Y006011D02*
X014357Y006011D01*
X014387Y005913D02*
X013690Y005913D01*
X013625Y005814D02*
X014427Y005814D01*
X014477Y005716D02*
X013517Y005716D01*
X013317Y005716D02*
X013217Y005716D01*
X013217Y005814D02*
X013317Y005814D01*
X013317Y005913D02*
X013217Y005913D01*
X013217Y006011D02*
X013317Y006011D01*
X013317Y006110D02*
X013217Y006110D01*
X013217Y006208D02*
X013317Y006208D01*
X013317Y006491D02*
X013737Y006491D01*
X013737Y006854D01*
X013666Y007027D01*
X013534Y007159D01*
X013361Y007231D01*
X013317Y007231D01*
X013317Y006491D01*
X013317Y006504D02*
X013217Y006504D01*
X013217Y006603D02*
X013317Y006603D01*
X013317Y006701D02*
X013217Y006701D01*
X013217Y006800D02*
X013317Y006800D01*
X013317Y006898D02*
X013217Y006898D01*
X013217Y006997D02*
X013317Y006997D01*
X013317Y007095D02*
X013217Y007095D01*
X013217Y007194D02*
X013317Y007194D01*
X013450Y007194D02*
X014505Y007194D01*
X014439Y007095D02*
X013598Y007095D01*
X013678Y006997D02*
X014398Y006997D01*
X014357Y006898D02*
X013719Y006898D01*
X013737Y006800D02*
X014357Y006800D01*
X014357Y006701D02*
X013737Y006701D01*
X013737Y006603D02*
X014357Y006603D01*
X014357Y006504D02*
X013737Y006504D01*
X013085Y007194D02*
X012996Y007194D01*
X012937Y007095D02*
X012898Y007095D01*
X012856Y006997D02*
X012803Y006997D01*
X012803Y006898D02*
X012816Y006898D01*
X012797Y006800D02*
X012709Y006800D01*
X012797Y006701D02*
X012611Y006701D01*
X012512Y006603D02*
X012797Y006603D01*
X013095Y007292D02*
X014603Y007292D01*
X014424Y008869D02*
X013890Y008869D01*
X014093Y008968D02*
X014222Y008968D01*
X014890Y008869D02*
X015424Y008869D01*
X015222Y008968D02*
X015093Y008968D01*
X013424Y008869D02*
X012890Y008869D01*
X013093Y008968D02*
X013222Y008968D01*
X012780Y008475D02*
X010035Y008475D01*
X010248Y008376D02*
X012567Y008376D01*
X012468Y008278D02*
X010346Y008278D01*
X010445Y008179D02*
X012370Y008179D01*
X012271Y008081D02*
X010544Y008081D01*
X010642Y007982D02*
X012173Y007982D01*
X012074Y007884D02*
X010741Y007884D01*
X010946Y007785D02*
X011869Y007785D01*
X011890Y008869D02*
X012424Y008869D01*
X012222Y008968D02*
X012093Y008968D01*
X011424Y008869D02*
X010890Y008869D01*
X011093Y008968D02*
X011222Y008968D01*
X010424Y008869D02*
X009890Y008869D01*
X010093Y008968D02*
X010222Y008968D01*
X009424Y008869D02*
X008890Y008869D01*
X009093Y008968D02*
X009222Y008968D01*
X008424Y008869D02*
X007890Y008869D01*
X008093Y008968D02*
X008222Y008968D01*
X007424Y008869D02*
X006890Y008869D01*
X007093Y008968D02*
X007222Y008968D01*
X006424Y008869D02*
X005890Y008869D01*
X006093Y008968D02*
X006222Y008968D01*
X005780Y008475D02*
X000527Y008475D01*
X000527Y007391D02*
X002766Y007391D01*
X002603Y007292D02*
X000527Y007292D01*
X000527Y007194D02*
X001085Y007194D01*
X001001Y007159D02*
X000869Y007027D01*
X000797Y006854D01*
X000797Y006491D01*
X001217Y006491D01*
X001217Y006391D01*
X000797Y006391D01*
X000797Y006027D01*
X000869Y005855D01*
X001001Y005722D01*
X001174Y005651D01*
X001217Y005651D01*
X001217Y006391D01*
X001317Y006391D01*
X001317Y005651D01*
X001361Y005651D01*
X001534Y005722D01*
X001666Y005855D01*
X001737Y006027D01*
X001737Y006391D01*
X001317Y006391D01*
X001317Y006491D01*
X001217Y006491D01*
X001217Y007231D01*
X001174Y007231D01*
X001001Y007159D01*
X000937Y007095D02*
X000527Y007095D01*
X000527Y006997D02*
X000856Y006997D01*
X000816Y006898D02*
X000527Y006898D01*
X000527Y006800D02*
X000797Y006800D01*
X000797Y006701D02*
X000527Y006701D01*
X000527Y006603D02*
X000797Y006603D01*
X000797Y006504D02*
X000527Y006504D01*
X000527Y006405D02*
X001217Y006405D01*
X001217Y006307D02*
X001317Y006307D01*
X001317Y006405D02*
X002357Y006405D01*
X002357Y006307D02*
X001737Y006307D01*
X001737Y006208D02*
X002357Y006208D01*
X002357Y006110D02*
X001737Y006110D01*
X001731Y006011D02*
X002357Y006011D01*
X002387Y005913D02*
X001690Y005913D01*
X001625Y005814D02*
X002427Y005814D01*
X002477Y005716D02*
X001517Y005716D01*
X001317Y005716D02*
X001217Y005716D01*
X001217Y005814D02*
X001317Y005814D01*
X001317Y005913D02*
X001217Y005913D01*
X001217Y006011D02*
X001317Y006011D01*
X001317Y006110D02*
X001217Y006110D01*
X001217Y006208D02*
X001317Y006208D01*
X001317Y006491D02*
X001737Y006491D01*
X001737Y006854D01*
X001666Y007027D01*
X001534Y007159D01*
X001361Y007231D01*
X001317Y007231D01*
X001317Y006491D01*
X001317Y006504D02*
X001217Y006504D01*
X001217Y006603D02*
X001317Y006603D01*
X001317Y006701D02*
X001217Y006701D01*
X001217Y006800D02*
X001317Y006800D01*
X001317Y006898D02*
X001217Y006898D01*
X001217Y006997D02*
X001317Y006997D01*
X001317Y007095D02*
X001217Y007095D01*
X001217Y007194D02*
X001317Y007194D01*
X001450Y007194D02*
X002505Y007194D01*
X002439Y007095D02*
X001598Y007095D01*
X001678Y006997D02*
X002398Y006997D01*
X002357Y006898D02*
X001719Y006898D01*
X001737Y006800D02*
X002357Y006800D01*
X002357Y006701D02*
X001737Y006701D01*
X001737Y006603D02*
X002357Y006603D01*
X002357Y006504D02*
X001737Y006504D01*
X000845Y005913D02*
X000527Y005913D01*
X000527Y006011D02*
X000804Y006011D01*
X000797Y006110D02*
X000527Y006110D01*
X000527Y006208D02*
X000797Y006208D01*
X000797Y006307D02*
X000527Y006307D01*
X000527Y005814D02*
X000909Y005814D01*
X001017Y005716D02*
X000527Y005716D01*
X000527Y005617D02*
X002477Y005617D01*
X002477Y005519D02*
X000527Y005519D01*
X000527Y005420D02*
X002477Y005420D01*
X002477Y005321D02*
X000527Y005321D01*
X000527Y005223D02*
X002477Y005223D01*
X002477Y005124D02*
X000527Y005124D01*
X000527Y005026D02*
X002477Y005026D01*
X002477Y004927D02*
X000527Y004927D01*
X000527Y004829D02*
X002477Y004829D01*
X002477Y004730D02*
X000527Y004730D01*
X000527Y004632D02*
X001079Y004632D01*
X001001Y004599D02*
X000869Y004467D01*
X000797Y004294D01*
X000797Y003931D01*
X001217Y003931D01*
X001217Y003831D01*
X000797Y003831D01*
X000797Y003467D01*
X000869Y003295D01*
X001001Y003162D01*
X001174Y003091D01*
X001217Y003091D01*
X001217Y003831D01*
X001317Y003831D01*
X001317Y003091D01*
X001361Y003091D01*
X001534Y003162D01*
X001666Y003295D01*
X001737Y003467D01*
X001737Y003831D01*
X001317Y003831D01*
X001317Y003931D01*
X001217Y003931D01*
X001217Y004671D01*
X001174Y004671D01*
X001001Y004599D01*
X000935Y004533D02*
X000527Y004533D01*
X000527Y004435D02*
X000855Y004435D01*
X000815Y004336D02*
X000527Y004336D01*
X000527Y004237D02*
X000797Y004237D01*
X000797Y004139D02*
X000527Y004139D01*
X000527Y004040D02*
X000797Y004040D01*
X000797Y003942D02*
X000527Y003942D01*
X000527Y003843D02*
X001217Y003843D01*
X001217Y003745D02*
X001317Y003745D01*
X001317Y003843D02*
X002357Y003843D01*
X002357Y003745D02*
X001737Y003745D01*
X001737Y003646D02*
X002357Y003646D01*
X002357Y003548D02*
X001737Y003548D01*
X001730Y003449D02*
X002357Y003449D01*
X002388Y003351D02*
X001689Y003351D01*
X001623Y003252D02*
X002428Y003252D01*
X002479Y003154D02*
X001512Y003154D01*
X001317Y003154D02*
X001217Y003154D01*
X001217Y003252D02*
X001317Y003252D01*
X001317Y003351D02*
X001217Y003351D01*
X001217Y003449D02*
X001317Y003449D01*
X001317Y003548D02*
X001217Y003548D01*
X001217Y003646D02*
X001317Y003646D01*
X001317Y003931D02*
X001737Y003931D01*
X001737Y004294D01*
X001666Y004467D01*
X001534Y004599D01*
X001361Y004671D01*
X001317Y004671D01*
X001317Y003931D01*
X001317Y003942D02*
X001217Y003942D01*
X001217Y004040D02*
X001317Y004040D01*
X001317Y004139D02*
X001217Y004139D01*
X001217Y004237D02*
X001317Y004237D01*
X001317Y004336D02*
X001217Y004336D01*
X001217Y004435D02*
X001317Y004435D01*
X001317Y004533D02*
X001217Y004533D01*
X001217Y004632D02*
X001317Y004632D01*
X001455Y004632D02*
X002477Y004632D01*
X002438Y004533D02*
X001600Y004533D01*
X001679Y004435D02*
X002397Y004435D01*
X002357Y004336D02*
X001720Y004336D01*
X001737Y004237D02*
X002357Y004237D01*
X002357Y004139D02*
X001737Y004139D01*
X001737Y004040D02*
X002357Y004040D01*
X002357Y003942D02*
X001737Y003942D01*
X001022Y003154D02*
X000527Y003154D01*
X000527Y003252D02*
X000911Y003252D01*
X000846Y003351D02*
X000527Y003351D01*
X000527Y003449D02*
X000805Y003449D01*
X000797Y003548D02*
X000527Y003548D01*
X000527Y003646D02*
X000797Y003646D01*
X000797Y003745D02*
X000527Y003745D01*
X000527Y003055D02*
X002577Y003055D01*
X002703Y002956D02*
X000527Y002956D01*
X000527Y002858D02*
X003264Y002858D01*
X003363Y002759D02*
X000527Y002759D01*
X000527Y002661D02*
X003485Y002661D01*
X002436Y001872D02*
X012640Y001872D01*
X012738Y001774D02*
X002457Y001774D01*
X002457Y001675D02*
X012840Y001675D01*
X012541Y001971D02*
X002395Y001971D01*
X002354Y002070D02*
X012442Y002070D01*
X012344Y002168D02*
X002281Y002168D01*
X002183Y002267D02*
X012245Y002267D01*
X012147Y002365D02*
X002047Y002365D01*
X001267Y002365D02*
X000527Y002365D01*
X000527Y002267D02*
X001132Y002267D01*
X001033Y002168D02*
X000527Y002168D01*
X000527Y002070D02*
X000961Y002070D01*
X000920Y001971D02*
X000527Y001971D01*
X000527Y001872D02*
X000879Y001872D01*
X000857Y001774D02*
X000527Y001774D01*
X000527Y001675D02*
X000857Y001675D01*
X000857Y001577D02*
X000527Y001577D01*
X000527Y001478D02*
X000867Y001478D01*
X000908Y001380D02*
X000527Y001380D01*
X000527Y001281D02*
X000949Y001281D01*
X001004Y001183D02*
X000527Y001183D01*
X000527Y001084D02*
X001103Y001084D01*
X001201Y000986D02*
X000527Y000986D01*
X000527Y000887D02*
X001435Y000887D01*
X000527Y002464D02*
X012048Y002464D01*
X004843Y002562D02*
X000527Y002562D01*
X019279Y009165D02*
X025355Y009165D01*
X025454Y009263D02*
X019320Y009263D01*
X019361Y009362D02*
X025552Y009362D01*
X025744Y009460D02*
X019382Y009460D01*
X019934Y009756D02*
X020381Y009756D01*
X020223Y009854D02*
X020092Y009854D01*
X020934Y009756D02*
X021381Y009756D01*
X021223Y009854D02*
X021092Y009854D01*
X022250Y010052D02*
X022337Y010052D01*
X022834Y009953D02*
X023480Y009953D01*
X023619Y009953D02*
X023696Y009953D01*
X023696Y010052D02*
X023619Y010052D01*
X023619Y010150D02*
X023696Y010150D01*
X023696Y010249D02*
X023619Y010249D01*
X023619Y010347D02*
X023696Y010347D01*
X023696Y010446D02*
X023619Y010446D01*
X023619Y010544D02*
X023696Y010544D01*
X023210Y010544D02*
X023104Y010544D01*
X023104Y010446D02*
X023210Y010446D01*
X023210Y010347D02*
X023104Y010347D01*
X023094Y010249D02*
X023221Y010249D01*
X023262Y010150D02*
X023053Y010150D01*
X022978Y010052D02*
X023337Y010052D01*
X023834Y009953D02*
X024124Y009953D01*
X024064Y010052D02*
X023978Y010052D01*
X021294Y011530D02*
X021020Y011530D01*
X021128Y011431D02*
X021187Y011431D01*
X030383Y019118D02*
X031063Y019118D01*
X031090Y019216D02*
X030544Y019216D01*
X030643Y019315D02*
X031131Y019315D01*
X031185Y019413D02*
X030691Y019413D01*
X030732Y019512D02*
X031133Y019512D01*
X031093Y019610D02*
X030745Y019610D01*
X030745Y019709D02*
X031063Y019709D01*
X031063Y019807D02*
X030733Y019807D01*
X030727Y019906D02*
X031063Y019906D01*
X031090Y020004D02*
X030727Y020004D01*
X030727Y020103D02*
X031131Y020103D01*
X031186Y020201D02*
X030727Y020201D01*
X030727Y020300D02*
X031133Y020300D01*
X031092Y020399D02*
X030727Y020399D01*
X030727Y020497D02*
X031063Y020497D01*
X031063Y020596D02*
X030727Y020596D01*
X030727Y020694D02*
X031063Y020694D01*
X031091Y020793D02*
X030727Y020793D01*
X030727Y020891D02*
X031131Y020891D01*
X031187Y020990D02*
X030727Y020990D01*
X030727Y021088D02*
X031133Y021088D01*
X031092Y021187D02*
X030727Y021187D01*
X030727Y021285D02*
X031063Y021285D01*
X031063Y021384D02*
X030727Y021384D01*
X030727Y021483D02*
X031063Y021483D01*
X031091Y021581D02*
X030727Y021581D01*
X030727Y021680D02*
X031132Y021680D01*
X031188Y021778D02*
X030727Y021778D01*
X030727Y021877D02*
X031132Y021877D01*
X031091Y021975D02*
X030727Y021975D01*
X030727Y022074D02*
X031063Y022074D01*
X031063Y022172D02*
X030727Y022172D01*
X030727Y022271D02*
X031063Y022271D01*
X031091Y022369D02*
X030727Y022369D01*
X030727Y022468D02*
X031132Y022468D01*
X031188Y022567D02*
X030727Y022567D01*
X030727Y022665D02*
X031132Y022665D01*
X031091Y022764D02*
X030727Y022764D01*
X030727Y022862D02*
X031063Y022862D01*
X031063Y022961D02*
X030727Y022961D01*
X030727Y023059D02*
X031063Y023059D01*
X031092Y023158D02*
X030727Y023158D01*
X030727Y023256D02*
X031133Y023256D01*
X031187Y023355D02*
X030727Y023355D01*
X030727Y023453D02*
X031131Y023453D01*
X031091Y023552D02*
X030727Y023552D01*
X030727Y023651D02*
X031063Y023651D01*
X031063Y023749D02*
X030727Y023749D01*
X030727Y023848D02*
X031063Y023848D01*
X031092Y023946D02*
X030727Y023946D01*
X030727Y024045D02*
X031133Y024045D01*
X031186Y024143D02*
X030727Y024143D01*
X030727Y024242D02*
X031131Y024242D01*
X031090Y024340D02*
X030727Y024340D01*
X030727Y024439D02*
X031063Y024439D01*
X031063Y024537D02*
X030727Y024537D01*
X030727Y024636D02*
X031063Y024636D01*
X031092Y024734D02*
X030727Y024734D01*
X030727Y024833D02*
X031133Y024833D01*
X031192Y024932D02*
X030734Y024932D01*
X030833Y025030D02*
X031290Y025030D01*
X031452Y025129D02*
X030931Y025129D01*
X031030Y025227D02*
X031896Y025227D01*
X031855Y025326D02*
X031128Y025326D01*
X031227Y025424D02*
X031850Y025424D01*
X031850Y025523D02*
X031325Y025523D01*
X031424Y025621D02*
X031866Y025621D01*
X031907Y025720D02*
X031523Y025720D01*
X031621Y025818D02*
X031955Y025818D01*
X032054Y025917D02*
X031720Y025917D01*
X031818Y026016D02*
X032208Y026016D01*
X032015Y026213D02*
X032947Y026213D01*
X032947Y026114D02*
X031917Y026114D01*
X032114Y026311D02*
X032974Y026311D01*
X033018Y026410D02*
X032212Y026410D01*
X032311Y026508D02*
X033117Y026508D01*
X033016Y026607D02*
X032409Y026607D01*
X032508Y026705D02*
X032913Y026705D01*
X032822Y026804D02*
X032606Y026804D01*
X032705Y026902D02*
X032781Y026902D01*
X032706Y026016D02*
X032972Y026016D01*
X033013Y025917D02*
X033134Y025796D01*
X033173Y025780D01*
X033011Y025713D01*
X032973Y025805D01*
X032802Y025976D01*
X032959Y025818D02*
X033112Y025818D01*
X033029Y025720D02*
X033008Y025720D01*
X038253Y028873D02*
X038376Y028873D01*
X038607Y028873D02*
X038707Y028873D01*
X038707Y028972D02*
X038607Y028972D01*
X038607Y029070D02*
X038707Y029070D01*
X038707Y029169D02*
X038607Y029169D01*
X038607Y029267D02*
X038707Y029267D01*
X038707Y029366D02*
X038607Y029366D01*
X038607Y029465D02*
X038707Y029465D01*
X038707Y029563D02*
X038607Y029563D01*
X031114Y031041D02*
X027890Y031041D01*
X027988Y031140D02*
X031015Y031140D01*
X031012Y031238D02*
X028083Y031238D01*
X028083Y031337D02*
X031012Y031337D01*
X031012Y031435D02*
X028083Y031435D01*
X028083Y031430D02*
X028083Y031587D01*
X027834Y031836D01*
X027676Y031836D01*
X027676Y031430D01*
X028083Y031430D01*
X028083Y031534D02*
X031012Y031534D01*
X031012Y031633D02*
X028037Y031633D01*
X027939Y031731D02*
X031065Y031731D01*
X031163Y031830D02*
X027840Y031830D01*
X027676Y031830D02*
X027638Y031830D01*
X027638Y031731D02*
X027676Y031731D01*
X027676Y031633D02*
X027638Y031633D01*
X027638Y031534D02*
X027676Y031534D01*
X027676Y031435D02*
X027638Y031435D01*
X027638Y031337D02*
X027676Y031337D01*
X027676Y031238D02*
X027638Y031238D01*
X027638Y031140D02*
X027676Y031140D01*
X027676Y031041D02*
X027638Y031041D01*
X027340Y030549D02*
X026975Y030549D01*
X027109Y030450D02*
X027206Y030450D01*
X027975Y030549D02*
X028340Y030549D01*
X028206Y030450D02*
X028109Y030450D01*
X028975Y030549D02*
X029340Y030549D01*
X029206Y030450D02*
X029109Y030450D01*
X029975Y030549D02*
X030340Y030549D01*
X030206Y030450D02*
X030109Y030450D01*
X026340Y030549D02*
X025975Y030549D01*
X026109Y030450D02*
X026206Y030450D01*
X025340Y030549D02*
X024975Y030549D01*
X025109Y030450D02*
X025206Y030450D01*
X025270Y031633D02*
X025097Y031633D01*
X024713Y031633D02*
X024452Y031633D01*
X024068Y031633D02*
X023895Y031633D01*
X023840Y033012D02*
X023949Y033012D01*
X023391Y033012D02*
X023282Y033012D01*
X023236Y033031D02*
X023236Y033031D01*
X023007Y033012D02*
X022935Y033012D01*
X022706Y033031D02*
X022706Y033031D01*
X022706Y033031D01*
X022660Y033012D02*
X000527Y033012D01*
X000527Y032914D02*
X001384Y032914D01*
X001180Y032815D02*
X000527Y032815D01*
X000527Y032716D02*
X001082Y032716D01*
X000983Y032618D02*
X000527Y032618D01*
X000527Y032519D02*
X000940Y032519D01*
X000899Y032421D02*
X000527Y032421D01*
X000527Y032322D02*
X000858Y032322D01*
X000857Y032224D02*
X000527Y032224D01*
X000527Y032125D02*
X000857Y032125D01*
X000857Y032027D02*
X000527Y032027D01*
X000527Y031928D02*
X000888Y031928D01*
X000929Y031830D02*
X000527Y031830D01*
X000527Y031731D02*
X000969Y031731D01*
X001054Y031633D02*
X000527Y031633D01*
X000527Y031534D02*
X001153Y031534D01*
X001318Y031435D02*
X000527Y031435D01*
X000527Y031337D02*
X003153Y031337D01*
X003153Y031435D02*
X001997Y031435D01*
X002162Y031534D02*
X003153Y031534D01*
X003153Y031238D02*
X000527Y031238D01*
X000527Y031140D02*
X003180Y031140D01*
X003221Y031041D02*
X000527Y031041D01*
X000527Y030943D02*
X003308Y030943D01*
X003584Y030647D02*
X004087Y030647D01*
X004087Y030549D02*
X003682Y030549D01*
X003781Y030450D02*
X004087Y030450D01*
X004087Y030351D02*
X003803Y030351D01*
X003803Y030253D02*
X004087Y030253D01*
X004087Y030154D02*
X003803Y030154D01*
X003803Y030056D02*
X004087Y030056D01*
X004087Y029957D02*
X003803Y029957D01*
X003768Y029859D02*
X004087Y029859D01*
X004087Y029760D02*
X003670Y029760D01*
X003571Y029662D02*
X004087Y029662D01*
X004087Y029563D02*
X003473Y029563D01*
X002842Y029563D02*
X002727Y029563D01*
X002727Y029465D02*
X004087Y029465D01*
X004087Y029366D02*
X002727Y029366D01*
X002727Y029267D02*
X004087Y029267D01*
X004087Y029169D02*
X002727Y029169D01*
X002727Y029070D02*
X004087Y029070D01*
X004087Y028972D02*
X002727Y028972D01*
X002727Y028873D02*
X004087Y028873D01*
X004087Y028775D02*
X002727Y028775D01*
X002727Y028676D02*
X004087Y028676D01*
X004087Y028578D02*
X002727Y028578D01*
X002727Y028479D02*
X004087Y028479D01*
X004087Y028381D02*
X002727Y028381D01*
X002727Y028282D02*
X004087Y028282D01*
X004087Y028184D02*
X002727Y028184D01*
X002727Y028085D02*
X004087Y028085D01*
X004087Y027986D02*
X002727Y027986D01*
X002727Y027888D02*
X004028Y027888D01*
X003987Y027789D02*
X002727Y027789D01*
X002727Y027691D02*
X003946Y027691D01*
X003933Y027592D02*
X002727Y027592D01*
X002727Y027494D02*
X003933Y027494D01*
X003933Y027395D02*
X002729Y027395D01*
X002828Y027297D02*
X003933Y027297D01*
X003933Y027198D02*
X002926Y027198D01*
X003025Y027100D02*
X003933Y027100D01*
X003933Y027001D02*
X003123Y027001D01*
X003222Y026902D02*
X003933Y026902D01*
X003933Y026804D02*
X003427Y026804D01*
X003526Y026705D02*
X003933Y026705D01*
X003956Y026607D02*
X003624Y026607D01*
X003723Y026508D02*
X003997Y026508D01*
X004038Y026410D02*
X003803Y026410D01*
X003803Y026311D02*
X004128Y026311D01*
X004227Y026213D02*
X003803Y026213D01*
X003803Y026114D02*
X004436Y026114D01*
X004364Y025818D02*
X003951Y025818D01*
X003803Y025917D02*
X008045Y025917D01*
X007972Y025818D02*
X007951Y025818D01*
X008143Y026016D02*
X003803Y026016D01*
X004879Y026114D02*
X008242Y026114D01*
X008341Y026213D02*
X005088Y026213D01*
X005186Y026311D02*
X006535Y026311D01*
X006557Y026302D02*
X006372Y026379D01*
X006230Y026521D01*
X006153Y026706D01*
X006153Y027132D01*
X006628Y027132D01*
X006628Y027190D01*
X006153Y027190D01*
X006153Y027615D01*
X006230Y027801D01*
X006372Y027943D01*
X006557Y028019D01*
X006629Y028019D01*
X006629Y027190D01*
X006686Y027190D01*
X006686Y028019D01*
X006758Y028019D01*
X006943Y027943D01*
X007085Y027801D01*
X007162Y027615D01*
X007162Y027190D01*
X006686Y027190D01*
X006686Y027132D01*
X006686Y026302D01*
X006758Y026302D01*
X006943Y026379D01*
X007085Y026521D01*
X007162Y026706D01*
X007162Y027132D01*
X006686Y027132D01*
X006629Y027132D01*
X006629Y026302D01*
X006557Y026302D01*
X006629Y026311D02*
X006686Y026311D01*
X006779Y026311D02*
X008249Y026311D01*
X008192Y026410D02*
X006974Y026410D01*
X007072Y026508D02*
X008192Y026508D01*
X008192Y026607D02*
X007120Y026607D01*
X007161Y026705D02*
X008192Y026705D01*
X008243Y026804D02*
X007162Y026804D01*
X007162Y026902D02*
X008341Y026902D01*
X008440Y027001D02*
X007162Y027001D01*
X007162Y027100D02*
X008582Y027100D01*
X008627Y027001D02*
X008680Y027001D01*
X008687Y026902D02*
X008627Y026902D01*
X008627Y026804D02*
X008687Y026804D01*
X008687Y026705D02*
X008627Y026705D01*
X008627Y026607D02*
X008687Y026607D01*
X008688Y026591D02*
X009090Y026591D01*
X009801Y025881D01*
X009514Y025881D01*
X009342Y025810D01*
X009342Y025844D01*
X008970Y026216D01*
X009122Y026368D01*
X009122Y026531D01*
X008688Y026531D01*
X008688Y026591D01*
X009122Y026508D02*
X009173Y026508D01*
X009122Y026410D02*
X009272Y026410D01*
X009370Y026311D02*
X009065Y026311D01*
X008974Y026213D02*
X009469Y026213D01*
X009567Y026114D02*
X009073Y026114D01*
X009171Y026016D02*
X009666Y026016D01*
X009764Y025917D02*
X009270Y025917D01*
X009342Y025818D02*
X009364Y025818D01*
X008483Y027198D02*
X007162Y027198D01*
X007162Y027297D02*
X008385Y027297D01*
X008286Y027395D02*
X007162Y027395D01*
X007162Y027494D02*
X008188Y027494D01*
X008089Y027592D02*
X007162Y027592D01*
X007130Y027691D02*
X007990Y027691D01*
X007892Y027789D02*
X007090Y027789D01*
X006998Y027888D02*
X007793Y027888D01*
X007695Y027986D02*
X006837Y027986D01*
X006686Y027986D02*
X006629Y027986D01*
X006629Y027888D02*
X006686Y027888D01*
X006686Y027789D02*
X006629Y027789D01*
X006629Y027691D02*
X006686Y027691D01*
X006686Y027592D02*
X006629Y027592D01*
X006629Y027494D02*
X006686Y027494D01*
X006686Y027395D02*
X006629Y027395D01*
X006629Y027297D02*
X006686Y027297D01*
X006686Y027198D02*
X006629Y027198D01*
X006629Y027100D02*
X006686Y027100D01*
X006686Y027001D02*
X006629Y027001D01*
X006629Y026902D02*
X006686Y026902D01*
X006686Y026804D02*
X006629Y026804D01*
X006629Y026705D02*
X006686Y026705D01*
X006686Y026607D02*
X006629Y026607D01*
X006629Y026508D02*
X006686Y026508D01*
X006686Y026410D02*
X006629Y026410D01*
X006341Y026410D02*
X005277Y026410D01*
X005318Y026508D02*
X006242Y026508D01*
X006194Y026607D02*
X005359Y026607D01*
X005382Y026705D02*
X006153Y026705D01*
X006153Y026804D02*
X005382Y026804D01*
X005382Y026902D02*
X006153Y026902D01*
X006153Y027001D02*
X005382Y027001D01*
X005382Y027100D02*
X006153Y027100D01*
X006153Y027198D02*
X005382Y027198D01*
X005382Y027297D02*
X006153Y027297D01*
X006153Y027395D02*
X005382Y027395D01*
X005382Y027494D02*
X006153Y027494D01*
X006153Y027592D02*
X005382Y027592D01*
X005369Y027691D02*
X006184Y027691D01*
X006225Y027789D02*
X005328Y027789D01*
X005287Y027888D02*
X006317Y027888D01*
X006477Y027986D02*
X005227Y027986D01*
X005227Y028085D02*
X005506Y028085D01*
X005268Y028184D02*
X005227Y028184D01*
X005808Y028085D02*
X007596Y028085D01*
X007498Y028184D02*
X006046Y028184D01*
X006157Y028282D02*
X007399Y028282D01*
X007301Y028381D02*
X006256Y028381D01*
X006306Y028479D02*
X007202Y028479D01*
X007104Y028578D02*
X006346Y028578D01*
X006382Y028676D02*
X007005Y028676D01*
X006906Y028775D02*
X006382Y028775D01*
X006382Y028873D02*
X006808Y028873D01*
X006709Y028972D02*
X006382Y028972D01*
X006382Y029070D02*
X006611Y029070D01*
X006512Y029169D02*
X006382Y029169D01*
X006382Y029267D02*
X006414Y029267D01*
X007851Y029104D02*
X007990Y029162D01*
X008156Y029328D01*
X008245Y029544D01*
X008245Y029778D01*
X008227Y029821D01*
X008227Y030285D01*
X008674Y029838D01*
X008834Y029678D01*
X009044Y029591D01*
X011171Y029591D01*
X011337Y029425D01*
X011337Y028013D01*
X011288Y027895D01*
X011272Y027934D01*
X011151Y028055D01*
X010993Y028121D01*
X010937Y028121D01*
X010937Y027441D01*
X010877Y027441D01*
X010877Y027381D01*
X010477Y027381D01*
X010477Y027284D01*
X010397Y027364D01*
X010397Y028238D01*
X010553Y028393D01*
X010553Y028928D01*
X010175Y029306D01*
X009640Y029306D01*
X009262Y028928D01*
X009262Y028393D01*
X009417Y028238D01*
X009417Y027538D01*
X007851Y029104D01*
X007884Y029070D02*
X009404Y029070D01*
X009305Y028972D02*
X007983Y028972D01*
X008082Y028873D02*
X009262Y028873D01*
X009262Y028775D02*
X008180Y028775D01*
X008279Y028676D02*
X009262Y028676D01*
X009262Y028578D02*
X008377Y028578D01*
X008476Y028479D02*
X009262Y028479D01*
X009275Y028381D02*
X008574Y028381D01*
X008673Y028282D02*
X009373Y028282D01*
X009417Y028184D02*
X008771Y028184D01*
X008870Y028085D02*
X009417Y028085D01*
X009417Y027986D02*
X008968Y027986D01*
X009067Y027888D02*
X009417Y027888D01*
X009417Y027789D02*
X009166Y027789D01*
X009264Y027691D02*
X009417Y027691D01*
X009417Y027592D02*
X009363Y027592D01*
X010397Y027592D02*
X010477Y027592D01*
X010477Y027494D02*
X010397Y027494D01*
X010477Y027441D02*
X010877Y027441D01*
X010877Y028121D01*
X010822Y028121D01*
X010664Y028055D01*
X010543Y027934D01*
X010477Y027776D01*
X010477Y027441D01*
X010397Y027395D02*
X010877Y027395D01*
X010877Y027494D02*
X010937Y027494D01*
X010937Y027592D02*
X010877Y027592D01*
X010877Y027691D02*
X010937Y027691D01*
X010937Y027789D02*
X010877Y027789D01*
X010877Y027888D02*
X010937Y027888D01*
X010937Y027986D02*
X010877Y027986D01*
X010877Y028085D02*
X010937Y028085D01*
X011079Y028085D02*
X011337Y028085D01*
X011337Y028184D02*
X010397Y028184D01*
X010397Y028085D02*
X010735Y028085D01*
X010595Y027986D02*
X010397Y027986D01*
X010397Y027888D02*
X010524Y027888D01*
X010483Y027789D02*
X010397Y027789D01*
X010397Y027691D02*
X010477Y027691D01*
X010464Y027297D02*
X010477Y027297D01*
X011220Y027986D02*
X011326Y027986D01*
X011337Y028282D02*
X010441Y028282D01*
X010540Y028381D02*
X011337Y028381D01*
X011337Y028479D02*
X010553Y028479D01*
X010553Y028578D02*
X011337Y028578D01*
X011337Y028676D02*
X010553Y028676D01*
X010553Y028775D02*
X011337Y028775D01*
X011337Y028873D02*
X010553Y028873D01*
X010509Y028972D02*
X011337Y028972D01*
X011337Y029070D02*
X010411Y029070D01*
X010312Y029169D02*
X011337Y029169D01*
X011337Y029267D02*
X010214Y029267D01*
X009601Y029267D02*
X008096Y029267D01*
X008172Y029366D02*
X011337Y029366D01*
X011297Y029465D02*
X008213Y029465D01*
X008245Y029563D02*
X011199Y029563D01*
X009503Y029169D02*
X007997Y029169D01*
X008245Y029662D02*
X008873Y029662D01*
X008752Y029760D02*
X008245Y029760D01*
X008227Y029859D02*
X008653Y029859D01*
X008555Y029957D02*
X008227Y029957D01*
X008227Y030056D02*
X008456Y030056D01*
X008358Y030154D02*
X008227Y030154D01*
X008227Y030253D02*
X008259Y030253D01*
X004024Y030943D02*
X004007Y030943D01*
X002829Y030746D02*
X002492Y030746D01*
X002590Y030647D02*
X002731Y030647D01*
X001626Y030549D02*
X001378Y030549D01*
X001476Y030450D02*
X001527Y030450D01*
X001187Y030450D02*
X001127Y030450D01*
X001127Y030549D02*
X001187Y030549D01*
X001187Y030351D02*
X001127Y030351D01*
X001127Y030253D02*
X001187Y030253D01*
X000727Y030056D02*
X000527Y030056D01*
X000527Y029957D02*
X000753Y029957D01*
X000851Y029859D02*
X000527Y029859D01*
X002727Y029662D02*
X002743Y029662D01*
X002134Y032815D02*
X022401Y032815D01*
X022490Y032914D02*
X001930Y032914D01*
X004951Y025818D02*
X005364Y025818D01*
X005951Y025818D02*
X006364Y025818D01*
X006951Y025818D02*
X007364Y025818D01*
X018557Y027494D02*
X018959Y027494D01*
X018918Y027395D02*
X018616Y027395D01*
X018714Y027297D02*
X018877Y027297D01*
X018869Y027198D02*
X018813Y027198D01*
X019057Y027592D02*
X018557Y027592D01*
X022229Y028775D02*
X022586Y028775D01*
X022454Y028873D02*
X022361Y028873D01*
X025828Y031633D02*
X025915Y031633D01*
X025970Y033012D02*
X025774Y033012D01*
X025325Y033012D02*
X025216Y033012D01*
X024594Y033012D02*
X024571Y033012D01*
D26*
X020657Y022161D03*
X019657Y022161D03*
X018657Y022161D03*
X017657Y022161D03*
X016657Y022161D03*
X015657Y022161D03*
X014657Y022161D03*
X013657Y022161D03*
X012657Y022161D03*
X011657Y022161D03*
X010657Y022161D03*
X009657Y022161D03*
X008657Y022161D03*
X007657Y022161D03*
X006657Y022161D03*
X005657Y022161D03*
X004657Y022161D03*
X003657Y022161D03*
X002657Y022161D03*
X001657Y022161D03*
X001657Y023161D03*
X002657Y023161D03*
X002657Y024161D03*
X001657Y024161D03*
X001657Y025161D03*
X002657Y025161D03*
X003657Y025161D03*
X004657Y025161D03*
X004657Y024161D03*
X003657Y024161D03*
X003657Y023161D03*
X004657Y023161D03*
X005657Y023161D03*
X006657Y023161D03*
X007657Y023161D03*
X007657Y024161D03*
X006657Y024161D03*
X005657Y024161D03*
X005657Y025161D03*
X006657Y025161D03*
X007657Y025161D03*
X008657Y024161D03*
X009657Y024161D03*
X009657Y025161D03*
X009657Y023161D03*
X008657Y023161D03*
X008657Y021161D03*
X009657Y021161D03*
X009657Y020161D03*
X008657Y020161D03*
X007657Y020161D03*
X006657Y020161D03*
X005657Y020161D03*
X004657Y020161D03*
X003657Y020161D03*
X002657Y020161D03*
X001657Y020161D03*
X001657Y021161D03*
X002657Y021161D03*
X003657Y021161D03*
X004657Y021161D03*
X005657Y021161D03*
X006657Y021161D03*
X007657Y021161D03*
X007657Y019161D03*
X006657Y019161D03*
X005657Y019161D03*
X004657Y019161D03*
X003657Y019161D03*
X002657Y019161D03*
X001657Y019161D03*
X001657Y018161D03*
X002657Y018161D03*
X002657Y017161D03*
X001657Y017161D03*
X001657Y016161D03*
X002657Y016161D03*
X002657Y015161D03*
X001657Y015161D03*
X001657Y014161D03*
X002657Y014161D03*
X002657Y013161D03*
X001657Y013161D03*
X001657Y012161D03*
X002657Y012161D03*
X003657Y012161D03*
X004657Y012161D03*
X004657Y013161D03*
X003657Y013161D03*
X003657Y014161D03*
X004657Y014161D03*
X004657Y015161D03*
X003657Y015161D03*
X003657Y016161D03*
X004657Y016161D03*
X004657Y017161D03*
X003657Y017161D03*
X003657Y018161D03*
X004657Y018161D03*
X005657Y017161D03*
X006657Y017161D03*
X007657Y017161D03*
X007657Y018161D03*
X008657Y018161D03*
X009657Y018161D03*
X009657Y019161D03*
X008657Y019161D03*
X010657Y019161D03*
X011657Y019161D03*
X011657Y020161D03*
X010657Y020161D03*
X010657Y021161D03*
X011657Y021161D03*
X012657Y021161D03*
X013657Y021161D03*
X013657Y020161D03*
X012657Y020161D03*
X012657Y019161D03*
X013657Y019161D03*
X013657Y018161D03*
X012657Y018161D03*
X011657Y018161D03*
X010657Y018161D03*
X010657Y017161D03*
X011657Y017161D03*
X011657Y016161D03*
X010657Y016161D03*
X009657Y016161D03*
X008657Y016161D03*
X007657Y016161D03*
X006657Y016161D03*
X005657Y016161D03*
X005657Y015161D03*
X006657Y015161D03*
X007657Y015161D03*
X007657Y014161D03*
X006657Y014161D03*
X005657Y014161D03*
X005657Y013161D03*
X006657Y013161D03*
X007657Y013161D03*
X007657Y012161D03*
X006657Y012161D03*
X005657Y012161D03*
X008657Y012161D03*
X009657Y012161D03*
X009657Y013161D03*
X008657Y013161D03*
X008657Y014161D03*
X009657Y014161D03*
X009657Y015161D03*
X008657Y015161D03*
X010657Y015161D03*
X011657Y015161D03*
X011657Y014161D03*
X010657Y014161D03*
X010657Y013161D03*
X011657Y013161D03*
X011657Y012161D03*
X010657Y012161D03*
X012657Y012161D03*
X013657Y012161D03*
X013657Y013161D03*
X012657Y013161D03*
X012657Y014161D03*
X013657Y014161D03*
X013657Y015161D03*
X012657Y015161D03*
X012657Y016161D03*
X013657Y016161D03*
X013657Y017161D03*
X012657Y017161D03*
X014657Y017161D03*
X015657Y017161D03*
X015657Y018161D03*
X014657Y018161D03*
X014657Y019161D03*
X015657Y019161D03*
X015657Y020161D03*
X014657Y020161D03*
X014657Y021161D03*
X015657Y021161D03*
X016657Y021161D03*
X017657Y021161D03*
X017657Y020161D03*
X016657Y020161D03*
X016657Y019161D03*
X017657Y019161D03*
X017657Y018161D03*
X016657Y018161D03*
X016657Y017161D03*
X017657Y017161D03*
X017657Y016161D03*
X016657Y016161D03*
X015657Y016161D03*
X014657Y016161D03*
X014657Y015161D03*
X015657Y015161D03*
X015657Y014161D03*
X014657Y014161D03*
X014657Y013161D03*
X015657Y013161D03*
X015657Y012161D03*
X014657Y012161D03*
X016657Y012161D03*
X017657Y012161D03*
X017657Y013161D03*
X016657Y013161D03*
X016657Y014161D03*
X017657Y014161D03*
X017657Y015161D03*
X016657Y015161D03*
X018657Y015161D03*
X019657Y015161D03*
X019657Y016161D03*
X018657Y016161D03*
X018657Y017161D03*
X019657Y017161D03*
X019657Y018161D03*
X018657Y018161D03*
X018657Y019161D03*
X019657Y019161D03*
X019657Y020161D03*
X018657Y020161D03*
X018657Y021161D03*
X019657Y021161D03*
X020657Y021161D03*
X020657Y020161D03*
X020657Y019161D03*
X020657Y018161D03*
X020657Y017161D03*
X020657Y016161D03*
X020657Y015161D03*
X020657Y014161D03*
X019657Y014161D03*
X018657Y014161D03*
X018657Y013161D03*
X019657Y013161D03*
X019657Y012161D03*
X018657Y012161D03*
X020657Y012161D03*
X020657Y013161D03*
X009657Y017161D03*
X008657Y017161D03*
D27*
X033407Y026161D02*
X033657Y026161D01*
D28*
X031657Y028536D02*
X026869Y023747D01*
X023327Y023747D01*
X023327Y022961D02*
X023327Y022960D01*
X023327Y022961D02*
X028157Y022961D01*
X028357Y023161D01*
X029157Y023161D01*
X029157Y023161D01*
X029157Y027161D02*
X030657Y028661D01*
X030657Y029661D01*
X031657Y029661D02*
X031657Y031411D01*
X031657Y029661D02*
X031657Y028536D01*
X036657Y027661D02*
X036657Y027161D01*
X036657Y027661D02*
X037657Y028661D01*
X037657Y029661D01*
X036937Y002771D02*
X034377Y002771D01*
X001267Y003881D02*
X001267Y006441D01*
D29*
X022157Y003161D03*
X034857Y017161D03*
D30*
X032657Y009661D03*
D31*
X016907Y024411D02*
X016907Y025161D01*
X017407Y025661D01*
X017407Y030411D01*
X017655Y030659D01*
X016655Y030659D02*
X016407Y030411D01*
X016407Y026411D01*
X015907Y025911D01*
X015907Y024411D01*
X014907Y024411D02*
X014907Y025661D01*
X015407Y026161D01*
X015407Y027911D01*
X015157Y029161D02*
X015157Y030161D01*
X015655Y030659D01*
X013907Y027411D02*
X013907Y026411D01*
X013407Y025911D01*
X013407Y023911D01*
X012907Y023411D01*
X011907Y023411D01*
X012907Y024411D02*
X012907Y026161D01*
X013405Y026659D01*
X014405Y025909D02*
X013907Y025411D01*
X013907Y024411D01*
X010157Y026161D02*
X006657Y029661D01*
X006657Y031661D01*
D32*
X008657Y025561D02*
X009057Y025161D01*
X009657Y025161D01*
X009657Y022161D01*
X016657Y022161D01*
X008657Y025561D02*
X008257Y025161D01*
X007657Y025161D01*
X006657Y025161D01*
X005657Y025161D01*
X004657Y025161D01*
X003657Y025161D01*
X002657Y025161D01*
X001657Y025161D01*
D33*
X010157Y026161D02*
X010307Y026011D01*
X010307Y023761D01*
X010657Y023411D01*
X011907Y023411D01*
X014405Y025909D02*
X014405Y028159D01*
X014657Y028411D01*
X014657Y031661D01*
X015657Y031661D02*
X015657Y030661D01*
X015655Y030659D01*
X016655Y030659D02*
X016657Y030661D01*
X016657Y031661D01*
X017657Y031661D02*
X017657Y030661D01*
X017655Y030659D01*
X015157Y029161D02*
X015157Y028911D01*
X015407Y028661D01*
X015407Y027911D01*
X014407Y026411D02*
X014405Y025909D01*
X013407Y026661D02*
X013407Y028211D01*
X013257Y028361D01*
X013257Y030011D01*
X013657Y030411D01*
X013657Y031661D01*
X013407Y026661D02*
X013405Y026659D01*
X032457Y025461D02*
X032857Y025161D01*
X032857Y022461D01*
X033157Y022161D01*
X032857Y021861D01*
X032857Y020261D01*
X033207Y019911D01*
X033657Y019911D01*
X033657Y022161D02*
X033157Y022161D01*
D34*
X020657Y022161D02*
X017657Y022161D01*
X016657Y022161D01*
D35*
X006657Y018161D03*
X005657Y018161D03*
D36*
X032457Y025461D03*
D37*
X038657Y032161D03*
X038657Y001661D03*
X001657Y001661D03*
X001657Y032161D03*
M02*
